<svg width="277" height="143" viewBox="0 0 277 143" fill="none" xmlns="http://www.w3.org/2000/svg">
<g filter="url(#filter0_d_709_181)">
<rect x="15" y="5.23535" width="227" height="92" rx="20" fill="white" shape-rendering="crispEdges"/>
<path d="M53.387 34.5375L55.25 42.4725L53.387 50.373L60.3215 54.651L64.565 61.5855L72.5 59.7225L80.435 61.5855L84.6785 54.651L91.613 50.373L89.75 42.4725L91.613 34.5375L84.713 30.2595L80.435 23.325L72.5 25.2225L64.5995 23.3595L60.287 30.2595L53.387 34.5375ZM72.5345 56.4105C68.8745 56.4105 65.3644 54.9565 62.7764 52.3685C60.1884 49.7805 58.7345 46.2704 58.7345 42.6105C58.7345 38.9505 60.1884 35.4404 62.7764 32.8524C65.3644 30.2644 68.8745 28.8105 72.5345 28.8105C80.1245 28.8105 86.3 34.986 86.3 42.576C86.3 50.235 80.1245 56.4105 72.5345 56.4105ZM72.4655 52.9605C66.7385 52.9605 62.15 48.3375 62.15 42.6105C62.15 36.918 66.7385 32.2605 72.4655 32.2605C78.1925 32.2605 82.85 36.918 82.85 42.6105C82.85 48.3375 78.1925 52.9605 72.4655 52.9605ZM85.7135 56.7555L81.2975 64.4835L74.1215 62.862L82.85 82.9755L87.68 75.3855H96.305L85.7135 56.7555ZM59.1485 56.997L63.461 64.7595L70.8095 63L62.15 82.9755L57.32 75.3855H48.695L59.1485 56.997Z" fill="#FF6B00"/>
<path d="M110.696 40.2934H113.358C114.326 40.2934 115.177 40.154 115.91 39.8754C116.658 39.5967 117.237 39.1934 117.648 38.6654C118.073 38.1227 118.286 37.47 118.286 36.7074C118.286 35.8274 118.073 35.1014 117.648 34.5294C117.237 33.9574 116.658 33.532 115.91 33.2534C115.177 32.9747 114.326 32.8354 113.358 32.8354H108.716V48.2354H113.622C114.707 48.2354 115.661 48.0814 116.482 47.7734C117.318 47.4507 117.971 46.9594 118.44 46.2994C118.924 45.6394 119.166 44.8034 119.166 43.7914C119.166 43.058 119.019 42.4274 118.726 41.8994C118.433 41.3714 118.022 40.9387 117.494 40.6014C116.981 40.264 116.394 40.0147 115.734 39.8534C115.074 39.692 114.37 39.6114 113.622 39.6114H110.696V41.0414H113.468C113.908 41.0414 114.311 41.0927 114.678 41.1954C115.045 41.2834 115.36 41.4374 115.624 41.6574C115.903 41.8627 116.115 42.1267 116.262 42.4494C116.423 42.7574 116.504 43.1167 116.504 43.5274C116.504 44.0994 116.372 44.576 116.108 44.9574C115.844 45.3387 115.485 45.6247 115.03 45.8154C114.575 46.006 114.055 46.1014 113.468 46.1014H111.312V34.9694H113.182C113.901 34.9694 114.487 35.1454 114.942 35.4974C115.397 35.8494 115.624 36.348 115.624 36.9934C115.624 37.4187 115.521 37.7854 115.316 38.0934C115.111 38.3867 114.825 38.614 114.458 38.7754C114.091 38.9367 113.666 39.0174 113.182 39.0174H110.696V40.2934ZM126.109 48.4554C127.283 48.4554 128.287 48.228 129.123 47.7734C129.959 47.3187 130.641 46.6367 131.169 45.7274L129.123 44.8914C128.801 45.434 128.397 45.8374 127.913 46.1014C127.429 46.3654 126.865 46.4974 126.219 46.4974C125.603 46.4974 125.075 46.3654 124.635 46.1014C124.21 45.8374 123.887 45.456 123.667 44.9574C123.447 44.444 123.337 43.8207 123.337 43.0874C123.352 42.354 123.469 41.738 123.689 41.2394C123.909 40.7407 124.232 40.3594 124.657 40.0954C125.083 39.8314 125.596 39.6994 126.197 39.6994C126.696 39.6994 127.129 39.8094 127.495 40.0294C127.877 40.2494 128.17 40.5574 128.375 40.9534C128.595 41.3494 128.705 41.8187 128.705 42.3614C128.705 42.464 128.676 42.596 128.617 42.7574C128.573 42.904 128.529 43.0214 128.485 43.1094L129.211 42.0974H122.347V43.7254H131.235C131.25 43.6667 131.257 43.5714 131.257 43.4394C131.272 43.3074 131.279 43.1827 131.279 43.0654C131.279 41.98 131.074 41.056 130.663 40.2934C130.267 39.516 129.695 38.922 128.947 38.5114C128.199 38.1007 127.29 37.8954 126.219 37.8954C125.149 37.8954 124.217 38.1154 123.425 38.5554C122.633 38.9807 122.017 39.5894 121.577 40.3814C121.152 41.1734 120.939 42.1047 120.939 43.1754C120.939 44.2314 121.152 45.1554 121.577 45.9474C122.003 46.7394 122.604 47.3554 123.381 47.7954C124.173 48.2354 125.083 48.4554 126.109 48.4554ZM134.009 44.9134L132.623 46.2994C132.917 46.6807 133.276 47.0474 133.701 47.3994C134.141 47.7367 134.647 48.0154 135.219 48.2354C135.806 48.4407 136.444 48.5434 137.133 48.5434C138.248 48.5434 139.128 48.2574 139.773 47.6854C140.433 47.0987 140.763 46.3287 140.763 45.3754C140.763 44.7594 140.617 44.2607 140.323 43.8794C140.045 43.498 139.671 43.1754 139.201 42.9114C138.732 42.6474 138.219 42.4054 137.661 42.1854C137.251 42.024 136.877 41.87 136.539 41.7234C136.217 41.5767 135.953 41.4154 135.747 41.2394C135.557 41.0487 135.461 40.836 135.461 40.6014C135.461 40.3227 135.571 40.11 135.791 39.9634C136.011 39.8167 136.29 39.7434 136.627 39.7434C137.126 39.7434 137.61 39.868 138.079 40.1174C138.549 40.3667 138.952 40.6894 139.289 41.0854L140.609 39.6774C140.331 39.34 139.993 39.0394 139.597 38.7754C139.201 38.5114 138.754 38.2987 138.255 38.1374C137.771 37.976 137.251 37.8954 136.693 37.8954C136.077 37.8954 135.498 37.998 134.955 38.2034C134.427 38.394 134.002 38.6947 133.679 39.1054C133.371 39.516 133.217 40.0294 133.217 40.6454C133.217 41.2467 133.357 41.7454 133.635 42.1414C133.929 42.5374 134.295 42.86 134.735 43.1094C135.19 43.344 135.645 43.5494 136.099 43.7254C136.554 43.8867 136.95 44.048 137.287 44.2094C137.625 44.356 137.889 44.5394 138.079 44.7594C138.27 44.9647 138.365 45.214 138.365 45.5074C138.365 45.8447 138.241 46.1087 137.991 46.2994C137.757 46.49 137.427 46.5854 137.001 46.5854C136.664 46.5854 136.327 46.5267 135.989 46.4094C135.652 46.2774 135.315 46.0867 134.977 45.8374C134.655 45.5734 134.332 45.2654 134.009 44.9134ZM141.464 38.1154V40.2054H147.206V38.1154H141.464ZM143.158 34.5954V48.2354H145.512V34.5954H143.158ZM155.638 32.8354V48.2354H158.278V32.8354H155.638ZM160.61 48.2354C162.179 48.2354 163.558 47.92 164.746 47.2894C165.934 46.644 166.858 45.7494 167.518 44.6054C168.193 43.4467 168.53 42.09 168.53 40.5354C168.53 38.9807 168.193 37.6314 167.518 36.4874C166.858 35.3287 165.934 34.434 164.746 33.8034C163.558 33.158 162.179 32.8354 160.61 32.8354H157.244V35.2774H160.544C161.307 35.2774 162.011 35.3874 162.656 35.6074C163.301 35.8274 163.859 36.1574 164.328 36.5974C164.812 37.0374 165.186 37.5874 165.45 38.2474C165.729 38.9074 165.868 39.67 165.868 40.5354C165.868 41.4007 165.729 42.1634 165.45 42.8234C165.186 43.4834 164.812 44.0334 164.328 44.4734C163.859 44.9134 163.301 45.2434 162.656 45.4634C162.011 45.6834 161.307 45.7934 160.544 45.7934H157.244V48.2354H160.61ZM175.266 48.4554C176.439 48.4554 177.444 48.228 178.28 47.7734C179.116 47.3187 179.798 46.6367 180.326 45.7274L178.28 44.8914C177.957 45.434 177.554 45.8374 177.07 46.1014C176.586 46.3654 176.021 46.4974 175.376 46.4974C174.76 46.4974 174.232 46.3654 173.792 46.1014C173.366 45.8374 173.044 45.456 172.824 44.9574C172.604 44.444 172.494 43.8207 172.494 43.0874C172.508 42.354 172.626 41.738 172.846 41.2394C173.066 40.7407 173.388 40.3594 173.814 40.0954C174.239 39.8314 174.752 39.6994 175.354 39.6994C175.852 39.6994 176.285 39.8094 176.652 40.0294C177.033 40.2494 177.326 40.5574 177.532 40.9534C177.752 41.3494 177.862 41.8187 177.862 42.3614C177.862 42.464 177.832 42.596 177.774 42.7574C177.73 42.904 177.686 43.0214 177.642 43.1094L178.368 42.0974H171.504V43.7254H180.392C180.406 43.6667 180.414 43.5714 180.414 43.4394C180.428 43.3074 180.436 43.1827 180.436 43.0654C180.436 41.98 180.23 41.056 179.82 40.2934C179.424 39.516 178.852 38.922 178.104 38.5114C177.356 38.1007 176.446 37.8954 175.376 37.8954C174.305 37.8954 173.374 38.1154 172.582 38.5554C171.79 38.9807 171.174 39.5894 170.734 40.3814C170.308 41.1734 170.096 42.1047 170.096 43.1754C170.096 44.2314 170.308 45.1554 170.734 45.9474C171.159 46.7394 171.76 47.3554 172.538 47.7954C173.33 48.2354 174.239 48.4554 175.266 48.4554ZM183.166 44.9134L181.78 46.2994C182.073 46.6807 182.432 47.0474 182.858 47.3994C183.298 47.7367 183.804 48.0154 184.376 48.2354C184.962 48.4407 185.6 48.5434 186.29 48.5434C187.404 48.5434 188.284 48.2574 188.93 47.6854C189.59 47.0987 189.92 46.3287 189.92 45.3754C189.92 44.7594 189.773 44.2607 189.48 43.8794C189.201 43.498 188.827 43.1754 188.358 42.9114C187.888 42.6474 187.375 42.4054 186.818 42.1854C186.407 42.024 186.033 41.87 185.696 41.7234C185.373 41.5767 185.109 41.4154 184.904 41.2394C184.713 41.0487 184.618 40.836 184.618 40.6014C184.618 40.3227 184.728 40.11 184.948 39.9634C185.168 39.8167 185.446 39.7434 185.784 39.7434C186.282 39.7434 186.766 39.868 187.236 40.1174C187.705 40.3667 188.108 40.6894 188.446 41.0854L189.766 39.6774C189.487 39.34 189.15 39.0394 188.754 38.7754C188.358 38.5114 187.91 38.2987 187.412 38.1374C186.928 37.976 186.407 37.8954 185.85 37.8954C185.234 37.8954 184.654 37.998 184.112 38.2034C183.584 38.394 183.158 38.6947 182.836 39.1054C182.528 39.516 182.374 40.0294 182.374 40.6454C182.374 41.2467 182.513 41.7454 182.792 42.1414C183.085 42.5374 183.452 42.86 183.892 43.1094C184.346 43.344 184.801 43.5494 185.256 43.7254C185.71 43.8867 186.106 44.048 186.444 44.2094C186.781 44.356 187.045 44.5394 187.236 44.7594C187.426 44.9647 187.522 45.214 187.522 45.5074C187.522 45.8447 187.397 46.1087 187.148 46.2994C186.913 46.49 186.583 46.5854 186.158 46.5854C185.82 46.5854 185.483 46.5267 185.146 46.4094C184.808 46.2774 184.471 46.0867 184.134 45.8374C183.811 45.5734 183.488 45.2654 183.166 44.9134ZM191.94 34.0894C191.94 34.4854 192.086 34.83 192.38 35.1234C192.688 35.402 193.04 35.5414 193.436 35.5414C193.861 35.5414 194.213 35.402 194.492 35.1234C194.785 34.83 194.932 34.4854 194.932 34.0894C194.932 33.6787 194.785 33.334 194.492 33.0554C194.213 32.7767 193.861 32.6374 193.436 32.6374C193.04 32.6374 192.688 32.7767 192.38 33.0554C192.086 33.334 191.94 33.6787 191.94 34.0894ZM192.27 38.1154V48.2354H194.602V38.1154H192.27ZM197.3 48.9174C197.329 49.7974 197.549 50.5747 197.96 51.2494C198.385 51.924 198.986 52.4447 199.764 52.8114C200.541 53.1927 201.48 53.3834 202.58 53.3834C203.504 53.3834 204.362 53.1854 205.154 52.7894C205.946 52.408 206.584 51.8214 207.068 51.0294C207.566 50.2374 207.816 49.2327 207.816 48.0154V38.1154H205.484V48.0154C205.484 48.778 205.337 49.4014 205.044 49.8854C204.765 50.3694 204.398 50.7287 203.944 50.9634C203.489 51.198 203.012 51.3154 202.514 51.3154C201.956 51.3154 201.465 51.2127 201.04 51.0074C200.614 50.802 200.277 50.516 200.028 50.1494C199.793 49.7827 199.668 49.372 199.654 48.9174H197.3ZM197.102 43.1314C197.102 44.2314 197.329 45.17 197.784 45.9474C198.238 46.7247 198.84 47.3187 199.588 47.7294C200.35 48.14 201.164 48.3454 202.03 48.3454C202.88 48.3454 203.621 48.14 204.252 47.7294C204.897 47.304 205.403 46.7027 205.77 45.9254C206.151 45.148 206.342 44.2167 206.342 43.1314C206.342 42.0314 206.151 41.0927 205.77 40.3154C205.403 39.538 204.897 38.944 204.252 38.5334C203.621 38.108 202.88 37.8954 202.03 37.8954C201.164 37.8954 200.35 38.1007 199.588 38.5114C198.84 38.922 198.238 39.516 197.784 40.2934C197.329 41.056 197.102 42.002 197.102 43.1314ZM199.566 43.1314C199.566 42.442 199.705 41.8627 199.984 41.3934C200.262 40.924 200.629 40.572 201.084 40.3374C201.553 40.088 202.059 39.9634 202.602 39.9634C202.939 39.9634 203.276 40.0294 203.614 40.1614C203.966 40.2934 204.281 40.4987 204.56 40.7774C204.838 41.0414 205.058 41.3714 205.22 41.7674C205.396 42.1487 205.484 42.6034 205.484 43.1314C205.484 43.806 205.337 44.3854 205.044 44.8694C204.765 45.3387 204.398 45.6907 203.944 45.9254C203.504 46.16 203.056 46.2774 202.602 46.2774C202.059 46.2774 201.553 46.16 201.084 45.9254C200.629 45.676 200.262 45.3167 199.984 44.8474C199.705 44.378 199.566 43.806 199.566 43.1314ZM217.274 42.0754V48.2354H219.716V41.8114C219.716 40.594 219.415 39.6407 218.814 38.9514C218.213 38.2474 217.34 37.8954 216.196 37.8954C215.492 37.8954 214.883 38.042 214.37 38.3354C213.871 38.6287 213.461 39.076 213.138 39.6774V38.1154H210.762V48.2354H213.138V42.0754C213.138 41.6207 213.233 41.2247 213.424 40.8874C213.615 40.5354 213.879 40.2714 214.216 40.0954C214.553 39.9047 214.942 39.8094 215.382 39.8094C216.027 39.8094 216.504 40 216.812 40.3814C217.12 40.7627 217.274 41.3274 217.274 42.0754ZM110.564 66.2754H118.704L118.198 64.0754H111.048L110.564 66.2754ZM114.59 59.1914L117.032 64.9114L117.098 65.5494L119.188 70.2354H122.114L114.59 53.9774L107.066 70.2354H109.992L112.126 65.4174L112.17 64.8454L114.59 59.1914ZM121.094 60.1154L125.824 70.9614L128.86 64.1194L132.028 70.9614L136.758 60.1154H134.184L131.808 66.1654L128.838 59.3454L126.044 66.1434L123.668 60.1154H121.094ZM139.77 67.0894C139.77 66.7667 139.843 66.4954 139.99 66.2754C140.151 66.0554 140.386 65.8867 140.694 65.7694C141.002 65.6374 141.405 65.5714 141.904 65.5714C142.476 65.5714 143.019 65.6447 143.532 65.7914C144.045 65.938 144.529 66.1727 144.984 66.4954V65.2854C144.852 65.124 144.625 64.948 144.302 64.7574C143.979 64.552 143.569 64.376 143.07 64.2294C142.586 64.0827 142.007 64.0094 141.332 64.0094C140.071 64.0094 139.095 64.3027 138.406 64.8894C137.717 65.4614 137.372 66.2387 137.372 67.2214C137.372 67.9107 137.533 68.4974 137.856 68.9814C138.179 69.4654 138.611 69.832 139.154 70.0814C139.697 70.3307 140.283 70.4554 140.914 70.4554C141.501 70.4554 142.073 70.3527 142.63 70.1474C143.202 69.9274 143.671 69.6047 144.038 69.1794C144.419 68.7394 144.61 68.1967 144.61 67.5514L144.258 66.2314C144.258 66.73 144.133 67.17 143.884 67.5514C143.649 67.918 143.334 68.1967 142.938 68.3874C142.557 68.578 142.131 68.6734 141.662 68.6734C141.295 68.6734 140.965 68.6147 140.672 68.4974C140.393 68.38 140.173 68.204 140.012 67.9694C139.851 67.72 139.77 67.4267 139.77 67.0894ZM139.022 62.7554C139.169 62.6527 139.389 62.528 139.682 62.3814C139.99 62.22 140.349 62.088 140.76 61.9854C141.185 61.868 141.633 61.8094 142.102 61.8094C142.41 61.8094 142.696 61.8387 142.96 61.8974C143.224 61.956 143.451 62.0514 143.642 62.1834C143.833 62.3154 143.979 62.484 144.082 62.6894C144.199 62.8947 144.258 63.1587 144.258 63.4814V70.2354H146.59V63.0194C146.59 62.3447 146.407 61.78 146.04 61.3254C145.673 60.856 145.167 60.4967 144.522 60.2474C143.891 59.998 143.158 59.8734 142.322 59.8734C141.383 59.8734 140.547 60.0054 139.814 60.2694C139.095 60.5334 138.509 60.8047 138.054 61.0834L139.022 62.7554ZM151.714 60.1154H149.36V70.2354H151.714V60.1154ZM154.728 62.6454L155.872 60.6434C155.652 60.3647 155.38 60.174 155.058 60.0714C154.735 59.954 154.39 59.8954 154.024 59.8954C153.51 59.8954 153.012 60.0787 152.528 60.4454C152.058 60.812 151.67 61.3107 151.362 61.9414C151.068 62.5574 150.922 63.2687 150.922 64.0754L151.714 64.5374C151.714 64.0534 151.765 63.6354 151.868 63.2834C151.985 62.9167 152.168 62.6307 152.418 62.4254C152.667 62.22 152.99 62.1174 153.386 62.1174C153.679 62.1174 153.921 62.1614 154.112 62.2494C154.302 62.3374 154.508 62.4694 154.728 62.6454ZM165.114 53.0754V70.2354H167.512V53.0754H165.114ZM156.732 65.1754C156.732 66.2754 156.96 67.2214 157.414 68.0134C157.869 68.8054 158.47 69.414 159.218 69.8394C159.981 70.25 160.795 70.4554 161.66 70.4554C162.511 70.4554 163.252 70.2427 163.882 69.8174C164.528 69.392 165.034 68.7834 165.4 67.9914C165.782 67.1994 165.972 66.2607 165.972 65.1754C165.972 64.0754 165.782 63.1367 165.4 62.3594C165.034 61.5674 164.528 60.9587 163.882 60.5334C163.252 60.108 162.511 59.8954 161.66 59.8954C160.795 59.8954 159.981 60.108 159.218 60.5334C158.47 60.944 157.869 61.5454 157.414 62.3374C156.96 63.1147 156.732 64.0607 156.732 65.1754ZM159.196 65.1754C159.196 64.5007 159.336 63.9214 159.614 63.4374C159.893 62.9534 160.26 62.5867 160.714 62.3374C161.184 62.088 161.69 61.9634 162.232 61.9634C162.687 61.9634 163.134 62.088 163.574 62.3374C164.029 62.5867 164.396 62.9534 164.674 63.4374C164.968 63.9067 165.114 64.486 165.114 65.1754C165.114 65.8647 164.968 66.4514 164.674 66.9354C164.396 67.4047 164.029 67.764 163.574 68.0134C163.134 68.2627 162.687 68.3874 162.232 68.3874C161.69 68.3874 161.184 68.2627 160.714 68.0134C160.26 67.764 159.893 67.3974 159.614 66.9134C159.336 66.4294 159.196 65.85 159.196 65.1754ZM170.919 66.9134L169.533 68.2994C169.827 68.6807 170.186 69.0474 170.611 69.3994C171.051 69.7367 171.557 70.0154 172.129 70.2354C172.716 70.4407 173.354 70.5434 174.043 70.5434C175.158 70.5434 176.038 70.2574 176.683 69.6854C177.343 69.0987 177.673 68.3287 177.673 67.3754C177.673 66.7594 177.527 66.2607 177.233 65.8794C176.955 65.498 176.581 65.1754 176.111 64.9114C175.642 64.6474 175.129 64.4054 174.571 64.1854C174.161 64.024 173.787 63.87 173.449 63.7234C173.127 63.5767 172.863 63.4154 172.657 63.2394C172.467 63.0487 172.371 62.836 172.371 62.6014C172.371 62.3227 172.481 62.11 172.701 61.9634C172.921 61.8167 173.2 61.7434 173.537 61.7434C174.036 61.7434 174.52 61.868 174.989 62.1174C175.459 62.3667 175.862 62.6894 176.199 63.0854L177.519 61.6774C177.241 61.34 176.903 61.0394 176.507 60.7754C176.111 60.5114 175.664 60.2987 175.165 60.1374C174.681 59.976 174.161 59.8954 173.603 59.8954C172.987 59.8954 172.408 59.998 171.865 60.2034C171.337 60.394 170.912 60.6947 170.589 61.1054C170.281 61.516 170.127 62.0294 170.127 62.6454C170.127 63.2467 170.267 63.7454 170.545 64.1414C170.839 64.5374 171.205 64.86 171.645 65.1094C172.1 65.344 172.555 65.5494 173.009 65.7254C173.464 65.8867 173.86 66.048 174.197 66.2094C174.535 66.356 174.799 66.5394 174.989 66.7594C175.18 66.9647 175.275 67.214 175.275 67.5074C175.275 67.8447 175.151 68.1087 174.901 68.2994C174.667 68.49 174.337 68.5854 173.911 68.5854C173.574 68.5854 173.237 68.5267 172.899 68.4094C172.562 68.2774 172.225 68.0867 171.887 67.8374C171.565 67.5734 171.242 67.2654 170.919 66.9134Z" fill="#101010"/>
</g>
<defs>
<filter id="filter0_d_709_181" x="0" y="0.235352" width="277" height="142" filterUnits="userSpaceOnUse" color-interpolation-filters="sRGB">
<feFlood flood-opacity="0" result="BackgroundImageFix"/>
<feColorMatrix in="SourceAlpha" type="matrix" values="0 0 0 0 0 0 0 0 0 0 0 0 0 0 0 0 0 0 127 0" result="hardAlpha"/>
<feOffset dx="10" dy="20"/>
<feGaussianBlur stdDeviation="12.5"/>
<feComposite in2="hardAlpha" operator="out"/>
<feColorMatrix type="matrix" values="0 0 0 0 0 0 0 0 0 0 0 0 0 0 0 0 0 0 0.1 0"/>
<feBlend mode="normal" in2="BackgroundImageFix" result="effect1_dropShadow_709_181"/>
<feBlend mode="normal" in="SourceGraphic" in2="effect1_dropShadow_709_181" result="shape"/>
</filter>
</defs>
</svg>
