<svg width="282" height="316" viewBox="0 0 282 316" fill="none" xmlns="http://www.w3.org/2000/svg">
<g opacity="0.2">
<path d="M206.187 253.072L194.685 265.269" stroke="#FF6B00" stroke-width="1.15" stroke-linecap="round" stroke-linejoin="round"/>
<path d="M245.608 211.266L224.494 233.657" stroke="#FF6B00" stroke-width="1.15" stroke-linecap="round" stroke-linejoin="round"/>
<path d="M209.826 213.977L130.318 298.295" stroke="#FF6B00" stroke-width="1.15" stroke-linecap="round" stroke-linejoin="round"/>
<path d="M250.358 170.963L234.246 188.08" stroke="#FF6B00" stroke-width="1.15" stroke-linecap="round" stroke-linejoin="round"/>
<path d="M152.682 239.343L82.7304 313.526" stroke="#FF6B00" stroke-width="1.15" stroke-linecap="round" stroke-linejoin="round"/>
<path d="M258.248 127.39L183.657 206.493" stroke="#FF6B00" stroke-width="1.15" stroke-linecap="round" stroke-linejoin="round"/>
<path d="M199.77 154.17L76.2853 285.126" stroke="#FF6B00" stroke-width="1.15" stroke-linecap="round" stroke-linejoin="round"/>
<path d="M250.83 100.02L224.689 127.743" stroke="#FF6B00" stroke-width="1.15" stroke-linecap="round" stroke-linejoin="round"/>
<path d="M97.8154 227.057L68.1181 258.522" stroke="#FF6B00" stroke-width="1.15" stroke-linecap="round" stroke-linejoin="round"/>
<path d="M280.389 33.4077L129.013 193.943" stroke="#FF6B00" stroke-width="1.15" stroke-linecap="round" stroke-linejoin="round"/>
<path d="M158.988 126.948L11.1126 283.771" stroke="#FF6B00" stroke-width="1.15" stroke-linecap="round" stroke-linejoin="round"/>
<path d="M224.3 57.6841L189.935 94.0983" stroke="#FF6B00" stroke-width="1.15" stroke-linecap="round" stroke-linejoin="round"/>
<path d="M130.291 122.146L34.7538 223.434" stroke="#FF6B00" stroke-width="1.15" stroke-linecap="round" stroke-linejoin="round"/>
<path d="M227.8 18.7065L157.21 93.5679" stroke="#FF6B00" stroke-width="1.15" stroke-linecap="round" stroke-linejoin="round"/>
<path d="M51.4775 170.462L1.58374 223.375" stroke="#FF6B00" stroke-width="1.15" stroke-linecap="round" stroke-linejoin="round"/>
<path d="M184.657 29.2244L87.7309 132.015" stroke="#FF6B00" stroke-width="1.15" stroke-linecap="round" stroke-linejoin="round"/>
<path d="M99.8154 83.9636L32.4199 155.437" stroke="#FF6B00" stroke-width="1.15" stroke-linecap="round" stroke-linejoin="round"/>
<path d="M176.656 2.47339L126.262 55.9163" stroke="#FF6B00" stroke-width="1.15" stroke-linecap="round" stroke-linejoin="round"/>
<path d="M39.9209 112.247L13.6961 140.058" stroke="#FF6B00" stroke-width="1.15" stroke-linecap="round" stroke-linejoin="round"/>
<path d="M136.347 9.98608L69.868 80.4871" stroke="#FF6B00" stroke-width="1.15" stroke-linecap="round" stroke-linejoin="round"/>
<path d="M53.5331 62.5747L37.4204 79.6623" stroke="#FF6B00" stroke-width="1.15" stroke-linecap="round" stroke-linejoin="round"/>
</g>
</svg>
