<svg width="100" height="101" viewBox="0 0 100 101" fill="none" xmlns="http://www.w3.org/2000/svg">
<rect y="0.98584" width="100" height="100" rx="50" fill="white"/>
<g clip-path="url(#clip0_709_659)">
<path d="M50 50.9858C50 48.5989 50.9482 46.3097 52.636 44.6219C54.3239 42.9341 56.6131 41.9858 59 41.9858C61.3869 41.9858 63.6761 42.9341 65.364 44.6219C67.0518 46.3097 68 48.5989 68 50.9858C68 53.3728 67.0518 55.662 65.364 57.3498C63.6761 59.0376 61.3869 59.9858 59 59.9858C56.6131 59.9858 54.3239 59.0376 52.636 57.3498C50.9482 55.662 50 53.3728 50 50.9858V50.9858Z" fill="#1ABCFE"/>
<path d="M32 68.9858C32 66.5989 32.9482 64.3097 34.636 62.6219C36.3239 60.9341 38.6131 59.9858 41 59.9858H50V68.9858C50 71.3728 49.0518 73.662 47.364 75.3498C45.6761 77.0376 43.3869 77.9858 41 77.9858C38.6131 77.9858 36.3239 77.0376 34.636 75.3498C32.9482 73.662 32 71.3728 32 68.9858V68.9858Z" fill="#0ACF83"/>
<path d="M50 23.9858V41.9858H59C61.3869 41.9858 63.6761 41.0376 65.364 39.3498C67.0518 37.662 68 35.3728 68 32.9858C68 30.5989 67.0518 28.3097 65.364 26.6219C63.6761 24.9341 61.3869 23.9858 59 23.9858H50Z" fill="#FF7262"/>
<path d="M32 32.9858C32 35.3728 32.9482 37.662 34.636 39.3498C36.3239 41.0376 38.6131 41.9858 41 41.9858H50V23.9858H41C38.6131 23.9858 36.3239 24.9341 34.636 26.6219C32.9482 28.3097 32 30.5989 32 32.9858Z" fill="#F24E1E"/>
<path d="M32 50.9858C32 53.3728 32.9482 55.662 34.636 57.3498C36.3239 59.0376 38.6131 59.9858 41 59.9858H50V41.9858H41C38.6131 41.9858 36.3239 42.9341 34.636 44.6219C32.9482 46.3097 32 48.5989 32 50.9858V50.9858Z" fill="#A259FF"/>
</g>
<defs>
<clipPath id="clip0_709_659">
<rect width="36" height="54" fill="white" transform="translate(32 23.9858)"/>
</clipPath>
</defs>
</svg>
