<svg width="100" height="101" viewBox="0 0 100 101" fill="none" xmlns="http://www.w3.org/2000/svg">
<rect y="0.98584" width="100" height="100" rx="50" fill="white"/>
<g clip-path="url(#clip0_709_654)">
<path d="M34.4328 23.9858H36.8586V26.3905H39.0945V23.9858H41.5203V31.2632H39.0945V28.8374H36.8797V31.2632H34.4328M44.7266 26.4116H42.5855V23.9858H49.3039V26.4116H47.1523V31.2632H44.7266M50.3691 23.9858H52.9109L54.4719 26.5487L56.0328 23.9858H58.5746V31.2632H56.1488V27.6562L54.4508 30.2718L52.7527 27.6562V31.2632H50.3691M59.7769 23.9858H62.2027V28.8585H65.641V31.2632H59.7769" fill="#101010"/>
<path d="M34.3484 73.6616L30.868 34.596H69.132L65.6516 73.6405L49.9684 77.9859" fill="#E44D26"/>
<path d="M50 74.6636V37.8022H65.641L62.6562 71.1304" fill="#F16529"/>
<path d="M37.9766 42.58H50V47.3682H43.2289L43.6719 52.2725H50V57.0503H39.2844M39.4953 59.455H44.3047L44.6422 63.2835L50 64.7178V69.7171L40.1703 66.9749" fill="#EBEBEB"/>
<path d="M61.9812 42.58H49.9789V47.3682H61.5383M61.1058 52.2725H49.9789V57.0608H55.8851L55.3261 63.2835L49.9789 64.7178V69.696L59.7875 66.9749" fill="white"/>
</g>
<defs>
<clipPath id="clip0_709_654">
<rect width="54" height="54" fill="white" transform="translate(23 23.9858)"/>
</clipPath>
</defs>
</svg>
