<svg width="100" height="101" viewBox="0 0 100 101" fill="none" xmlns="http://www.w3.org/2000/svg">
<rect y="0.98584" width="100" height="100" rx="50" fill="white"/>
<g clip-path="url(#clip0_709_669)">
<path d="M72.1048 23.9858H27.8952C25.1916 23.9858 23 26.1775 23 28.8811V73.0906C23 75.7942 25.1916 77.9858 27.8952 77.9858H72.1048C74.8084 77.9858 77 75.7942 77 73.0906V28.8811C77 26.1775 74.8084 23.9858 72.1048 23.9858Z" fill="#DC395F"/>
<path d="M41.0467 41.4863C42.8418 41.4863 44.3456 40.0793 44.3456 38.2353C44.3456 36.3926 42.8418 34.9858 41.0467 34.9858C39.2517 34.9858 37.7483 36.3926 37.7483 38.2353C37.7483 40.0791 39.2517 41.4863 41.0467 41.4863ZM34.2069 58.8929C34.013 59.7176 33.9158 60.6082 33.9158 61.3347C33.9158 64.1973 35.4681 66.0976 38.7669 66.0976C41.5028 66.0976 43.7208 64.473 45.3178 61.8496L44.3426 65.7631H49.7753L52.8803 53.3096C53.6566 50.1565 55.1604 48.5198 57.4406 48.5198C59.2355 48.5198 60.3511 49.6361 60.3511 51.4788C60.3511 52.0127 60.3026 52.5943 60.1085 53.2252L58.5075 58.9494C58.2649 59.7742 58.1683 60.5993 58.1683 61.375C58.1683 64.0925 59.7687 66.0801 63.1161 66.0801C65.9783 66.0801 68.2581 64.2376 69.5195 59.8229L67.3853 58.999C66.3179 61.9565 65.3961 62.4912 64.6684 62.4912C63.9406 62.4912 63.5525 62.0065 63.5525 61.0368C63.5525 60.6002 63.65 60.1157 63.7951 59.5322L65.3478 53.9555C65.7357 52.646 65.8815 51.4847 65.8815 50.4178C65.8815 46.2459 63.3587 44.0686 60.3026 44.0686C57.4406 44.0686 54.5297 46.6503 53.0746 49.3673L54.1415 44.4905H45.8466L44.6823 48.786H48.5633L46.1734 58.3541C44.2967 62.5261 40.8493 62.5938 40.4167 62.4969C39.7062 62.3366 39.2519 62.0668 39.2519 61.1438C39.2519 60.6112 39.3489 59.8461 39.5915 58.9237L43.2302 44.4905H34.013L32.8487 48.786H36.6808L34.2071 58.8929" fill="white"/>
</g>
<defs>
<clipPath id="clip0_709_669">
<rect width="54" height="54" fill="white" transform="translate(23 23.9858)"/>
</clipPath>
</defs>
</svg>
