<svg width="100" height="101" viewBox="0 0 100 101" fill="none" xmlns="http://www.w3.org/2000/svg">
<rect y="0.98584" width="100" height="100" rx="50" fill="white"/>
<path d="M67.4375 77.9858H32.5625C27.275 77.9858 23 73.6012 23 68.1781V33.7935C23 28.3705 27.275 23.9858 32.5625 23.9858H67.4375C72.725 23.9858 77 28.3705 77 33.7935V68.1781C77 73.6012 72.725 77.9858 67.4375 77.9858Z" fill="#FF26BE"/>
<path d="M66.5825 75.6781H33.4175C28.9175 75.6781 25.25 71.9166 25.25 67.3012V34.6704C25.25 30.0551 28.9175 26.2935 33.4175 26.2935H66.56C71.0825 26.2935 74.7275 30.0551 74.7275 34.6704V67.2781C74.75 71.9166 71.0825 75.6781 66.5825 75.6781V75.6781Z" fill="#2E001F"/>
<path d="M44.3525 49.255L50.6525 61.6704C50.765 61.855 50.6975 62.0397 50.5175 62.0397H46.6025C46.355 62.0397 46.2425 61.9704 46.13 61.7397C44.69 58.6935 43.2275 55.6473 41.72 52.3704H41.675C40.325 55.4627 38.84 58.7166 37.4 61.7627C37.2875 61.9473 37.175 62.0166 36.995 62.0166H33.2825C33.0575 62.0166 33.035 61.832 33.1475 61.6935L39.3125 49.6473L33.35 37.4627C33.215 37.2781 33.35 37.1397 33.485 37.1397H37.355C37.58 37.1397 37.67 37.1858 37.76 37.3935C39.1775 40.4397 40.6175 43.5781 41.9675 46.6473H42.0125C43.3175 43.6012 44.7575 40.4397 46.1525 37.4166C46.265 37.232 46.3325 37.1166 46.5575 37.1166H50.18C50.36 37.1166 50.4275 37.255 50.315 37.4397L44.3525 49.255ZM51.755 53.0166C51.755 47.6397 55.2425 43.4397 60.7775 43.4397C61.25 43.4397 61.4975 43.4397 61.9475 43.4858V37.3704C61.9475 37.232 62.06 37.1397 62.1725 37.1397H65.7275C65.9075 37.1397 65.9525 37.2089 65.9525 37.3243V58.5089C65.9525 59.132 65.9525 59.9166 66.065 60.7704C66.065 60.9089 66.02 60.955 65.885 61.0243C63.995 61.9473 62.015 62.3627 60.125 62.3627C55.2425 62.3858 51.755 59.2935 51.755 53.0166V53.0166ZM61.9475 47.1089C61.6325 46.9704 61.1825 46.8781 60.6425 46.8781C57.8075 46.8781 55.8275 49.1166 55.8275 52.832C55.8275 57.0781 57.8525 58.7858 60.395 58.7858C60.935 58.7858 61.52 58.7166 61.9475 58.532V47.1089Z" fill="#FFD9F2"/>
</svg>
