<svg width="100" height="101" viewBox="0 0 100 101" fill="none" xmlns="http://www.w3.org/2000/svg">
<rect y="0.98584" width="100" height="100" rx="50" fill="white"/>
<g clip-path="url(#clip0_709_664)">
<path d="M32.5625 23.9858H67.4375C72.725 23.9858 77 28.3705 77 33.7935V68.1781C77 73.6012 72.725 77.9858 67.4375 77.9858H32.5625C27.275 77.9858 23 73.6012 23 68.1781V33.7935C23 28.3705 27.275 23.9858 32.5625 23.9858Z" fill="#101010"/>
<path d="M35.15 61.8551V38.1089C35.15 37.9474 35.2175 37.8551 35.375 37.8551C35.7575 37.8551 36.1175 37.8551 36.635 37.832C37.175 37.8089 37.7375 37.8089 38.345 37.7858C38.9525 37.7628 39.605 37.7628 40.3025 37.7397C41 37.7166 41.675 37.7166 42.35 37.7166C44.195 37.7166 45.725 37.9474 46.985 38.432C48.11 38.8243 49.145 39.4705 50 40.3243C50.72 41.0628 51.2825 41.9628 51.6425 42.9551C51.98 43.9243 52.16 44.9166 52.16 45.9551C52.16 47.9397 51.71 49.5782 50.81 50.8705C49.91 52.1628 48.65 53.132 47.1875 53.6858C45.6575 54.2628 43.97 54.4705 42.125 54.4705C41.585 54.4705 41.225 54.4705 41 54.4474C40.775 54.4243 40.46 54.4243 40.0325 54.4243V61.832C40.055 61.9935 39.9425 62.132 39.785 62.1551C39.7625 62.1551 39.74 62.1551 39.695 62.1551H35.42C35.24 62.1551 35.15 62.0628 35.15 61.8551ZM40.055 42.3089V50.0628C40.37 50.0858 40.6625 50.1089 40.9325 50.1089H42.125C43.0025 50.1089 43.88 49.9705 44.7125 49.6935C45.4325 49.4858 46.0625 49.0474 46.5575 48.4705C47.03 47.8935 47.255 47.1089 47.255 46.0935C47.2775 45.3782 47.0975 44.6628 46.7375 44.0397C46.355 43.4397 45.815 42.9782 45.1625 42.7243C44.33 42.3782 43.43 42.2397 42.5075 42.2628C41.9225 42.2628 41.405 42.2628 40.9775 42.2858C40.5275 42.2628 40.2125 42.2858 40.055 42.3089Z" fill="#31A8FF"/>
<path d="M66.2 48.6551C65.525 48.2859 64.805 48.032 64.04 47.8705C63.2075 47.6859 62.375 47.5705 61.52 47.5705C61.07 47.5474 60.5975 47.6166 60.17 47.732C59.8775 47.8012 59.63 47.9628 59.4725 48.1935C59.36 48.3782 59.2925 48.6089 59.2925 48.8166C59.2925 49.0243 59.3825 49.232 59.5175 49.4166C59.72 49.6705 59.99 49.8782 60.2825 50.0397C60.8 50.3166 61.34 50.5705 61.88 50.8012C63.095 51.2166 64.265 51.7935 65.345 52.4859C66.0875 52.9705 66.695 53.6166 67.1225 54.4012C67.4825 55.1397 67.6625 55.9474 67.64 56.7782C67.6625 57.8628 67.3475 58.9474 66.7625 59.8474C66.1325 60.7705 65.255 61.4859 64.2425 61.9012C63.14 62.3859 61.79 62.6397 60.17 62.6397C59.135 62.6397 58.1225 62.5474 57.11 62.3397C56.3225 62.2012 55.535 61.9474 54.815 61.6012C54.6575 61.5089 54.545 61.3474 54.5675 61.1628V57.1474C54.5675 57.0782 54.59 56.9859 54.6575 56.9397C54.725 56.8935 54.7925 56.9166 54.86 56.9628C55.7375 57.4935 56.66 57.8628 57.65 58.0935C58.505 58.3243 59.405 58.4397 60.305 58.4397C61.16 58.4397 61.7675 58.3243 62.1725 58.1166C62.5325 57.9551 62.78 57.5628 62.78 57.1474C62.78 56.8243 62.6 56.5243 62.24 56.2243C61.88 55.9243 61.1375 55.5782 60.035 55.1397C58.8875 54.7243 57.83 54.1705 56.84 53.4782C56.1425 52.9705 55.5575 52.3012 55.13 51.5166C54.77 50.7782 54.59 49.9705 54.6125 49.1628C54.6125 48.1705 54.8825 47.2243 55.3775 46.3705C55.94 45.4474 56.7725 44.7089 57.74 44.2474C58.7975 43.6935 60.125 43.4397 61.7225 43.4397C62.645 43.4397 63.59 43.5089 64.5125 43.6474C65.1875 43.7397 65.84 43.9243 66.4475 44.1782C66.5375 44.2012 66.6275 44.2935 66.6725 44.3859C66.695 44.4782 66.7175 44.5705 66.7175 44.6628V48.4243C66.7175 48.5166 66.6725 48.6089 66.605 48.6551C66.4025 48.7012 66.29 48.7012 66.2 48.6551Z" fill="#31A8FF"/>
</g>
<defs>
<clipPath id="clip0_709_664">
<rect width="54" height="54" fill="white" transform="translate(23 23.9858)"/>
</clipPath>
</defs>
</svg>
