<svg width="88" height="89" viewBox="0 0 88 89" fill="none" xmlns="http://www.w3.org/2000/svg">
<path d="M50.6809 47.3071V52.5629H37.4128C37.072 52.563 36.732 52.531 36.3972 52.4671L36.2576 52.437C35.0582 52.1733 33.9847 51.5081 33.2146 50.5514C32.4446 49.5947 32.0242 48.4038 32.0229 47.1758V28.9858C33.3505 29.7411 34.4549 30.8339 35.224 32.1535C35.9932 33.4731 36.3998 34.9726 36.4027 36.5V45.109C36.4049 45.9237 36.7294 46.7043 37.3055 47.2803C37.8815 47.8564 38.6622 48.1809 39.4768 48.1831H48.5293C49.3337 48.185 50.1065 47.8703 50.6809 47.3071V47.3071Z" fill="#606060"/>
<path d="M55.9832 28.9858V39.1497C55.5038 38.4417 54.8891 37.8354 54.1746 37.3656C53.46 36.8958 52.6597 36.5719 51.8196 36.4124C51.7512 36.3987 51.68 36.385 51.6088 36.3768C51.6329 34.8709 52.049 33.3974 52.8161 32.1014C53.5832 30.8053 54.6747 29.7315 55.9832 28.9858V28.9858Z" fill="#606060"/>
<path d="M55.9833 42.7959V60.9858C54.656 60.2295 53.552 59.1361 52.7829 57.8161C52.0138 56.4962 51.607 54.9966 51.6035 53.469V44.8599C51.602 44.0436 51.2771 43.2611 50.6999 42.6839C50.1227 42.1067 49.3402 41.7818 48.5239 41.7803H39.4714C38.6663 41.7805 37.8936 42.0971 37.3198 42.6618V37.406H50.5879C51.2959 37.4053 51.9971 37.5442 52.6514 37.8148C53.3056 38.0854 53.9001 38.4824 54.4007 38.9831C54.9014 39.4837 55.2983 40.0782 55.569 40.7324C55.8396 41.3867 55.9785 42.0879 55.9778 42.7959H55.9833Z" fill="#606060"/>
<path d="M36.3969 53.6086C36.3693 55.1125 35.951 56.5834 35.1831 57.8768C34.4153 59.1702 33.3242 60.2416 32.017 60.9858V50.8274C32.9525 52.2085 34.3819 53.1784 36.0109 53.5374H36.041L36.1779 53.5648C36.2572 53.5867 36.3257 53.6004 36.3969 53.6086Z" fill="#606060"/>
<rect x="0.5" y="1.48584" width="87" height="87" rx="43.5" stroke="#FF6B00"/>
</svg>
