<svg width="100" height="101" viewBox="0 0 100 101" fill="none" xmlns="http://www.w3.org/2000/svg">
<rect y="0.98584" width="100" height="100" rx="50" fill="white"/>
<g clip-path="url(#clip0_709_644)">
<path d="M34.7581 25.7629L49.9456 23.9858L65.1331 25.7629L76.8911 43.2318L49.9456 77.959L23 43.2318L34.7581 25.7629Z" fill="#FDB300"/>
<path d="M33.9143 43.2319L49.9456 77.959L23 43.2319H33.9143Z" fill="#FF6B00"/>
<path d="M65.9768 43.2319L49.9455 77.959L76.8911 43.2319H65.9768Z" fill="#FF6B00"/>
<path d="M33.9143 43.2319H65.9769L49.9456 77.959L33.9143 43.2319Z" fill="#FDAD00"/>
<path d="M49.9456 23.9858L34.758 25.7628L33.9143 43.2318L49.9456 23.9858Z" fill="#FDD231"/>
<path d="M49.9455 23.9858L65.1331 25.7628L65.9768 43.2318L49.9455 23.9858Z" fill="#FDD231"/>
<path d="M76.8912 43.2318L65.133 25.7628L65.9769 43.2318H76.8912ZM23 43.2318L34.758 25.7628L33.9143 43.2318H23Z" fill="#FDAD00"/>
<path d="M49.9456 23.9858L33.9143 43.2318H65.9769L49.9456 23.9858Z" fill="#FEEEB7"/>
</g>
<defs>
<clipPath id="clip0_709_644">
<rect width="54" height="54" fill="white" transform="translate(23 23.9858)"/>
</clipPath>
</defs>
</svg>
