<svg width="200" height="136" viewBox="0 0 200 136" fill="none" xmlns="http://www.w3.org/2000/svg">
<rect y="0.925293" width="200" height="135" rx="5" fill="url(#paint0_linear_709_288)" fill-opacity="0.1"/>
<path d="M110.856 57.415V66.4484H88.051C87.4653 66.4486 86.8808 66.3935 86.3055 66.2838L86.0655 66.232C84.004 65.7787 82.1589 64.6354 80.8354 62.9911C79.5119 61.3468 78.7893 59.3 78.7871 57.1892V25.9253C81.0689 27.2234 82.967 29.1016 84.289 31.3697C85.611 33.6378 86.3099 36.215 86.3149 38.8402V53.637C86.3186 55.0372 86.8765 56.3789 87.8665 57.369C88.8566 58.359 90.1983 58.9169 91.5985 58.9206H107.157C108.54 58.9238 109.868 58.383 110.856 57.415V57.415Z" fill="#101010"/>
<path d="M119.968 25.9253V43.3945C119.144 42.1775 118.088 41.1354 116.86 40.328C115.632 39.5206 114.256 38.9638 112.812 38.6896C112.695 38.6661 112.572 38.6426 112.45 38.6285C112.491 36.0403 113.207 33.5076 114.525 31.2801C115.843 29.0525 117.72 27.2069 119.968 25.9253V25.9253Z" fill="#101010"/>
<path d="M119.969 49.6614V80.9253C117.687 79.6253 115.79 77.746 114.468 75.4774C113.146 73.2088 112.447 70.6313 112.441 68.0057V53.2088C112.438 51.8058 111.88 50.461 110.888 49.4689C109.896 48.4768 108.551 47.9183 107.148 47.9159H91.5887C90.205 47.9162 88.8769 48.4603 87.8907 49.4308V40.3975H110.695C111.912 40.3962 113.117 40.635 114.242 41.1001C115.366 41.5652 116.388 42.2475 117.249 43.108C118.109 43.9685 118.791 44.9903 119.256 46.1148C119.722 47.2393 119.96 48.4445 119.959 49.6614H119.969Z" fill="#101010"/>
<path d="M86.3051 68.2455C86.2578 70.8304 85.5389 73.3584 84.2191 75.5815C82.8993 77.8045 81.024 79.646 78.7773 80.9252V63.4653C80.3851 65.8392 82.8419 67.5062 85.6417 68.1232H85.6935L85.9287 68.1702C86.0652 68.2078 86.1828 68.2314 86.3051 68.2455Z" fill="#101010"/>
<path d="M68.4357 105.981L67.6797 107.025C67.7837 107.113 67.9237 107.205 68.0997 107.301C68.2757 107.397 68.4797 107.477 68.7117 107.541C68.9437 107.613 69.1837 107.649 69.4317 107.649C69.7517 107.649 70.0477 107.609 70.3197 107.529C70.5917 107.457 70.8237 107.337 71.0157 107.169C71.2157 107.001 71.3717 106.789 71.4837 106.533C71.5957 106.277 71.6517 105.973 71.6517 105.621V96.5253H70.1997V105.357C70.1997 105.741 70.1117 106.009 69.9357 106.161C69.7597 106.321 69.5797 106.401 69.3957 106.401C69.1957 106.401 69.0117 106.361 68.8437 106.281C68.6757 106.201 68.5397 106.101 68.4357 105.981ZM74.5241 102.765H78.9641L78.6881 101.565H74.7881L74.5241 102.765ZM76.7201 98.9013L78.0521 102.021L78.0881 102.369L79.2281 104.925H80.8241L76.7201 96.0573L72.6161 104.925H74.2121L75.3761 102.297L75.4001 101.985L76.7201 98.9013ZM82.8812 100.593H84.3332C84.8612 100.593 85.3252 100.517 85.7252 100.365C86.1332 100.213 86.4492 99.9933 86.6732 99.7053C86.9052 99.4093 87.0212 99.0533 87.0212 98.6373C87.0212 98.1573 86.9052 97.7613 86.6732 97.4493C86.4492 97.1373 86.1332 96.9053 85.7252 96.7533C85.3252 96.6013 84.8612 96.5253 84.3332 96.5253H81.8012V104.925H84.4772C85.0692 104.925 85.5892 104.841 86.0372 104.673C86.4932 104.497 86.8492 104.229 87.1052 103.869C87.3692 103.509 87.5012 103.053 87.5012 102.501C87.5012 102.101 87.4212 101.757 87.2612 101.469C87.1012 101.181 86.8772 100.945 86.5892 100.761C86.3092 100.577 85.9892 100.441 85.6292 100.353C85.2692 100.265 84.8852 100.221 84.4772 100.221H82.8812V101.001H84.3932C84.6332 101.001 84.8532 101.029 85.0532 101.085C85.2532 101.133 85.4252 101.217 85.5692 101.337C85.7212 101.449 85.8372 101.593 85.9172 101.769C86.0052 101.937 86.0492 102.133 86.0492 102.357C86.0492 102.669 85.9772 102.929 85.8332 103.137C85.6892 103.345 85.4932 103.501 85.2452 103.605C84.9972 103.709 84.7132 103.761 84.3932 103.761H83.2172V97.6893H84.2372C84.6292 97.6893 84.9492 97.7853 85.1972 97.9773C85.4452 98.1693 85.5692 98.4413 85.5692 98.7933C85.5692 99.0253 85.5132 99.2253 85.4012 99.3933C85.2892 99.5533 85.1332 99.6773 84.9332 99.7653C84.7332 99.8533 84.5012 99.8973 84.2372 99.8973H82.8812V100.593ZM89.8725 104.925H94.1085V103.677H89.8725V104.925ZM89.8725 97.7733H94.1085V96.5253H89.8725V97.7733ZM89.8725 101.037H93.8685V99.8133H89.8725V101.037ZM88.9965 96.5253V104.925H90.3885V96.5253H88.9965ZM97.58 100.917L100.256 104.925H101.96L99.116 100.917H97.58ZM95.852 96.5253V104.925H97.268V96.5253H95.852ZM96.692 97.7493H98.384C98.704 97.7493 98.984 97.8053 99.224 97.9173C99.472 98.0293 99.664 98.1893 99.8 98.3973C99.936 98.6053 100.004 98.8613 100.004 99.1653C100.004 99.4613 99.936 99.7173 99.8 99.9333C99.664 100.141 99.472 100.301 99.224 100.413C98.984 100.525 98.704 100.581 98.384 100.581H96.692V101.745H98.444C99.052 101.745 99.58 101.637 100.028 101.421C100.484 101.205 100.836 100.901 101.084 100.509C101.332 100.117 101.456 99.6573 101.456 99.1293C101.456 98.6013 101.332 98.1453 101.084 97.7613C100.836 97.3693 100.484 97.0653 100.028 96.8493C99.58 96.6333 99.052 96.5253 98.444 96.5253H96.692V97.7493ZM102.989 96.5253V104.925H104.417V96.5253H102.989ZM112.425 96.5253V102.165L106.293 96.1053V104.925H107.685V99.2853L113.817 105.345V96.5253H112.425ZM116.556 104.925H120.792V103.677H116.556V104.925ZM116.556 97.7733H120.792V96.5253H116.556V97.7733ZM116.556 101.037H120.552V99.8133H116.556V101.037ZM115.68 96.5253V104.925H117.072V96.5253H115.68ZM124.264 100.917L126.94 104.925H128.644L125.8 100.917H124.264ZM122.536 96.5253V104.925H123.952V96.5253H122.536ZM123.376 97.7493H125.068C125.388 97.7493 125.668 97.8053 125.908 97.9173C126.156 98.0293 126.348 98.1893 126.484 98.3973C126.62 98.6053 126.688 98.8613 126.688 99.1653C126.688 99.4613 126.62 99.7173 126.484 99.9333C126.348 100.141 126.156 100.301 125.908 100.413C125.668 100.525 125.388 100.581 125.068 100.581H123.376V101.745H125.128C125.736 101.745 126.264 101.637 126.712 101.421C127.168 101.205 127.52 100.901 127.768 100.509C128.016 100.117 128.14 99.6573 128.14 99.1293C128.14 98.6013 128.016 98.1453 127.768 97.7613C127.52 97.3693 127.168 97.0653 126.712 96.8493C126.264 96.6333 125.736 96.5253 125.128 96.5253H123.376V97.7493Z" fill="#101010"/>
<defs>
<linearGradient id="paint0_linear_709_288" x1="0" y1="68.4253" x2="200" y2="68.4253" gradientUnits="userSpaceOnUse">
<stop stop-color="#FF416C"/>
<stop offset="1" stop-color="#FF4B2B"/>
</linearGradient>
</defs>
</svg>
