<svg width="200" height="136" viewBox="0 0 200 136" fill="none" xmlns="http://www.w3.org/2000/svg">
<rect y="0.925293" width="200" height="135" rx="5" fill="url(#paint0_linear_709_260)" fill-opacity="0.1"/>
<path d="M103.901 33.2458C104.838 34.5631 105.588 36.0048 106.127 37.5293C106.799 37.6184 107.462 37.742 108.105 37.8953L108.427 37.9745H108.511L108.921 38.0882L109.317 38.207L109.658 38.3158L110.009 38.4345C110.118 38.4708 110.227 38.5103 110.336 38.5532L110.657 38.6719C111.282 38.9138 111.893 39.1896 112.487 39.4979C112.631 39.5721 112.774 39.6414 112.913 39.7205C113.15 39.8491 113.383 39.9827 113.61 40.1212L113.907 40.2992C113.951 40.3301 113.998 40.3582 114.045 40.3833L114.352 40.5861L114.644 40.784C115.781 41.5611 116.832 42.4564 117.78 43.4549C117.894 43.5638 118.002 43.6825 118.106 43.7962L118.364 44.0881C118.502 44.2464 118.636 44.4046 118.769 44.5827C118.903 44.7608 118.927 44.7756 119.002 44.8745L119.308 45.2752C119.407 45.3988 119.501 45.5274 119.59 45.656C119.679 45.7846 119.773 45.9182 119.862 46.0468C120.04 46.3089 120.209 46.576 120.357 46.8431C120.441 46.9816 120.525 47.1152 120.599 47.2537C120.673 47.3922 120.758 47.5307 120.832 47.6692C120.995 47.9709 121.153 48.2776 121.326 48.5842C121.386 48.7079 121.44 48.8315 121.495 48.9552C121.549 49.0789 121.603 49.1976 121.658 49.3212C121.712 49.4449 121.752 49.5389 121.796 49.6526C121.841 49.7664 121.88 49.8554 121.92 49.9593C122.019 50.2165 122.113 50.4539 122.202 50.7408C122.255 50.8958 122.304 51.0491 122.35 51.2008C122.395 51.3492 122.439 51.4976 122.479 51.646C122.603 52.0713 122.711 52.5017 122.8 52.9369C122.8 53.0458 122.845 53.1595 122.87 53.2683C122.894 53.3772 122.894 53.3969 122.904 53.4563C122.914 53.5157 122.939 53.6294 122.949 53.7135C122.959 53.7976 122.988 53.9559 123.008 54.0746C123.028 54.1933 123.048 54.3219 123.063 54.4456C123.077 54.5692 123.063 54.5544 123.063 54.6088L123.092 54.8858C123.092 54.9699 123.092 55.0589 123.092 55.1479C123.092 55.237 123.122 55.415 123.132 55.5486L123.161 56.0432C123.161 56.2114 123.161 56.3795 123.161 56.5378C123.161 56.6961 123.161 56.8742 123.161 57.0324C123.155 62.2559 121.077 67.2637 117.384 70.9577C113.691 74.6517 108.684 76.7305 103.46 76.7384H102.966C102.798 76.7384 102.629 76.7384 102.471 76.7384C102.313 76.7384 102.14 76.7384 101.977 76.7087L101.517 76.6642L101.121 76.6246L100.874 76.59L100.527 76.5405H100.498L100.146 76.4861L99.8546 76.4317L99.4293 76.3476C98.6638 76.1859 97.909 75.9778 97.1688 75.7244L96.7385 75.5711C96.5951 75.5216 96.4565 75.4721 96.3181 75.4128L95.7542 75.1803L95.403 75.027L95.0221 74.8489C94.8639 74.7698 94.7006 74.6956 94.5275 74.6115C94.3544 74.5274 94.2654 74.4779 94.1368 74.4037L93.6916 74.1564C93.5531 74.0773 93.4146 73.9981 93.2811 73.9141C93.0288 73.7607 92.7864 73.6074 92.544 73.4442L92.4896 73.4046L92.1039 73.1325C91.9752 73.0435 91.8466 72.9545 91.718 72.8556L91.3421 72.5687L91.0404 72.3263C90.8821 72.1977 90.7238 72.0642 90.5458 71.9257L90.2341 71.6536C90.1154 71.5497 90.0017 71.4459 89.8879 71.3321C89.7741 71.2183 89.6604 71.1145 89.5516 71.0007C89.3306 70.7897 89.1179 70.5671 88.9135 70.333C88.8047 70.2143 88.6909 70.0906 88.5821 69.962C88.3793 69.7295 88.1765 69.4674 87.9886 69.2448L87.6423 68.7897L87.4444 68.5177L87.3801 68.4286C87.2961 68.3149 87.2169 68.2011 87.1427 68.0824C87.0685 67.9637 86.9943 67.8598 86.9201 67.7461C86.8459 67.6323 86.7124 67.4246 86.6135 67.2514C86.4552 66.9909 86.3019 66.7238 86.1535 66.4501C85.8715 65.9308 85.6094 65.3916 85.372 64.8426C85.3175 64.714 85.2631 64.5854 85.2137 64.4568C85.1741 64.3628 85.1345 64.2639 85.0999 64.1699C85.0653 64.0759 85.0307 63.9919 85.001 63.9028L84.9812 63.6209L84.8427 63.2202C84.8031 63.0817 84.7586 62.9482 84.719 62.8097C84.717 62.7949 84.717 62.7799 84.719 62.7652C84.6795 62.6366 84.6399 62.4981 84.6053 62.3645C84.5707 62.231 84.5212 62.0826 84.4866 61.9342C84.3778 61.4989 84.2788 61.0637 84.1997 60.6185L84.1255 60.1733C84.1008 60.0249 84.081 59.8716 84.0612 59.7232C82.5326 59.1897 81.0859 58.4455 79.7629 57.5122C79.8441 62.1914 81.3014 66.7431 83.953 70.5993C86.6047 74.4554 90.3333 77.4453 94.6735 79.1958C99.0136 80.9463 103.773 81.3798 108.358 80.4424C112.943 79.5049 117.151 77.238 120.455 73.9244C123.76 70.6108 126.016 66.3974 126.941 61.8099C127.867 57.2224 127.42 52.4639 125.658 48.1284C123.896 43.7929 120.897 40.0723 117.033 37.4309C113.17 34.7895 108.615 33.3442 103.935 33.2755L103.901 33.2458ZM83.9376 55.2122L83.9821 54.777L84.0414 54.3417C84.0414 54.1982 84.081 54.0548 84.1057 53.9114C84.1304 53.7679 84.1552 53.6245 84.1799 53.481C84.2821 52.9159 84.4125 52.3563 84.5707 51.8042C84.6053 51.6658 84.6449 51.5273 84.6894 51.3937C84.719 51.2898 84.7537 51.186 84.7883 51.0771C84.8229 50.9683 84.7883 50.9832 84.8279 50.9386L84.9515 50.5825C84.9843 50.4784 85.0222 50.3761 85.0653 50.2758C85.0653 50.2066 85.1098 50.1472 85.1345 50.078C85.2236 49.8505 85.3176 49.6229 85.4115 49.4004C85.5055 49.1778 85.6391 48.8711 85.7627 48.6139L85.9457 48.2479C85.9814 48.1684 86.021 48.0908 86.0644 48.0154L86.2079 47.7434C86.2224 47.711 86.239 47.6797 86.2574 47.6494C86.3266 47.5257 86.3909 47.407 86.4651 47.2834C86.5393 47.1597 86.5888 47.0657 86.6531 46.9618L86.8262 46.6799C86.8756 46.5958 86.93 46.5117 86.9844 46.4277C87.212 46.0765 87.4494 45.7302 87.7017 45.3939C87.7808 45.2801 87.8649 45.1713 87.9539 45.0625C88.043 44.9537 88.0825 44.8894 88.1518 44.8102C88.3496 44.5629 88.5524 44.3156 88.7651 44.0782C88.8492 43.9792 88.9382 43.8803 89.0273 43.7863C89.2152 43.5786 89.4032 43.3758 89.606 43.1829C89.6851 43.0988 89.7643 43.0197 89.8484 42.9405C89.9324 42.8614 90.1006 42.6982 90.2292 42.5795L90.5161 42.3223C90.6843 42.1689 90.8623 42.0205 91.0404 41.8721L91.3124 41.6545C91.7131 41.3379 92.1187 41.0362 92.544 40.7543L92.9051 40.5119L93.197 40.3289L93.4195 40.1904C93.5284 40.1261 93.6372 40.0569 93.7509 39.9975C93.8647 39.9381 94.0279 39.8392 94.1664 39.765C94.3049 39.6908 94.4484 39.6117 94.5869 39.5424C94.7254 39.4732 94.8688 39.3941 95.0123 39.3298H95.037C95.2892 39.211 95.5316 39.0923 95.8086 38.9835C96.0856 38.8747 96.1944 38.8203 96.3923 38.7461C96.5901 38.6719 96.6495 38.6422 96.783 38.5977L97.1292 38.4741L97.3073 38.4098L97.6981 38.2861L98.1581 38.1476L98.6527 38.019L99.0682 37.9151L99.3847 37.8459L99.5282 37.8162L99.7656 37.7667L100.191 37.6876L100.493 37.6381L100.814 37.5936C101.086 37.554 101.368 37.5194 101.645 37.4947C100.955 36.0867 100.019 34.8136 98.8802 33.7355C94.2639 34.6662 90.0263 36.9425 86.7017 40.2777C83.3771 43.6129 81.1142 47.8577 80.1982 52.4769C81.2749 53.6006 82.5406 54.5264 83.9376 55.2122Z" fill="#101010"/>
<path d="M106.809 40.1013C105.735 39.8922 104.643 39.7879 103.549 39.7897C103.203 39.7897 102.856 39.7897 102.515 39.8194C102.825 40.9474 102.981 42.112 102.98 43.2818C102.981 45.314 102.514 47.3191 101.615 49.1417C100.716 50.9643 99.4097 52.5555 97.7968 53.7919C96.184 55.0282 94.3082 55.8767 92.3147 56.2714C90.3212 56.6661 88.2636 56.5964 86.3013 56.0679V56.0679C86.2815 56.3976 86.2716 56.7274 86.2716 57.0571C86.2703 58.1697 86.378 59.2796 86.5931 60.3711C89.3655 60.8819 92.2205 60.7101 94.9116 59.8706C97.6026 59.0311 100.049 57.5491 102.039 55.5526C104.029 53.5561 105.503 51.1051 106.334 48.4114C107.165 45.7177 107.328 42.8621 106.809 40.0915V40.1013ZM89.739 25.9253C86.3183 25.9268 82.9742 26.9381 80.126 28.8325C77.2778 30.7268 75.0523 33.4199 73.7285 36.5741C72.4048 39.7282 72.0417 43.2029 72.6848 46.5626C73.3279 49.9222 74.9486 53.0172 77.3436 55.4595C77.4566 53.5852 77.7683 51.7282 78.2735 49.9197C76.8082 47.3955 76.2179 44.4579 76.5944 41.5637C76.971 38.6694 78.2932 35.9806 80.3556 33.9154C82.418 31.8502 85.105 30.5242 87.9987 30.1438C90.8925 29.7633 93.8309 30.3495 96.3571 31.8114C98.1628 31.2989 100.018 30.9822 101.892 30.8667C98.6461 27.689 94.2813 25.9143 89.739 25.9253V25.9253Z" fill="#101010"/>
<path d="M70.2016 96.5253V104.925H71.6416V96.5253H70.2016ZM72.9136 104.925C73.7696 104.925 74.5216 104.753 75.1696 104.409C75.8176 104.057 76.3216 103.569 76.6816 102.945C77.0496 102.313 77.2336 101.573 77.2336 100.725C77.2336 99.8773 77.0496 99.1413 76.6816 98.5173C76.3216 97.8853 75.8176 97.3973 75.1696 97.0533C74.5216 96.7013 73.7696 96.5253 72.9136 96.5253H71.0776V97.8573H72.8776C73.2936 97.8573 73.6776 97.9173 74.0296 98.0373C74.3816 98.1573 74.6856 98.3373 74.9416 98.5773C75.2056 98.8173 75.4096 99.1173 75.5536 99.4773C75.7056 99.8373 75.7816 100.253 75.7816 100.725C75.7816 101.197 75.7056 101.613 75.5536 101.973C75.4096 102.333 75.2056 102.633 74.9416 102.873C74.6856 103.113 74.3816 103.293 74.0296 103.413C73.6776 103.533 73.2936 103.593 72.8776 103.593H71.0776V104.925H72.9136ZM79.4917 104.925H83.7277V103.677H79.4917V104.925ZM79.4917 97.7733H83.7277V96.5253H79.4917V97.7733ZM79.4917 101.037H83.4877V99.8133H79.4917V101.037ZM78.6157 96.5253V104.925H80.0077V96.5253H78.6157ZM86.0232 102.225L84.9672 102.957C85.1512 103.341 85.3992 103.697 85.7112 104.025C86.0232 104.353 86.3872 104.617 86.8032 104.817C87.2272 105.009 87.6872 105.105 88.1832 105.105C88.5432 105.105 88.8872 105.045 89.2152 104.925C89.5512 104.813 89.8512 104.653 90.1152 104.445C90.3792 104.229 90.5872 103.965 90.7392 103.653C90.8912 103.341 90.9672 102.989 90.9672 102.597C90.9672 102.229 90.9032 101.909 90.7752 101.637C90.6552 101.365 90.4912 101.129 90.2832 100.929C90.0752 100.721 89.8432 100.549 89.5872 100.413C89.3392 100.277 89.0912 100.165 88.8432 100.077C88.3952 99.9173 88.0312 99.7613 87.7512 99.6093C87.4712 99.4573 87.2632 99.2973 87.1272 99.1293C86.9992 98.9533 86.9352 98.7573 86.9352 98.5413C86.9352 98.3013 87.0272 98.0933 87.2112 97.9173C87.3952 97.7333 87.6832 97.6413 88.0752 97.6413C88.3552 97.6413 88.5992 97.6973 88.8072 97.8093C89.0232 97.9133 89.2112 98.0573 89.3712 98.2413C89.5312 98.4173 89.6632 98.6093 89.7672 98.8173L90.9192 98.1693C90.7752 97.8733 90.5752 97.5893 90.3192 97.3173C90.0712 97.0453 89.7632 96.8213 89.3952 96.6453C89.0272 96.4693 88.5952 96.3813 88.0992 96.3813C87.5952 96.3813 87.1432 96.4773 86.7432 96.6693C86.3512 96.8533 86.0392 97.1173 85.8072 97.4613C85.5752 97.7973 85.4592 98.1893 85.4592 98.6373C85.4592 99.0293 85.5352 99.3653 85.6872 99.6453C85.8392 99.9173 86.0312 100.149 86.2632 100.341C86.4952 100.525 86.7392 100.681 86.9952 100.809C87.2512 100.929 87.4832 101.025 87.6912 101.097C88.0432 101.225 88.3512 101.357 88.6152 101.493C88.8872 101.621 89.0992 101.781 89.2512 101.973C89.4032 102.157 89.4792 102.405 89.4792 102.717C89.4792 103.045 89.3592 103.313 89.1192 103.521C88.8792 103.729 88.5672 103.833 88.1832 103.833C87.8632 103.833 87.5752 103.769 87.3192 103.641C87.0632 103.505 86.8272 103.317 86.6112 103.077C86.4032 102.829 86.2072 102.545 86.0232 102.225ZM92.9844 101.073H98.9724V99.7653H92.9844V101.073ZM98.0604 96.5253V104.925H99.4764V96.5253H98.0604ZM92.4204 96.5253V104.925H93.8364V96.5253H92.4204ZM101.35 96.5253V104.925H102.778V96.5253H101.35ZM108.816 101.073H114.804V99.7653H108.816V101.073ZM113.892 96.5253V104.925H115.308V96.5253H113.892ZM108.252 96.5253V104.925H109.668V96.5253H108.252ZM118.19 102.765H122.63L122.354 101.565H118.454L118.19 102.765ZM120.386 98.9013L121.718 102.021L121.754 102.369L122.894 104.925H124.49L120.386 96.0573L116.282 104.925H117.878L119.042 102.297L119.066 101.985L120.386 98.9013ZM123.784 97.8333H125.992V104.925H127.42V97.8333H129.64V96.5253H123.784V97.8333Z" fill="#101010"/>
<defs>
<linearGradient id="paint0_linear_709_260" x1="0" y1="68.4253" x2="200" y2="68.4253" gradientUnits="userSpaceOnUse">
<stop stop-color="#FF416C"/>
<stop offset="1" stop-color="#FF4B2B"/>
</linearGradient>
</defs>
</svg>
