<svg width="200" height="136" viewBox="0 0 200 136" fill="none" xmlns="http://www.w3.org/2000/svg">
<rect y="0.925293" width="200" height="135" rx="5" fill="url(#paint0_linear_709_299)" fill-opacity="0.1"/>
<path d="M88.9265 69.0082L93.2987 71.5356L98.6468 68.4483L94.2692 65.9263V28.8633L89.1877 25.9253L88.7398 26.1812L68.5527 37.8371V44.0116L88.9265 32.2437V69.0082Z" fill="#101010"/>
<path d="M104.48 28.8633V67.7552L89.1877 76.585L73.8954 67.7552V43.601L68.5527 46.6883V69.0082L89.1877 80.9253L109.823 69.0082V32.2437L130.196 44.0116V37.8371L109.561 25.9253L104.48 28.8633Z" fill="#101010"/>
<path d="M107.035 73.2951L101.686 76.3823L109.562 80.9252L130.197 69.0081V46.6882L124.854 43.601V65.9262L109.562 74.7561L107.035 73.2951Z" fill="#101010"/>
<path d="M67.937 97.7973H71.693V96.5253H67.937V97.7973ZM67.937 101.133H71.573V99.8973H67.937V101.133ZM67.061 96.5253V104.925H68.453V96.5253H67.061ZM73.4831 102.765H77.9231L77.6471 101.565H73.7471L73.4831 102.765ZM75.6791 98.9013L77.0111 102.021L77.0471 102.369L78.1871 104.925H79.7831L75.6791 96.0573L71.5751 104.925H73.1711L74.3351 102.297L74.3591 101.985L75.6791 98.9013ZM80.7602 96.5253V104.925H85.5122V103.653H82.1762V96.5253H80.7602ZM87.1943 100.725C87.1943 100.149 87.3143 99.6373 87.5543 99.1893C87.8023 98.7333 88.1423 98.3773 88.5743 98.1213C89.0063 97.8653 89.4983 97.7373 90.0503 97.7373C90.6183 97.7373 91.1143 97.8653 91.5383 98.1213C91.9703 98.3773 92.3063 98.7333 92.5463 99.1893C92.7863 99.6373 92.9063 100.149 92.9063 100.725C92.9063 101.301 92.7823 101.817 92.5343 102.273C92.2943 102.721 91.9583 103.073 91.5263 103.329C91.1023 103.585 90.6103 103.713 90.0503 103.713C89.4983 103.713 89.0063 103.585 88.5743 103.329C88.1423 103.073 87.8023 102.721 87.5543 102.273C87.3143 101.817 87.1943 101.301 87.1943 100.725ZM85.6943 100.725C85.6943 101.349 85.8023 101.929 86.0183 102.465C86.2343 103.001 86.5343 103.465 86.9183 103.857C87.3103 104.249 87.7743 104.557 88.3103 104.781C88.8463 104.997 89.4263 105.105 90.0503 105.105C90.6823 105.105 91.2623 104.997 91.7903 104.781C92.3263 104.557 92.7903 104.249 93.1823 103.857C93.5743 103.465 93.8783 103.001 94.0943 102.465C94.3103 101.929 94.4183 101.349 94.4183 100.725C94.4183 100.093 94.3103 99.5133 94.0943 98.9853C93.8783 98.4573 93.5703 98.0013 93.1703 97.6173C92.7783 97.2253 92.3183 96.9213 91.7903 96.7053C91.2623 96.4893 90.6823 96.3813 90.0503 96.3813C89.4343 96.3813 88.8583 96.4893 88.3223 96.7053C87.7943 96.9213 87.3303 97.2253 86.9303 97.6173C86.5383 98.0013 86.2343 98.4573 86.0183 98.9853C85.8023 99.5133 85.6943 100.093 85.6943 100.725ZM96.4401 102.765H100.88L100.604 101.565H96.7041L96.4401 102.765ZM98.6361 98.9013L99.9681 102.021L100.004 102.369L101.144 104.925H102.74L98.6361 96.0573L94.5321 104.925H96.1281L97.2921 102.297L97.3161 101.985L98.6361 98.9013ZM103.717 96.5253V104.925H105.169V96.5253H103.717ZM108.289 96.5253L104.737 100.497L108.433 104.925H110.173L106.453 100.461L109.993 96.5253H108.289ZM111.147 96.5253V104.925H112.599V96.5253H111.147ZM115.719 96.5253L112.167 100.497L115.863 104.925H117.603L113.883 100.461L117.423 96.5253H115.719ZM119.585 102.765H124.025L123.749 101.565H119.849L119.585 102.765ZM121.781 98.9013L123.113 102.021L123.149 102.369L124.289 104.925H125.885L121.781 96.0573L117.677 104.925H119.273L120.437 102.297L120.461 101.985L121.781 98.9013ZM127.414 102.225L126.358 102.957C126.542 103.341 126.79 103.697 127.102 104.025C127.414 104.353 127.778 104.617 128.194 104.817C128.618 105.009 129.078 105.105 129.574 105.105C129.934 105.105 130.278 105.045 130.606 104.925C130.942 104.813 131.242 104.653 131.506 104.445C131.77 104.229 131.978 103.965 132.13 103.653C132.282 103.341 132.358 102.989 132.358 102.597C132.358 102.229 132.294 101.909 132.166 101.637C132.046 101.365 131.882 101.129 131.674 100.929C131.466 100.721 131.234 100.549 130.978 100.413C130.73 100.277 130.482 100.165 130.234 100.077C129.786 99.9173 129.422 99.7613 129.142 99.6093C128.862 99.4573 128.654 99.2973 128.518 99.1293C128.39 98.9533 128.326 98.7573 128.326 98.5413C128.326 98.3013 128.418 98.0933 128.602 97.9173C128.786 97.7333 129.074 97.6413 129.466 97.6413C129.746 97.6413 129.99 97.6973 130.198 97.8093C130.414 97.9133 130.602 98.0573 130.762 98.2413C130.922 98.4173 131.054 98.6093 131.158 98.8173L132.31 98.1693C132.166 97.8733 131.966 97.5893 131.71 97.3173C131.462 97.0453 131.154 96.8213 130.786 96.6453C130.418 96.4693 129.986 96.3813 129.49 96.3813C128.986 96.3813 128.534 96.4773 128.134 96.6693C127.742 96.8533 127.43 97.1173 127.198 97.4613C126.966 97.7973 126.85 98.1893 126.85 98.6373C126.85 99.0293 126.926 99.3653 127.078 99.6453C127.23 99.9173 127.422 100.149 127.654 100.341C127.886 100.525 128.13 100.681 128.386 100.809C128.642 100.929 128.874 101.025 129.082 101.097C129.434 101.225 129.742 101.357 130.006 101.493C130.278 101.621 130.49 101.781 130.642 101.973C130.794 102.157 130.87 102.405 130.87 102.717C130.87 103.045 130.75 103.313 130.51 103.521C130.27 103.729 129.958 103.833 129.574 103.833C129.254 103.833 128.966 103.769 128.71 103.641C128.454 103.505 128.218 103.317 128.002 103.077C127.794 102.829 127.598 102.545 127.414 102.225Z" fill="#101010"/>
<defs>
<linearGradient id="paint0_linear_709_299" x1="0" y1="68.4253" x2="200" y2="68.4253" gradientUnits="userSpaceOnUse">
<stop stop-color="#FF416C"/>
<stop offset="1" stop-color="#FF4B2B"/>
</linearGradient>
</defs>
</svg>
