<svg width="200" height="136" viewBox="0 0 200 136" fill="none" xmlns="http://www.w3.org/2000/svg">
<rect y="0.925293" width="200" height="135" rx="5" fill="url(#paint0_linear_709_309)" fill-opacity="0.1"/>
<path d="M121.495 31.3953C119.082 28.9787 116.051 27.2714 112.734 26.4597C109.416 25.6479 105.94 25.7628 102.683 26.792C99.4269 27.8211 96.5156 29.7249 94.2671 32.2956C92.0187 34.8664 90.5195 38.0052 89.9332 41.3698C89.8644 41.7483 89.8128 42.1311 89.7698 42.5139C89.7267 42.8967 89.6966 43.2752 89.6794 43.658C89.6794 43.9634 89.6794 44.2688 89.6794 44.5784V63.2197H105.787C105.809 62.9101 105.817 62.5961 105.817 62.2821V59.7745H93.1161V44.5784C93.1161 44.2602 93.1161 43.9462 93.1462 43.6365C93.1462 43.2537 93.2064 42.8752 93.258 42.501C93.3096 42.1268 93.3784 41.7354 93.4601 41.3612C94.0382 38.6941 95.3241 36.2319 97.1825 34.2335C99.041 32.2351 101.403 30.7742 104.022 30.0043C106.64 29.2345 109.417 29.1841 112.061 29.8585C114.706 30.5329 117.12 31.9071 119.049 33.8369C120.979 35.7666 122.353 38.1805 123.028 40.8249C123.702 43.4692 123.652 46.2464 122.882 48.8646C122.112 51.4828 120.651 53.8453 118.653 55.7038C116.654 57.5622 114.192 58.8481 111.525 59.4261V62.2778C111.525 62.5014 111.525 62.7079 111.525 62.9445C114.888 62.3571 118.025 60.8577 120.594 58.6099C123.163 56.362 125.066 53.452 126.095 50.197C127.124 46.942 127.24 43.467 126.429 40.1508C125.619 36.8347 123.914 33.8046 121.5 31.391L121.495 31.3953Z" fill="#101010"/>
<path d="M93.1161 47.0815H105.809V62.2818C105.809 62.5958 105.809 62.9098 105.779 63.2195C105.779 63.6023 105.719 63.9851 105.667 64.3593C105.615 64.7335 105.547 65.1206 105.465 65.4948C104.886 68.1604 103.6 70.6208 101.741 72.6176C99.8833 74.6144 97.5216 76.074 94.9045 76.8429C92.2875 77.6118 89.5116 77.6616 86.8686 76.9873C84.2256 76.3129 81.813 74.9392 79.8842 73.0104C77.9555 71.0817 76.5817 68.6691 75.9074 66.0261C75.233 63.3831 75.2829 60.6072 76.0518 57.9901C76.8207 55.3731 78.2802 53.0114 80.2771 51.1532C82.2739 49.295 84.7343 48.0088 87.3998 47.4299V44.5825C87.3998 44.3545 87.3998 44.1524 87.3998 43.9115C83.9407 44.5152 80.7224 46.0835 78.1152 48.4357C75.5081 50.7879 73.6182 53.8286 72.6631 57.2076C71.7079 60.5866 71.7263 64.1667 72.7161 67.5357C73.706 70.9047 75.6271 73.9257 78.2583 76.251C80.8895 78.5763 84.1238 80.1114 87.589 80.6795C91.0541 81.2476 94.6093 80.8256 97.8452 79.4622C101.081 78.0988 103.866 75.8493 105.88 72.9728C107.894 70.0962 109.055 66.7094 109.228 63.2023C109.228 63.0561 109.228 62.9055 109.228 62.7722C109.228 62.6948 109.228 62.613 109.228 62.5313V62.3034V43.6362H93.1204C93.1204 43.9459 93.0903 44.2599 93.0903 44.5782L93.1161 47.0815Z" fill="#101010"/>
<path d="M59.0141 96.5253V104.925H60.4661V96.5253H59.0141ZM63.5861 96.5253L60.0341 100.497L63.7301 104.925H65.4701L61.7501 100.461L65.2901 96.5253H63.5861ZM66.4438 96.5253V104.925H67.8718V96.5253H66.4438ZM75.8805 96.5253V102.165L69.7485 96.1053V104.925H71.1405V99.2853L77.2725 105.345V96.5253H75.8805ZM79.1352 96.5253V104.925H83.8872V103.653H80.5512V96.5253H79.1352ZM85.7886 104.925H90.0246V103.677H85.7886V104.925ZM85.7886 97.7733H90.0246V96.5253H85.7886V97.7733ZM85.7886 101.037H89.7846V99.8133H85.7886V101.037ZM84.9126 96.5253V104.925H86.3046V96.5253H84.9126ZM90.928 97.8333H93.136V104.925H94.564V97.8333H96.784V96.5253H90.928V97.8333ZM98.3669 102.225L97.3109 102.957C97.4949 103.341 97.7429 103.697 98.0549 104.025C98.3669 104.353 98.7309 104.617 99.1469 104.817C99.5709 105.009 100.031 105.105 100.527 105.105C100.887 105.105 101.231 105.045 101.559 104.925C101.895 104.813 102.195 104.653 102.459 104.445C102.723 104.229 102.931 103.965 103.083 103.653C103.235 103.341 103.311 102.989 103.311 102.597C103.311 102.229 103.247 101.909 103.119 101.637C102.999 101.365 102.835 101.129 102.627 100.929C102.419 100.721 102.187 100.549 101.931 100.413C101.683 100.277 101.435 100.165 101.187 100.077C100.739 99.9173 100.375 99.7613 100.095 99.6093C99.8149 99.4573 99.6069 99.2973 99.4709 99.1293C99.3429 98.9533 99.2789 98.7573 99.2789 98.5413C99.2789 98.3013 99.3709 98.0933 99.5549 97.9173C99.7389 97.7333 100.027 97.6413 100.419 97.6413C100.699 97.6413 100.943 97.6973 101.151 97.8093C101.367 97.9133 101.555 98.0573 101.715 98.2413C101.875 98.4173 102.007 98.6093 102.111 98.8173L103.263 98.1693C103.119 97.8733 102.919 97.5893 102.663 97.3173C102.415 97.0453 102.107 96.8213 101.739 96.6453C101.371 96.4693 100.939 96.3813 100.443 96.3813C99.9389 96.3813 99.4869 96.4773 99.0869 96.6693C98.6949 96.8533 98.3829 97.1173 98.1509 97.4613C97.9189 97.7973 97.8029 98.1893 97.8029 98.6373C97.8029 99.0293 97.8789 99.3653 98.0309 99.6453C98.1829 99.9173 98.3749 100.149 98.6069 100.341C98.8389 100.525 99.0829 100.681 99.3389 100.809C99.5949 100.929 99.8269 101.025 100.035 101.097C100.387 101.225 100.695 101.357 100.959 101.493C101.231 101.621 101.443 101.781 101.595 101.973C101.747 102.157 101.823 102.405 101.823 102.717C101.823 103.045 101.703 103.313 101.463 103.521C101.223 103.729 100.911 103.833 100.527 103.833C100.207 103.833 99.9189 103.769 99.6629 103.641C99.4069 103.505 99.1709 103.317 98.9549 103.077C98.7469 102.829 98.5509 102.545 98.3669 102.225ZM104.764 96.5253V104.925H106.204V96.5253H104.764ZM107.476 104.925C108.332 104.925 109.084 104.753 109.732 104.409C110.38 104.057 110.884 103.569 111.244 102.945C111.612 102.313 111.796 101.573 111.796 100.725C111.796 99.8773 111.612 99.1413 111.244 98.5173C110.884 97.8853 110.38 97.3973 109.732 97.0533C109.084 96.7013 108.332 96.5253 107.476 96.5253H105.64V97.8573H107.44C107.856 97.8573 108.24 97.9173 108.592 98.0373C108.944 98.1573 109.248 98.3373 109.504 98.5773C109.768 98.8173 109.972 99.1173 110.116 99.4773C110.268 99.8373 110.344 100.253 110.344 100.725C110.344 101.197 110.268 101.613 110.116 101.973C109.972 102.333 109.768 102.633 109.504 102.873C109.248 103.113 108.944 103.293 108.592 103.413C108.24 103.533 107.856 103.593 107.44 103.593H105.64V104.925H107.476ZM115.936 97.8333H118.144V104.925H119.572V97.8333H121.792V96.5253H115.936V97.8333ZM122.823 96.5253V104.925H124.263V96.5253H122.823ZM125.535 104.925C126.391 104.925 127.143 104.753 127.791 104.409C128.439 104.057 128.943 103.569 129.303 102.945C129.671 102.313 129.855 101.573 129.855 100.725C129.855 99.8773 129.671 99.1413 129.303 98.5173C128.943 97.8853 128.439 97.3973 127.791 97.0533C127.143 96.7013 126.391 96.5253 125.535 96.5253H123.699V97.8573H125.499C125.915 97.8573 126.299 97.9173 126.651 98.0373C127.003 98.1573 127.307 98.3373 127.563 98.5773C127.827 98.8173 128.031 99.1173 128.175 99.4773C128.327 99.8373 128.403 100.253 128.403 100.725C128.403 101.197 128.327 101.613 128.175 101.973C128.031 102.333 127.827 102.633 127.563 102.873C127.307 103.113 127.003 103.293 126.651 103.413C126.299 103.533 125.915 103.593 125.499 103.593H123.699V104.925H125.535ZM132.257 100.725C132.257 100.149 132.377 99.6373 132.617 99.1893C132.865 98.7333 133.205 98.3773 133.637 98.1213C134.069 97.8653 134.561 97.7373 135.113 97.7373C135.681 97.7373 136.177 97.8653 136.601 98.1213C137.033 98.3773 137.369 98.7333 137.609 99.1893C137.849 99.6373 137.969 100.149 137.969 100.725C137.969 101.301 137.845 101.817 137.597 102.273C137.357 102.721 137.021 103.073 136.589 103.329C136.165 103.585 135.673 103.713 135.113 103.713C134.561 103.713 134.069 103.585 133.637 103.329C133.205 103.073 132.865 102.721 132.617 102.273C132.377 101.817 132.257 101.301 132.257 100.725ZM130.757 100.725C130.757 101.349 130.865 101.929 131.081 102.465C131.297 103.001 131.597 103.465 131.981 103.857C132.373 104.249 132.837 104.557 133.373 104.781C133.909 104.997 134.489 105.105 135.113 105.105C135.745 105.105 136.325 104.997 136.853 104.781C137.389 104.557 137.853 104.249 138.245 103.857C138.637 103.465 138.941 103.001 139.157 102.465C139.373 101.929 139.481 101.349 139.481 100.725C139.481 100.093 139.373 99.5133 139.157 98.9853C138.941 98.4573 138.633 98.0013 138.233 97.6173C137.841 97.2253 137.381 96.9213 136.853 96.7053C136.325 96.4893 135.745 96.3813 135.113 96.3813C134.497 96.3813 133.921 96.4893 133.385 96.7053C132.857 96.9213 132.393 97.2253 131.993 97.6173C131.601 98.0013 131.297 98.4573 131.081 98.9853C130.865 99.5133 130.757 100.093 130.757 100.725Z" fill="#101010"/>
<defs>
<linearGradient id="paint0_linear_709_309" x1="0" y1="68.4253" x2="200" y2="68.4253" gradientUnits="userSpaceOnUse">
<stop stop-color="#FF416C"/>
<stop offset="1" stop-color="#FF4B2B"/>
</linearGradient>
</defs>
</svg>
