<svg width="200" height="136" viewBox="0 0 200 136" fill="none" xmlns="http://www.w3.org/2000/svg">
<rect y="0.925293" width="200" height="135" rx="5" fill="url(#paint0_linear_709_249)" fill-opacity="0.1"/>
<path d="M87.7082 45.3649L106.712 26.9253L99.1608 28.9304C91.2997 31.0151 84.6767 34.6324 79.4784 39.6806L73.6201 45.3649C74.5454 46.266 75.6449 46.981 76.8557 47.4689C78.0664 47.9568 79.3646 48.2079 80.6756 48.2079C81.9866 48.2079 83.2846 47.9568 84.4954 47.4689C85.7061 46.981 86.8057 46.266 87.731 45.3649H87.7082ZM81.372 41.5136C85.7327 37.2824 91.1859 34.12 97.5995 32.0928L85.8328 43.5319C84.7997 44.5356 83.4791 45.2142 82.043 45.4797C80.6068 45.7452 79.1216 45.5851 77.7805 45.0204L81.372 41.5136Z" fill="#101010"/>
<path d="M85.1459 73.4021L91.0042 79.0863C91.9329 78.1885 92.6698 77.1216 93.1726 75.9468C93.6754 74.7721 93.9342 73.5125 93.9342 72.2405C93.9342 70.9684 93.6754 69.7089 93.1726 68.5341C92.6698 67.3594 91.9329 66.2925 91.0042 65.3947L72 46.9551L74.0666 54.2823C76.2151 61.932 79.9431 68.3538 85.1459 73.4021ZM89.1106 67.2541C90.144 68.2562 90.8429 69.5367 91.1165 70.9293C91.39 72.3218 91.2256 73.762 90.6446 75.0627L87.0349 71.5647C82.6742 67.3336 79.415 62.0424 77.3257 55.8193L89.1106 67.2541Z" fill="#101010"/>
<path d="M118.739 59.4541C117.43 59.4528 116.133 59.7027 114.924 60.1893C113.715 60.6759 112.617 61.3897 111.693 62.2896L92.7158 80.7247L100.267 78.7196C108.124 76.6349 114.747 73.0176 119.95 67.9738L125.808 62.2896C124.884 61.3905 123.785 60.6772 122.576 60.1906C121.367 59.7041 120.071 59.4538 118.762 59.4541H118.739ZM118.033 66.1365C113.673 70.3677 108.22 73.53 101.801 75.5572L113.586 64.1225C114.62 63.118 115.941 62.4388 117.378 62.1733C118.815 61.9078 120.301 62.0684 121.643 62.6341L118.033 66.1365Z" fill="#101010"/>
<path d="M108.42 42.2336L127.419 60.6732L125.357 53.3459C123.204 45.7183 119.476 39.2965 114.278 34.2482L108.42 28.564C107.495 29.4614 106.761 30.5269 106.26 31.6996C105.759 32.8724 105.501 34.1293 105.501 35.3987C105.501 36.6682 105.759 37.9252 106.26 39.0979C106.761 40.2707 107.495 41.3362 108.42 42.2336ZM108.779 32.5875L112.385 36.0856C116.866 40.5115 120.194 45.9109 122.094 51.8354L110.313 40.4006C109.279 39.3982 108.58 38.1168 108.306 36.7234C108.032 35.3299 108.197 33.8888 108.779 32.5875Z" fill="#101010"/>
<path d="M66.9375 101.073H72.9255V99.7653H66.9375V101.073ZM72.0135 96.5253V104.925H73.4295V96.5253H72.0135ZM66.3735 96.5253V104.925H67.7895V96.5253H66.3735ZM76.3112 102.765H80.7512L80.4752 101.565H76.5752L76.3112 102.765ZM78.5072 98.9013L79.8392 102.021L79.8752 102.369L81.0152 104.925H82.6112L78.5072 96.0573L74.4032 104.925H75.9992L77.1632 102.297L77.1872 101.985L78.5072 98.9013ZM85.1483 99.8133L87.7043 104.145L90.2603 99.8133L90.8483 104.925H92.3123L91.1603 96.1053L87.7043 101.805L84.2603 96.1053L83.1083 104.925H84.5723L85.1483 99.8133ZM94.6979 102.765H99.1379L98.8619 101.565H94.9619L94.6979 102.765ZM96.8939 98.9013L98.2259 102.021L98.2619 102.369L99.4019 104.925H100.998L96.8939 96.0573L92.7899 104.925H94.3859L95.5499 102.297L95.5739 101.985L96.8939 98.9013ZM101.975 96.5253V104.925H103.403V96.5253H101.975ZM109.885 102.765H114.325L114.049 101.565H110.149L109.885 102.765ZM112.081 98.9013L113.413 102.021L113.449 102.369L114.589 104.925H116.185L112.081 96.0573L107.977 104.925H109.573L110.737 102.297L110.761 101.985L112.081 98.9013ZM117.163 96.5253V104.925H118.603V96.5253H117.163ZM119.875 104.925C120.731 104.925 121.483 104.753 122.131 104.409C122.779 104.057 123.283 103.569 123.643 102.945C124.011 102.313 124.195 101.573 124.195 100.725C124.195 99.8773 124.011 99.1413 123.643 98.5173C123.283 97.8853 122.779 97.3973 122.131 97.0533C121.483 96.7013 120.731 96.5253 119.875 96.5253H118.039V97.8573H119.839C120.255 97.8573 120.639 97.9173 120.991 98.0373C121.343 98.1573 121.647 98.3373 121.903 98.5773C122.167 98.8173 122.371 99.1173 122.515 99.4773C122.667 99.8373 122.743 100.253 122.743 100.725C122.743 101.197 122.667 101.613 122.515 101.973C122.371 102.333 122.167 102.633 121.903 102.873C121.647 103.113 121.343 103.293 120.991 103.413C120.639 103.533 120.255 103.593 119.839 103.593H118.039V104.925H119.875ZM126.221 102.765H130.661L130.385 101.565H126.485L126.221 102.765ZM128.417 98.9013L129.749 102.021L129.785 102.369L130.925 104.925H132.521L128.417 96.0573L124.313 104.925H125.909L127.073 102.297L127.097 101.985L128.417 98.9013Z" fill="#101010"/>
<defs>
<linearGradient id="paint0_linear_709_249" x1="0" y1="68.4253" x2="200" y2="68.4253" gradientUnits="userSpaceOnUse">
<stop stop-color="#FF416C"/>
<stop offset="1" stop-color="#FF4B2B"/>
</linearGradient>
</defs>
</svg>
