<svg width="85" height="86" viewBox="0 0 85 86" fill="none" xmlns="http://www.w3.org/2000/svg">
<rect x="0.5" y="0.721191" width="84" height="84" rx="42" stroke="#FF6B00"/>
<path d="M36.4212 51.7876L38.9651 53.2581L42.0766 51.4619L39.5297 49.9945V28.4305L36.5732 26.7212L36.3126 26.8701L24.5674 33.6517V37.2441L36.4212 30.3974V51.7876Z" fill="#606060"/>
<path d="M45.4705 28.4305V51.0586L36.5732 56.1959L27.6759 51.0586V37.0052L24.5674 38.8015V51.7876L36.5732 58.7212L48.579 51.7876V30.3974L60.4328 37.2441V33.6517L48.427 26.7212L45.4705 28.4305Z" fill="#606060"/>
<path d="M46.9563 54.2817L43.8447 56.0779L48.4268 58.7211L60.4326 51.7875V38.8014L57.3241 37.0051V49.9944L48.4268 55.1318L46.9563 54.2817Z" fill="#606060"/>
</svg>
