<svg width="200" height="136" viewBox="0 0 200 136" fill="none" xmlns="http://www.w3.org/2000/svg">
<rect y="0.925293" width="200" height="135" rx="5" fill="url(#paint0_linear_709_269)" fill-opacity="0.1"/>
<path d="M111.272 43.3834L104.022 50.6328L106.822 53.4326L114.072 46.1832L111.272 43.3834Z" fill="#101010"/>
<path d="M96.6156 58.0202L89.3661 65.2697L92.1659 68.0694L99.4153 60.82L96.6156 58.0202Z" fill="#101010"/>
<path d="M106.665 38.7794L99.416 46.0288L102.216 48.8286L109.465 41.5792L106.665 38.7794Z" fill="#101010"/>
<path d="M92.0133 53.4287L84.7639 60.6781L87.5637 63.4779L94.8131 56.2285L92.0133 53.4287Z" fill="#101010"/>
<path d="M87.5625 43.3775L84.7627 46.1772L92.0121 53.4266L94.8119 50.6269L87.5625 43.3775Z" fill="#101010"/>
<path d="M92.1662 38.7754L89.3664 41.5752L96.6158 48.8246L99.4155 46.0248L92.1662 38.7754Z" fill="#101010"/>
<path d="M106.819 53.4278L104.02 56.2275L111.269 63.4769L114.069 60.6772L106.819 53.4278Z" fill="#101010"/>
<path d="M102.216 58.0302L99.4159 60.83L106.665 68.0793L109.465 65.2796L102.216 58.0302Z" fill="#101010"/>
<path d="M109.465 70.8769L106.666 68.0778L99.4165 75.3271L92.1671 68.0778L89.368 70.8769L99.4165 80.9252L109.465 70.8769Z" fill="#101010"/>
<path d="M84.7634 46.176L81.9644 43.377L71.916 53.4254L81.9644 63.4738L84.7634 60.6747L77.5142 53.4254L84.7634 46.176Z" fill="#101010"/>
<path d="M116.868 43.377L114.069 46.176L121.319 53.4254L114.069 60.6747L116.868 63.4738L126.917 53.4254L116.868 43.377Z" fill="#101010"/>
<path d="M106.666 38.7728L109.465 35.9737L99.4165 25.9253L89.368 35.9737L92.1671 38.7728L99.4165 31.5234L106.666 38.7728Z" fill="#101010"/>
<path d="M73.1813 96.5253V102.165L67.0493 96.1053V104.925H68.4413V99.2853L74.5733 105.345V96.5253H73.1813ZM77.456 100.725C77.456 100.149 77.576 99.6373 77.816 99.1893C78.064 98.7333 78.404 98.3773 78.836 98.1213C79.268 97.8653 79.76 97.7373 80.312 97.7373C80.88 97.7373 81.376 97.8653 81.8 98.1213C82.232 98.3773 82.568 98.7333 82.808 99.1893C83.048 99.6373 83.168 100.149 83.168 100.725C83.168 101.301 83.044 101.817 82.796 102.273C82.556 102.721 82.22 103.073 81.788 103.329C81.364 103.585 80.872 103.713 80.312 103.713C79.76 103.713 79.268 103.585 78.836 103.329C78.404 103.073 78.064 102.721 77.816 102.273C77.576 101.817 77.456 101.301 77.456 100.725ZM75.956 100.725C75.956 101.349 76.064 101.929 76.28 102.465C76.496 103.001 76.796 103.465 77.18 103.857C77.572 104.249 78.036 104.557 78.572 104.781C79.108 104.997 79.688 105.105 80.312 105.105C80.944 105.105 81.524 104.997 82.052 104.781C82.588 104.557 83.052 104.249 83.444 103.857C83.836 103.465 84.14 103.001 84.356 102.465C84.572 101.929 84.68 101.349 84.68 100.725C84.68 100.093 84.572 99.5133 84.356 98.9853C84.14 98.4573 83.832 98.0013 83.432 97.6173C83.04 97.2253 82.58 96.9213 82.052 96.7053C81.524 96.4893 80.944 96.3813 80.312 96.3813C79.696 96.3813 79.12 96.4893 78.584 96.7053C78.056 96.9213 77.592 97.2253 77.192 97.6173C76.8 98.0013 76.496 98.4573 76.28 98.9853C76.064 99.5133 75.956 100.093 75.956 100.725ZM86.0571 96.5253V104.925H87.5091V96.5253H86.0571ZM90.6291 96.5253L87.0771 100.497L90.7731 104.925H92.5131L88.7931 100.461L92.3331 96.5253H90.6291ZM93.9091 100.725C93.9091 100.149 94.0291 99.6373 94.2691 99.1893C94.5171 98.7333 94.8571 98.3773 95.2891 98.1213C95.7211 97.8653 96.2131 97.7373 96.7651 97.7373C97.3331 97.7373 97.8291 97.8653 98.2531 98.1213C98.6851 98.3773 99.0211 98.7333 99.2611 99.1893C99.5011 99.6373 99.6211 100.149 99.6211 100.725C99.6211 101.301 99.4971 101.817 99.2491 102.273C99.0091 102.721 98.6731 103.073 98.2411 103.329C97.8171 103.585 97.3251 103.713 96.7651 103.713C96.2131 103.713 95.7211 103.585 95.2891 103.329C94.8571 103.073 94.5171 102.721 94.2691 102.273C94.0291 101.817 93.9091 101.301 93.9091 100.725ZM92.4091 100.725C92.4091 101.349 92.5171 101.929 92.7331 102.465C92.9491 103.001 93.2491 103.465 93.6331 103.857C94.0251 104.249 94.4891 104.557 95.0251 104.781C95.5611 104.997 96.1411 105.105 96.7651 105.105C97.3971 105.105 97.9771 104.997 98.5051 104.781C99.0411 104.557 99.5051 104.249 99.8971 103.857C100.289 103.465 100.593 103.001 100.809 102.465C101.025 101.929 101.133 101.349 101.133 100.725C101.133 100.093 101.025 99.5133 100.809 98.9853C100.593 98.4573 100.285 98.0013 99.8851 97.6173C99.4931 97.2253 99.0331 96.9213 98.5051 96.7053C97.9771 96.4893 97.3971 96.3813 96.7651 96.3813C96.1491 96.3813 95.5731 96.4893 95.0371 96.7053C94.5091 96.9213 94.0451 97.2253 93.6451 97.6173C93.2531 98.0013 92.9491 98.4573 92.7331 98.9853C92.5171 99.5133 92.4091 100.093 92.4091 100.725ZM102.51 96.5253V104.925H107.262V103.653H103.926V96.5253H102.51ZM112.893 102.765H117.333L117.057 101.565H113.157L112.893 102.765ZM115.089 98.9013L116.421 102.021L116.457 102.369L117.597 104.925H119.193L115.089 96.0573L110.985 104.925H112.581L113.745 102.297L113.769 101.985L115.089 98.9013ZM120.17 96.5253V104.925H124.922V103.653H121.586V96.5253H120.17ZM125.888 96.5253V102.165C125.888 102.629 125.96 103.045 126.104 103.413C126.248 103.773 126.456 104.081 126.728 104.337C127.008 104.593 127.336 104.789 127.712 104.925C128.088 105.061 128.5 105.129 128.948 105.129C129.396 105.129 129.808 105.061 130.184 104.925C130.56 104.789 130.884 104.593 131.156 104.337C131.428 104.081 131.636 103.773 131.78 103.413C131.932 103.045 132.008 102.629 132.008 102.165V96.5253H130.592V102.105C130.592 102.625 130.452 103.045 130.172 103.365C129.892 103.677 129.484 103.833 128.948 103.833C128.404 103.833 127.992 103.677 127.712 103.365C127.44 103.045 127.304 102.625 127.304 102.105V96.5253H125.888Z" fill="#101010"/>
<defs>
<linearGradient id="paint0_linear_709_269" x1="0" y1="68.4253" x2="200" y2="68.4253" gradientUnits="userSpaceOnUse">
<stop stop-color="#FF416C"/>
<stop offset="1" stop-color="#FF4B2B"/>
</linearGradient>
</defs>
</svg>
