<svg width="86" height="86" viewBox="0 0 86 86" fill="none" xmlns="http://www.w3.org/2000/svg">
<rect x="1" y="1.22119" width="84" height="84" rx="42" stroke="#FF6B00"/>
<path d="M55.8197 30.4038C54.4156 28.9977 52.6523 28.0044 50.7222 27.5321C48.7921 27.0598 46.7693 27.1267 44.8746 27.7254C42.9799 28.3242 41.2861 29.4319 39.9779 30.9276C38.6697 32.4233 37.7975 34.2495 37.4563 36.2071C37.4163 36.4273 37.3863 36.65 37.3612 36.8727C37.3362 37.0955 37.3187 37.3157 37.3087 37.5384C37.3087 37.7161 37.3087 37.8938 37.3087 38.0739V48.9198H46.6806C46.6931 48.7396 46.6981 48.5569 46.6981 48.3742V46.9153H39.3082V38.0739C39.3082 37.8887 39.3082 37.7061 39.3257 37.5259C39.3257 37.3032 39.3607 37.0829 39.3908 36.8652C39.4208 36.6475 39.4608 36.4198 39.5084 36.2021C39.8447 34.6503 40.5928 33.2178 41.6741 32.055C42.7554 30.8923 44.1299 30.0424 45.6532 29.5944C47.1765 29.1465 48.7924 29.1172 50.3309 29.5096C51.8695 29.902 53.2739 30.7015 54.3967 31.8243C55.5194 32.947 56.319 34.3515 56.7114 35.89C57.1038 37.4286 57.0744 39.0444 56.6265 40.5677C56.1786 42.091 55.3286 43.4656 54.1659 44.5468C53.0032 45.6281 51.5707 46.3763 50.0189 46.7126V48.3717C50.0189 48.5019 50.0189 48.622 50.0189 48.7596C51.9754 48.4179 53.8006 47.5455 55.2954 46.2377C56.7903 44.9298 57.8973 43.2367 58.496 41.3429C59.0947 39.4491 59.1619 37.4273 58.6904 35.4979C58.2189 33.5685 57.2268 31.8055 55.8222 30.4012L55.8197 30.4038Z" fill="#101010"/>
<path d="M39.3081 39.5303H46.693V48.3742C46.693 48.5569 46.6929 48.7395 46.6754 48.9197C46.6754 49.1424 46.6404 49.3652 46.6104 49.5829C46.5803 49.8006 46.5403 50.0258 46.4928 50.2435C46.1559 51.7944 45.4076 53.2259 44.3265 54.3877C43.2453 55.5495 41.8713 56.3987 40.3486 56.8461C38.8259 57.2934 37.2109 57.3224 35.6731 56.9301C34.1354 56.5377 32.7317 55.7385 31.6095 54.6163C30.4873 53.4941 29.6881 52.0904 29.2957 50.5526C28.9033 49.0149 28.9324 47.3998 29.3797 45.8772C29.8271 44.3545 30.6763 42.9804 31.8381 41.8993C32.9999 40.8182 34.4314 40.0699 35.9822 39.733V38.0764C35.9822 37.9437 35.9822 37.8261 35.9822 37.686C33.9696 38.0372 32.0971 38.9497 30.5803 40.3182C29.0634 41.6868 27.9638 43.4559 27.4081 45.4219C26.8524 47.3879 26.8631 49.4708 27.439 51.431C28.0149 53.3911 29.1326 55.1488 30.6635 56.5017C32.1944 57.8546 34.0762 58.7477 36.0923 59.0782C38.1084 59.4088 40.1768 59.1633 42.0595 58.37C43.9423 57.5768 45.5627 56.268 46.7344 54.5944C47.9061 52.9207 48.5813 50.9502 48.6824 48.9097C48.6824 48.8246 48.6824 48.737 48.6824 48.6595C48.6824 48.6144 48.6824 48.5669 48.6824 48.5193V48.3867V37.5258H39.3106C39.3106 37.706 39.293 37.8887 39.293 38.0739L39.3081 39.5303Z" fill="#101010"/>
</svg>
