<svg width="150" height="151" viewBox="0 0 150 151" fill="none" xmlns="http://www.w3.org/2000/svg">
<g filter="url(#filter0_d_709_184)">
<rect x="15" y="5.23535" width="100" height="100" rx="50" fill="white" shape-rendering="crispEdges"/>
<g clip-path="url(#clip0_709_184)">
<path d="M48.1311 30.0124L64.9398 28.2354L81.7484 30.0124L94.7615 47.4814L64.9398 82.2085L35.118 47.4814L48.1311 30.0124Z" fill="#FDB300"/>
<path d="M47.1973 47.4814L64.9398 82.2086L35.118 47.4814H47.1973Z" fill="#EA6C00"/>
<path d="M82.6822 47.4814L64.9397 82.2086L94.7615 47.4814H82.6822Z" fill="#EA6C00"/>
<path d="M47.1973 47.4814H82.6823L64.9398 82.2086L47.1973 47.4814Z" fill="#FDAD00"/>
<path d="M64.9398 28.2354L48.1311 30.0123L47.1973 47.4813L64.9398 28.2354Z" fill="#FDD231"/>
<path d="M64.9397 28.2354L81.7484 30.0123L82.6822 47.4813L64.9397 28.2354Z" fill="#FDD231"/>
<path d="M94.7616 47.4815L81.7483 30.0125L82.6823 47.4815H94.7616ZM35.118 47.4815L48.1311 30.0125L47.1973 47.4815H35.118Z" fill="#FDAD00"/>
<path d="M64.9398 28.2354L47.1973 47.4813H82.6823L64.9398 28.2354Z" fill="#FEEEB7"/>
</g>
</g>
<defs>
<filter id="filter0_d_709_184" x="0" y="0.235352" width="150" height="150" filterUnits="userSpaceOnUse" color-interpolation-filters="sRGB">
<feFlood flood-opacity="0" result="BackgroundImageFix"/>
<feColorMatrix in="SourceAlpha" type="matrix" values="0 0 0 0 0 0 0 0 0 0 0 0 0 0 0 0 0 0 127 0" result="hardAlpha"/>
<feOffset dx="10" dy="20"/>
<feGaussianBlur stdDeviation="12.5"/>
<feComposite in2="hardAlpha" operator="out"/>
<feColorMatrix type="matrix" values="0 0 0 0 0 0 0 0 0 0 0 0 0 0 0 0 0 0 0.1 0"/>
<feBlend mode="normal" in2="BackgroundImageFix" result="effect1_dropShadow_709_184"/>
<feBlend mode="normal" in="SourceGraphic" in2="effect1_dropShadow_709_184" result="shape"/>
</filter>
<clipPath id="clip0_709_184">
<rect width="59.764" height="54" fill="white" transform="translate(35.118 28.2354)"/>
</clipPath>
</defs>
</svg>
