<svg width="67" height="84" viewBox="0 0 67 84" fill="none" xmlns="http://www.w3.org/2000/svg">
<path d="M37.9007 7.32056C38.8385 8.63776 39.5877 10.0795 40.1265 11.604C40.7992 11.6931 41.462 11.8167 42.105 11.97L42.4265 12.0492H42.5106L42.9212 12.163L43.3169 12.2817L43.6581 12.3905L44.0093 12.5092C44.1181 12.5455 44.227 12.585 44.3358 12.6279L44.6573 12.7466C45.2818 12.9885 45.8928 13.2643 46.4874 13.5726C46.6308 13.6468 46.7743 13.7161 46.9128 13.7952C47.1502 13.9238 47.3827 14.0574 47.6102 14.1959L47.907 14.3739C47.9513 14.4048 47.9976 14.4329 48.0455 14.458L48.3522 14.6608L48.644 14.8587C49.7806 15.6358 50.8318 16.5312 51.7799 17.5297C51.8937 17.6385 52.0025 17.7572 52.1064 17.8709L52.3636 18.1628C52.5021 18.3211 52.6356 18.4793 52.7692 18.6574C52.9027 18.8355 52.9275 18.8503 53.0017 18.9492L53.3083 19.3499C53.4072 19.4735 53.5012 19.6021 53.5902 19.7307C53.6793 19.8593 53.7733 19.9929 53.8623 20.1215C54.0404 20.3837 54.2085 20.6507 54.3569 20.9178C54.441 21.0563 54.5251 21.1899 54.5993 21.3284C54.6735 21.4669 54.7576 21.6054 54.8317 21.7439C54.995 22.0456 55.1533 22.3523 55.3264 22.6589C55.3857 22.7826 55.4402 22.9062 55.4946 23.0299C55.549 23.1536 55.6034 23.2723 55.6578 23.3959C55.7122 23.5196 55.7518 23.6136 55.7963 23.7273C55.8408 23.8411 55.8804 23.9301 55.9199 24.034C56.0189 24.2912 56.1128 24.5286 56.2019 24.8155C56.2546 24.9705 56.3041 25.1238 56.3503 25.2755C56.3948 25.4239 56.4393 25.5723 56.4789 25.7207C56.6025 26.1461 56.7114 26.5764 56.8004 27.0116C56.8004 27.1205 56.8449 27.2342 56.8696 27.343C56.8943 27.4519 56.8943 27.4716 56.9042 27.531C56.9141 27.5904 56.9389 27.7041 56.9488 27.7882C56.9587 27.8723 56.9883 28.0306 57.0081 28.1493C57.0279 28.268 57.0477 28.3966 57.0625 28.5203C57.0774 28.6439 57.0625 28.6291 57.0625 28.6835L57.0922 28.9605C57.0922 29.0446 57.0922 29.1336 57.0922 29.2226C57.0922 29.3117 57.1219 29.4897 57.1318 29.6233L57.1615 30.1179C57.1615 30.2861 57.1615 30.4542 57.1615 30.6125C57.1615 30.7708 57.1615 30.9489 57.1615 31.1072C57.1549 36.3306 55.0773 41.3384 51.3842 45.0324C47.6912 48.7264 42.6839 50.8052 37.4605 50.8131H36.9658C36.7977 50.8131 36.6295 50.8131 36.4712 50.8131C36.3129 50.8131 36.1398 50.8131 35.9766 50.7834L35.5166 50.7389L35.1209 50.6993L34.8736 50.6647L34.5273 50.6152H34.4977L34.1465 50.5608L33.8546 50.5064L33.4293 50.4223C32.6638 50.2606 31.909 50.0525 31.1688 49.7991L30.7385 49.6458C30.5951 49.5963 30.4565 49.5468 30.3181 49.4875L29.7542 49.255L29.403 49.1017L29.0221 48.9236C28.8639 48.8445 28.7006 48.7703 28.5275 48.6862C28.3544 48.6021 28.2654 48.5526 28.1368 48.4784L27.6916 48.2311C27.5531 48.152 27.4146 48.0729 27.2811 47.9888C27.0288 47.8354 26.7864 47.6821 26.544 47.5189L26.4896 47.4793L26.1039 47.2073C25.9752 47.1182 25.8466 47.0292 25.718 46.9303L25.3421 46.6434L25.0404 46.401C24.8821 46.2724 24.7238 46.1389 24.5458 46.0004L24.2341 45.7283C24.1154 45.6245 24.0017 45.5206 23.8879 45.4068C23.7741 45.293 23.6604 45.1892 23.5516 45.0754C23.3306 44.8644 23.1179 44.6418 22.9135 44.4077C22.8047 44.289 22.6909 44.1653 22.5821 44.0367C22.3793 43.8042 22.1765 43.5421 21.9886 43.3195L21.6423 42.8644L21.4444 42.5924L21.3801 42.5034C21.2961 42.3896 21.2169 42.2758 21.1427 42.1571C21.0685 42.0384 20.9943 41.9345 20.9201 41.8208C20.8459 41.707 20.7124 41.4993 20.6135 41.3261C20.4552 41.0656 20.3019 40.7985 20.1535 40.5248C19.8715 40.0055 19.6094 39.4663 19.372 38.9173C19.3175 38.7887 19.2631 38.6601 19.2137 38.5315C19.1741 38.4375 19.1345 38.3386 19.0999 38.2446C19.0653 38.1506 19.0307 38.0666 19.001 37.9775L18.9812 37.6956L18.8427 37.2949C18.8031 37.1564 18.7586 37.0229 18.719 36.8844C18.717 36.8696 18.717 36.8546 18.719 36.8399C18.6795 36.7113 18.6399 36.5728 18.6053 36.4392C18.5707 36.3057 18.5212 36.1573 18.4866 36.0089C18.3778 35.5736 18.2788 35.1384 18.1997 34.6932L18.1255 34.248C18.1008 34.0996 18.081 33.9463 18.0612 33.7979C16.5326 33.2644 15.0859 32.5202 13.7629 31.5869C13.8441 36.2661 15.3014 40.8178 17.953 44.674C20.6047 48.5301 24.3333 51.52 28.6735 53.2705C33.0136 55.021 37.7732 55.4545 42.3582 54.5171C46.9433 53.5796 51.1507 51.3127 54.4555 47.9991C57.7603 44.6855 60.0161 40.4721 60.9413 35.8846C61.8666 31.2971 61.4204 26.5387 59.6584 22.2031C57.8964 17.8676 54.8966 14.147 51.0334 11.5056C47.1702 8.86419 42.6147 7.41895 37.9353 7.35024L37.9007 7.32056ZM17.9376 29.2869L17.9821 28.8517L18.0414 28.4164C18.0414 28.2729 18.081 28.1295 18.1057 27.9861C18.1304 27.8426 18.1552 27.6992 18.1799 27.5557C18.2821 26.9906 18.4125 26.431 18.5707 25.879C18.6053 25.7405 18.6449 25.602 18.6894 25.4684C18.719 25.3645 18.7537 25.2607 18.7883 25.1519C18.8229 25.043 18.7883 25.0579 18.8279 25.0134L18.9515 24.6572C18.9843 24.5532 19.0222 24.4508 19.0653 24.3506C19.0653 24.2813 19.1098 24.222 19.1345 24.1527C19.2236 23.9252 19.3176 23.6976 19.4115 23.4751C19.5055 23.2525 19.6391 22.9458 19.7627 22.6886L19.9457 22.3226C19.9814 22.2431 20.021 22.1655 20.0644 22.0901L20.2079 21.8181C20.2224 21.7858 20.239 21.7544 20.2574 21.7241C20.3266 21.6004 20.3909 21.4817 20.4651 21.3581C20.5393 21.2344 20.5888 21.1404 20.6531 21.0366L20.8262 20.7546C20.8756 20.6705 20.93 20.5864 20.9844 20.5024C21.212 20.1512 21.4494 19.8049 21.7017 19.4686C21.7808 19.3548 21.8649 19.246 21.9539 19.1372C22.043 19.0284 22.0825 18.9641 22.1518 18.8849C22.3496 18.6376 22.5524 18.3903 22.7651 18.1529C22.8492 18.054 22.9382 17.955 23.0273 17.8611C23.2152 17.6533 23.4032 17.4505 23.606 17.2576C23.6851 17.1735 23.7643 17.0944 23.8484 17.0152C23.9324 16.9361 24.1006 16.7729 24.2292 16.6542L24.5161 16.397C24.6843 16.2436 24.8623 16.0952 25.0404 15.9468L25.3124 15.7292C25.7131 15.4126 26.1187 15.1109 26.544 14.829L26.9051 14.5866L27.197 14.4036L27.4195 14.2651C27.5284 14.2008 27.6372 14.1316 27.7509 14.0722C27.8647 14.0129 28.0279 13.9139 28.1664 13.8397C28.3049 13.7655 28.4484 13.6864 28.5869 13.6172C28.7254 13.5479 28.8688 13.4688 29.0123 13.4045H29.037C29.2892 13.2858 29.5316 13.167 29.8086 13.0582C30.0856 12.9494 30.1944 12.895 30.3923 12.8208C30.5901 12.7466 30.6495 12.7169 30.783 12.6724L31.1292 12.5488L31.3073 12.4845L31.6981 12.3608L32.1581 12.2223L32.6527 12.0937L33.0682 11.9898L33.3847 11.9206L33.5282 11.8909L33.7656 11.8414L34.191 11.7623L34.4927 11.7128L34.8142 11.6683C35.0863 11.6288 35.3682 11.5941 35.6452 11.5694C34.9552 10.1614 34.0187 8.88832 32.8802 7.81024C28.2639 8.74086 24.0263 11.0172 20.7017 14.3524C17.3771 17.6876 15.1142 21.9324 14.1982 26.5516C15.2749 27.6753 16.5406 28.6011 17.9376 29.2869Z" fill="#101010"/>
<path d="M40.8085 14.176C39.7346 13.9669 38.643 13.8626 37.5489 13.8644C37.2027 13.8644 36.8565 13.8644 36.5152 13.8941C36.825 15.0221 36.9813 16.1867 36.9801 17.3565C36.981 19.3887 36.5138 21.3938 35.615 23.2164C34.7161 25.039 33.4097 26.6302 31.7968 27.8666C30.184 29.103 28.3082 29.9514 26.3147 30.3461C24.3212 30.7408 22.2636 30.6712 20.3013 30.1426V30.1426C20.2815 30.4723 20.2716 30.8021 20.2716 31.1318C20.2703 32.2444 20.378 33.3543 20.5931 34.4458C23.3655 34.9566 26.2205 34.7848 28.9116 33.9453C31.6026 33.1058 34.0489 31.6238 36.0391 29.6273C38.0292 27.6308 39.5034 25.1798 40.3344 22.4861C41.1654 19.7924 41.3281 16.9369 40.8085 14.1662V14.176ZM23.739 5.13717e-05C20.3183 0.00149395 16.9742 1.0128 14.126 2.90717C11.2778 4.80154 9.0523 7.49464 7.72853 10.6488C6.40476 13.8029 6.04167 17.2776 6.68479 20.6373C7.3279 23.9969 8.94858 27.0919 11.3436 29.5342C11.4566 27.6599 11.7683 25.8029 12.2735 23.9944C10.8082 21.4702 10.2179 18.5326 10.5944 15.6384C10.971 12.7441 12.2932 10.0553 14.3556 7.9901C16.418 5.92489 19.105 4.59895 21.9987 4.21846C24.8925 3.83796 27.8309 4.42423 30.3571 5.88611C32.1628 5.37366 34.0184 5.05692 35.8919 4.94137C32.6461 1.76367 28.2813 -0.011007 23.739 5.13717e-05V5.13717e-05Z" fill="#101010"/>
<path d="M6.93064 70.66C7.81864 70.66 8.59464 70.832 9.25864 71.176C9.93064 71.512 10.4466 72 10.8066 72.64C11.1746 73.272 11.3586 74.012 11.3586 74.86C11.3586 75.708 11.1746 76.444 10.8066 77.068C10.4466 77.692 9.93064 78.172 9.25864 78.508C8.59464 78.836 7.81864 79 6.93064 79H4.20664V70.66H6.93064ZM6.93064 77.884C7.90664 77.884 8.65464 77.62 9.17464 77.092C9.69464 76.564 9.95464 75.82 9.95464 74.86C9.95464 73.892 9.69464 73.136 9.17464 72.592C8.65464 72.048 7.90664 71.776 6.93064 71.776H5.57464V77.884H6.93064ZM14.0825 71.764V74.212H16.9625V75.328H14.0825V77.884H17.3225V79H12.7145V70.648H17.3225V71.764H14.0825ZM21.7554 79.084C21.1954 79.084 20.6914 78.988 20.2434 78.796C19.7954 78.596 19.4434 78.316 19.1874 77.956C18.9314 77.596 18.8034 77.176 18.8034 76.696H20.2674C20.2994 77.056 20.4394 77.352 20.6874 77.584C20.9434 77.816 21.2994 77.932 21.7554 77.932C22.2274 77.932 22.5954 77.82 22.8594 77.596C23.1234 77.364 23.2554 77.068 23.2554 76.708C23.2554 76.428 23.1714 76.2 23.0034 76.024C22.8434 75.848 22.6394 75.712 22.3914 75.616C22.1514 75.52 21.8154 75.416 21.3834 75.304C20.8394 75.16 20.3954 75.016 20.0514 74.872C19.7154 74.72 19.4274 74.488 19.1874 74.176C18.9474 73.864 18.8274 73.448 18.8274 72.928C18.8274 72.448 18.9474 72.028 19.1874 71.668C19.4274 71.308 19.7634 71.032 20.1954 70.84C20.6274 70.648 21.1274 70.552 21.6954 70.552C22.5034 70.552 23.1634 70.756 23.6754 71.164C24.1954 71.564 24.4834 72.116 24.5394 72.82H23.0274C23.0034 72.516 22.8594 72.256 22.5954 72.04C22.3314 71.824 21.9834 71.716 21.5514 71.716C21.1594 71.716 20.8394 71.816 20.5914 72.016C20.3434 72.216 20.2194 72.504 20.2194 72.88C20.2194 73.136 20.2954 73.348 20.4474 73.516C20.6074 73.676 20.8074 73.804 21.0474 73.9C21.2874 73.996 21.6154 74.1 22.0314 74.212C22.5834 74.364 23.0314 74.516 23.3754 74.668C23.7274 74.82 24.0234 75.056 24.2634 75.376C24.5114 75.688 24.6354 76.108 24.6354 76.636C24.6354 77.06 24.5194 77.46 24.2874 77.836C24.0634 78.212 23.7314 78.516 23.2914 78.748C22.8594 78.972 22.3474 79.084 21.7554 79.084ZM32.9096 70.66V79H31.5416V75.352H27.6176V79H26.2496V70.66H27.6176V74.236H31.5416V70.66H32.9096ZM36.0785 70.66V79H34.7105V70.66H36.0785ZM47.6518 70.66V79H46.2838V75.352H42.3598V79H40.9918V70.66H42.3598V74.236H46.2838V70.66H47.6518ZM54.4807 77.296H50.9887L50.3887 79H48.9607L51.9487 70.648H53.5327L56.5207 79H55.0807L54.4807 77.296ZM54.0967 76.18L52.7407 72.304L51.3727 76.18H54.0967ZM63.2079 70.66V71.776H60.9879V79H59.6199V71.776H57.3879V70.66H63.2079Z" fill="#101010"/>
</svg>
