<svg width="68" height="84" viewBox="0 0 68 84" fill="none" xmlns="http://www.w3.org/2000/svg">
<path d="M22.9265 43.0829L27.2987 45.6103L32.6468 42.523L28.2692 40.001V2.93796L23.1877 0L22.7398 0.255928L2.55273 11.9118V18.0863L22.9265 6.31845V43.0829Z" fill="#101010"/>
<path d="M38.48 2.93796V41.8299L23.1877 50.6597L7.89545 41.8299V17.6757L2.55273 20.763V43.0829L23.1877 55L43.8227 43.0829V6.31845L64.1964 18.0863V11.9118L43.5615 0L38.48 2.93796Z" fill="#101010"/>
<path d="M41.0345 47.3698L35.6865 50.457L43.5619 54.9999L64.1969 43.0828V20.7629L58.8542 17.6757V40.0009L43.5619 48.8308L41.0345 47.3698Z" fill="#101010"/>
<path d="M5.08339 70.66V71.776H1.54339V74.236H4.30339V75.352H1.54339V79H0.175391V70.66H5.08339ZM11.3792 77.296H7.88717L7.28717 79H5.85917L8.84717 70.648H10.4312L13.4192 79H11.9792L11.3792 77.296ZM10.9952 76.18L9.63917 72.304L8.27117 76.18H10.9952ZM16.0864 77.896H18.9064V79H14.7184V70.66H16.0864V77.896ZM23.8544 79.084C23.0784 79.084 22.3624 78.904 21.7064 78.544C21.0584 78.176 20.5424 77.668 20.1584 77.02C19.7824 76.364 19.5944 75.628 19.5944 74.812C19.5944 73.996 19.7824 73.264 20.1584 72.616C20.5424 71.968 21.0584 71.464 21.7064 71.104C22.3624 70.736 23.0784 70.552 23.8544 70.552C24.6384 70.552 25.3544 70.736 26.0024 71.104C26.6584 71.464 27.1744 71.968 27.5504 72.616C27.9264 73.264 28.1144 73.996 28.1144 74.812C28.1144 75.628 27.9264 76.364 27.5504 77.02C27.1744 77.668 26.6584 78.176 26.0024 78.544C25.3544 78.904 24.6384 79.084 23.8544 79.084ZM23.8544 77.896C24.4064 77.896 24.8984 77.772 25.3304 77.524C25.7624 77.268 26.0984 76.908 26.3384 76.444C26.5864 75.972 26.7104 75.428 26.7104 74.812C26.7104 74.196 26.5864 73.656 26.3384 73.192C26.0984 72.728 25.7624 72.372 25.3304 72.124C24.8984 71.876 24.4064 71.752 23.8544 71.752C23.3024 71.752 22.8104 71.876 22.3784 72.124C21.9464 72.372 21.6064 72.728 21.3584 73.192C21.1184 73.656 20.9984 74.196 20.9984 74.812C20.9984 75.428 21.1184 75.972 21.3584 76.444C21.6064 76.908 21.9464 77.268 22.3784 77.524C22.8104 77.772 23.3024 77.896 23.8544 77.896ZM34.4885 77.296H30.9965L30.3965 79H28.9685L31.9565 70.648H33.5405L36.5285 79H35.0885L34.4885 77.296ZM34.1045 76.18L32.7485 72.304L31.3805 76.18H34.1045ZM42.4237 79L39.1957 75.268V79H37.8277V70.66H39.1957V74.464L42.4357 70.66H44.1517L40.5277 74.836L44.2117 79H42.4237ZM50.0175 79L46.7895 75.268V79H45.4215V70.66H46.7895V74.464L50.0295 70.66H51.7455L48.1215 74.836L51.8055 79H50.0175ZM58.0432 77.296H54.5512L53.9512 79H52.5232L55.5112 70.648H57.0952L60.0832 79H58.6432L58.0432 77.296ZM57.6592 76.18L56.3032 72.304L54.9352 76.18H57.6592ZM64.1304 79.084C63.5704 79.084 63.0664 78.988 62.6184 78.796C62.1704 78.596 61.8184 78.316 61.5624 77.956C61.3064 77.596 61.1784 77.176 61.1784 76.696H62.6424C62.6744 77.056 62.8144 77.352 63.0624 77.584C63.3184 77.816 63.6744 77.932 64.1304 77.932C64.6024 77.932 64.9704 77.82 65.2344 77.596C65.4984 77.364 65.6304 77.068 65.6304 76.708C65.6304 76.428 65.5464 76.2 65.3784 76.024C65.2184 75.848 65.0144 75.712 64.7664 75.616C64.5264 75.52 64.1904 75.416 63.7584 75.304C63.2144 75.16 62.7704 75.016 62.4264 74.872C62.0904 74.72 61.8024 74.488 61.5624 74.176C61.3224 73.864 61.2024 73.448 61.2024 72.928C61.2024 72.448 61.3224 72.028 61.5624 71.668C61.8024 71.308 62.1384 71.032 62.5704 70.84C63.0024 70.648 63.5024 70.552 64.0704 70.552C64.8784 70.552 65.5384 70.756 66.0504 71.164C66.5704 71.564 66.8584 72.116 66.9144 72.82H65.4024C65.3784 72.516 65.2344 72.256 64.9704 72.04C64.7064 71.824 64.3584 71.716 63.9264 71.716C63.5344 71.716 63.2144 71.816 62.9664 72.016C62.7184 72.216 62.5944 72.504 62.5944 72.88C62.5944 73.136 62.6704 73.348 62.8224 73.516C62.9824 73.676 63.1824 73.804 63.4224 73.9C63.6624 73.996 63.9904 74.1 64.4064 74.212C64.9584 74.364 65.4064 74.516 65.7504 74.668C66.1024 74.82 66.3984 75.056 66.6384 75.376C66.8864 75.688 67.0104 76.108 67.0104 76.636C67.0104 77.06 66.8944 77.46 66.6624 77.836C66.4384 78.212 66.1064 78.516 65.6664 78.748C65.2344 78.972 64.7224 79.084 64.1304 79.084Z" fill="#101010"/>
</svg>
