<svg width="67" height="83" viewBox="0 0 67 83" fill="none" xmlns="http://www.w3.org/2000/svg">
<path d="M21.7082 18.4396L40.7124 0L33.1608 2.00513C25.2997 4.0898 18.6767 7.70708 13.4784 12.7553L7.62012 18.4396C8.54542 19.3407 9.64494 20.0557 10.8557 20.5436C12.0664 21.0315 13.3646 21.2826 14.6756 21.2826C15.9866 21.2826 17.2846 21.0315 18.4954 20.5436C19.7061 20.0557 20.8057 19.3407 21.731 18.4396H21.7082ZM15.372 14.5883C19.7327 10.3571 25.1859 7.19473 31.5995 5.16748L19.8328 16.6067C18.7997 17.6103 17.4791 18.289 16.043 18.5544C14.6068 18.8199 13.1216 18.6598 11.7805 18.0951L15.372 14.5883Z" fill="#101010"/>
<path d="M19.1459 46.4768L25.0042 52.161C25.9329 51.2632 26.6698 50.1963 27.1726 49.0215C27.6754 47.8468 27.9342 46.5872 27.9342 45.3152C27.9342 44.0431 27.6754 42.7836 27.1726 41.6089C26.6698 40.4341 25.9329 39.3672 25.0042 38.4694L6 20.0298L8.06658 27.357C10.2151 35.0067 13.9431 41.4285 19.1459 46.4768ZM23.1106 40.3288C24.144 41.3309 24.8429 42.6114 25.1165 44.004C25.39 45.3966 25.2256 46.8367 24.6446 48.1375L21.0349 44.6394C16.6742 40.4083 13.415 35.1171 11.3257 28.894L23.1106 40.3288Z" fill="#101010"/>
<path d="M52.739 32.5288C51.4299 32.5275 50.1334 32.7774 48.9241 33.264C47.7148 33.7506 46.6166 34.4644 45.6927 35.3643L26.7158 53.7994L34.2674 51.7943C42.124 49.7096 48.747 46.0924 53.9498 41.0485L59.8081 35.3643C58.8835 34.4652 57.7852 33.7519 56.5761 33.2653C55.367 32.7788 54.0708 32.5285 52.7618 32.5288H52.739ZM52.0335 39.2112C47.6728 43.4424 42.2196 46.6047 35.8014 48.632L47.5863 37.1972C48.6198 36.1927 49.9412 35.5135 51.3783 35.248C52.8153 34.9825 54.3015 35.1431 55.6432 35.7088L52.0335 39.2112Z" fill="#101010"/>
<path d="M42.4198 15.3083L61.4195 33.7479L59.3574 26.4206C57.2044 18.793 53.4764 12.3712 48.2781 7.32292L42.4198 1.63867C41.4945 2.53608 40.7605 3.6016 40.2597 4.77433C39.7589 5.94707 39.5012 7.20403 39.5012 8.47345C39.5012 9.74287 39.7589 10.9999 40.2597 12.1726C40.7605 13.3454 41.4945 14.4109 42.4198 15.3083ZM42.7794 5.66225L46.3845 9.16027C50.8659 13.5862 54.1945 18.9856 56.0938 24.9101L44.3134 13.4754C43.2791 12.4729 42.5796 11.1915 42.306 9.79807C42.0324 8.40461 42.1974 6.9635 42.7794 5.66225Z" fill="#101010"/>
<path d="M6.90961 69.66V78H5.54161V74.352H1.61761V78H0.249609V69.66H1.61761V73.236H5.54161V69.66H6.90961ZM13.7385 76.296H10.2465L9.64655 78H8.21855L11.2065 69.648H12.7905L15.7785 78H14.3385L13.7385 76.296ZM13.3545 75.18L11.9985 71.304L10.6305 75.18H13.3545ZM25.8617 69.66V78H24.4937V72.288L21.9497 78H21.0017L18.4457 72.288V78H17.0777V69.66H18.5537L21.4817 76.2L24.3977 69.66H25.8617ZM32.6878 76.296H29.1958L28.5958 78H27.1678L30.1558 69.648H31.7398L34.7278 78H33.2878L32.6878 76.296ZM32.3038 75.18L30.9478 71.304L29.5798 75.18H32.3038ZM37.395 69.66V78H36.027V69.66H37.395ZM47.3362 76.296H43.8442L43.2442 78H41.8162L44.8042 69.648H46.3882L49.3762 78H47.9362L47.3362 76.296ZM46.9522 75.18L45.5962 71.304L44.2282 75.18H46.9522ZM53.3994 69.66C54.2874 69.66 55.0634 69.832 55.7274 70.176C56.3994 70.512 56.9154 71 57.2754 71.64C57.6434 72.272 57.8274 73.012 57.8274 73.86C57.8274 74.708 57.6434 75.444 57.2754 76.068C56.9154 76.692 56.3994 77.172 55.7274 77.508C55.0634 77.836 54.2874 78 53.3994 78H50.6754V69.66H53.3994ZM53.3994 76.884C54.3754 76.884 55.1234 76.62 55.6434 76.092C56.1634 75.564 56.4234 74.82 56.4234 73.86C56.4234 72.892 56.1634 72.136 55.6434 71.592C55.1234 71.048 54.3754 70.776 53.3994 70.776H52.0434V76.884H53.3994ZM64.2112 76.296H60.7192L60.1192 78H58.6912L61.6792 69.648H63.2632L66.2512 78H64.8112L64.2112 76.296ZM63.8272 75.18L62.4712 71.304L61.1032 75.18H63.8272Z" fill="#101010"/>
</svg>
