<svg width="67" height="84" viewBox="0 0 67 84" fill="none" xmlns="http://www.w3.org/2000/svg">
<path d="M45.2719 17.4581L38.0225 24.7075L40.8222 27.5073L48.0716 20.2579L45.2719 17.4581Z" fill="#101010"/>
<path d="M30.6156 32.095L23.3661 39.3444L26.1659 42.1441L33.4153 34.8947L30.6156 32.095Z" fill="#101010"/>
<path d="M40.6654 12.8541L33.416 20.1035L36.2158 22.9033L43.4652 15.6539L40.6654 12.8541Z" fill="#101010"/>
<path d="M26.0133 27.5034L18.7639 34.7528L21.5637 37.5526L28.8131 30.3032L26.0133 27.5034Z" fill="#101010"/>
<path d="M21.5625 17.4522L18.7627 20.252L26.0121 27.5013L28.8119 24.7016L21.5625 17.4522Z" fill="#101010"/>
<path d="M26.1662 12.8501L23.3664 15.6499L30.6158 22.8993L33.4155 20.0995L26.1662 12.8501Z" fill="#101010"/>
<path d="M40.8193 27.5025L38.0195 30.3022L45.2689 37.5516L48.0687 34.7519L40.8193 27.5025Z" fill="#101010"/>
<path d="M36.2156 32.1049L33.4159 34.9047L40.6652 42.154L43.465 39.3543L36.2156 32.1049Z" fill="#101010"/>
<path d="M43.4648 44.9516L40.6657 42.1525L33.4165 49.4018L26.1671 42.1525L23.368 44.9516L33.4165 54.9999L43.4648 44.9516Z" fill="#101010"/>
<path d="M18.7634 20.2508L15.9644 17.4517L5.91602 27.5001L15.9644 37.5485L18.7634 34.7494L11.5142 27.5001L18.7634 20.2508Z" fill="#101010"/>
<path d="M50.8684 17.4517L48.0693 20.2508L55.3186 27.5001L48.0693 34.7494L50.8684 37.5485L60.9168 27.5001L50.8684 17.4517Z" fill="#101010"/>
<path d="M40.6657 12.8475L43.4648 10.0484L33.4165 0L23.368 10.0484L26.1671 12.8475L33.4165 5.59814L40.6657 12.8475Z" fill="#101010"/>
<path d="M8.00395 79H6.63595L2.51995 72.772V79H1.15195V70.648H2.51995L6.63595 76.864V70.648H8.00395V79ZM13.6044 79.084C12.8284 79.084 12.1124 78.904 11.4564 78.544C10.8084 78.176 10.2924 77.668 9.90839 77.02C9.53239 76.364 9.34439 75.628 9.34439 74.812C9.34439 73.996 9.53239 73.264 9.90839 72.616C10.2924 71.968 10.8084 71.464 11.4564 71.104C12.1124 70.736 12.8284 70.552 13.6044 70.552C14.3884 70.552 15.1044 70.736 15.7524 71.104C16.4084 71.464 16.9244 71.968 17.3004 72.616C17.6764 73.264 17.8644 73.996 17.8644 74.812C17.8644 75.628 17.6764 76.364 17.3004 77.02C16.9244 77.668 16.4084 78.176 15.7524 78.544C15.1044 78.904 14.3884 79.084 13.6044 79.084ZM13.6044 77.896C14.1564 77.896 14.6484 77.772 15.0804 77.524C15.5124 77.268 15.8484 76.908 16.0884 76.444C16.3364 75.972 16.4604 75.428 16.4604 74.812C16.4604 74.196 16.3364 73.656 16.0884 73.192C15.8484 72.728 15.5124 72.372 15.0804 72.124C14.6484 71.876 14.1564 71.752 13.6044 71.752C13.0524 71.752 12.5604 71.876 12.1284 72.124C11.6964 72.372 11.3564 72.728 11.1084 73.192C10.8684 73.656 10.7484 74.196 10.7484 74.812C10.7484 75.428 10.8684 75.972 11.1084 76.444C11.3564 76.908 11.6964 77.268 12.1284 77.524C12.5604 77.772 13.0524 77.896 13.6044 77.896ZM23.8065 79L20.5785 75.268V79H19.2105V70.66H20.5785V74.464L23.8185 70.66H25.5345L21.9105 74.836L25.5945 79H23.8065ZM30.6083 79.084C29.8323 79.084 29.1163 78.904 28.4603 78.544C27.8123 78.176 27.2963 77.668 26.9123 77.02C26.5363 76.364 26.3483 75.628 26.3483 74.812C26.3483 73.996 26.5363 73.264 26.9123 72.616C27.2963 71.968 27.8123 71.464 28.4603 71.104C29.1163 70.736 29.8323 70.552 30.6083 70.552C31.3923 70.552 32.1083 70.736 32.7563 71.104C33.4123 71.464 33.9283 71.968 34.3043 72.616C34.6803 73.264 34.8683 73.996 34.8683 74.812C34.8683 75.628 34.6803 76.364 34.3043 77.02C33.9283 77.668 33.4123 78.176 32.7563 78.544C32.1083 78.904 31.3923 79.084 30.6083 79.084ZM30.6083 77.896C31.1603 77.896 31.6523 77.772 32.0843 77.524C32.5163 77.268 32.8523 76.908 33.0923 76.444C33.3403 75.972 33.4643 75.428 33.4643 74.812C33.4643 74.196 33.3403 73.656 33.0923 73.192C32.8523 72.728 32.5163 72.372 32.0843 72.124C31.6523 71.876 31.1603 71.752 30.6083 71.752C30.0563 71.752 29.5643 71.876 29.1323 72.124C28.7003 72.372 28.3603 72.728 28.1123 73.192C27.8723 73.656 27.7523 74.196 27.7523 74.812C27.7523 75.428 27.8723 75.972 28.1123 76.444C28.3603 76.908 28.7003 77.268 29.1323 77.524C29.5643 77.772 30.0563 77.896 30.6083 77.896ZM37.5825 77.896H40.4025V79H36.2145V70.66H37.5825V77.896ZM49.6917 77.296H46.1997L45.5997 79H44.1717L47.1597 70.648H48.7437L51.7317 79H50.2917L49.6917 77.296ZM49.3077 76.18L47.9517 72.304L46.5837 76.18H49.3077ZM54.3989 77.896H57.2189V79H53.0309V70.66H54.3989V77.896ZM59.7189 70.66V75.976C59.7189 76.608 59.8829 77.084 60.2109 77.404C60.5469 77.724 61.0109 77.884 61.6029 77.884C62.2029 77.884 62.6669 77.724 62.9949 77.404C63.3309 77.084 63.4989 76.608 63.4989 75.976V70.66H64.8669V75.952C64.8669 76.632 64.7189 77.208 64.4229 77.68C64.1269 78.152 63.7309 78.504 63.2349 78.736C62.7389 78.968 62.1909 79.084 61.5909 79.084C60.9909 79.084 60.4429 78.968 59.9469 78.736C59.4589 78.504 59.0709 78.152 58.7829 77.68C58.4949 77.208 58.3509 76.632 58.3509 75.952V70.66H59.7189Z" fill="#101010"/>
</svg>
