<svg width="67" height="84" viewBox="0 0 67 84" fill="none" xmlns="http://www.w3.org/2000/svg">
<path d="M44.8555 31.4897V40.5231H22.051C21.4653 40.5233 20.8808 40.4682 20.3055 40.3585L20.0655 40.3067C18.004 39.8535 16.1589 38.7101 14.8354 37.0658C13.5119 35.4215 12.7893 33.3747 12.7871 31.2639V0C15.0689 1.29809 16.967 3.17636 18.289 5.44441C19.611 7.71246 20.3099 10.2897 20.3149 12.9149V27.7117C20.3186 29.1119 20.8765 30.4536 21.8665 31.4437C22.8566 32.4337 24.1983 32.9916 25.5985 32.9953H41.1575C42.54 32.9985 43.8683 32.4577 44.8555 31.4897V31.4897Z" fill="#101010"/>
<path d="M53.9685 0V17.4692C53.1444 16.2522 52.0879 15.2101 50.8599 14.4027C49.6318 13.5953 48.2562 13.0385 46.8123 12.7643C46.6947 12.7408 46.5723 12.7173 46.45 12.7032C46.4914 10.115 47.2066 7.58236 48.525 5.35479C49.8434 3.12722 51.7195 1.28164 53.9685 0V0Z" fill="#101010"/>
<path d="M53.9686 23.7361V55C51.6873 53.7 49.7898 51.8207 48.468 49.5521C47.1461 47.2835 46.4468 44.706 46.4408 42.0804V27.2835C46.4383 25.8805 45.8798 24.5357 44.8877 23.5436C43.8956 22.5515 42.5508 21.993 41.1478 21.9906H25.5887C24.205 21.9909 22.8769 22.535 21.8907 23.5055V14.4722H44.6952C45.9121 14.4709 47.1173 14.7097 48.2419 15.1748C49.3664 15.6399 50.3881 16.3223 51.2486 17.1827C52.109 18.0432 52.7913 19.065 53.2565 20.1895C53.7216 21.314 53.9604 22.5192 53.9592 23.7361H53.9686Z" fill="#101010"/>
<path d="M20.3051 42.3202C20.2578 44.9051 19.5389 47.4331 18.2191 49.6562C16.8993 51.8792 15.024 53.7207 12.7773 54.9999V37.54C14.3851 39.9139 16.8419 41.5809 19.6417 42.1979H19.6935L19.9287 42.2449C20.0652 42.2826 20.1828 42.3061 20.3051 42.3202Z" fill="#101010"/>
<path d="M7.81714 70.66V76.672C7.81714 77.416 7.58914 78.004 7.13314 78.436C6.68514 78.868 6.09314 79.084 5.35714 79.084C4.62114 79.084 4.02514 78.868 3.56914 78.436C3.12114 78.004 2.89714 77.416 2.89714 76.672H4.27714C4.28514 77.04 4.37714 77.332 4.55314 77.548C4.73714 77.764 5.00514 77.872 5.35714 77.872C5.70914 77.872 5.97714 77.764 6.16114 77.548C6.34514 77.324 6.43714 77.032 6.43714 76.672V70.66H7.81714ZM15.0706 77.296H11.5786L10.9786 79H9.55058L12.5386 70.648H14.1226L17.1106 79H15.6706L15.0706 77.296ZM14.6866 76.18L13.3306 72.304L11.9626 76.18H14.6866ZM22.8738 74.716C23.3218 74.796 23.7018 75.032 24.0138 75.424C24.3258 75.816 24.4818 76.26 24.4818 76.756C24.4818 77.18 24.3698 77.564 24.1458 77.908C23.9298 78.244 23.6138 78.512 23.1978 78.712C22.7818 78.904 22.2978 79 21.7458 79H18.4098V70.66H21.5898C22.1578 70.66 22.6458 70.756 23.0538 70.948C23.4618 71.14 23.7698 71.4 23.9778 71.728C24.1858 72.048 24.2898 72.408 24.2898 72.808C24.2898 73.288 24.1618 73.688 23.9058 74.008C23.6498 74.328 23.3058 74.564 22.8738 74.716ZM19.7778 74.164H21.4698C21.9178 74.164 22.2658 74.064 22.5138 73.864C22.7698 73.656 22.8978 73.36 22.8978 72.976C22.8978 72.6 22.7698 72.308 22.5138 72.1C22.2658 71.884 21.9178 71.776 21.4698 71.776H19.7778V74.164ZM21.6258 77.884C22.0898 77.884 22.4538 77.772 22.7178 77.548C22.9818 77.324 23.1138 77.012 23.1138 76.612C23.1138 76.204 22.9738 75.88 22.6938 75.64C22.4138 75.4 22.0418 75.28 21.5778 75.28H19.7778V77.884H21.6258ZM27.3364 71.764V74.212H30.2164V75.328H27.3364V77.884H30.5764V79H25.9684V70.648H30.5764V71.764H27.3364ZM36.5933 79L34.6733 75.664H33.6293V79H32.2613V70.66H35.1413C35.7813 70.66 36.3213 70.772 36.7613 70.996C37.2093 71.22 37.5413 71.52 37.7573 71.896C37.9813 72.272 38.0933 72.692 38.0933 73.156C38.0933 73.7 37.9333 74.196 37.6133 74.644C37.3013 75.084 36.8173 75.384 36.1613 75.544L38.2253 79H36.5933ZM33.6293 74.572H35.1413C35.6533 74.572 36.0373 74.444 36.2933 74.188C36.5573 73.932 36.6893 73.588 36.6893 73.156C36.6893 72.724 36.5613 72.388 36.3053 72.148C36.0493 71.9 35.6613 71.776 35.1413 71.776H33.6293V74.572ZM41.2114 70.66V79H39.8434V70.66H41.2114ZM49.8594 79H48.4914L44.3754 72.772V79H43.0074V70.648H44.3754L48.4914 76.864V70.648H49.8594V79ZM53.0239 71.764V74.212H55.9039V75.328H53.0239V77.884H56.2639V79H51.6559V70.648H56.2639V71.764H53.0239ZM62.2808 79L60.3608 75.664H59.3168V79H57.9488V70.66H60.8288C61.4688 70.66 62.0088 70.772 62.4488 70.996C62.8968 71.22 63.2288 71.52 63.4448 71.896C63.6688 72.272 63.7808 72.692 63.7808 73.156C63.7808 73.7 63.6208 74.196 63.3008 74.644C62.9888 75.084 62.5048 75.384 61.8488 75.544L63.9128 79H62.2808ZM59.3168 74.572H60.8288C61.3408 74.572 61.7248 74.444 61.9808 74.188C62.2448 73.932 62.3768 73.588 62.3768 73.156C62.3768 72.724 62.2488 72.388 61.9928 72.148C61.7368 71.9 61.3488 71.776 60.8288 71.776H59.3168V74.572Z" fill="#101010"/>
</svg>
