<svg width="32" height="33" viewBox="0 0 32 33" fill="none" xmlns="http://www.w3.org/2000/svg">
<g clip-path="url(#clip0_618_359)">
<rect x="-57.5" y="-62.7065" width="319" height="309" rx="5.5" stroke="#FFE2D1"/>
<path d="M25.4375 0.293457H6.5625C2.94394 0.293457 0 3.23739 0 6.85596V25.731C0 29.3495 2.94394 32.2935 6.5625 32.2935H25.4375C29.0561 32.2935 32 29.3495 32 25.731V6.85596C32 3.23739 29.0561 0.293457 25.4375 0.293457ZM30.125 25.731C30.125 28.3156 28.0222 30.4185 25.4375 30.4185H6.5625C3.97781 30.4185 1.875 28.3156 1.875 25.731V6.85596C1.875 4.27127 3.97781 2.16846 6.5625 2.16846H25.4375C28.0222 2.16846 30.125 4.27127 30.125 6.85596V25.731Z" fill="#FF6B00"/>
<path d="M18.2499 7.28186L18.2499 7.28188C18.5539 7.45733 18.7705 7.7397 18.8614 8.07884C18.9523 8.41788 18.9058 8.77075 18.7302 9.07479L18.9468 9.19979L18.7302 9.07479L13.3718 18.3559L13.1553 18.7309H13.5883H16.8239L18.3395 21.3559H6.90625C6.18276 21.3559 5.59375 20.7669 5.59375 20.0434C5.59375 19.3199 6.18276 18.7309 6.90625 18.7309H9.97987H10.1242L10.1964 18.6059L14.4123 11.3037L14.4844 11.1787L14.4123 11.0537L13.2697 9.07475C13.2697 9.07474 13.2697 9.07474 13.2697 9.07473C12.9095 8.45069 13.1218 7.65021 13.7423 7.2863L13.7501 7.28181C14.3767 6.92014 15.1812 7.13574 15.543 7.76225L15.7835 8.17879L16 8.55377L16.2165 8.17881L16.457 7.76231L16.457 7.7623C16.8188 7.13562 17.6234 6.92015 18.2499 7.28186Z" fill="#FF6B00" stroke="white" stroke-width="0.5"/>
<path d="M21.8036 18.606L21.8758 18.731H22.0201H25.0937C25.8172 18.731 26.4062 19.32 26.4062 20.0435C26.4062 20.7669 25.8172 21.356 25.0937 21.356H23.8243H23.3913L23.6078 21.731L24.6369 23.5132L24.6369 23.5132C24.9986 24.1397 24.7831 24.9443 24.1565 25.3061L24.1565 25.3061C23.9535 25.4233 23.7294 25.4826 23.5027 25.4826C23.389 25.4826 23.2742 25.4677 23.1605 25.4372C22.8213 25.3463 22.539 25.1297 22.3635 24.8256L22.3635 24.8256L17.0104 15.5538L18.5259 12.9288L21.8036 18.606Z" fill="#FF6B00" stroke="white" stroke-width="0.5"/>
<path d="M7.84362 25.3061C7.21708 24.9444 7.00148 24.1398 7.36319 23.5132C7.36319 23.5132 7.3632 23.5132 7.3632 23.5132L7.59834 23.106H10.6294L9.63657 24.8256C9.39404 25.2456 8.95226 25.4816 8.49725 25.4816H8.49719C8.27492 25.4816 8.04999 25.4252 7.84362 25.3061ZM7.84362 25.3061L7.71863 25.5226M7.84362 25.3061L7.71863 25.5226M7.71863 25.5226C6.9725 25.0918 6.71594 24.1343 7.14669 23.3882M7.71863 25.5226C7.96406 25.6643 8.23231 25.7316 8.49725 25.7316L7.14669 23.3882M7.14669 23.3882L7.454 22.856L7.14669 23.3882Z" fill="#FF6B00" stroke="white" stroke-width="0.5"/>
</g>
<defs>
<clipPath id="clip0_618_359">
<rect width="32" height="32" fill="white" transform="translate(0 0.293457)"/>
</clipPath>
</defs>
</svg>
