<svg width="70" height="71" viewBox="0 0 70 71" fill="none" xmlns="http://www.w3.org/2000/svg">
<rect y="0.376221" width="70" height="70" rx="6" fill="#FFF5EF"/>
<g clip-path="url(#clip0_630_630)">
<path d="M44.4375 20.2935H25.5625C21.9439 20.2935 19 23.2374 19 26.856V45.731C19 49.3495 21.9439 52.2935 25.5625 52.2935H44.4375C48.0561 52.2935 51 49.3495 51 45.731V26.856C51 23.2374 48.0561 20.2935 44.4375 20.2935ZM49.125 45.731C49.125 48.3156 47.0222 50.4185 44.4375 50.4185H25.5625C22.9778 50.4185 20.875 48.3156 20.875 45.731V26.856C20.875 24.2713 22.9778 22.1685 25.5625 22.1685H44.4375C47.0222 22.1685 49.125 24.2713 49.125 26.856V45.731Z" fill="#FF6B00"/>
<path d="M37.2499 27.2819L37.2499 27.2819C37.5539 27.4573 37.7705 27.7397 37.8614 28.0788C37.9523 28.4179 37.9058 28.7708 37.7302 29.0748L37.9468 29.1998L37.7302 29.0748L32.3718 38.3559L32.1553 38.7309H32.5883H35.8239L37.3395 41.3559H25.9062C25.1828 41.3559 24.5938 40.7669 24.5938 40.0434C24.5938 39.3199 25.1828 38.7309 25.9062 38.7309H28.9799H29.1242L29.1964 38.6059L33.4123 31.3037L33.4844 31.1787L33.4123 31.0537L32.2697 29.0747C32.2697 29.0747 32.2697 29.0747 32.2697 29.0747C31.9095 28.4507 32.1218 27.6502 32.7423 27.2863L32.7501 27.2818C33.3767 26.9201 34.1812 27.1357 34.543 27.7622L34.7835 28.1788L35 28.5538L35.2165 28.1788L35.457 27.7623L35.457 27.7623C35.8188 27.1356 36.6234 26.9202 37.2499 27.2819Z" fill="#FF6B00" stroke="white" stroke-width="0.5"/>
<path d="M40.8036 38.606L40.8758 38.731H41.0201H44.0937C44.8172 38.731 45.4062 39.32 45.4062 40.0435C45.4062 40.7669 44.8172 41.356 44.0937 41.356H42.8243H42.3913L42.6078 41.731L43.6369 43.5132L43.6369 43.5132C43.9986 44.1397 43.7831 44.9443 43.1565 45.3061L43.1565 45.3061C42.9535 45.4233 42.7294 45.4826 42.5027 45.4826C42.389 45.4826 42.2742 45.4677 42.1605 45.4372C41.8213 45.3463 41.539 45.1297 41.3635 44.8256L41.3635 44.8256L36.0104 35.5538L37.5259 32.9288L40.8036 38.606Z" fill="#FF6B00" stroke="white" stroke-width="0.5"/>
<path d="M26.8436 45.3061C26.2171 44.9444 26.0015 44.1398 26.3632 43.5132C26.3632 43.5132 26.3632 43.5132 26.3632 43.5132L26.5983 43.106H29.6294L28.6366 44.8256C28.394 45.2456 27.9523 45.4816 27.4973 45.4816H27.4972C27.2749 45.4816 27.05 45.4252 26.8436 45.3061ZM26.8436 45.3061L26.7186 45.5226M26.8436 45.3061L26.7186 45.5226M26.7186 45.5226C25.9725 45.0918 25.7159 44.1343 26.1467 43.3882M26.7186 45.5226C26.9641 45.6643 27.2323 45.7316 27.4973 45.7316L26.1467 43.3882M26.1467 43.3882L26.454 42.856L26.1467 43.3882Z" fill="#FF6B00" stroke="white" stroke-width="0.5"/>
</g>
<defs>
<clipPath id="clip0_630_630">
<rect width="32" height="32" fill="white" transform="translate(19 20.2935)"/>
</clipPath>
</defs>
</svg>
