<svg width="70" height="71" viewBox="0 0 70 71" fill="none" xmlns="http://www.w3.org/2000/svg">
<rect y="0.376221" width="70" height="70" rx="6" fill="#FFF5EF"/>
<path d="M36.6267 22.5761H33.3725C33.0731 22.5761 32.8301 22.3371 32.8301 22.0427C32.8301 21.7483 33.0731 21.5094 33.3725 21.5094H36.6267C36.9261 21.5094 37.1691 21.7483 37.1691 22.0427C37.1691 22.3371 36.9261 22.5761 36.6267 22.5761Z" fill="#FF6B00"/>
<path d="M40.9663 51.3762H29.0341C27.5383 51.3762 26.3223 50.1794 26.3223 48.7095V30.5762C26.3223 30.2818 26.5652 30.0428 26.8646 30.0428C27.164 30.0428 27.407 30.2818 27.407 30.5762V48.7095C27.407 49.5917 28.137 50.3095 29.0341 50.3095H40.9663C41.8634 50.3095 42.5935 49.5917 42.5935 48.7095V30.5762C42.5935 30.2818 42.8364 30.0428 43.1358 30.0428C43.4352 30.0428 43.6782 30.2818 43.6782 30.5762V48.7095C43.6782 50.1794 42.4622 51.3762 40.9663 51.3762Z" fill="#FF6B00"/>
<path d="M43.1358 34.3096C42.8364 34.3096 42.5935 34.0706 42.5935 33.7762V22.0429C42.5935 21.1608 41.8634 20.4429 40.9663 20.4429H29.0341C28.137 20.4429 27.407 21.1608 27.407 22.0429V33.7762C27.407 34.0706 27.164 34.3096 26.8646 34.3096C26.5652 34.3096 26.3223 34.0706 26.3223 33.7762V22.0429C26.3223 20.573 27.5383 19.3762 29.0341 19.3762H40.9663C42.4622 19.3762 43.6782 20.573 43.6782 22.0429V33.7762C43.6782 34.0706 43.4352 34.3096 43.1358 34.3096Z" fill="#FF6B00"/>
<path d="M46.3881 24.7628C46.0887 24.7628 45.8458 24.5772 45.8458 24.2828V24.1762C45.8458 23.8818 46.0887 23.6428 46.3881 23.6428C46.6875 23.6428 46.9305 23.8818 46.9305 24.1762C46.9305 24.4706 46.6875 24.7628 46.3881 24.7628Z" fill="#FF6B00"/>
<path d="M46.3881 26.8965C46.0887 26.8965 45.8458 26.7109 45.8458 26.4165V26.3098C45.8458 26.0154 46.0887 25.7765 46.3881 25.7765C46.6875 25.7765 46.9305 26.0154 46.9305 26.3098C46.9305 26.6042 46.6875 26.8965 46.3881 26.8965Z" fill="#FF6B00"/>
<path d="M46.3881 29.0294C46.0887 29.0294 45.8458 28.8438 45.8458 28.5494V28.4428C45.8458 28.1484 46.0887 27.9094 46.3881 27.9094C46.6875 27.9094 46.9305 28.1484 46.9305 28.4428C46.9305 28.7372 46.6875 29.0294 46.3881 29.0294V29.0294Z" fill="#FF6B00"/>
<path d="M23.61 42.7896C23.3106 42.7896 23.0676 42.604 23.0676 42.3096V42.2029C23.0676 41.9085 23.3106 41.6696 23.61 41.6696C23.9093 41.6696 24.1523 41.9085 24.1523 42.2029C24.1523 42.4973 23.9093 42.7896 23.61 42.7896Z" fill="#FF6B00"/>
<path d="M23.6102 44.9229C23.3108 44.9229 23.0678 44.7373 23.0678 44.4429V44.3362C23.0678 44.0418 23.3108 43.8029 23.6102 43.8029C23.9095 43.8029 24.1525 44.0418 24.1525 44.3362C24.1525 44.6306 23.9095 44.9229 23.6102 44.9229Z" fill="#FF6B00"/>
<path d="M23.6102 47.056C23.3108 47.056 23.0678 46.8704 23.0678 46.576V46.4694C23.0678 46.175 23.3108 45.936 23.6102 45.936C23.9095 45.936 24.1525 46.175 24.1525 46.4694C24.1525 46.7638 23.9095 47.056 23.6102 47.056Z" fill="#FF6B00"/>
<path d="M44.5894 47.1096C44.5515 47.1096 44.5124 47.1064 44.4744 47.0979C44.1816 47.036 43.9961 46.7523 44.059 46.4643L44.417 44.8323C44.4603 44.6317 44.6176 44.4749 44.8194 44.4269C45.3314 44.3053 45.8304 44.1005 46.3022 43.8179C46.4769 43.7112 46.7014 43.7144 46.8761 43.8232L47.95 44.4984L48.6149 43.8392L47.9283 42.7917C47.8155 42.62 47.8133 42.3992 47.9207 42.2253C48.2081 41.7613 48.4164 41.2707 48.539 40.7672C48.5878 40.5688 48.7462 40.4152 48.949 40.3704L50.1856 40.1005V39.1864L48.9501 38.9165C48.7473 38.8717 48.5889 38.7181 48.5401 38.5197C48.4175 38.0163 48.2081 37.5256 47.9218 37.0616C47.8133 36.8877 47.8155 36.668 47.9283 36.4963L48.616 35.4392L47.9521 34.7864L46.8772 35.4627C46.7025 35.5725 46.4791 35.5747 46.3033 35.468C45.8304 35.1853 45.3314 34.9805 44.8205 34.8589C44.6176 34.8109 44.4614 34.6531 44.418 34.4536L44.1512 33.2429H43.6772C43.3778 33.2429 43.1348 33.004 43.1348 32.7096C43.1348 32.4152 43.3778 32.1763 43.6772 32.1763H44.5883C44.8433 32.1763 45.0645 32.3523 45.1177 32.5976L45.4073 33.9128C45.8043 34.0312 46.1938 34.1912 46.5691 34.3907L47.7341 33.6579C47.9489 33.5235 48.2288 33.5533 48.4099 33.7304L49.691 34.9891C49.8711 35.1661 49.9014 35.4424 49.7637 35.6536L49.0184 36.7992C49.2213 37.1693 49.384 37.5523 49.5044 37.9437L50.8441 38.236C51.0936 38.2904 51.2704 38.508 51.2704 38.7576V40.5283C51.2704 40.7779 51.0936 40.9955 50.8452 41.0488L49.5055 41.3411C49.3851 41.7325 49.2224 42.1155 49.0195 42.4845L49.7637 43.6195C49.9025 43.8296 49.8732 44.1069 49.6932 44.284L48.4121 45.5533C48.2309 45.7315 47.95 45.7613 47.7352 45.6269L46.5702 44.8941C46.1938 45.0936 45.8054 45.2536 45.4084 45.372L45.1188 46.6872C45.0635 46.9389 44.8378 47.1096 44.5894 47.1096Z" fill="#FF6B00"/>
<path d="M45.1859 42.3927C45.0123 42.3927 44.841 42.3095 44.7357 42.157C44.5687 41.9127 44.6349 41.581 44.8843 41.4167C45.4864 41.0178 45.8465 40.3543 45.8465 39.6429C45.8465 38.4663 44.8735 37.5095 43.677 37.5095C43.5295 37.5095 43.3831 37.5245 43.2431 37.5522C42.9524 37.6098 42.6628 37.4263 42.602 37.1362C42.5424 36.8471 42.7311 36.5655 43.0251 36.5069C43.2377 36.4653 43.4568 36.4429 43.677 36.4429C45.4712 36.4429 46.9313 37.8786 46.9313 39.6429C46.9313 40.7106 46.3921 41.7047 45.4875 42.3021C45.3953 42.3629 45.29 42.3927 45.1859 42.3927V42.3927Z" fill="#FF6B00"/>
<path d="M26.3218 34.3096C24.5276 34.3096 23.0676 32.8738 23.0676 31.1096C23.0676 30.0376 23.61 29.0424 24.519 28.445C24.7652 28.2829 25.1037 28.3469 25.2707 28.5933C25.4367 28.8376 25.3694 29.1693 25.1199 29.3325C24.5146 29.7314 24.1523 30.3949 24.1523 31.1096C24.1523 32.2861 25.1253 33.2429 26.3218 33.2429C26.4672 33.2429 26.6104 33.229 26.747 33.2013C27.0345 33.1426 27.3263 33.3293 27.386 33.6194C27.4456 33.9085 27.2547 34.189 26.9607 34.2466C26.7535 34.2882 26.5409 34.3096 26.3218 34.3096V34.3096Z" fill="#FF6B00"/>
<path d="M26.3217 38.5763H25.4106C25.1556 38.5763 24.9343 38.4003 24.8812 38.155L24.5916 36.8398C24.1946 36.7214 23.8051 36.5614 23.4298 36.3619L22.2648 37.0947C22.0489 37.2291 21.7701 37.2003 21.589 37.0222L20.3079 35.7635C20.1278 35.5865 20.0975 35.3102 20.2352 35.099L20.9804 33.9534C20.7776 33.5833 20.6149 33.2003 20.4945 32.8089L19.1548 32.5166C18.9053 32.4622 18.7285 32.2446 18.7285 31.995V30.2243C18.7285 29.9747 18.9053 29.7571 19.1537 29.7038L20.4934 29.4115C20.6138 29.0201 20.7765 28.6371 20.9794 28.2681L20.2363 27.1321C20.0975 26.9219 20.1268 26.6446 20.3068 26.4675L21.5879 25.1982C21.7669 25.019 22.0489 24.9891 22.2648 25.1246L23.4298 25.8574C23.8062 25.6579 24.1946 25.4979 24.5916 25.3795L24.8812 24.0643C24.9441 23.7753 25.2381 23.5918 25.5255 23.6558C25.8184 23.7177 26.0039 24.0014 25.941 24.2894L25.583 25.9214C25.5396 26.1219 25.3823 26.2787 25.1806 26.3267C24.6686 26.4483 24.1696 26.6531 23.6967 26.9358C23.5209 27.0425 23.2975 27.0393 23.1228 26.9305L22.0489 26.2553L21.3829 26.9145L22.0695 27.9619C22.1834 28.1337 22.1856 28.3545 22.0771 28.5283C21.7897 28.9923 21.5814 29.483 21.4588 29.9865C21.41 30.1849 21.2516 30.3385 21.0488 30.3833L19.8133 30.6521V31.5662L21.0488 31.8361C21.2516 31.8809 21.41 32.0345 21.4588 32.2329C21.5814 32.7363 21.7908 33.227 22.0771 33.691C22.1856 33.8649 22.1834 34.0846 22.0706 34.2563L21.3829 35.3123L22.0468 35.9651L23.1217 35.2889C23.2964 35.1801 23.5209 35.1779 23.6956 35.2835C24.1685 35.5662 24.6675 35.771 25.1784 35.8926C25.3813 35.9406 25.5375 36.0985 25.5809 36.2979L25.8477 37.5097H26.3217C26.6211 37.5097 26.8641 37.7486 26.8641 38.043C26.8641 38.3374 26.6211 38.5763 26.3217 38.5763V38.5763Z" fill="#FF6B00"/>
<path d="M34.4583 38.0427C34.4149 38.0427 34.3716 38.0373 34.3271 38.0267C34.0353 37.9552 33.8596 37.6661 33.9322 37.3803L35.017 33.1136C35.0886 32.8267 35.3782 32.6539 35.6743 32.7253C35.9661 32.7968 36.1419 33.0859 36.0692 33.3717L34.9844 37.6384C34.9237 37.8816 34.7024 38.0427 34.4583 38.0427V38.0427Z" fill="#FF6B00"/>
<path d="M37.7124 38.0427C37.5736 38.0427 37.4347 37.9905 37.3284 37.887C37.1169 37.679 37.1169 37.3409 37.3284 37.1329L39.115 35.3761L37.3295 33.6203C37.118 33.4123 37.118 33.0742 37.3295 32.8662C37.541 32.6582 37.8849 32.6582 38.0964 32.8662L40.2659 34.9995C40.4774 35.2075 40.4774 35.5457 40.2659 35.7537L38.0964 37.887C37.9901 37.9905 37.8512 38.0427 37.7124 38.0427Z" fill="#FF6B00"/>
<path d="M32.2893 38.043C32.1504 38.043 32.0116 37.9907 31.9053 37.8873L29.7358 35.7539C29.5243 35.5459 29.5243 35.2078 29.7358 34.9998L31.9053 32.8664C32.1168 32.6584 32.4607 32.6584 32.6722 32.8664C32.8837 33.0744 32.8837 33.4126 32.6722 33.6206L30.8867 35.3763L32.6722 37.1321C32.8837 37.3401 32.8837 37.6782 32.6722 37.8862C32.567 37.9907 32.4281 38.043 32.2893 38.043V38.043Z" fill="#FF6B00"/>
</svg>
