<svg width="65" height="65" viewBox="0 0 65 65" fill="none" xmlns="http://www.w3.org/2000/svg">
<rect y="-0.000488281" width="65" height="65" rx="10" fill="#FFF5EF"/>
<g clip-path="url(#clip0_618_479)">
<path d="M38 30.2495H36.5C36.4994 29.653 36.2622 29.081 35.8403 28.6592C35.4185 28.2374 34.8466 28.0001 34.25 27.9995V26.4995C35.2442 26.5007 36.1973 26.8962 36.9003 27.5992C37.6033 28.3022 37.9988 29.2553 38 30.2495V30.2495Z" fill="#FF6B00"/>
<path d="M41 30.2495H39.5C39.4984 28.8576 38.9448 27.5232 37.9606 26.539C36.9763 25.5547 35.6419 25.0011 34.25 24.9995V23.4995C36.0396 23.5015 37.7554 24.2133 39.0208 25.4787C40.2862 26.7442 40.998 28.4599 41 30.2495V30.2495ZM35.2498 36.611L36.9298 34.931C37.1546 34.7061 37.4406 34.5521 37.7521 34.4881C38.0637 34.4241 38.3872 34.4529 38.6825 34.571L40.7285 35.39C41.0301 35.5107 41.2886 35.7189 41.4706 35.9879C41.6527 36.2569 41.75 36.5742 41.75 36.899V40.6198C41.7505 40.8409 41.7059 41.0598 41.6189 41.2631C41.5319 41.4665 41.4043 41.6499 41.2439 41.8021C41.0836 41.9544 40.8938 42.0724 40.6863 42.1488C40.4788 42.2252 40.2578 42.2585 40.037 42.2465C25.6955 41.354 22.799 29.207 22.2613 24.5555C22.2352 24.3281 22.2576 24.0978 22.327 23.8796C22.3963 23.6615 22.5111 23.4605 22.6637 23.29C22.8163 23.1194 23.0033 22.983 23.2124 22.8899C23.4214 22.7967 23.6479 22.7489 23.8768 22.7495H27.5315C27.8563 22.7495 28.1737 22.8468 28.4426 23.0289C28.7116 23.211 28.9199 23.4695 29.0405 23.771L29.8588 25.817C29.9768 26.1123 30.0057 26.4358 29.9417 26.7474C29.8777 27.059 29.7237 27.3449 29.4988 27.5698L27.8188 29.2498C27.8188 29.2498 28.7503 35.7988 35.2498 36.611Z" fill="#FF6B00"/>
</g>
<defs>
<clipPath id="clip0_618_479">
<rect x="20" y="20.4995" width="24" height="24" rx="10" fill="white"/>
</clipPath>
</defs>
</svg>
