<svg width="70" height="71" viewBox="0 0 70 71" fill="none" xmlns="http://www.w3.org/2000/svg">
<rect y="0.293457" width="70" height="70" rx="6" fill="#FFF5EF"/>
<path d="M33 45.2935H21.5C20.8372 45.2927 20.2018 45.029 19.7331 44.5603C19.2644 44.0917 19.0008 43.4563 19 42.7935V21.7935C19.0008 21.1307 19.2644 20.4952 19.7331 20.0266C20.2018 19.5579 20.8372 19.2943 21.5 19.2935H22.5V20.2935H21.5C21.1022 20.2935 20.7206 20.4515 20.4393 20.7328C20.158 21.0141 20 21.3956 20 21.7935V42.7935C20 43.1913 20.158 43.5728 20.4393 43.8541C20.7206 44.1354 21.1022 44.2935 21.5 44.2935H33V45.2935Z" fill="#FF6B00"/>
<path d="M23.5 19.2935H24.5005V20.2935H23.5V19.2935Z" fill="#FF6B00"/>
<path d="M48.5 45.2935V44.2935C48.8978 44.2935 49.2794 44.1354 49.5607 43.8541C49.842 43.5728 50 43.1913 50 42.7935V21.7935C50 21.3956 49.842 21.0141 49.5607 20.7328C49.2794 20.4515 48.8978 20.2935 48.5 20.2935H25.5V19.2935H48.5C49.1628 19.2943 49.7982 19.5579 50.2669 20.0266C50.7356 20.4952 50.9992 21.1307 51 21.7935V42.7935C50.9992 43.4563 50.7356 44.0917 50.2669 44.5603C49.7982 45.029 49.1628 45.2927 48.5 45.2935Z" fill="#FF6B00"/>
<path d="M28.5156 46.6825L29.0166 44.6828L29.9866 44.9258L29.4856 46.9255L28.5156 46.6825Z" fill="#FF6B00"/>
<path d="M33 49.2935H28C27.8674 49.2935 27.7402 49.2408 27.6464 49.147C27.5527 49.0532 27.5 48.9261 27.5 48.7935V47.7935C27.5 47.3956 27.658 47.0141 27.9393 46.7328C28.2206 46.4515 28.6022 46.2935 29 46.2935H33V47.2935H29C28.8674 47.2935 28.7402 47.3461 28.6464 47.4399C28.5527 47.5337 28.5 47.6608 28.5 47.7935V48.2935H33V49.2935Z" fill="#FF6B00"/>
<path d="M19.5 40.2935H33V41.2935H19.5V40.2935Z" fill="#FF6B00"/>
<path d="M21 42.2935H22V43.2935H21V42.2935Z" fill="#FF6B00"/>
<path d="M23 42.2935H26V43.2935H23V42.2935Z" fill="#FF6B00"/>
<path d="M46.5 51.2935H36.5C35.8372 51.2927 35.2018 51.029 34.7331 50.5603C34.2644 50.0917 34.0008 49.4563 34 48.7935V28.7935C34.0008 28.1307 34.2644 27.4952 34.7331 27.0266C35.2018 26.5579 35.8372 26.2943 36.5 26.2935H46.5C47.1628 26.2943 47.7982 26.5579 48.2669 27.0266C48.7356 27.4952 48.9992 28.1307 49 28.7935V48.7935C48.9992 49.4563 48.7356 50.0917 48.2669 50.5603C47.7982 51.029 47.1628 51.2927 46.5 51.2935ZM36.5 27.2935C36.1022 27.2935 35.7206 27.4515 35.4393 27.7328C35.158 28.0141 35 28.3956 35 28.7935V48.7935C35 49.1913 35.158 49.5728 35.4393 49.8541C35.7206 50.1354 36.1022 50.2935 36.5 50.2935H46.5C46.8978 50.2935 47.2794 50.1354 47.5607 49.8541C47.842 49.5728 48 49.1913 48 48.7935V28.7935C48 28.3956 47.842 28.0141 47.5607 27.7328C47.2794 27.4515 46.8978 27.2935 46.5 27.2935H36.5Z" fill="#FF6B00"/>
<path d="M44 31.2935H39C38.063 31.2935 37.6705 30.4775 37.5465 29.7935H34.5V28.7935H38C38.1326 28.7935 38.2598 28.8461 38.3536 28.9399C38.4473 29.0337 38.5 29.1608 38.5 29.2935C38.5 29.302 38.528 30.2935 39 30.2935H44C44.472 30.2935 44.5 29.302 44.5 29.2935C44.5 29.1608 44.5527 29.0337 44.6464 28.9399C44.7402 28.8461 44.8674 28.7935 45 28.7935H48.5V29.7935H45.4535C45.3295 30.4775 44.937 31.2935 44 31.2935Z" fill="#FF6B00"/>
<path d="M39.5 28.2935H43.5V29.2935H39.5V28.2935Z" fill="#FF6B00"/>
<path d="M39.5 48.7935H43.5V49.7935H39.5V48.7935Z" fill="#FF6B00"/>
<path d="M34.5 47.2935H48.5V48.2935H34.5V47.2935Z" fill="#FF6B00"/>
<path d="M28 33.2935H26C25.8674 33.2935 25.7402 33.2408 25.6464 33.147C25.5527 33.0532 25.5 32.9261 25.5 32.7935V32.0605C25.2208 31.9725 24.9499 31.8601 24.6905 31.7245L24.1715 32.2435C24.0777 32.3372 23.9506 32.3899 23.818 32.3899C23.6854 32.3899 23.5583 32.3372 23.4645 32.2435L22.05 30.829C21.9563 30.7352 21.9036 30.608 21.9036 30.4755C21.9036 30.3429 21.9563 30.2157 22.05 30.122L22.5685 29.603C22.4331 29.3435 22.3208 29.0726 22.233 28.7935H21.5C21.3674 28.7935 21.2402 28.7408 21.1464 28.647C21.0527 28.5532 21 28.4261 21 28.2935V26.2935C21 26.1608 21.0527 26.0337 21.1464 25.9399C21.2402 25.8461 21.3674 25.7935 21.5 25.7935H22.233C22.3209 25.5143 22.4334 25.2434 22.569 24.984L22.05 24.465C21.9563 24.3712 21.9036 24.244 21.9036 24.1115C21.9036 23.9789 21.9563 23.8517 22.05 23.758L23.4645 22.3435C23.5583 22.2497 23.6854 22.1971 23.818 22.1971C23.9506 22.1971 24.0777 22.2497 24.1715 22.3435L24.6905 22.862C24.9499 22.7265 25.2208 22.6142 25.5 22.5265V21.7935C25.5 21.6608 25.5527 21.5337 25.6464 21.4399C25.7402 21.3461 25.8674 21.2935 26 21.2935H28C28.1326 21.2935 28.2598 21.3461 28.3536 21.4399C28.4473 21.5337 28.5 21.6608 28.5 21.7935V22.5265C28.7792 22.6144 29.0501 22.7268 29.3095 22.8625L29.8285 22.3435C29.9223 22.2497 30.0494 22.1971 30.182 22.1971C30.3146 22.1971 30.4417 22.2497 30.5355 22.3435L31.95 23.758C32.0437 23.8517 32.0964 23.9789 32.0964 24.1115C32.0964 24.244 32.0437 24.3712 31.95 24.465L31.4315 24.984C31.5669 25.2434 31.6792 25.5143 31.767 25.7935H32.5C32.6326 25.7935 32.7598 25.8461 32.8536 25.9399C32.9473 26.0337 33 26.1608 33 26.2935V28.2935C33 28.4261 32.9473 28.5532 32.8536 28.647C32.7598 28.7408 32.6326 28.7935 32.5 28.7935H31.767C31.6791 29.0727 31.5666 29.3435 31.431 29.603L31.95 30.122C32.0437 30.2157 32.0964 30.3429 32.0964 30.4755C32.0964 30.608 32.0437 30.7352 31.95 30.829L30.5355 32.2435C30.4417 32.3372 30.3146 32.3899 30.182 32.3899C30.0494 32.3899 29.9223 32.3372 29.8285 32.2435L29.3095 31.725C29.0501 31.8604 28.7792 31.9727 28.5 32.0605V32.7935C28.5 32.9261 28.4473 33.0532 28.3536 33.147C28.2598 33.2408 28.1326 33.2935 28 33.2935ZM26.5 32.2935H27.5V31.6785C27.4999 31.5651 27.5383 31.455 27.609 31.3663C27.6797 31.2776 27.7784 31.2156 27.889 31.1905C28.3273 31.0907 28.7455 30.9171 29.1255 30.677C29.2215 30.6164 29.3352 30.5903 29.4479 30.6029C29.5607 30.6156 29.6658 30.6662 29.746 30.7465L30.182 31.1825L30.889 30.4755L30.453 30.0395C30.3727 29.9593 30.3221 29.8542 30.3095 29.7414C30.2969 29.6286 30.323 29.5149 30.3835 29.419C30.6236 29.0389 30.7973 28.6208 30.897 28.1825C30.9222 28.0719 30.9842 27.9732 31.0729 27.9025C31.1615 27.8318 31.2716 27.7933 31.385 27.7935H32V26.7935H31.385C31.2716 26.7936 31.1615 26.7551 31.0729 26.6844C30.9842 26.6138 30.9222 26.515 30.897 26.4045C30.7973 25.9661 30.6236 25.548 30.3835 25.168C30.323 25.072 30.2969 24.9583 30.3095 24.8455C30.3221 24.7328 30.3727 24.6277 30.453 24.5475L30.889 24.1115L30.182 23.4045L29.746 23.8405C29.6658 23.9207 29.5607 23.9713 29.4479 23.984C29.3352 23.9966 29.2215 23.9705 29.1255 23.91C28.7455 23.6698 28.3273 23.4962 27.889 23.3965C27.7784 23.3713 27.6797 23.3093 27.609 23.2206C27.5383 23.1319 27.4999 23.0219 27.5 22.9085V22.2935H26.5V22.9085C26.5001 23.0219 26.4617 23.1319 26.391 23.2206C26.3203 23.3093 26.2216 23.3713 26.111 23.3965C25.6727 23.4962 25.2545 23.6698 24.8745 23.91C24.7785 23.9705 24.6648 23.9966 24.5521 23.984C24.4393 23.9713 24.3342 23.9207 24.254 23.8405L23.818 23.4045L23.111 24.1115L23.547 24.5475C23.6273 24.6277 23.6779 24.7328 23.6905 24.8455C23.7031 24.9583 23.677 25.072 23.6165 25.168C23.3764 25.548 23.2027 25.9661 23.103 26.4045C23.0778 26.515 23.0158 26.6138 22.9271 26.6844C22.8385 26.7551 22.7284 26.7936 22.615 26.7935H22V27.7935H22.615C22.7284 27.7933 22.8385 27.8318 22.9271 27.9025C23.0158 27.9732 23.0778 28.0719 23.103 28.1825C23.2027 28.6208 23.3764 29.0389 23.6165 29.419C23.677 29.5149 23.7031 29.6286 23.6905 29.7414C23.6779 29.8542 23.6273 29.9593 23.547 30.0395L23.111 30.4755L23.818 31.1825L24.254 30.7465C24.3342 30.6662 24.4393 30.6156 24.5521 30.6029C24.6648 30.5903 24.7785 30.6164 24.8745 30.677C25.2545 30.9171 25.6727 31.0907 26.111 31.1905C26.2216 31.2156 26.3203 31.2776 26.391 31.3663C26.4617 31.455 26.5001 31.5651 26.5 31.6785V32.2935Z" fill="#FF6B00"/>
<path d="M27 29.7935C26.5055 29.7935 26.0222 29.6468 25.6111 29.3721C25.2 29.0974 24.8795 28.707 24.6903 28.2502C24.5011 27.7934 24.4516 27.2907 24.548 26.8057C24.6445 26.3208 24.8826 25.8753 25.2322 25.5257C25.5819 25.1761 26.0273 24.938 26.5123 24.8415C26.9972 24.745 27.4999 24.7945 27.9567 24.9838C28.4135 25.173 28.804 25.4934 29.0787 25.9045C29.3534 26.3157 29.5 26.799 29.5 27.2935C29.4992 27.9563 29.2356 28.5917 28.7669 29.0603C28.2982 29.529 27.6628 29.7927 27 29.7935ZM27 25.7935C26.7033 25.7935 26.4133 25.8814 26.1666 26.0463C25.92 26.2111 25.7277 26.4453 25.6142 26.7194C25.5007 26.9935 25.4709 27.2951 25.5288 27.5861C25.5867 27.8771 25.7296 28.1443 25.9393 28.3541C26.1491 28.5639 26.4164 28.7068 26.7074 28.7646C26.9983 28.8225 27.2999 28.7928 27.574 28.6793C27.8481 28.5657 28.0824 28.3735 28.2472 28.1268C28.412 27.8801 28.5 27.5901 28.5 27.2935C28.5 26.8956 28.342 26.5141 28.0607 26.2328C27.7794 25.9515 27.3978 25.7935 27 25.7935Z" fill="#FF6B00"/>
<path d="M27.5 39.7935H26.5V37.7935C26.5 37.6608 26.5527 37.5337 26.6464 37.4399C26.7402 37.3461 26.8674 37.2935 27 37.2935H27.733C27.8209 37.0143 27.9334 36.7434 28.069 36.484L27.55 35.965C27.4563 35.8712 27.4036 35.744 27.4036 35.6115C27.4036 35.4789 27.4563 35.3517 27.55 35.258L28.9645 33.8435C29.0583 33.7497 29.1854 33.6971 29.318 33.6971C29.4506 33.6971 29.5777 33.7497 29.6715 33.8435L30.1905 34.362C30.4499 34.2265 30.7208 34.1142 31 34.0265V33.2935C31 33.1608 31.0527 33.0337 31.1464 32.9399C31.2402 32.8461 31.3674 32.7935 31.5 32.7935H33.5V33.7935H32V34.4085C32.0001 34.5219 31.9617 34.6319 31.891 34.7206C31.8203 34.8093 31.7216 34.8713 31.611 34.8965C31.1727 34.9962 30.7545 35.1698 30.3745 35.41C30.2785 35.4705 30.1648 35.4966 30.0521 35.484C29.9393 35.4713 29.8342 35.4207 29.754 35.3405L29.318 34.9045L28.611 35.6115L29.047 36.0475C29.1273 36.1277 29.1779 36.2328 29.1905 36.3455C29.2031 36.4583 29.177 36.572 29.1165 36.668C28.8764 37.048 28.7027 37.4661 28.603 37.9045C28.5778 38.015 28.5158 38.1138 28.4271 38.1844C28.3385 38.2551 28.2284 38.2936 28.115 38.2935H27.5V39.7935Z" fill="#FF6B00"/>
<path d="M31 38.7935H30C30.0008 38.1307 30.2644 37.4952 30.7331 37.0266C31.2018 36.5579 31.8372 36.2943 32.5 36.2935V37.2935C32.1022 37.2935 31.7206 37.4515 31.4393 37.7328C31.158 38.0141 31 38.3956 31 38.7935Z" fill="#FF6B00"/>
<path d="M41.5 44.2935C40.4122 44.2935 39.3488 43.9709 38.4444 43.3665C37.5399 42.7622 36.8349 41.9032 36.4187 40.8982C36.0024 39.8932 35.8935 38.7874 36.1057 37.7205C36.3179 36.6536 36.8417 35.6736 37.6109 34.9044C38.3801 34.1352 39.3601 33.6114 40.427 33.3991C41.4939 33.1869 42.5998 33.2958 43.6048 33.7121C44.6098 34.1284 45.4687 34.8334 46.0731 35.7378C46.6774 36.6423 47 37.7057 47 38.7935C46.9983 40.2516 46.4183 41.6496 45.3872 42.6806C44.3561 43.7117 42.9582 44.2917 41.5 44.2935ZM41.5 34.2935C40.61 34.2935 39.74 34.5574 38.9999 35.0518C38.2599 35.5463 37.6831 36.2491 37.3425 37.0714C37.002 37.8937 36.9128 38.7985 37.0865 39.6714C37.2601 40.5443 37.6887 41.3461 38.318 41.9754C38.9474 42.6048 39.7492 43.0334 40.6221 43.207C41.495 43.3806 42.3998 43.2915 43.2221 42.9509C44.0443 42.6103 44.7471 42.0335 45.2416 41.2935C45.7361 40.5535 46 39.6835 46 38.7935C45.9985 37.6004 45.524 36.4567 44.6804 35.6131C43.8368 34.7695 42.693 34.2949 41.5 34.2935Z" fill="#FF6B00"/>
<path d="M40.4999 42.2936C40.3673 42.2936 40.2401 42.2409 40.1464 42.1471L37.6464 39.6471C37.5527 39.5533 37.5 39.4262 37.5 39.2936C37.5 39.161 37.5527 39.0339 37.6464 38.9401L39.1464 37.4401C39.2402 37.3464 39.3673 37.2937 39.4999 37.2937C39.6325 37.2937 39.7596 37.3464 39.8534 37.4401L40.4999 38.0866L43.1464 35.4401C43.2402 35.3464 43.3673 35.2937 43.4999 35.2937C43.6325 35.2937 43.7596 35.3464 43.8534 35.4401L45.3534 36.9401C45.4471 37.0339 45.4998 37.161 45.4998 37.2936C45.4998 37.4262 45.4471 37.5533 45.3534 37.6471L40.8534 42.1471C40.7596 42.2409 40.6325 42.2936 40.4999 42.2936ZM38.7069 39.2936L40.4999 41.0866L44.2929 37.2936L43.4999 36.5006L40.8534 39.1471C40.7596 39.2408 40.6325 39.2935 40.4999 39.2935C40.3673 39.2935 40.2402 39.2408 40.1464 39.1471L39.4999 38.5006L38.7069 39.2936Z" fill="#FF6B00"/>
<path d="M47.5 21.2935H48.5V22.2935H47.5V21.2935Z" fill="#FF6B00"/>
<path d="M40 21.2935H46.5V22.2935H40V21.2935Z" fill="#FF6B00"/>
</svg>
