<svg width="65" height="65" viewBox="0 0 65 65" fill="none" xmlns="http://www.w3.org/2000/svg">
<rect y="-0.000488281" width="65" height="65" rx="10" fill="#FFF5EF"/>
<g clip-path="url(#clip0_618_485)">
<g clip-path="url(#clip1_618_485)">
<path d="M37.3333 28.7262C36.6188 28.2764 36.03 27.6528 35.6219 26.9136C35.2138 26.1744 34.9999 25.3438 35 24.4995H22.6133C22.4937 24.5014 22.3749 24.5193 22.26 24.5528L31.8933 34.1462L37.3333 28.7262Z" fill="#FF6B00"/>
<path d="M40 29.4995C39.5489 29.4956 39.1004 29.4306 38.6667 29.3062L32.86 35.0928C32.6102 35.3412 32.2723 35.4806 31.92 35.4806C31.5678 35.4806 31.2298 35.3412 30.98 35.0928L21.3333 25.4995C21.3038 25.6082 21.2881 25.7202 21.2867 25.8328V39.1662C21.2867 39.5198 21.4272 39.8589 21.6772 40.109C21.9273 40.359 22.2664 40.4995 22.62 40.4995H41.2867C41.6403 40.4995 41.9794 40.359 42.2295 40.109C42.4795 39.8589 42.62 39.5198 42.62 39.1662V28.7595C41.8327 29.2454 40.9252 29.5017 40 29.4995V29.4995ZM23.5333 39.1662H22.6067V38.2128L27.4533 33.4062L28.3933 34.3462L23.5333 39.1662ZM41.2733 39.1662H40.34L35.48 34.3462L36.42 33.4062L41.2667 38.2128L41.2733 39.1662Z" fill="#FF6B00"/>
<path d="M40 27.8328C41.841 27.8328 43.3334 26.3404 43.3334 24.4995C43.3334 22.6585 41.841 21.1661 40 21.1661C38.1591 21.1661 36.6667 22.6585 36.6667 24.4995C36.6667 26.3404 38.1591 27.8328 40 27.8328Z" fill="#FF6B00"/>
</g>
</g>
<defs>
<clipPath id="clip0_618_485">
<rect x="20" y="20.4995" width="24" height="24" rx="10" fill="white"/>
</clipPath>
<clipPath id="clip1_618_485">
<rect width="24" height="24" fill="white" transform="translate(20 20.4995)"/>
</clipPath>
</defs>
</svg>
