<svg width="70" height="71" viewBox="0 0 70 71" fill="none" xmlns="http://www.w3.org/2000/svg">
<rect y="0.376221" width="70" height="70" rx="6" fill="#FFF5EF"/>
<path d="M49.125 24.3762H47.625V21.2512C47.625 20.2173 46.7839 19.3762 45.75 19.3762H24.25C23.2161 19.3762 22.375 20.2173 22.375 21.2512V24.3762H20.875C19.8411 24.3762 19 25.2173 19 26.2512V44.2511C19 45.285 19.8411 46.1261 20.875 46.1261H31.875V47.626H30.686C29.6521 47.626 28.811 48.4671 28.811 49.501V50.7512C28.811 51.0964 29.0908 51.3762 29.436 51.3762H40.5641C40.9092 51.3762 41.1891 51.0964 41.1891 50.7512V49.501C41.1891 48.4671 40.3479 47.626 39.3141 47.626H38.125V46.1261H49.125C50.1589 46.1261 51 45.285 51 44.2511V26.2512C51 25.2173 50.1589 24.3762 49.125 24.3762ZM49.125 25.6262C49.4696 25.6262 49.75 25.9066 49.75 26.2512V40.6261H47.625V25.6262H49.125ZM24.25 20.6262H45.75C46.0946 20.6262 46.375 20.9066 46.375 21.2512V24.3762H23.625V21.2512C23.625 20.9066 23.9054 20.6262 24.25 20.6262ZM20.875 25.6262H22.375V30.3131C22.375 30.6583 22.6548 30.9381 23 30.9381C23.3452 30.9381 23.625 30.6583 23.625 30.3131V25.6262H46.375V40.6261H43.1875V38.5665C43.1875 38.2213 42.9077 37.9415 42.5625 37.9415H41.7493C41.6064 37.4493 41.4102 36.9762 41.1629 36.5267L41.7382 35.9514C41.9823 35.7073 41.9823 35.3116 41.7382 35.0675L39.8407 33.17C39.5966 32.926 39.2009 32.926 38.9568 33.17L38.3815 33.7453C37.932 33.4979 37.4588 33.3018 36.9667 33.1589V32.3457C36.9667 32.0005 36.6869 31.7207 36.3417 31.7207H33.6582C33.313 31.7207 33.0332 32.0005 33.0332 32.3457V33.1589C32.5411 33.3018 32.0679 33.4979 31.6184 33.7453L31.0431 33.17C30.7991 32.926 30.4033 32.926 30.1592 33.17L28.2617 35.0675C28.0176 35.3115 28.0176 35.7073 28.2617 35.9514L28.837 36.5267C28.5896 36.9762 28.3935 37.4493 28.2506 37.9415H27.4375C27.0923 37.9415 26.8125 38.2213 26.8125 38.5665V40.6261H23.625V35.9381C23.625 35.5929 23.3452 35.3131 23 35.3131C22.6548 35.3131 22.375 35.5929 22.375 35.9381V40.6261H20.25V26.2512C20.25 25.9066 20.5304 25.6262 20.875 25.6262V25.6262ZM30.0653 35.9871L29.5876 35.5094L30.6012 34.4958L31.0789 34.9735C31.2875 35.1819 31.6134 35.2163 31.8609 35.0559C32.4524 34.6724 33.1009 34.4036 33.7886 34.257C34.0771 34.1955 34.2833 33.9407 34.2833 33.6457V32.9706H35.7168V33.6457C35.7168 33.9407 35.923 34.1955 36.2115 34.257C36.8991 34.4036 37.5477 34.6723 38.1392 35.0559C38.3867 35.2163 38.7126 35.182 38.9212 34.9735L39.3989 34.4958L40.4125 35.5094L39.9348 35.9871C39.7263 36.1957 39.6919 36.5216 39.8524 36.7691C40.2359 37.3606 40.5047 38.0092 40.6513 38.6968C40.7128 38.9852 40.9676 39.1915 41.2626 39.1915H41.9375V40.6261H38.0411C38.0967 40.3917 38.1254 40.1508 38.1254 39.9082C38.1254 38.1848 36.7233 36.7828 35 36.7828C33.2767 36.7828 31.8746 38.1849 31.8746 39.9082C31.8746 40.1508 31.9033 40.3917 31.9589 40.6261H28.0625V39.1915H28.7376C29.0325 39.1915 29.2873 38.9853 29.3488 38.6968C29.4954 38.0091 29.7642 37.3605 30.1477 36.7691C30.3082 36.5217 30.2739 36.1957 30.0653 35.9871V35.9871ZM33.1246 39.9082C33.1246 38.8742 33.9659 38.0328 35 38.0328C36.0341 38.0328 36.8754 38.8742 36.8754 39.9082C36.8754 40.155 36.8254 40.3988 36.7306 40.6261H33.2694C33.1746 40.3988 33.1246 40.155 33.1246 39.9082V39.9082ZM39.939 49.501V50.1262H30.061V49.501C30.061 49.1563 30.3414 48.876 30.686 48.876H39.3141C39.6587 48.876 39.939 49.1563 39.939 49.501ZM36.875 47.626H33.125V46.1261H36.875V47.626ZM49.125 44.8761H20.875C20.5304 44.8761 20.25 44.5957 20.25 44.2511V41.8761H49.75V44.2511C49.75 44.5957 49.4696 44.8761 49.125 44.8761Z" fill="#FF6B00"/>
<path d="M36.875 23.1262H43.625C43.9702 23.1262 44.25 22.8464 44.25 22.5012C44.25 22.156 43.9702 21.8762 43.625 21.8762H36.875C36.5298 21.8762 36.25 22.156 36.25 22.5012C36.25 22.8464 36.5298 23.1262 36.875 23.1262Z" fill="#FF6B00"/>
<path d="M29.125 23.1262C29.2894 23.1262 29.4506 23.0593 29.5669 22.9431C29.6831 22.8268 29.75 22.6656 29.75 22.5012C29.75 22.3368 29.6831 22.1756 29.5669 22.0593C29.4506 21.9431 29.2894 21.8762 29.125 21.8762C28.9606 21.8762 28.7994 21.9431 28.6831 22.0593C28.5669 22.1756 28.5 22.3368 28.5 22.5012C28.5 22.6656 28.5669 22.8268 28.6831 22.9431C28.7994 23.0593 28.9606 23.1262 29.125 23.1262Z" fill="#FF6B00"/>
<path d="M26.375 23.1262C26.5394 23.1262 26.7006 23.0593 26.8169 22.9431C26.9331 22.8268 27 22.6656 27 22.5012C27 22.3368 26.9331 22.1756 26.8169 22.0593C26.7006 21.9431 26.5394 21.8762 26.375 21.8762C26.2106 21.8762 26.0494 21.9431 25.9331 22.0593C25.8169 22.1756 25.75 22.3368 25.75 22.5012C25.75 22.6656 25.8169 22.8268 25.9331 22.9431C26.0494 23.0593 26.2106 23.1262 26.375 23.1262Z" fill="#FF6B00"/>
<path d="M31.875 23.1262C32.0394 23.1262 32.2006 23.0593 32.3169 22.9431C32.4331 22.8268 32.5 22.6656 32.5 22.5012C32.5 22.3368 32.4331 22.1756 32.3169 22.0593C32.2006 21.9431 32.0394 21.8762 31.875 21.8762C31.7106 21.8762 31.5494 21.9431 31.4331 22.0593C31.3169 22.1756 31.25 22.3368 31.25 22.5012C31.25 22.6656 31.3169 22.8268 31.4331 22.9431C31.5494 23.0593 31.7106 23.1262 31.875 23.1262Z" fill="#FF6B00"/>
<path d="M26 28.6261H27.4874C27.8326 28.6261 28.1124 28.3463 28.1124 28.0011C28.1124 27.6559 27.8326 27.3761 27.4874 27.3761H26C25.6548 27.3761 25.375 27.6559 25.375 28.0011C25.375 28.3463 25.6548 28.6261 26 28.6261Z" fill="#FF6B00"/>
<path d="M30.2375 28.6261H35.9711C36.3163 28.6261 36.5961 28.3463 36.5961 28.0011C36.5961 27.6559 36.3163 27.3761 35.9711 27.3761H30.2375C29.8923 27.3761 29.6125 27.6559 29.6125 28.0011C29.6125 28.3463 29.8923 28.6261 30.2375 28.6261Z" fill="#FF6B00"/>
<path d="M26 31.626H29.625C29.9702 31.626 30.25 31.3462 30.25 31.001C30.25 30.6558 29.9702 30.376 29.625 30.376H26C25.6548 30.376 25.375 30.6558 25.375 31.001C25.375 31.3462 25.6548 31.626 26 31.626Z" fill="#FF6B00"/>
<path d="M38.7207 28.626H43.9997C44.3449 28.626 44.6247 28.3462 44.6247 28.001C44.6247 27.6558 44.3449 27.376 43.9997 27.376H38.7207C38.3755 27.376 38.0957 27.6558 38.0957 28.001C38.0957 28.3462 38.3755 28.626 38.7207 28.626Z" fill="#FF6B00"/>
<path d="M44.0002 30.376H39.7227C39.3775 30.376 39.0977 30.6558 39.0977 31.001C39.0977 31.3462 39.3775 31.626 39.7227 31.626H44.0002C44.3454 31.626 44.6252 31.3462 44.6252 31.001C44.6252 30.6558 44.3454 30.376 44.0002 30.376Z" fill="#FF6B00"/>
<path d="M23 33.7506C23.1644 33.7506 23.3256 33.6837 23.4419 33.5675C23.5581 33.4512 23.625 33.29 23.625 33.1256C23.625 32.9612 23.5581 32.8 23.4419 32.6837C23.3256 32.5675 23.1644 32.5006 23 32.5006C22.8356 32.5006 22.6744 32.5675 22.5581 32.6837C22.4419 32.8 22.375 32.9612 22.375 33.1256C22.375 33.29 22.4419 33.4512 22.5581 33.5675C22.6744 33.6837 22.8356 33.7506 23 33.7506V33.7506Z" fill="#FF6B00"/>
</svg>
