<svg width="67" height="84" viewBox="0 0 67 84" fill="none" xmlns="http://www.w3.org/2000/svg">
<path opacity="0.5" d="M21.7082 19.233L40.7124 0.793457L33.1608 2.79859C25.2997 4.88325 18.6767 8.50054 13.4784 13.5488L7.62012 19.233C8.54542 20.1342 9.64494 20.8492 10.8557 21.337C12.0664 21.8249 13.3646 22.076 14.6756 22.076C15.9866 22.076 17.2846 21.8249 18.4954 21.337C19.7061 20.8492 20.8057 20.1342 21.731 19.233H21.7082ZM15.372 15.3817C19.7327 11.1505 25.1859 7.98818 31.5995 5.96093L19.8328 17.4001C18.7997 18.4037 17.4791 19.0824 16.043 19.3479C14.6068 19.6133 13.1216 19.4533 11.7805 18.8885L15.372 15.3817Z" fill="#101010"/>
<path opacity="0.5" d="M19.1459 47.2702L25.0042 52.9545C25.9329 52.0567 26.6698 50.9898 27.1726 49.815C27.6754 48.6402 27.9342 47.3807 27.9342 46.1087C27.9342 44.8366 27.6754 43.5771 27.1726 42.4023C26.6698 41.2275 25.9329 40.1606 25.0042 39.2628L6 20.8232L8.06658 28.1505C10.2151 35.8001 13.9431 42.222 19.1459 47.2702ZM23.1106 41.1222C24.144 42.1243 24.8429 43.4049 25.1165 44.7975C25.39 46.19 25.2256 47.6302 24.6446 48.9309L21.0349 45.4329C16.6742 41.2017 13.415 35.9105 11.3257 29.6875L23.1106 41.1222Z" fill="#101010"/>
<path opacity="0.5" d="M52.739 33.3223C51.4299 33.321 50.1334 33.5708 48.9241 34.0574C47.7148 34.5441 46.6166 35.2578 45.6927 36.1577L26.7158 54.5929L34.2674 52.5878C42.124 50.5031 48.747 46.8858 53.9498 41.842L59.8081 36.1577C58.8835 35.2586 57.7852 34.5454 56.5761 34.0588C55.367 33.5722 54.0708 33.322 52.7618 33.3223H52.739ZM52.0335 40.0047C47.6728 44.2359 42.2196 47.3982 35.8014 49.4254L47.5863 37.9907C48.6198 36.9861 49.9412 36.3069 51.3783 36.0414C52.8153 35.776 54.3015 35.9365 55.6432 36.5022L52.0335 40.0047Z" fill="#101010"/>
<path opacity="0.5" d="M42.4198 16.1017L61.4195 34.5413L59.3574 27.214C57.2044 19.5864 53.4764 13.1646 48.2781 8.11637L42.4198 2.43213C41.4945 3.32954 40.7605 4.39505 40.2597 5.56779C39.7589 6.74052 39.5012 7.99749 39.5012 9.26691C39.5012 10.5363 39.7589 11.7933 40.2597 12.9661C40.7605 14.1388 41.4945 15.2043 42.4198 16.1017ZM42.7794 6.4557L46.3845 9.95372C50.8659 14.3796 54.1945 19.779 56.0938 25.7036L44.3134 14.2688C43.2791 13.2663 42.5796 11.985 42.306 10.5915C42.0324 9.19807 42.1974 7.75696 42.7794 6.4557Z" fill="#101010"/>
<path opacity="0.5" d="M6.90961 70.4535V78.7935H5.54161V75.1455H1.61761V78.7935H0.249609V70.4535H1.61761V74.0295H5.54161V70.4535H6.90961ZM13.7385 77.0895H10.2465L9.64655 78.7935H8.21855L11.2065 70.4415H12.7905L15.7785 78.7935H14.3385L13.7385 77.0895ZM13.3545 75.9735L11.9985 72.0975L10.6305 75.9735H13.3545ZM25.8617 70.4535V78.7935H24.4937V73.0815L21.9497 78.7935H21.0017L18.4457 73.0815V78.7935H17.0777V70.4535H18.5537L21.4817 76.9935L24.3977 70.4535H25.8617ZM32.6878 77.0895H29.1958L28.5958 78.7935H27.1678L30.1558 70.4415H31.7398L34.7278 78.7935H33.2878L32.6878 77.0895ZM32.3038 75.9735L30.9478 72.0975L29.5798 75.9735H32.3038ZM37.395 70.4535V78.7935H36.027V70.4535H37.395ZM47.3362 77.0895H43.8442L43.2442 78.7935H41.8162L44.8042 70.4415H46.3882L49.3762 78.7935H47.9362L47.3362 77.0895ZM46.9522 75.9735L45.5962 72.0975L44.2282 75.9735H46.9522ZM53.3994 70.4535C54.2874 70.4535 55.0634 70.6255 55.7274 70.9695C56.3994 71.3055 56.9154 71.7935 57.2754 72.4335C57.6434 73.0655 57.8274 73.8055 57.8274 74.6535C57.8274 75.5015 57.6434 76.2375 57.2754 76.8615C56.9154 77.4855 56.3994 77.9655 55.7274 78.3015C55.0634 78.6295 54.2874 78.7935 53.3994 78.7935H50.6754V70.4535H53.3994ZM53.3994 77.6775C54.3754 77.6775 55.1234 77.4135 55.6434 76.8855C56.1634 76.3575 56.4234 75.6135 56.4234 74.6535C56.4234 73.6855 56.1634 72.9295 55.6434 72.3855C55.1234 71.8415 54.3754 71.5695 53.3994 71.5695H52.0434V77.6775H53.3994ZM64.2112 77.0895H60.7192L60.1192 78.7935H58.6912L61.6792 70.4415H63.2632L66.2512 78.7935H64.8112L64.2112 77.0895ZM63.8272 75.9735L62.4712 72.0975L61.1032 75.9735H63.8272Z" fill="#101010"/>
</svg>
