<svg width="67" height="85" viewBox="0 0 67 85" fill="none" xmlns="http://www.w3.org/2000/svg">
<path opacity="0.5" d="M37.9007 8.11401C38.8385 9.43122 39.5877 10.873 40.1265 12.3975C40.7992 12.4865 41.462 12.6102 42.105 12.7635L42.4265 12.8426H42.5106L42.9212 12.9564L43.3169 13.0751L43.6581 13.1839L44.0093 13.3027C44.1181 13.3389 44.227 13.3785 44.3358 13.4214L44.6573 13.5401C45.2818 13.782 45.8928 14.0578 46.4874 14.3661C46.6308 14.4403 46.7743 14.5095 46.9128 14.5887C47.1502 14.7173 47.3827 14.8508 47.6102 14.9893L47.907 15.1674C47.9513 15.1983 47.9976 15.2264 48.0455 15.2515L48.3522 15.4543L48.644 15.6521C49.7806 16.4293 50.8318 17.3246 51.7799 18.3231C51.8937 18.4319 52.0025 18.5506 52.1064 18.6644L52.3636 18.9562C52.5021 19.1145 52.6356 19.2728 52.7692 19.4509C52.9027 19.6289 52.9275 19.6438 53.0017 19.7427L53.3083 20.1433C53.4072 20.267 53.5012 20.3956 53.5902 20.5242C53.6793 20.6528 53.7733 20.7864 53.8623 20.915C54.0404 21.1771 54.2085 21.4442 54.3569 21.7113C54.441 21.8498 54.5251 21.9833 54.5993 22.1218C54.6735 22.2603 54.7576 22.3988 54.8317 22.5373C54.995 22.8391 55.1533 23.1457 55.3264 23.4524C55.3857 23.576 55.4402 23.6997 55.4946 23.8234C55.549 23.947 55.6034 24.0657 55.6578 24.1894C55.7122 24.313 55.7518 24.407 55.7963 24.5208C55.8408 24.6345 55.8804 24.7236 55.9199 24.8275C56.0189 25.0847 56.1128 25.3221 56.2019 25.609C56.2546 25.7639 56.3041 25.9173 56.3503 26.069C56.3948 26.2174 56.4393 26.3657 56.4789 26.5141C56.6025 26.9395 56.7114 27.3698 56.8004 27.8051C56.8004 27.9139 56.8449 28.0277 56.8696 28.1365C56.8943 28.2453 56.8943 28.2651 56.9042 28.3245C56.9141 28.3838 56.9389 28.4976 56.9488 28.5817C56.9587 28.6658 56.9883 28.824 57.0081 28.9427C57.0279 29.0615 57.0477 29.1901 57.0625 29.3137C57.0774 29.4374 57.0625 29.4225 57.0625 29.4769L57.0922 29.7539C57.0922 29.838 57.0922 29.9271 57.0922 30.0161C57.0922 30.1051 57.1219 30.2832 57.1318 30.4167L57.1615 30.9114C57.1615 31.0795 57.1615 31.2477 57.1615 31.406C57.1615 31.5643 57.1615 31.7423 57.1615 31.9006C57.1549 37.1241 55.0773 42.1318 51.3842 45.8258C47.6912 49.5199 42.6839 51.5987 37.4605 51.6065H36.9658C36.7977 51.6065 36.6295 51.6065 36.4712 51.6065C36.3129 51.6065 36.1398 51.6065 35.9766 51.5769L35.5166 51.5323L35.1209 51.4928L34.8736 51.4582L34.5273 51.4087H34.4977L34.1465 51.3543L33.8546 51.2999L33.4293 51.2158C32.6638 51.0541 31.909 50.8459 31.1688 50.5926L30.7385 50.4392C30.5951 50.3898 30.4565 50.3403 30.3181 50.2809L29.7542 50.0485L29.403 49.8951L29.0221 49.7171C28.8639 49.6379 28.7006 49.5637 28.5275 49.4796C28.3544 49.3956 28.2654 49.3461 28.1368 49.2719L27.6916 49.0246C27.5531 48.9455 27.4146 48.8663 27.2811 48.7822C27.0288 48.6289 26.7864 48.4756 26.544 48.3123L26.4896 48.2728L26.1039 48.0007C25.9752 47.9117 25.8466 47.8226 25.718 47.7237L25.3421 47.4368L25.0404 47.1945C24.8821 47.0659 24.7238 46.9323 24.5458 46.7938L24.2341 46.5218C24.1154 46.4179 24.0017 46.314 23.8879 46.2003C23.7741 46.0865 23.6604 45.9826 23.5516 45.8689C23.3306 45.6578 23.1179 45.4353 22.9135 45.2011C22.8047 45.0824 22.6909 44.9588 22.5821 44.8302C22.3793 44.5977 22.1765 44.3355 21.9886 44.1129L21.6423 43.6579L21.4444 43.3858L21.3801 43.2968C21.2961 43.183 21.2169 43.0693 21.1427 42.9506C21.0685 42.8319 20.9943 42.728 20.9201 42.6142C20.8459 42.5005 20.7124 42.2927 20.6135 42.1196C20.4552 41.8591 20.3019 41.592 20.1535 41.3183C19.8715 40.7989 19.6094 40.2598 19.372 39.7108C19.3175 39.5822 19.2631 39.4536 19.2137 39.325C19.1741 39.231 19.1345 39.1321 19.0999 39.0381C19.0653 38.9441 19.0307 38.86 19.001 38.771L18.9812 38.489L18.8427 38.0884C18.8031 37.9499 18.7586 37.8163 18.719 37.6779C18.717 37.6631 18.717 37.6481 18.719 37.6333C18.6795 37.5047 18.6399 37.3662 18.6053 37.2327C18.5707 37.0991 18.5212 36.9508 18.4866 36.8024C18.3778 36.3671 18.2788 35.9318 18.1997 35.4867L18.1255 35.0415C18.1008 34.8931 18.081 34.7398 18.0612 34.5914C16.5326 34.0578 15.0859 33.3137 13.7629 32.3804C13.8441 37.0596 15.3014 41.6113 17.953 45.4674C20.6047 49.3236 24.3333 52.3135 28.6735 54.0639C33.0136 55.8144 37.7732 56.248 42.3582 55.3105C46.9433 54.3731 51.1507 52.1061 54.4555 48.7925C57.7603 45.479 60.0161 41.2655 60.9413 36.678C61.8666 32.0905 61.4204 27.3321 59.6584 22.9966C57.8964 18.6611 54.8966 14.9405 51.0334 12.2991C47.1702 9.65764 42.6147 8.2124 37.9353 8.14369L37.9007 8.11401ZM17.9376 30.0804L17.9821 29.6451L18.0414 29.2098C18.0414 29.0664 18.081 28.923 18.1057 28.7795C18.1304 28.6361 18.1552 28.4926 18.1799 28.3492C18.2821 27.7841 18.4125 27.2245 18.5707 26.6724C18.6053 26.5339 18.6449 26.3954 18.6894 26.2619C18.719 26.158 18.7537 26.0541 18.7883 25.9453C18.8229 25.8365 18.7883 25.8513 18.8279 25.8068L18.9515 25.4507C18.9843 25.3466 19.0222 25.2443 19.0653 25.144C19.0653 25.0748 19.1098 25.0154 19.1345 24.9462C19.2236 24.7186 19.3176 24.4911 19.4115 24.2685C19.5055 24.0459 19.6391 23.7393 19.7627 23.4821L19.9457 23.116C19.9814 23.0366 20.021 22.959 20.0644 22.8836L20.2079 22.6115C20.2224 22.5792 20.239 22.5478 20.2574 22.5175C20.3266 22.3939 20.3909 22.2752 20.4651 22.1515C20.5393 22.0279 20.5888 21.9339 20.6531 21.83L20.8262 21.5481C20.8756 21.464 20.93 21.3799 20.9844 21.2958C21.212 20.9446 21.4494 20.5984 21.7017 20.262C21.7808 20.1483 21.8649 20.0395 21.9539 19.9306C22.043 19.8218 22.0825 19.7575 22.1518 19.6784C22.3496 19.4311 22.5524 19.1838 22.7651 18.9463C22.8492 18.8474 22.9382 18.7485 23.0273 18.6545C23.2152 18.4468 23.4032 18.244 23.606 18.0511C23.6851 17.967 23.7643 17.8878 23.8484 17.8087C23.9324 17.7296 24.1006 17.5663 24.2292 17.4476L24.5161 17.1904C24.6843 17.0371 24.8623 16.8887 25.0404 16.7403L25.3124 16.5227C25.7131 16.2061 26.1187 15.9044 26.544 15.6224L26.9051 15.3801L27.197 15.1971L27.4195 15.0586C27.5284 14.9943 27.6372 14.925 27.7509 14.8657C27.8647 14.8063 28.0279 14.7074 28.1664 14.6332C28.3049 14.559 28.4484 14.4799 28.5869 14.4106C28.7254 14.3414 28.8688 14.2622 29.0123 14.1979H29.037C29.2892 14.0792 29.5316 13.9605 29.8086 13.8517C30.0856 13.7429 30.1944 13.6885 30.3923 13.6143C30.5901 13.5401 30.6495 13.5104 30.783 13.4659L31.1292 13.3422L31.3073 13.2779L31.6981 13.1543L32.1581 13.0158L32.6527 12.8872L33.0682 12.7833L33.3847 12.714L33.5282 12.6844L33.7656 12.6349L34.191 12.5558L34.4927 12.5063L34.8142 12.4618C35.0863 12.4222 35.3682 12.3876 35.6452 12.3629C34.9552 10.9549 34.0187 9.68178 32.8802 8.6037C28.2639 9.53432 24.0263 11.8107 20.7017 15.1459C17.3771 18.4811 15.1142 22.7258 14.1982 27.3451C15.2749 28.4688 16.5406 29.3946 17.9376 30.0804Z" fill="#101010"/>
<path opacity="0.5" d="M40.8085 14.9695C39.7346 14.7604 38.643 14.656 37.5489 14.6579C37.2027 14.6579 36.8565 14.6579 36.5152 14.6876C36.825 15.8156 36.9813 16.9802 36.9801 18.15C36.981 20.1822 36.5138 22.1873 35.615 24.0099C34.7161 25.8325 33.4097 27.4236 31.7968 28.66C30.184 29.8964 28.3082 30.7448 26.3147 31.1395C24.3212 31.5342 22.2636 31.4646 20.3013 30.9361V30.9361C20.2815 31.2658 20.2716 31.5956 20.2716 31.9253C20.2703 33.0378 20.378 34.1478 20.5931 35.2393C23.3655 35.7501 26.2205 35.5783 28.9116 34.7388C31.6026 33.8992 34.0489 32.4172 36.0391 30.4207C38.0292 28.4243 39.5034 25.9733 40.3344 23.2796C41.1654 20.5858 41.3281 17.7303 40.8085 14.9596V14.9695ZM23.739 0.793508C20.3183 0.794951 16.9742 1.80626 14.126 3.70063C11.2778 5.595 9.0523 8.2881 7.72853 11.4422C6.40476 14.5963 6.04167 18.0711 6.68479 21.4307C7.3279 24.7904 8.94858 27.8854 11.3436 30.3277C11.4566 28.4533 11.7683 26.5963 12.2735 24.7878C10.8082 22.2637 10.2179 19.3261 10.5944 16.4318C10.971 13.5375 12.2932 10.8488 14.3556 8.78356C16.418 6.71834 19.105 5.39241 21.9987 5.01191C24.8925 4.63142 27.8309 5.21769 30.3571 6.67957C32.1628 6.16711 34.0184 5.85038 35.8919 5.73483C32.6461 2.55713 28.2813 0.78245 23.739 0.793508V0.793508Z" fill="#101010"/>
<path opacity="0.5" d="M6.93064 71.4535C7.81864 71.4535 8.59464 71.6255 9.25864 71.9695C9.93064 72.3055 10.4466 72.7935 10.8066 73.4335C11.1746 74.0655 11.3586 74.8055 11.3586 75.6535C11.3586 76.5015 11.1746 77.2375 10.8066 77.8615C10.4466 78.4855 9.93064 78.9655 9.25864 79.3015C8.59464 79.6295 7.81864 79.7935 6.93064 79.7935H4.20664V71.4535H6.93064ZM6.93064 78.6775C7.90664 78.6775 8.65464 78.4135 9.17464 77.8855C9.69464 77.3575 9.95464 76.6135 9.95464 75.6535C9.95464 74.6855 9.69464 73.9295 9.17464 73.3855C8.65464 72.8415 7.90664 72.5695 6.93064 72.5695H5.57464V78.6775H6.93064ZM14.0825 72.5575V75.0055H16.9625V76.1215H14.0825V78.6775H17.3225V79.7935H12.7145V71.4415H17.3225V72.5575H14.0825ZM21.7554 79.8775C21.1954 79.8775 20.6914 79.7815 20.2434 79.5895C19.7954 79.3895 19.4434 79.1095 19.1874 78.7495C18.9314 78.3895 18.8034 77.9695 18.8034 77.4895H20.2674C20.2994 77.8495 20.4394 78.1455 20.6874 78.3775C20.9434 78.6095 21.2994 78.7255 21.7554 78.7255C22.2274 78.7255 22.5954 78.6135 22.8594 78.3895C23.1234 78.1575 23.2554 77.8615 23.2554 77.5015C23.2554 77.2215 23.1714 76.9935 23.0034 76.8175C22.8434 76.6415 22.6394 76.5055 22.3914 76.4095C22.1514 76.3135 21.8154 76.2095 21.3834 76.0975C20.8394 75.9535 20.3954 75.8095 20.0514 75.6655C19.7154 75.5135 19.4274 75.2815 19.1874 74.9695C18.9474 74.6575 18.8274 74.2415 18.8274 73.7215C18.8274 73.2415 18.9474 72.8215 19.1874 72.4615C19.4274 72.1015 19.7634 71.8255 20.1954 71.6335C20.6274 71.4415 21.1274 71.3455 21.6954 71.3455C22.5034 71.3455 23.1634 71.5495 23.6754 71.9575C24.1954 72.3575 24.4834 72.9095 24.5394 73.6135H23.0274C23.0034 73.3095 22.8594 73.0495 22.5954 72.8335C22.3314 72.6175 21.9834 72.5095 21.5514 72.5095C21.1594 72.5095 20.8394 72.6095 20.5914 72.8095C20.3434 73.0095 20.2194 73.2975 20.2194 73.6735C20.2194 73.9295 20.2954 74.1415 20.4474 74.3095C20.6074 74.4695 20.8074 74.5975 21.0474 74.6935C21.2874 74.7895 21.6154 74.8935 22.0314 75.0055C22.5834 75.1575 23.0314 75.3095 23.3754 75.4615C23.7274 75.6135 24.0234 75.8495 24.2634 76.1695C24.5114 76.4815 24.6354 76.9015 24.6354 77.4295C24.6354 77.8535 24.5194 78.2535 24.2874 78.6295C24.0634 79.0055 23.7314 79.3095 23.2914 79.5415C22.8594 79.7655 22.3474 79.8775 21.7554 79.8775ZM32.9096 71.4535V79.7935H31.5416V76.1455H27.6176V79.7935H26.2496V71.4535H27.6176V75.0295H31.5416V71.4535H32.9096ZM36.0785 71.4535V79.7935H34.7105V71.4535H36.0785ZM47.6518 71.4535V79.7935H46.2838V76.1455H42.3598V79.7935H40.9918V71.4535H42.3598V75.0295H46.2838V71.4535H47.6518ZM54.4807 78.0895H50.9887L50.3887 79.7935H48.9607L51.9487 71.4415H53.5327L56.5207 79.7935H55.0807L54.4807 78.0895ZM54.0967 76.9735L52.7407 73.0975L51.3727 76.9735H54.0967ZM63.2079 71.4535V72.5695H60.9879V79.7935H59.6199V72.5695H57.3879V71.4535H63.2079Z" fill="#101010"/>
</svg>
