<svg width="68" height="85" viewBox="0 0 68 85" fill="none" xmlns="http://www.w3.org/2000/svg">
<path opacity="0.5" d="M22.9265 43.8764L27.2987 46.4037L32.6468 43.3165L28.2692 40.7944V3.73142L23.1877 0.793457L22.7398 1.04938L2.55273 12.7053V18.8798L22.9265 7.11191V43.8764Z" fill="#101010"/>
<path opacity="0.5" d="M38.48 3.73142V42.6233L23.1877 51.4532L7.89545 42.6233V18.4692L2.55273 21.5565V43.8764L23.1877 55.7935L43.8227 43.8764V7.11191L64.1964 18.8798V12.7053L43.5615 0.793457L38.48 3.73142Z" fill="#101010"/>
<path opacity="0.5" d="M41.0345 48.1633L35.6865 51.2505L43.5619 55.7934L64.1969 43.8763V21.5564L58.8542 18.4691V40.7944L43.5619 49.6243L41.0345 48.1633Z" fill="#101010"/>
<path opacity="0.5" d="M5.08339 71.4535V72.5695H1.54339V75.0295H4.30339V76.1455H1.54339V79.7935H0.175391V71.4535H5.08339ZM11.3792 78.0895H7.88717L7.28717 79.7935H5.85917L8.84717 71.4415H10.4312L13.4192 79.7935H11.9792L11.3792 78.0895ZM10.9952 76.9735L9.63917 73.0975L8.27117 76.9735H10.9952ZM16.0864 78.6895H18.9064V79.7935H14.7184V71.4535H16.0864V78.6895ZM23.8544 79.8775C23.0784 79.8775 22.3624 79.6975 21.7064 79.3375C21.0584 78.9695 20.5424 78.4615 20.1584 77.8135C19.7824 77.1575 19.5944 76.4215 19.5944 75.6055C19.5944 74.7895 19.7824 74.0575 20.1584 73.4095C20.5424 72.7615 21.0584 72.2575 21.7064 71.8975C22.3624 71.5295 23.0784 71.3455 23.8544 71.3455C24.6384 71.3455 25.3544 71.5295 26.0024 71.8975C26.6584 72.2575 27.1744 72.7615 27.5504 73.4095C27.9264 74.0575 28.1144 74.7895 28.1144 75.6055C28.1144 76.4215 27.9264 77.1575 27.5504 77.8135C27.1744 78.4615 26.6584 78.9695 26.0024 79.3375C25.3544 79.6975 24.6384 79.8775 23.8544 79.8775ZM23.8544 78.6895C24.4064 78.6895 24.8984 78.5655 25.3304 78.3175C25.7624 78.0615 26.0984 77.7015 26.3384 77.2375C26.5864 76.7655 26.7104 76.2215 26.7104 75.6055C26.7104 74.9895 26.5864 74.4495 26.3384 73.9855C26.0984 73.5215 25.7624 73.1655 25.3304 72.9175C24.8984 72.6695 24.4064 72.5455 23.8544 72.5455C23.3024 72.5455 22.8104 72.6695 22.3784 72.9175C21.9464 73.1655 21.6064 73.5215 21.3584 73.9855C21.1184 74.4495 20.9984 74.9895 20.9984 75.6055C20.9984 76.2215 21.1184 76.7655 21.3584 77.2375C21.6064 77.7015 21.9464 78.0615 22.3784 78.3175C22.8104 78.5655 23.3024 78.6895 23.8544 78.6895ZM34.4885 78.0895H30.9965L30.3965 79.7935H28.9685L31.9565 71.4415H33.5405L36.5285 79.7935H35.0885L34.4885 78.0895ZM34.1045 76.9735L32.7485 73.0975L31.3805 76.9735H34.1045ZM42.4237 79.7935L39.1957 76.0615V79.7935H37.8277V71.4535H39.1957V75.2575L42.4357 71.4535H44.1517L40.5277 75.6295L44.2117 79.7935H42.4237ZM50.0175 79.7935L46.7895 76.0615V79.7935H45.4215V71.4535H46.7895V75.2575L50.0295 71.4535H51.7455L48.1215 75.6295L51.8055 79.7935H50.0175ZM58.0432 78.0895H54.5512L53.9512 79.7935H52.5232L55.5112 71.4415H57.0952L60.0832 79.7935H58.6432L58.0432 78.0895ZM57.6592 76.9735L56.3032 73.0975L54.9352 76.9735H57.6592ZM64.1304 79.8775C63.5704 79.8775 63.0664 79.7815 62.6184 79.5895C62.1704 79.3895 61.8184 79.1095 61.5624 78.7495C61.3064 78.3895 61.1784 77.9695 61.1784 77.4895H62.6424C62.6744 77.8495 62.8144 78.1455 63.0624 78.3775C63.3184 78.6095 63.6744 78.7255 64.1304 78.7255C64.6024 78.7255 64.9704 78.6135 65.2344 78.3895C65.4984 78.1575 65.6304 77.8615 65.6304 77.5015C65.6304 77.2215 65.5464 76.9935 65.3784 76.8175C65.2184 76.6415 65.0144 76.5055 64.7664 76.4095C64.5264 76.3135 64.1904 76.2095 63.7584 76.0975C63.2144 75.9535 62.7704 75.8095 62.4264 75.6655C62.0904 75.5135 61.8024 75.2815 61.5624 74.9695C61.3224 74.6575 61.2024 74.2415 61.2024 73.7215C61.2024 73.2415 61.3224 72.8215 61.5624 72.4615C61.8024 72.1015 62.1384 71.8255 62.5704 71.6335C63.0024 71.4415 63.5024 71.3455 64.0704 71.3455C64.8784 71.3455 65.5384 71.5495 66.0504 71.9575C66.5704 72.3575 66.8584 72.9095 66.9144 73.6135H65.4024C65.3784 73.3095 65.2344 73.0495 64.9704 72.8335C64.7064 72.6175 64.3584 72.5095 63.9264 72.5095C63.5344 72.5095 63.2144 72.6095 62.9664 72.8095C62.7184 73.0095 62.5944 73.2975 62.5944 73.6735C62.5944 73.9295 62.6704 74.1415 62.8224 74.3095C62.9824 74.4695 63.1824 74.5975 63.4224 74.6935C63.6624 74.7895 63.9904 74.8935 64.4064 75.0055C64.9584 75.1575 65.4064 75.3095 65.7504 75.4615C66.1024 75.6135 66.3984 75.8495 66.6384 76.1695C66.8864 76.4815 67.0104 76.9015 67.0104 77.4295C67.0104 77.8535 66.8944 78.2535 66.6624 78.6295C66.4384 79.0055 66.1064 79.3095 65.6664 79.5415C65.2344 79.7655 64.7224 79.8775 64.1304 79.8775Z" fill="#101010"/>
</svg>
