<svg width="67" height="85" viewBox="0 0 67 85" fill="none" xmlns="http://www.w3.org/2000/svg">
<path opacity="0.5" d="M44.8555 32.2832V41.3166H22.051C21.4653 41.3168 20.8808 41.2616 20.3055 41.1519L20.0655 41.1001C18.004 40.6469 16.1589 39.5036 14.8354 37.8593C13.5119 36.215 12.7893 34.1682 12.7871 32.0574V0.793457C15.0689 2.09154 16.967 3.96981 18.289 6.23787C19.611 8.50592 20.3099 11.0831 20.3149 13.7084V28.5052C20.3186 29.9053 20.8765 31.2471 21.8665 32.2371C22.8566 33.2272 24.1983 33.785 25.5985 33.7888H41.1575C42.54 33.7919 43.8683 33.2511 44.8555 32.2832V32.2832Z" fill="#101010"/>
<path opacity="0.5" d="M53.9685 0.793457V18.2627C53.1444 17.0457 52.088 16.0036 50.8599 15.1961C49.6318 14.3887 48.2563 13.8319 46.8123 13.5578C46.6947 13.5343 46.5724 13.5107 46.45 13.4966C46.4915 10.9085 47.2066 8.37581 48.525 6.14824C49.8434 3.92067 51.7196 2.0751 53.9685 0.793457V0.793457Z" fill="#101010"/>
<path opacity="0.5" d="M53.9686 24.5295V55.7935C51.6873 54.4935 49.7898 52.6142 48.4679 50.3455C47.1461 48.0769 46.4468 45.4995 46.4407 42.8739V28.077C46.4383 26.674 45.8798 25.3291 44.8877 24.3371C43.8956 23.345 42.5508 22.7865 41.1478 22.784H25.5887C24.205 22.7844 22.8769 23.3285 21.8907 24.299V15.2656H44.6952C45.9121 15.2644 47.1173 15.5032 48.2418 15.9683C49.3663 16.4334 50.3881 17.1157 51.2485 17.9762C52.109 18.8367 52.7913 19.8584 53.2564 20.9829C53.7216 22.1074 53.9604 23.3126 53.9591 24.5295H53.9686Z" fill="#101010"/>
<path opacity="0.5" d="M20.3051 43.1142C20.2578 45.699 19.5389 48.2271 18.2191 50.4501C16.8993 52.6731 15.024 54.5147 12.7773 55.7938V38.334C14.3851 40.7078 16.8419 42.3748 19.6417 42.9918H19.6935L19.9287 43.0389C20.0652 43.0765 20.1828 43.1 20.3051 43.1142Z" fill="#101010"/>
<path opacity="0.5" d="M7.81714 71.4535V77.4655C7.81714 78.2095 7.58914 78.7975 7.13314 79.2295C6.68514 79.6615 6.09314 79.8775 5.35714 79.8775C4.62114 79.8775 4.02514 79.6615 3.56914 79.2295C3.12114 78.7975 2.89714 78.2095 2.89714 77.4655H4.27714C4.28514 77.8335 4.37714 78.1255 4.55314 78.3415C4.73714 78.5575 5.00514 78.6655 5.35714 78.6655C5.70914 78.6655 5.97714 78.5575 6.16114 78.3415C6.34514 78.1175 6.43714 77.8255 6.43714 77.4655V71.4535H7.81714ZM15.0706 78.0895H11.5786L10.9786 79.7935H9.55058L12.5386 71.4415H14.1226L17.1106 79.7935H15.6706L15.0706 78.0895ZM14.6866 76.9735L13.3306 73.0975L11.9626 76.9735H14.6866ZM22.8738 75.5095C23.3218 75.5895 23.7018 75.8255 24.0138 76.2175C24.3258 76.6095 24.4818 77.0535 24.4818 77.5495C24.4818 77.9735 24.3698 78.3575 24.1458 78.7015C23.9298 79.0375 23.6138 79.3055 23.1978 79.5055C22.7818 79.6975 22.2978 79.7935 21.7458 79.7935H18.4098V71.4535H21.5898C22.1578 71.4535 22.6458 71.5495 23.0538 71.7415C23.4618 71.9335 23.7698 72.1935 23.9778 72.5215C24.1858 72.8415 24.2898 73.2015 24.2898 73.6015C24.2898 74.0815 24.1618 74.4815 23.9058 74.8015C23.6498 75.1215 23.3058 75.3575 22.8738 75.5095ZM19.7778 74.9575H21.4698C21.9178 74.9575 22.2658 74.8575 22.5138 74.6575C22.7698 74.4495 22.8978 74.1535 22.8978 73.7695C22.8978 73.3935 22.7698 73.1015 22.5138 72.8935C22.2658 72.6775 21.9178 72.5695 21.4698 72.5695H19.7778V74.9575ZM21.6258 78.6775C22.0898 78.6775 22.4538 78.5655 22.7178 78.3415C22.9818 78.1175 23.1138 77.8055 23.1138 77.4055C23.1138 76.9975 22.9738 76.6735 22.6938 76.4335C22.4138 76.1935 22.0418 76.0735 21.5778 76.0735H19.7778V78.6775H21.6258ZM27.3364 72.5575V75.0055H30.2164V76.1215H27.3364V78.6775H30.5764V79.7935H25.9684V71.4415H30.5764V72.5575H27.3364ZM36.5933 79.7935L34.6733 76.4575H33.6293V79.7935H32.2613V71.4535H35.1413C35.7813 71.4535 36.3213 71.5655 36.7613 71.7895C37.2093 72.0135 37.5413 72.3135 37.7573 72.6895C37.9813 73.0655 38.0933 73.4855 38.0933 73.9495C38.0933 74.4935 37.9333 74.9895 37.6133 75.4375C37.3013 75.8775 36.8173 76.1775 36.1613 76.3375L38.2253 79.7935H36.5933ZM33.6293 75.3655H35.1413C35.6533 75.3655 36.0373 75.2375 36.2933 74.9815C36.5573 74.7255 36.6893 74.3815 36.6893 73.9495C36.6893 73.5175 36.5613 73.1815 36.3053 72.9415C36.0493 72.6935 35.6613 72.5695 35.1413 72.5695H33.6293V75.3655ZM41.2114 71.4535V79.7935H39.8434V71.4535H41.2114ZM49.8594 79.7935H48.4914L44.3754 73.5655V79.7935H43.0074V71.4415H44.3754L48.4914 77.6575V71.4415H49.8594V79.7935ZM53.0239 72.5575V75.0055H55.9039V76.1215H53.0239V78.6775H56.2639V79.7935H51.6559V71.4415H56.2639V72.5575H53.0239ZM62.2808 79.7935L60.3608 76.4575H59.3168V79.7935H57.9488V71.4535H60.8288C61.4688 71.4535 62.0088 71.5655 62.4488 71.7895C62.8968 72.0135 63.2288 72.3135 63.4448 72.6895C63.6688 73.0655 63.7808 73.4855 63.7808 73.9495C63.7808 74.4935 63.6208 74.9895 63.3008 75.4375C62.9888 75.8775 62.5048 76.1775 61.8488 76.3375L63.9128 79.7935H62.2808ZM59.3168 75.3655H60.8288C61.3408 75.3655 61.7248 75.2375 61.9808 74.9815C62.2448 74.7255 62.3768 74.3815 62.3768 73.9495C62.3768 73.5175 62.2488 73.1815 61.9928 72.9415C61.7368 72.6935 61.3488 72.5695 60.8288 72.5695H59.3168V75.3655Z" fill="#101010"/>
</svg>
