<svg width="67" height="84" viewBox="0 0 67 84" fill="none" xmlns="http://www.w3.org/2000/svg">
<path opacity="0.5" d="M45.2719 17.4576L38.0225 24.707L40.8222 27.5068L48.0716 20.2574L45.2719 17.4576Z" fill="#101010"/>
<path opacity="0.5" d="M30.6156 32.0945L23.3661 39.3439L26.1659 42.1436L33.4153 34.8942L30.6156 32.0945Z" fill="#101010"/>
<path opacity="0.5" d="M40.6654 12.8531L33.416 20.1025L36.2158 22.9023L43.4652 15.6529L40.6654 12.8531Z" fill="#101010"/>
<path opacity="0.5" d="M26.0133 27.5029L18.7639 34.7523L21.5636 37.5521L28.813 30.3027L26.0133 27.5029Z" fill="#101010"/>
<path opacity="0.5" d="M21.5625 17.4517L18.7627 20.2515L26.0121 27.5009L28.8119 24.7011L21.5625 17.4517Z" fill="#101010"/>
<path opacity="0.5" d="M26.1662 12.8496L23.3664 15.6494L30.6158 22.8988L33.4156 20.099L26.1662 12.8496Z" fill="#101010"/>
<path opacity="0.5" d="M40.8193 27.502L38.0195 30.3018L45.2689 37.5512L48.0687 34.7514L40.8193 27.502Z" fill="#101010"/>
<path opacity="0.5" d="M36.2156 32.1044L33.4158 34.9042L40.6652 42.1536L43.465 39.3538L36.2156 32.1044Z" fill="#101010"/>
<path opacity="0.5" d="M43.4648 44.9511L40.6657 42.152L33.4165 49.4013L26.1671 42.152L23.368 44.9511L33.4165 54.9995L43.4648 44.9511Z" fill="#101010"/>
<path opacity="0.5" d="M18.7634 20.2503L15.9644 17.4512L5.91602 27.4996L15.9644 37.548L18.7634 34.7489L11.5142 27.4996L18.7634 20.2503Z" fill="#101010"/>
<path opacity="0.5" d="M50.8684 17.4512L48.0693 20.2503L55.3186 27.4996L48.0693 34.7489L50.8684 37.548L60.9168 27.4996L50.8684 17.4512Z" fill="#101010"/>
<path opacity="0.5" d="M40.6657 12.847L43.4648 10.0479L33.4165 -0.000488281L23.368 10.0479L26.1671 12.847L33.4165 5.59765L40.6657 12.847Z" fill="#101010"/>
<path opacity="0.5" d="M8.00395 78.9995H6.63595L2.51995 72.7715V78.9995H1.15195V70.6475H2.51995L6.63595 76.8635V70.6475H8.00395V78.9995ZM13.6044 79.0835C12.8284 79.0835 12.1124 78.9035 11.4564 78.5435C10.8084 78.1755 10.2924 77.6675 9.90839 77.0195C9.53239 76.3635 9.34439 75.6275 9.34439 74.8115C9.34439 73.9955 9.53239 73.2635 9.90839 72.6155C10.2924 71.9675 10.8084 71.4635 11.4564 71.1035C12.1124 70.7355 12.8284 70.5515 13.6044 70.5515C14.3884 70.5515 15.1044 70.7355 15.7524 71.1035C16.4084 71.4635 16.9244 71.9675 17.3004 72.6155C17.6764 73.2635 17.8644 73.9955 17.8644 74.8115C17.8644 75.6275 17.6764 76.3635 17.3004 77.0195C16.9244 77.6675 16.4084 78.1755 15.7524 78.5435C15.1044 78.9035 14.3884 79.0835 13.6044 79.0835ZM13.6044 77.8955C14.1564 77.8955 14.6484 77.7715 15.0804 77.5235C15.5124 77.2675 15.8484 76.9075 16.0884 76.4435C16.3364 75.9715 16.4604 75.4275 16.4604 74.8115C16.4604 74.1955 16.3364 73.6555 16.0884 73.1915C15.8484 72.7275 15.5124 72.3715 15.0804 72.1235C14.6484 71.8755 14.1564 71.7515 13.6044 71.7515C13.0524 71.7515 12.5604 71.8755 12.1284 72.1235C11.6964 72.3715 11.3564 72.7275 11.1084 73.1915C10.8684 73.6555 10.7484 74.1955 10.7484 74.8115C10.7484 75.4275 10.8684 75.9715 11.1084 76.4435C11.3564 76.9075 11.6964 77.2675 12.1284 77.5235C12.5604 77.7715 13.0524 77.8955 13.6044 77.8955ZM23.8065 78.9995L20.5785 75.2675V78.9995H19.2105V70.6595H20.5785V74.4635L23.8185 70.6595H25.5345L21.9105 74.8355L25.5945 78.9995H23.8065ZM30.6083 79.0835C29.8323 79.0835 29.1163 78.9035 28.4603 78.5435C27.8123 78.1755 27.2963 77.6675 26.9123 77.0195C26.5363 76.3635 26.3483 75.6275 26.3483 74.8115C26.3483 73.9955 26.5363 73.2635 26.9123 72.6155C27.2963 71.9675 27.8123 71.4635 28.4603 71.1035C29.1163 70.7355 29.8323 70.5515 30.6083 70.5515C31.3923 70.5515 32.1083 70.7355 32.7563 71.1035C33.4123 71.4635 33.9283 71.9675 34.3043 72.6155C34.6803 73.2635 34.8683 73.9955 34.8683 74.8115C34.8683 75.6275 34.6803 76.3635 34.3043 77.0195C33.9283 77.6675 33.4123 78.1755 32.7563 78.5435C32.1083 78.9035 31.3923 79.0835 30.6083 79.0835ZM30.6083 77.8955C31.1603 77.8955 31.6523 77.7715 32.0843 77.5235C32.5163 77.2675 32.8523 76.9075 33.0923 76.4435C33.3403 75.9715 33.4643 75.4275 33.4643 74.8115C33.4643 74.1955 33.3403 73.6555 33.0923 73.1915C32.8523 72.7275 32.5163 72.3715 32.0843 72.1235C31.6523 71.8755 31.1603 71.7515 30.6083 71.7515C30.0563 71.7515 29.5643 71.8755 29.1323 72.1235C28.7003 72.3715 28.3603 72.7275 28.1123 73.1915C27.8723 73.6555 27.7523 74.1955 27.7523 74.8115C27.7523 75.4275 27.8723 75.9715 28.1123 76.4435C28.3603 76.9075 28.7003 77.2675 29.1323 77.5235C29.5643 77.7715 30.0563 77.8955 30.6083 77.8955ZM37.5825 77.8955H40.4025V78.9995H36.2145V70.6595H37.5825V77.8955ZM49.6917 77.2955H46.1997L45.5997 78.9995H44.1717L47.1597 70.6475H48.7437L51.7317 78.9995H50.2917L49.6917 77.2955ZM49.3077 76.1795L47.9517 72.3035L46.5837 76.1795H49.3077ZM54.3989 77.8955H57.2189V78.9995H53.0309V70.6595H54.3989V77.8955ZM59.7189 70.6595V75.9755C59.7189 76.6075 59.8829 77.0835 60.2109 77.4035C60.5469 77.7235 61.0109 77.8835 61.6029 77.8835C62.2029 77.8835 62.6669 77.7235 62.9949 77.4035C63.3309 77.0835 63.4989 76.6075 63.4989 75.9755V70.6595H64.8669V75.9515C64.8669 76.6315 64.7189 77.2075 64.4229 77.6795C64.1269 78.1515 63.7309 78.5035 63.2349 78.7355C62.7389 78.9675 62.1909 79.0835 61.5909 79.0835C60.9909 79.0835 60.4429 78.9675 59.9469 78.7355C59.4589 78.5035 59.0709 78.1515 58.7829 77.6795C58.4949 77.2075 58.3509 76.6315 58.3509 75.9515V70.6595H59.7189Z" fill="#101010"/>
</svg>
