<svg width="309" height="206" viewBox="0 0 309 206" fill="none" xmlns="http://www.w3.org/2000/svg">
<g opacity="0.2" clip-path="url(#clip0_618_559)">
<path d="M11.5049 141.161L7.63713 141.447C7.57293 140.58 7.57096 139.71 7.63123 138.843L11.5074 139.113C11.4587 139.795 11.4579 140.479 11.5049 141.161V141.161Z" fill="#FF6B00"/>
<path d="M178.948 138.875L177.235 135.395C178.552 134.751 179.822 134.015 181.037 133.193L183.222 136.405C181.858 137.328 180.429 138.153 178.948 138.875V138.875ZM174.471 140.767C173.159 141.238 171.821 141.653 170.459 142.018L169.853 142.18L168.857 138.432L169.422 138.281C170.709 137.936 171.96 137.547 173.153 137.116L174.471 140.767ZM187.146 133.271L184.432 130.484C185.455 129.5 186.368 128.407 187.154 127.225L190.393 129.367C189.445 130.784 188.347 132.095 187.118 133.276L187.146 133.271ZM165.092 143.208C163.477 143.472 161.847 143.631 160.211 143.687L160.081 139.807C161.554 139.754 163.023 139.611 164.48 139.379L165.092 143.208ZM155.251 143.475C154.588 143.388 153.927 143.285 153.281 143.152C152.284 142.953 151.299 142.694 150.333 142.376L151.539 138.665C152.354 138.934 153.184 139.152 154.025 139.321C154.581 139.427 155.147 139.522 155.694 139.609L155.251 143.475ZM192.694 124.788L189.001 123.458C189.478 122.135 189.796 120.76 189.95 119.362L193.807 119.787C193.623 121.491 193.235 123.166 192.65 124.778L192.694 124.788ZM145.72 140.329C144.263 139.497 142.886 138.534 141.605 137.45L144.104 134.481C145.203 135.411 146.385 136.238 147.635 136.952L145.72 140.329ZM193.862 114.739L189.944 115.079C189.8 113.65 189.535 112.236 189.151 110.852L192.912 109.849C193.352 111.447 193.656 113.079 193.819 114.728L193.862 114.739ZM138.077 133.926C137.011 132.667 136.041 131.329 135.175 129.925L138.476 127.881C139.244 129.124 140.101 130.31 141.042 131.428L138.077 133.926ZM191.261 105.182L187.695 106.729C187.544 106.409 187.4 106.101 187.24 105.762C186.773 104.771 186.239 103.765 185.67 102.783L189.019 100.824C189.651 101.907 190.233 103.013 190.749 104.112C190.919 104.438 191.087 104.796 191.243 105.16L191.261 105.182ZM136.407 123.986L132.85 125.552C132.192 124.042 131.634 122.491 131.179 120.909L134.911 119.844C135.316 121.247 135.809 122.623 136.388 123.964L136.407 123.986ZM183.236 99.0434C182.358 97.8461 181.402 96.6779 180.405 95.5677L183.294 92.974C184.383 94.1762 185.407 95.4345 186.364 96.744L183.236 99.0434ZM46.2229 159.271C45.0676 159.815 43.8832 160.295 42.6751 160.71L41.4131 157.033C42.8002 156.556 44.1527 155.984 45.461 155.32L47.2186 158.779C46.9043 158.943 46.5745 159.105 46.2229 159.271ZM257.971 59.5398C256.498 60.0259 254.957 60.4825 253.401 60.9232L252.401 57.1687C253.891 56.7668 255.367 56.3334 256.777 55.8769L257.971 59.5398ZM51.4467 156.277L49.2611 153.065C50.4864 152.225 51.6654 151.32 52.7928 150.353L55.3201 153.297C54.0894 154.359 52.8005 155.352 51.4593 156.271L51.4467 156.277ZM37.8106 161.925C36.1488 162.17 34.467 162.252 32.7892 162.171L32.9323 158.27C34.3689 158.349 35.8098 158.29 37.2351 158.093L37.8106 161.925ZM248.76 62.01C247.256 62.334 245.688 62.6347 244.089 62.9037L243.433 59.0798C244.978 58.8127 246.491 58.523 247.938 58.2101L248.76 62.01ZM133.944 115.507L130.103 116.079C129.863 114.452 129.731 112.81 129.709 111.166L133.589 111.119C133.613 112.588 133.736 114.054 133.959 115.507L133.944 115.507ZM58.8545 149.955L56.0543 147.262C57.0884 146.201 58.0901 145.07 59.0622 143.877L62.0581 146.301C61.0117 147.614 59.9366 148.833 58.8545 149.955ZM239.416 63.6142C237.909 63.8171 236.332 63.9996 234.717 64.1689L234.325 60.3048C235.896 60.1407 237.437 59.9604 238.903 59.7689L239.416 63.6142ZM177.265 92.2989C176.178 91.2766 175.041 90.2779 173.867 89.2969L176.335 86.2959C177.577 87.3064 178.78 88.3811 179.933 89.4795L177.265 92.2989ZM27.8381 161.555C26.2108 161.204 24.6155 160.718 23.0684 160.103L24.5051 156.491C25.8494 157.029 27.2352 157.456 28.6488 157.77L27.8381 161.555ZM64.9607 142.513L61.8149 140.259C62.6747 139.088 63.5069 137.776 64.3298 136.461L67.6012 138.526C66.7395 139.905 65.8538 141.25 64.9607 142.513ZM230.017 64.5932C228.452 64.7109 226.886 64.8162 225.32 64.909L225.09 61.0302C226.635 60.9399 228.173 60.8371 229.719 60.7159L230.017 64.5932ZM133.88 106.75L130.037 106.257C130.226 104.845 130.509 103.447 130.883 102.072L131.075 101.406L134.802 102.498C134.741 102.695 134.69 102.896 134.632 103.099C134.299 104.296 134.047 105.513 133.877 106.743L133.88 106.75ZM220.642 65.1694L215.955 65.3426L215.809 61.4627L220.463 61.2669L220.642 65.1694ZM70.0213 134.413L66.6121 132.528C67.1406 131.582 67.6703 130.589 68.1849 129.58L68.7515 128.47L72.2231 130.21L71.6465 131.348C71.1408 132.376 70.5665 133.42 70.0213 134.413ZM170.236 86.5656C169.012 85.6921 167.738 84.8578 166.45 84.0758L168.469 80.7568C169.84 81.5996 171.196 82.4949 172.496 83.4168L170.236 86.5656ZM18.6087 157.892C17.1767 157.017 15.8283 156.011 14.5808 154.888L17.1824 152.008C18.2515 152.97 19.4082 153.83 20.6372 154.577L18.6087 157.892ZM211.311 65.5262L206.654 65.7157L206.486 61.8383C208.046 61.764 209.605 61.7051 211.165 61.6463L211.311 65.5262ZM136.29 98.2942L132.723 96.7594C133.371 95.2613 134.106 93.8022 134.923 92.3894L138.29 94.3322C137.546 95.6125 136.878 96.9354 136.29 98.2942ZM201.978 65.9296C200.436 66.0106 198.895 66.1071 197.352 66.2191L197.064 62.3451C198.624 62.2397 200.189 62.1427 201.757 62.054L201.978 65.9296ZM74.2673 125.983L70.7598 124.313C71.4232 122.919 72.0778 121.507 72.729 120.105L76.2561 121.735C75.616 123.145 74.9531 124.561 74.2673 125.983ZM162.474 81.867C161.129 81.1737 159.751 80.5261 158.386 79.9565L159.915 76.3929C161.38 77.0146 162.835 77.7105 164.267 78.4401L162.474 81.867ZM192.769 66.5811C191.192 66.7326 189.645 66.9004 188.189 67.0797L187.678 63.2407C189.179 63.0562 190.76 62.88 192.377 62.7325L192.769 66.5811ZM140.76 90.5863L137.605 88.3289C138.539 87.0539 139.588 85.7786 140.687 84.579L143.576 87.1839C142.57 88.2743 141.62 89.4148 140.729 90.6011L140.76 90.5863ZM11.1837 151.073C10.4838 150.089 9.87211 149.045 9.3559 147.953C9.13736 147.489 8.91587 147.018 8.75678 146.533L12.3928 145.167C12.5641 145.532 12.6974 145.929 12.8716 146.299C13.2912 147.184 13.787 148.031 14.3535 148.83L11.1837 151.073ZM78.2386 117.49L74.7211 115.848C75.3779 114.429 76.0397 113.017 76.7066 111.609L80.2011 113.3C79.5638 114.684 78.9096 116.08 78.2386 117.49ZM183.598 67.7363C182.056 67.9787 180.538 68.2558 179.081 68.5499L178.31 64.7418C179.816 64.4396 181.39 64.1514 182.989 63.898L183.598 67.7363ZM146.714 83.9444L144.076 81.091C145.244 80.0203 146.489 78.967 147.77 77.9735L150.154 81.038C148.952 81.9714 147.796 82.9523 146.714 83.9444ZM174.619 69.5603C173.123 69.9341 171.648 70.3519 170.223 70.7926L169.067 67.0809C170.561 66.6232 172.105 66.1884 173.666 65.7913L174.619 69.5603ZM154.187 78.2824L154.094 78.2491L153.852 78.3861L153.639 78.0644C152.392 77.6466 151.126 77.2686 149.871 76.9313L150.864 73.1749C151.749 73.4257 152.674 73.6807 153.579 73.96C154.326 73.5092 155.078 73.071 155.846 72.6487L157.726 76.0425C156.508 76.7148 155.368 77.4044 154.237 78.1284L154.187 78.2824ZM165.926 72.2694C164.52 72.8006 163.112 73.3938 161.747 74.0284L160.093 70.5127C161.53 69.8364 163.026 69.2173 164.52 68.6448L165.926 72.2694ZM82.2992 109.155L78.8442 107.368C79.6217 105.875 80.3653 104.506 81.1136 103.195L84.4877 105.12C83.7589 106.39 83.0383 107.711 82.2929 109.158L82.2992 109.155ZM145.431 75.9683C143.951 75.6908 142.448 75.4624 140.962 75.3026L141.384 71.4394C142.994 71.6021 144.567 71.8509 146.149 72.1495L145.431 75.9683ZM86.8498 101.225L83.5665 99.1354C84.453 97.76 85.3601 96.4285 86.3056 95.1787L89.4252 97.4911C88.5532 98.6527 87.6882 99.9107 86.8439 101.213L86.8498 101.225ZM136.46 75.0054L135.836 74.9843C134.546 74.9627 133.238 74.9872 131.949 75.0495L131.741 71.1525C133.121 71.0863 134.521 71.0639 135.896 71.0844L136.565 71.1067L136.46 75.0054ZM92.2503 93.9617L89.3227 91.4056C90.3727 90.1986 91.4966 89.0182 92.6592 87.9039L95.3545 90.6997C94.2713 91.7383 93.2239 92.8367 92.2503 93.9617ZM127.454 75.4694C125.972 75.6605 124.47 75.9224 123.004 76.2287L122.198 72.4292C123.767 72.0974 125.366 71.8285 126.947 71.6212L127.454 75.4694ZM98.7245 87.7419L96.2553 84.7095C97.4929 83.7056 98.7976 82.7468 100.12 81.8257L102.315 85.0254C101.1 85.8653 99.8805 86.7765 98.7282 87.7172L98.7245 87.7419ZM118.614 77.3277C117.173 77.7526 115.73 78.2394 114.33 78.7676L112.953 75.1375C114.443 74.5742 115.977 74.0523 117.521 73.602L118.614 77.3277ZM106.172 82.6286L104.238 79.2521C105.623 78.4628 107.062 77.709 108.513 77.0268L110.163 80.5362C108.807 81.1741 107.465 81.8744 106.169 82.6224L106.172 82.6286Z" fill="#FF6B00"/>
<path d="M264.799 56.9412C264.077 57.2808 263.332 57.5702 262.595 57.8629L261.158 54.2531C261.856 53.9781 262.556 53.6876 263.242 53.3875L264.799 56.9412Z" fill="#FF6B00"/>
<path d="M269.687 62.7844L267.919 52.5218L259.941 47.1196L275.253 43.0296L290.556 38.9363L280.119 50.8618L269.687 62.7844Z" fill="#FF6B00"/>
</g>
<defs>
<clipPath id="clip0_618_559">
<rect width="300.858" height="85.9544" fill="white" transform="translate(0 128.064) rotate(-25.1927)"/>
</clipPath>
</defs>
</svg>
