<svg width="434" height="98" viewBox="0 0 434 98" fill="none" xmlns="http://www.w3.org/2000/svg">
<path opacity="0.2" d="M433.634 58.9766L424.99 43.9674L416.314 58.9583L433.634 58.9766ZM2.6176 97.8352C3.73515 96.6574 4.89271 95.4675 6.08977 94.2671L3.96556 92.1487C2.75133 93.3662 1.57641 94.574 0.441329 95.7703L2.6176 97.8352ZM13.3988 87.2682C15.8104 85.0584 18.3452 82.8262 21.0003 80.5813L19.0634 78.2904C16.3785 80.5605 13.8137 82.819 11.3721 85.0563L13.3988 87.2682ZM28.8471 74.1917C31.4402 72.1567 34.1284 70.1191 36.9095 68.0861L35.139 65.6642C32.3305 67.7173 29.6151 69.7755 26.995 71.8317L28.8471 74.1917ZM45.1681 62.2539C47.9047 60.3869 50.7189 58.5297 53.6091 56.688L51.9969 54.158C49.0802 56.0166 46.2398 57.891 43.4774 59.7757L45.1681 62.2539ZM62.2215 51.384C65.0811 49.6824 68.0066 47.9995 70.9965 46.3399L69.5406 43.7169C66.5243 45.3911 63.5728 47.089 60.6875 48.8058L62.2215 51.384ZM79.9262 41.5558C82.8951 40.0214 85.9212 38.5125 89.0032 37.0331L87.7051 34.3286C84.5962 35.8208 81.5437 37.3429 78.5488 38.8907L79.9262 41.5558ZM98.1989 32.7842C101.246 31.4301 104.343 30.1067 107.489 28.8174L106.351 26.0415C103.178 27.342 100.054 28.6769 96.9806 30.0427L98.1989 32.7842ZM116.905 25.118C120.04 23.9392 123.22 22.7956 126.443 21.6905L125.47 18.8526C122.219 19.9674 119.011 21.1209 115.849 22.31L116.905 25.118ZM136.087 18.5421C139.276 17.5528 142.505 16.6023 145.772 15.6934L144.968 12.8031C141.672 13.72 138.415 14.6789 135.198 15.6768L136.087 18.5421ZM155.559 13.1266C158.817 12.3235 162.111 11.5626 165.441 10.8467L164.81 7.91371C161.451 8.63602 158.128 9.4036 154.841 10.2138L155.559 13.1266ZM175.362 8.86775C178.652 8.26255 181.974 7.70189 185.327 7.1882L184.873 4.22279C181.49 4.74105 178.138 5.30669 174.819 5.91727L175.362 8.86775ZM195.368 5.80427C198.696 5.3966 202.052 5.03579 205.437 4.72409L205.162 1.73673C201.747 2.05121 198.36 2.41524 195.003 2.82654L195.368 5.80427ZM215.507 3.94898C218.857 3.74165 222.233 3.58296 225.635 3.47498L225.54 0.476494C222.108 0.585429 218.702 0.74553 215.322 0.954709L215.507 3.94898ZM235.753 3.30553C239.097 3.29956 242.465 3.34311 245.856 3.43804L245.94 0.439215C242.519 0.343443 239.122 0.299515 235.748 0.305534L235.753 3.30553ZM256.003 3.87343C259.337 4.06615 262.692 4.30901 266.068 4.60374L266.329 1.6151C262.924 1.31782 259.539 1.07284 256.176 0.878433L256.003 3.87343ZM276.14 5.63155C279.473 6.02084 282.826 6.46113 286.197 6.95404L286.631 3.9856C283.231 3.4885 279.85 3.04444 276.488 2.6518L276.14 5.63155ZM296.159 8.55579C299.473 9.1369 302.804 9.76925 306.152 10.4543L306.753 7.51522C303.378 6.82448 300.019 6.18686 296.677 5.60088L296.159 8.55579ZM315.996 12.6107C319.263 13.3737 322.547 14.1874 325.845 15.0531L326.606 12.1513C323.282 11.2788 319.972 10.4585 316.678 9.68927L315.996 12.6107ZM335.589 17.7507C338.804 18.6867 342.032 19.6724 345.273 20.7091L346.187 17.8517C342.921 16.8071 339.668 15.8137 336.428 14.8703L335.589 17.7507ZM354.889 23.922C358.045 25.0214 361.212 26.1695 364.391 27.3673L365.449 24.5599C362.246 23.3533 359.055 22.1967 355.876 21.089L354.889 23.922ZM373.851 31.0652C376.945 32.3184 380.049 33.6189 383.163 34.9679L384.356 32.215C381.219 30.8566 378.093 29.5468 374.978 28.2847L373.851 31.0652ZM392.443 39.1176C395.473 40.5152 398.513 41.959 401.561 43.4497L402.879 40.7547C399.81 39.254 396.75 37.8005 393.7 36.3934L392.443 39.1176ZM410.64 48.0154C413.608 49.5492 416.584 51.1279 419.568 52.7522L421.002 50.1173C418 48.4827 415.005 46.894 412.018 45.3503L410.64 48.0154Z" fill="#FF6B00"/>
</svg>
