<svg width="63" height="70" viewBox="0 0 63 70" fill="none" xmlns="http://www.w3.org/2000/svg">
<g clip-path="url(#clip0_530_284)">
<path d="M32.8966 55.8212V65.3607C33.6998 65.5187 34.517 65.5936 35.3355 65.5843C36.2477 65.4911 38.8169 65.0998 39.3568 63.2739C39.9529 61.942 40.122 60.4579 39.8408 59.0258C39.7114 58.3935 39.4326 57.8014 39.0278 57.299C38.6229 56.7965 38.1038 56.3984 37.5137 56.1379C36.6224 55.8679 35.705 55.693 34.7769 55.6162C34.2743 55.6162 32.9152 55.8212 32.9152 55.8212H32.8966Z" fill="#606060"/>
<path d="M20.814 56.7527V57.5539H19.8273V56.7527V58.6159V57.7029H20.814V58.6159V56.7527ZM23.1226 56.7527L22.4896 58.6159H22.5827L22.8061 57.9638H23.4949L23.7369 58.6159L23.1226 56.7527ZM22.7688 57.8147L23.0109 57.1812C23.0109 57.1812 23.0109 57.1812 23.0109 57.0694C23.0109 56.9576 23.0109 57.0694 23.0109 56.9763C23.0109 56.8831 23.0109 56.9763 23.0109 56.8645V56.9763C23.0028 57.0131 23.0028 57.0512 23.0109 57.0881L23.2343 57.7215L22.7688 57.8147ZM25.3566 58.5413V57.7588H25.7662H25.9338C25.9841 57.7388 26.0288 57.7068 26.0641 57.6657C26.0698 57.6161 26.0698 57.5661 26.0641 57.5166C26.0729 57.4486 26.0729 57.3797 26.0641 57.3116C26.0745 57.25 26.0745 57.187 26.0641 57.1253C26.0732 57.0761 26.0732 57.0255 26.0641 56.9763C26.0138 56.9222 25.9493 56.8834 25.8779 56.8645C25.7924 56.8424 25.7028 56.8424 25.6173 56.8645H25.2822L25.3566 58.5413ZM25.3566 56.8458H25.8035H25.9524C26.0043 56.8742 26.044 56.9206 26.0641 56.9763C26.084 57.0368 26.084 57.1021 26.0641 57.1626C26.0854 57.2482 26.0854 57.3378 26.0641 57.4234C26.0211 57.4974 25.956 57.5561 25.8779 57.5911H25.6173H25.3753L25.3566 56.8458ZM27.8327 58.5413V57.7588H28.2423H28.4099C28.4602 57.7388 28.5049 57.7068 28.5402 57.6657C28.5778 57.6204 28.6091 57.5703 28.6333 57.5166C28.642 57.4486 28.642 57.3797 28.6333 57.3116C28.6437 57.25 28.6437 57.187 28.6333 57.1253C28.6134 57.0695 28.5816 57.0186 28.5402 56.9763C28.4899 56.9222 28.4254 56.8834 28.354 56.8645C28.2683 56.8439 28.179 56.8439 28.0934 56.8645H27.7583L27.8327 58.5413ZM27.8327 56.8458H28.2795H28.4285C28.4804 56.8742 28.5201 56.9206 28.5402 56.9763C28.5506 57.0379 28.5506 57.1009 28.5402 57.1626C28.5615 57.2482 28.5615 57.3378 28.5402 57.4234C28.4971 57.4974 28.432 57.5561 28.354 57.5911H28.0748H27.8514L27.8327 56.8458ZM31.2397 56.8458L30.9232 57.3862V57.5911L30.8115 57.7774V57.647V57.5352V57.4048L30.5136 56.8458H30.4019L30.9604 57.852L31.5376 56.8458H31.2397Z" fill="#606060"/>
<path d="M20.7396 56.6597H20.9071V58.6347H20.6465V57.7217H19.8273V58.6347H19.5853V56.6597H19.8273V57.4608H20.6465V56.6597H20.7396ZM23.0667 56.6597H23.2157L23.83 58.4297V58.5601H23.5694L23.3646 57.9825H22.7875L22.5827 58.5601H22.3034V58.4297L22.9364 56.6597H23.0667ZM23.0667 57.2186L22.8806 57.7217H23.2157L23.0295 57.2186H23.0667ZM25.4125 58.6347H25.2636V56.7715H25.8593H25.9896H26.1013H26.1944V56.8646C26.1944 56.8646 26.1944 56.8646 26.1944 56.9764V57.2186C26.1944 57.2186 26.1944 57.2186 26.1944 57.3118V57.4236H26.0827H25.7476V58.1875L25.4125 58.6347ZM25.5242 56.9205V57.6099H25.8035H25.8965C25.8965 57.6099 25.8965 57.6099 25.8965 57.4795H25.58L25.5242 56.9205ZM27.963 58.6347H27.7955V56.7715H28.3726H28.5216H28.6333C28.6432 56.8017 28.6432 56.8344 28.6333 56.8646C28.6333 56.8646 28.6333 56.8646 28.6333 56.9764V57.2186C28.6333 57.2186 28.6333 57.2186 28.6333 57.3118C28.6413 57.3486 28.6413 57.3867 28.6333 57.4236H28.5402H28.2051V58.1875L27.963 58.6347ZM28.0748 56.9205V57.6099H28.3354H28.4471V57.4795H28.1306L28.0748 56.9205ZM30.979 57.2559L31.2955 56.7156H31.612L31.5189 56.8646L30.9604 57.8521V58.6905H30.6625V57.8335L30.1226 56.8646V56.7156H30.4205L30.7184 57.2559V57.3863V57.4981L30.8301 57.2932L30.979 57.2559Z" fill="#606060"/>
<path d="M21.6146 53.1009C30.0668 50.3806 40.5483 53.5853 46.1893 58.6905C44.3276 56.8273 42.6893 54.9641 41.2744 53.2872C40.7158 52.691 39.1706 50.1943 41.2744 50.2316C42.126 50.3572 42.9396 50.6689 43.6574 51.1445C44.6255 51.6849 41.7956 49.2813 40.3993 50.1943C39.0031 51.1073 39.8781 52.4488 40.1946 53.0264C40.6666 53.7362 41.1762 54.4204 41.7212 55.0759C35.9312 52.4674 27.8886 50.2875 21.5773 53.0823L21.6146 53.1009Z" fill="#606060"/>
<path d="M32.6546 65.6773H33.6972H34.7397C35.0125 65.6946 35.2861 65.6946 35.5589 65.6773L36.527 65.5096C36.8778 65.4133 37.2202 65.2886 37.5509 65.137C37.9017 64.9723 38.2276 64.759 38.519 64.5035C38.8398 64.2242 39.1161 63.8975 39.3382 63.5346C39.594 63.1131 39.7825 62.6542 39.8967 62.1745C40.058 61.567 40.1332 60.9398 40.1201 60.3113C40.1338 59.5677 40.0075 58.8282 39.7477 58.1314C39.5366 57.5512 39.1848 57.0326 38.7238 56.6222C38.2714 56.2071 37.7301 55.9012 37.1413 55.7279C36.4663 55.5194 35.7626 55.4188 35.0562 55.4298C34.6094 55.4298 34.1998 55.4298 33.7902 55.4298L32.6546 55.5788V65.6773ZM50.8995 63.9445L53.0032 58.4854H52.5005L50.7505 63.3297C50.6202 63.6278 50.5271 63.9073 50.434 64.1681L50.1548 64.9507C50.1548 64.7643 50.0244 64.578 49.9872 64.429C49.95 64.2799 49.8569 64.0936 49.801 63.9259C49.7452 63.7582 49.6893 63.6092 49.6149 63.4415L47.7531 58.4854H47.2505L49.8197 65.1556V65.3233V65.4351C49.8234 65.5033 49.8234 65.5718 49.8197 65.64C49.699 66.1718 49.4744 66.6745 49.1588 67.1191C48.8433 67.5637 48.443 67.9414 47.981 68.2306C47.519 68.5198 47.0044 68.7147 46.4669 68.8041C45.9294 68.8935 45.3795 68.8756 44.8489 68.7516C43.8249 68.4907 44.6255 69.9254 45.2771 69.9813C47.9579 70.2607 50.1175 65.994 50.8622 63.9445H50.8995ZM33.1014 56.0632C33.3653 56.0032 33.6327 55.9597 33.9019 55.9328C34.2616 55.9119 34.6221 55.9119 34.9817 55.9328C35.6839 55.9141 36.3838 56.0214 37.0483 56.2496C37.5932 56.4348 38.0895 56.7405 38.5004 57.1439C38.8835 57.5494 39.1755 58.0322 39.3568 58.5599C39.5479 59.1622 39.6422 59.7912 39.636 60.4231C39.6393 61.1173 39.5389 61.8081 39.3382 62.4726C39.1464 63.0523 38.8357 63.5854 38.4259 64.0377C37.9899 64.4814 37.4627 64.8247 36.8807 65.0438C36.1956 65.2954 35.4693 65.4155 34.7397 65.3978H33.8275H33.1014V56.0632ZM45.91 61.1311C45.91 60.8889 45.91 60.6281 45.91 60.3672C45.8656 60.1147 45.8034 59.8657 45.7239 59.6219C45.6278 59.3816 45.4891 59.1606 45.3143 58.9698C45.1418 58.76 44.917 58.5993 44.6627 58.504C44.3542 58.3849 44.0252 58.3279 43.6946 58.3363H43.0988C42.8684 58.3788 42.6435 58.4476 42.4286 58.5413C42.1909 58.6254 41.9702 58.7516 41.777 58.9139L41.9446 59.2493C42.1994 59.0739 42.4744 58.93 42.7637 58.8208C43.0463 58.7276 43.3413 58.6774 43.6387 58.6717C43.9519 58.6755 44.2614 58.7387 44.551 58.858C44.7672 58.9738 44.9524 59.1399 45.0909 59.3425C45.2238 59.5428 45.3243 59.7629 45.3888 59.9946C45.4068 60.2178 45.4068 60.4421 45.3888 60.6653C45.3888 60.8889 45.3888 61.0752 45.3888 61.2429C44.59 61.219 43.7923 61.3196 43.0244 61.541C42.4816 61.696 41.9961 62.007 41.6281 62.4353C41.3233 62.8442 41.16 63.3413 41.1627 63.8514C41.1621 64.0874 41.2063 64.3213 41.293 64.5408C41.3711 64.7757 41.4977 64.9916 41.6644 65.1745C41.8312 65.3575 42.0345 65.5034 42.2611 65.6028C42.5445 65.7189 42.8485 65.7759 43.1547 65.7705C43.4195 65.7726 43.683 65.7349 43.9366 65.6587C44.1621 65.5935 44.3757 65.4929 44.5696 65.3606C44.7467 65.2437 44.9092 65.1061 45.0537 64.9507C45.1879 64.827 45.3011 64.6823 45.3888 64.5221L45.5563 65.6773H45.9845C45.9672 65.3919 45.9672 65.1057 45.9845 64.8202C45.9845 64.5221 45.9845 64.2426 45.9845 63.9632L45.91 61.1311ZM45.4446 63.4415C45.4686 63.5896 45.4686 63.7405 45.4446 63.8886C45.3801 64.0696 45.2991 64.2442 45.2026 64.4103C44.9569 64.813 44.5832 65.1214 44.1414 65.286C43.8697 65.3959 43.5778 65.4467 43.285 65.4351C43.1006 65.4708 42.911 65.4708 42.7265 65.4351C42.5455 65.372 42.3803 65.2703 42.2425 65.137C42.0894 65.0009 41.974 64.8276 41.9073 64.6339C41.8232 64.4072 41.7792 64.1677 41.777 63.9259C41.773 63.6357 41.8367 63.3486 41.9632 63.0875C42.0835 62.8639 42.2483 62.6674 42.4472 62.5099C42.6643 62.3528 42.9024 62.2273 43.1547 62.1372C43.4135 62.0407 43.6819 61.972 43.9552 61.9323C44.2318 61.8768 44.5116 61.8394 44.793 61.8205C45.0537 61.8205 45.2957 61.8205 45.5191 61.8205L45.4446 63.4415Z" fill="#606060"/>
<path d="M26.9391 63.9447C28.6822 64.9546 30.6465 65.5201 32.6593 65.5916C34.6721 65.6631 36.6716 65.2383 38.4818 64.3546C38.1653 64.5223 37.9605 64.8391 37.6626 65.0254C36.9738 65.4539 36.3408 65.9197 35.8009 66.2924C35.261 66.665 34.4977 67.4103 35.4658 67.6711C35.8616 67.7106 36.2612 67.6662 36.6387 67.5407C37.1413 67.4289 35.6147 68.1183 35.0748 67.5407C34.5349 66.9631 35.0748 66.46 35.2982 66.2365C35.5959 65.9785 35.9066 65.736 36.2291 65.5098C33.3248 65.9756 29.4711 65.957 26.9205 63.9075L26.9391 63.9447Z" fill="#606060"/>
<path d="M42.41 69.7764C42.3373 69.7608 42.2718 69.7215 42.2238 69.6646C41.9838 69.4924 41.765 69.2923 41.5722 69.0684C41.5332 68.9803 41.5131 68.8851 41.5131 68.7889C41.5131 68.6926 41.5332 68.5974 41.5722 68.5094C41.5982 68.4394 41.638 68.3752 41.6891 68.3208C41.7403 68.2664 41.8018 68.2228 41.8701 68.1927C41.9449 68.1888 42.0197 68.1999 42.09 68.2256C42.1604 68.2512 42.2249 68.2907 42.2797 68.3417H42.4286H42.5776C42.6324 68.2907 42.6969 68.2512 42.7672 68.2256C42.8376 68.1999 42.9124 68.1888 42.9871 68.1927C43.0583 68.2217 43.123 68.2647 43.1773 68.3191C43.2317 68.3735 43.2746 68.4382 43.3036 68.5094C43.3247 68.6052 43.3257 68.7044 43.3065 68.8006C43.2872 68.8968 43.2482 68.988 43.1919 69.0684C43.0011 69.2875 42.789 69.4872 42.5589 69.6646C42.5589 69.6646 42.4845 69.7764 42.41 69.7764Z" fill="#606060"/>
<path d="M45.0536 52.5233C44.982 52.5523 44.9019 52.5523 44.8302 52.5233C44.5516 52.5486 44.2712 52.5486 43.9925 52.5233C43.8982 52.4963 43.811 52.4489 43.737 52.3845C43.663 52.3201 43.6041 52.2403 43.5643 52.1506C43.5351 52.083 43.52 52.01 43.52 51.9363C43.52 51.8627 43.5351 51.7897 43.5643 51.7221C43.6723 51.6267 43.8112 51.5738 43.9552 51.573C44.009 51.5948 44.069 51.5948 44.1228 51.573C44.1334 51.5239 44.1334 51.4731 44.1228 51.424C44.1412 51.2782 44.2144 51.145 44.3276 51.0513C44.3945 51.0198 44.4677 51.0034 44.5417 51.0034C44.6157 51.0034 44.6888 51.0198 44.7558 51.0513C44.8363 51.1081 44.9021 51.1835 44.9475 51.271C44.9928 51.3586 45.0165 51.4558 45.0164 51.5544C45.0048 51.849 44.9674 52.142 44.9047 52.4301C44.9047 52.4301 44.9047 52.5978 44.8116 52.635L45.0536 52.5233Z" fill="#606060"/>
<path d="M39.3196 68.882C39.2769 68.8939 39.2319 68.8939 39.1892 68.882C39.0321 68.7683 38.8884 68.637 38.761 68.4907C38.7354 68.4319 38.7222 68.3685 38.7222 68.3044C38.7222 68.2403 38.7354 68.1768 38.761 68.1181C38.7733 68.0692 38.7964 68.0237 38.8286 67.985C38.8609 67.9463 38.9014 67.9154 38.9472 67.8945C39.0489 67.8879 39.1491 67.9214 39.2265 67.9876H39.3382C39.3717 67.9534 39.4126 67.9272 39.4578 67.911C39.5029 67.8949 39.5512 67.8892 39.5988 67.8945C39.6502 67.9131 39.6968 67.9427 39.7354 67.9814C39.774 68.02 39.8036 68.0667 39.8222 68.1181C39.8648 68.2386 39.8648 68.3701 39.8222 68.4907C39.6993 68.6413 39.5551 68.7731 39.394 68.882C39.3514 68.8939 39.3063 68.8939 39.2637 68.882H39.3196Z" fill="#606060"/>
<path d="M20.1624 53.846C20.1353 53.717 20.1353 53.5838 20.1624 53.4548C20.2473 52.9551 20.391 52.4673 20.5906 52.0015C20.6584 51.85 20.7614 51.7169 20.8909 51.6132C21.0204 51.5095 21.1728 51.4382 21.3353 51.4053C21.465 51.3958 21.5952 51.4141 21.7172 51.4591C21.8393 51.5041 21.9502 51.5747 22.0428 51.6661V51.7779C22.1357 52.024 22.1357 52.2957 22.0428 52.5418C22.0241 52.6403 22.0241 52.7414 22.0428 52.8399C22.105 52.9155 22.1807 52.9787 22.2662 53.0262C22.5043 53.1306 22.6916 53.3248 22.7875 53.5666C22.7955 53.6097 22.7955 53.6539 22.7875 53.697C22.7975 53.8281 22.7813 53.96 22.7397 54.0847C22.6982 54.2095 22.6321 54.3247 22.5454 54.4236C22.4188 54.532 22.2692 54.6102 22.1079 54.6521C21.9466 54.6941 21.7779 54.6988 21.6146 54.6658C21.1493 54.5193 20.7002 54.3258 20.2741 54.0883C20.3486 54.0137 20.2183 53.9578 20.1624 53.846Z" fill="#606060"/>
<path d="M35.3913 65.398C35.0868 65.3193 34.8098 65.1581 34.5908 64.9322C33.6267 64.2132 32.7462 63.3882 31.9658 62.4728C31.7138 62.1361 31.5438 61.7452 31.4695 61.3311C31.3952 60.9171 31.4185 60.4914 31.5376 60.0879C31.6452 59.7944 31.8113 59.5259 32.0257 59.2985C32.2401 59.0711 32.4984 58.8896 32.7849 58.7651H33.12C33.7278 58.7467 34.32 58.9598 34.7769 59.3613C34.9566 59.5099 35.1661 59.6179 35.3913 59.678C35.6224 59.6188 35.8383 59.5108 36.0243 59.3613C36.4773 58.953 37.0722 58.739 37.6812 58.7651H38.0163C38.3047 58.8868 38.5645 59.0673 38.7792 59.295C38.994 59.5228 39.159 59.7928 39.2637 60.0879C39.3708 60.4804 39.3879 60.8921 39.3137 61.2921C39.2396 61.6922 39.0761 62.0703 38.8355 62.3983C38.0709 63.3377 37.2028 64.1877 36.2477 64.9322C36.0191 65.1552 35.737 65.3156 35.4286 65.398H35.3913Z" fill="#606060"/>
<path d="M14.3539 58.8767L13.4416 61.4479C13.3113 61.8019 13.1996 62.1001 13.1065 62.3982C13.0134 62.6963 12.9203 62.9757 12.8459 63.2366C12.8459 62.9757 12.7156 62.7149 12.6225 62.4168C12.5294 62.1187 12.4363 61.8019 12.306 61.4479L11.4868 58.8767H11.2634L12.7528 63.5347H12.939L14.6145 58.8767H14.3539ZM16.8486 61.4479C16.8579 61.3301 16.8579 61.2117 16.8486 61.0939C16.8677 60.983 16.8677 60.8695 16.8486 60.7586C16.8157 60.6423 16.7586 60.5344 16.681 60.4418C16.5927 60.3587 16.4923 60.2896 16.3831 60.2369C16.1962 60.1309 15.9834 60.0793 15.7688 60.0878H15.5081L15.2103 60.181C15.0976 60.222 14.9911 60.2784 14.8938 60.3487L14.9869 60.5163C15.2065 60.336 15.4849 60.2432 15.7688 60.2555C15.9035 60.2238 16.0437 60.2238 16.1784 60.2555C16.2797 60.304 16.364 60.3819 16.4204 60.4791C16.4898 60.5649 16.5348 60.6679 16.5507 60.7772C16.5597 60.8826 16.5597 60.9885 16.5507 61.0939V61.3548C16.1862 61.3429 15.8221 61.3869 15.4709 61.4852C15.2219 61.5631 14.9974 61.7044 14.8193 61.8951C14.6858 62.0863 14.6143 62.314 14.6145 62.5472C14.5953 62.6519 14.5953 62.7593 14.6145 62.864C14.6479 62.9689 14.7053 63.0646 14.7821 63.1434C14.8536 63.2371 14.9505 63.3083 15.0613 63.3484C15.1962 63.3782 15.336 63.3782 15.4709 63.3484C15.5948 63.3588 15.7194 63.3588 15.8432 63.3484L16.1225 63.218C16.2053 63.1593 16.2803 63.0904 16.3459 63.013L16.4948 62.8267V63.3298H16.6996C16.6904 63.1995 16.6904 63.0687 16.6996 62.9385C16.6908 62.8082 16.6908 62.6775 16.6996 62.5472L16.8486 61.4479ZM16.6438 62.51C16.6496 62.5781 16.6496 62.6467 16.6438 62.7149C16.6186 62.8007 16.581 62.8823 16.5321 62.9571C16.4743 63.0406 16.4054 63.1158 16.3273 63.1807C16.2485 63.2576 16.1529 63.315 16.048 63.3484C15.9195 63.3786 15.7856 63.3786 15.6571 63.3484H15.3964C15.3139 63.312 15.2384 63.2615 15.173 63.1993C15.1088 63.1356 15.0582 63.0596 15.0241 62.9757C15.003 62.865 15.003 62.7512 15.0241 62.6404C15.0212 62.5101 15.0533 62.3813 15.1172 62.2677C15.1702 62.1592 15.2465 62.0638 15.3406 61.9883C15.4399 61.9213 15.546 61.8651 15.6571 61.8206L16.0294 61.7274H16.4018H16.7555L16.6438 62.51ZM18.1332 58.6345H17.9284V63.5347H18.1332V58.6345ZM21.3539 63.1993C21.2864 63.2129 21.2167 63.2129 21.1492 63.1993L20.8699 63.2925H20.4789C20.2334 63.2993 19.9921 63.2275 19.7901 63.0875C19.5913 62.9601 19.4406 62.77 19.3619 62.5472C19.2596 62.2668 19.2091 61.97 19.213 61.6715H21.596V61.5597C21.6137 61.4174 21.6137 61.2735 21.596 61.1312C21.5762 60.9904 21.5387 60.8526 21.4843 60.7213C21.4277 60.5929 21.3524 60.4736 21.2609 60.3673C21.1706 60.2604 21.0555 60.1772 20.9257 60.1251C20.7717 60.0639 20.6075 60.0323 20.4417 60.0319C20.2497 60.0293 20.0594 60.0674 19.8832 60.1437C19.7106 60.2283 19.5582 60.349 19.4364 60.4977C19.3115 60.6625 19.2112 60.8445 19.1385 61.038C19.0766 61.2879 19.0453 61.5445 19.0454 61.8019C19.0352 62.0293 19.0668 62.2567 19.1385 62.4727C19.2036 62.664 19.3047 62.8411 19.4364 62.9944C19.5594 63.1419 19.7115 63.2624 19.8832 63.3484C20.0719 63.4266 20.2747 63.4647 20.4789 63.4602H20.963H21.2981L21.4656 63.367V63.1993H21.3539ZM19.2316 61.597C19.2229 61.4854 19.2229 61.3732 19.2316 61.2616C19.2654 61.1434 19.3155 61.0306 19.3805 60.9262C19.5013 60.7064 19.6821 60.5254 19.9018 60.4045C20.0304 60.3744 20.1642 60.3744 20.2928 60.4045C20.4151 60.3745 20.5428 60.3745 20.6651 60.4045C20.77 60.4379 20.8656 60.4954 20.9444 60.5722C21.0108 60.6519 21.0671 60.7395 21.1119 60.8331C21.165 60.9191 21.2028 61.0136 21.2236 61.1126C21.2393 61.1988 21.2393 61.2872 21.2236 61.3734C21.2315 61.4477 21.2315 61.5227 21.2236 61.597H19.2316ZM24.8167 61.597C24.838 61.4175 24.838 61.2361 24.8167 61.0567C24.7875 60.9221 24.7304 60.7952 24.6492 60.684C24.5842 60.5894 24.5093 60.502 24.4258 60.4232L24.1838 60.2928H23.9604H23.7928C23.639 60.2644 23.4812 60.2644 23.3274 60.2928C23.189 60.349 23.0626 60.4312 22.955 60.535C22.8376 60.6389 22.7426 60.7657 22.6758 60.9076V60.2928H22.471C22.4712 60.535 22.4712 60.535 22.4712 60.7772L22.471 63.5906H22.6758V61.4666C22.6879 61.2497 22.7517 61.0388 22.8619 60.8517C22.9262 60.7565 23.0012 60.669 23.0853 60.5909L23.3832 60.4045C23.5003 60.3851 23.6198 60.3851 23.7369 60.4045C23.8834 60.3658 24.0373 60.3658 24.1838 60.4045C24.2944 60.4783 24.3893 60.5733 24.463 60.684C24.5408 60.8039 24.5975 60.9362 24.6306 61.0753C24.6499 61.2237 24.6499 61.374 24.6306 61.5225V63.4974H24.8354V61.5411L24.8167 61.597ZM26.0269 60.2928H25.487V60.4791H26.0269V62.9199V63.1807C26.0528 63.2662 26.0903 63.3477 26.1386 63.4229C26.1981 63.4887 26.2672 63.5452 26.3434 63.5906C26.4478 63.6117 26.5554 63.6117 26.6598 63.5906H26.9391H27.1067V63.4229H26.9577H26.7529C26.662 63.4515 26.5646 63.4515 26.4737 63.4229C26.401 63.348 26.344 63.2593 26.3061 63.1621C26.2866 63.0386 26.2866 62.9129 26.3061 62.7894V60.4232H27.237V60.2369H26.3061V59.5289H26.1013V60.1437L26.0269 60.2928ZM28.2051 59.3425C28.2154 59.2997 28.2154 59.255 28.2051 59.2121C28.2051 59.2121 28.2051 59.2121 28.0934 59.2121H28.0003C27.99 59.255 27.99 59.2997 28.0003 59.3425C27.9916 59.3793 27.9916 59.4176 28.0003 59.4543H28.112C28.1351 59.4658 28.1606 59.4718 28.1865 59.4718C28.2123 59.4718 28.2378 59.4658 28.2609 59.4543C28.2635 59.424 28.2599 59.3935 28.2503 59.3647C28.2407 59.3359 28.2253 59.3093 28.2051 59.2866V59.3425ZM28.2051 60.2928H28.0003V63.5906H28.2051V60.2928ZM31.7237 61.597C31.745 61.4175 31.745 61.2361 31.7237 61.0567C31.6864 60.9249 31.63 60.7994 31.5562 60.684C31.4911 60.5894 31.4163 60.502 31.3328 60.4232L31.0907 60.2928L30.6625 60.0878H30.495C30.3474 60.0596 30.1958 60.0596 30.0482 60.0878C29.9073 60.1392 29.78 60.222 29.6758 60.33C29.5584 60.434 29.4634 60.5608 29.3966 60.7027V60.0878H29.1918C29.1918 60.0878 29.1918 60.2369 29.1918 60.33V60.5722C29.1918 60.5722 29.1918 60.7399 29.1918 60.8331V63.3857H29.3966V61.4666C29.3885 61.3611 29.3885 61.2552 29.3966 61.1498L29.5455 60.8517C29.6042 60.7524 29.6798 60.6641 29.7689 60.5909L30.0668 60.4045C30.1839 60.3851 30.3034 60.3851 30.4205 60.4045C30.5603 60.3637 30.7089 60.3637 30.8487 60.4045C30.9691 60.4723 31.0713 60.5682 31.1466 60.684C31.2259 60.8011 31.2768 60.9351 31.2955 61.0753C31.3148 61.2237 31.3148 61.374 31.2955 61.5225V63.4974H31.5003V61.5411L31.7237 61.597ZM34.8887 63.2552H34.6839L34.4046 63.3484H34.0136C33.7681 63.3552 33.5268 63.2834 33.3248 63.1434C33.126 63.016 32.9753 62.8259 32.8966 62.6031C32.7853 62.3251 32.7345 62.0266 32.7477 61.7274H35.1307V61.6156C35.1484 61.4733 35.1484 61.3294 35.1307 61.1871C35.111 61.0463 35.0734 60.9085 35.019 60.7772C34.9624 60.6488 34.8872 60.5295 34.7956 60.4232C34.7019 60.3118 34.5796 60.228 34.4418 60.181C34.2491 60.0952 34.0369 60.063 33.8275 60.0878C33.6381 60.0827 33.4501 60.1222 33.2787 60.2031C33.1073 60.284 32.9573 60.4041 32.8408 60.5536C32.7089 60.7137 32.6079 60.8969 32.5429 61.0939C32.4866 61.3763 32.4803 61.6664 32.5243 61.951C32.4837 62.1727 32.4837 62.4 32.5243 62.6217C32.5823 62.8162 32.6842 62.9947 32.8221 63.1434C32.9408 63.2954 33.094 63.4167 33.269 63.4974C33.4576 63.5757 33.6605 63.6138 33.8647 63.6092H34.3488H34.6839L34.8514 63.5161V63.3484L34.8887 63.2552ZM32.7663 61.6529C32.7576 61.5413 32.7576 61.4291 32.7663 61.3175C32.8001 61.1993 32.8503 61.0865 32.9152 60.9821C33.036 60.7623 33.2168 60.5814 33.4365 60.4604C33.5651 60.4303 33.6989 60.4303 33.8275 60.4604C33.9498 60.4304 34.0775 60.4304 34.1998 60.4604C34.3047 60.4938 34.4003 60.5513 34.4791 60.6281C34.5455 60.7078 34.6018 60.7954 34.6466 60.889C34.6997 60.975 34.7375 61.0695 34.7583 61.1685C34.7741 61.2547 34.7741 61.3431 34.7583 61.4293C34.7662 61.5036 34.7662 61.5786 34.7583 61.6529H32.7663ZM35.5403 60.4791V60.33C35.5403 60.33 35.5403 60.1623 35.5403 60.0505L35.652 59.7152L35.7637 59.3612C35.7703 59.2557 35.7703 59.1499 35.7637 59.0444H35.4658V59.3053V59.622C35.4571 59.7336 35.4571 59.8458 35.4658 59.9574C35.4574 60.0504 35.4574 60.1439 35.4658 60.2369V60.4232L35.5403 60.4791ZM37.7185 60.4791L37.4392 60.33C37.3097 60.3091 37.1777 60.3091 37.0483 60.33C36.9195 60.3017 36.7861 60.3017 36.6573 60.33C36.5478 60.3631 36.4506 60.4279 36.378 60.5163C36.294 60.5853 36.2298 60.6753 36.1919 60.7772C36.1741 60.8883 36.1741 61.0015 36.1919 61.1126C36.1879 61.2062 36.2041 61.2996 36.2394 61.3864C36.2748 61.4733 36.3284 61.5514 36.3967 61.6156C36.5534 61.7879 36.7523 61.9163 36.9738 61.9883L37.3647 62.1932C37.4539 62.2664 37.5295 62.3547 37.5882 62.4541C37.6159 62.5704 37.6159 62.6917 37.5882 62.8081C37.6077 62.9065 37.6077 63.0078 37.5882 63.1062C37.5365 63.1888 37.4738 63.264 37.402 63.3298C37.3211 63.3843 37.2335 63.4281 37.1413 63.4602C37.043 63.4798 36.9418 63.4798 36.8435 63.4602H36.6201L36.2477 63.2925C36.1739 63.2665 36.1047 63.2288 36.0429 63.1807L35.9312 63.367C36.0415 63.4379 36.1603 63.4942 36.2849 63.5347C36.427 63.5541 36.5711 63.5541 36.7131 63.5347C36.849 63.5541 36.9869 63.5541 37.1227 63.5347C37.2379 63.4908 37.3449 63.4278 37.4392 63.3484C37.5338 63.2658 37.6099 63.1642 37.6626 63.0503C37.6818 62.9268 37.6818 62.8011 37.6626 62.6776C37.6946 62.5366 37.6946 62.3902 37.6626 62.2491C37.5828 62.132 37.4817 62.0309 37.3647 61.951L36.9179 61.7274C36.7864 61.6735 36.6615 61.6048 36.5456 61.5225C36.4534 61.468 36.3766 61.3911 36.3222 61.2989C36.2927 61.1954 36.2927 61.0857 36.3222 60.9821C36.3071 60.9021 36.3071 60.8199 36.3222 60.7399C36.3481 60.6672 36.3931 60.6028 36.4525 60.5536C36.5162 60.4893 36.5922 60.4386 36.6759 60.4045C36.7678 60.3831 36.8633 60.3831 36.9552 60.4045C37.0599 60.3868 37.1669 60.3868 37.2717 60.4045L37.5509 60.5536L37.7185 60.4791Z" fill="#606060"/>
<path d="M14.4283 58.9699L13.5161 61.4852C13.5161 61.6715 13.3858 61.8392 13.3485 61.9696L13.181 62.4354C13.181 62.5845 13.0879 62.7149 13.0507 62.8639C13.0427 62.9383 13.0427 63.0132 13.0507 63.0875L14.54 58.9699H14.4283ZM13.3485 61.4293L14.2794 58.8395H14.7076V58.9699L13.0321 63.6092H12.7156L11.2262 58.9699V58.8395H11.6544L12.4735 61.4293L12.6411 61.9323L12.7714 62.3795C12.7714 62.5845 12.8831 62.7521 12.939 62.9198V62.808C12.939 62.6776 12.939 62.5286 13.0693 62.3795L13.2368 61.9137L13.4044 61.4293H13.3485ZM12.9017 63.2925H12.7714C12.7714 63.0316 12.6225 62.7521 12.5294 62.4727L12.3618 61.951L12.2129 61.4479L11.4124 58.9326L12.8459 63.4043L12.9017 63.2925ZM16.7555 61.4293V61.2616C16.7645 61.2061 16.7645 61.1494 16.7555 61.0939C16.7555 61.0939 16.7555 60.9821 16.7555 60.9262V60.7585C16.7589 60.7089 16.7589 60.6591 16.7555 60.6095V60.4977L16.6438 60.3859C16.5947 60.3759 16.544 60.3759 16.4949 60.3859C16.4339 60.3693 16.3696 60.3693 16.3087 60.3859H16.5135H16.681L16.7927 60.5163C16.8307 60.5681 16.8619 60.6244 16.8858 60.684V60.8517C16.8858 60.8517 16.8858 60.9635 16.8858 61.0194C16.8752 61.0685 16.8752 61.1193 16.8858 61.1684V61.5411H16.7927C16.6009 61.5213 16.4075 61.5213 16.2156 61.5411H15.7315L15.3778 61.7088C15.2843 61.768 15.2022 61.8437 15.1358 61.9323C15.0754 62.0127 15.0253 62.1003 14.9869 62.1932C14.9766 62.2985 14.9766 62.4046 14.9869 62.5099V62.659C14.9949 62.7021 14.9949 62.7463 14.9869 62.7894C14.9802 62.8389 14.9802 62.889 14.9869 62.9385V63.0503H15.0986H15.2475H15.3406H15.2103L15.0986 62.9571L14.9869 62.8453C14.9869 62.8453 14.9869 62.7521 14.9869 62.6963C14.9764 62.6346 14.9764 62.5716 14.9869 62.5099C14.9768 62.4482 14.9768 62.3853 14.9869 62.3236C14.9498 62.1832 14.9498 62.0355 14.9869 61.8951C15.0132 61.8381 15.0513 61.7873 15.0986 61.746L15.2289 61.6156C15.2802 61.572 15.3365 61.5345 15.3964 61.5038H15.5826H15.7688H15.9736H16.7927V62.3981C16.7927 62.3981 16.7927 62.3981 16.7927 62.5099C16.7927 62.6217 16.7927 62.5099 16.7927 62.6217V62.7521H16.923V63.1807C16.9147 63.1126 16.9147 63.0438 16.923 62.9757V62.7708C16.9139 62.709 16.9139 62.6462 16.923 62.5845V61.2802L16.7555 61.4293ZM16.9417 61.243V61.4293V62.7335V63.1061C16.9509 63.1742 16.9509 63.2431 16.9417 63.3111C16.9417 63.3111 16.9417 63.4229 16.9417 63.4974V63.6092H16.5507V63.3297L16.439 63.4415H16.3087H16.1597H15.9922H15.806H15.6012H15.3592C15.2912 63.4499 15.2224 63.4499 15.1544 63.4415H14.9869L14.8379 63.3111V63.162C14.8 63.1103 14.7687 63.0539 14.7448 62.9944C14.7448 62.9944 14.7448 62.8826 14.7448 62.808C14.7448 62.7335 14.7448 62.6962 14.7448 62.6404C14.7253 62.5169 14.7253 62.3912 14.7448 62.2677C14.7808 62.1433 14.8444 62.0286 14.931 61.9323C15.0109 61.8376 15.1052 61.7558 15.2103 61.6901C15.328 61.6001 15.4602 61.5308 15.6012 61.4852H16.1225H16.6252V61.3361C16.6343 61.2868 16.6343 61.2363 16.6252 61.1871C16.6252 61.1871 16.6252 61.1871 16.6252 61.038V60.9076C16.6348 60.8646 16.6348 60.8201 16.6252 60.7772V60.6654H16.5135H16.3459H15.9363H15.7502H15.564L15.3964 60.7772V60.684V60.5163H15.564H15.7315C15.7862 60.5003 15.8444 60.5003 15.8991 60.5163H16.048H16.6066H16.8113C16.8785 60.5358 16.9416 60.5674 16.9975 60.6095C17.0553 60.6426 17.1059 60.687 17.1465 60.7399C17.1951 60.7799 17.2335 60.831 17.2582 60.889C17.2682 60.9507 17.2682 61.0136 17.2582 61.0753V61.243C17.2582 61.243 17.2582 61.3734 17.2582 61.4293C17.2582 61.4852 17.2582 61.5597 17.2582 61.6156L16.9417 61.243ZM16.5507 62.5658V61.7833H16.3087H16.1225H15.9363L15.7688 61.951H15.6012H15.4523L15.3034 62.0441H15.1916V62.1746V62.3236C15.1916 62.3236 15.1916 62.454 15.1916 62.5099C15.1916 62.5099 15.1916 62.6217 15.1916 62.6776C15.1916 62.7335 15.1916 62.7708 15.1916 62.808V62.9198H15.2847C15.2847 62.9198 15.2847 62.9198 15.3964 62.9198H15.4895H15.7688H15.9363H16.0853C16.0853 62.9198 16.1784 62.9198 16.197 62.8267H16.3087V62.7149V62.6031C16.3168 62.5663 16.3168 62.5281 16.3087 62.4913L16.5507 62.5658ZM17.9284 58.5227H18.2263V63.6278H17.8353V58.5413L17.9284 58.5227ZM21.1864 63.1434H21.2795V63.3111H21.1305H20.9258H20.7023H20.4231C20.3121 63.3295 20.1989 63.3295 20.088 63.3111C19.9896 63.3297 19.8885 63.3297 19.7901 63.3111L19.4922 63.4043C19.4095 63.3456 19.3344 63.2767 19.2688 63.1993L19.0826 62.9385C19.037 62.8425 18.9996 62.7427 18.9709 62.6404C18.9626 62.5287 18.9626 62.4166 18.9709 62.305C18.9617 62.1809 18.9617 62.0564 18.9709 61.9323C18.9617 61.7959 18.9617 61.6589 18.9709 61.5224C18.9603 61.3985 18.9603 61.2738 18.9709 61.1498C19.0031 61.0399 19.0468 60.9337 19.1013 60.8331C19.1478 60.7305 19.2107 60.6361 19.2874 60.5536C19.3482 60.4717 19.424 60.4021 19.5108 60.3486C19.5827 60.2858 19.6645 60.2354 19.7529 60.1996L20.0507 60.0878H20.6465H20.8885L21.0933 60.1996L21.2609 60.3673C21.3087 60.4262 21.3522 60.4885 21.3912 60.5536L21.5029 60.7399V60.9635C21.5195 61.0308 21.5195 61.1011 21.5029 61.1684C21.5029 61.1684 21.5029 61.3361 21.5029 61.392V61.6156H19.2688C19.2587 61.7334 19.2587 61.8518 19.2688 61.9696C19.2867 62.1028 19.3179 62.2339 19.3619 62.3609L19.5295 62.659C19.6014 62.737 19.6827 62.8059 19.7715 62.8639C19.8528 62.9291 19.9486 62.9739 20.0507 62.9944C20.1678 63.0138 20.2874 63.0138 20.4045 62.9944H20.7768H20.9258H21.0375L21.1864 63.1434ZM19.9949 63.4229C19.8894 63.3953 19.7889 63.3513 19.697 63.2925L19.4922 63.0503C19.4085 62.952 19.3452 62.838 19.3061 62.7149C19.2516 62.5756 19.208 62.4324 19.1757 62.2863C19.1658 62.125 19.1658 61.9632 19.1757 61.8019V61.7088H21.5774C21.5774 61.7088 21.5774 61.5783 21.5774 61.5038C21.5774 61.4293 21.5774 61.3734 21.5774 61.2989V61.1125V60.9076L21.4843 60.7399L21.3726 60.5908L21.2236 60.4604L21.0561 60.3486H20.9258L21.0747 60.4418C21.1316 60.4682 21.1824 60.5063 21.2236 60.5536L21.3353 60.6654C21.3318 60.715 21.3318 60.7648 21.3353 60.8144V60.9635V61.1125C21.3353 61.1125 21.3353 61.2243 21.3353 61.2616C21.3353 61.2989 21.3353 61.2616 21.3353 61.4106C21.3353 61.5597 21.3353 61.4106 21.3353 61.5411V61.7274H19.1013C19.1013 61.7274 19.1013 61.597 19.1013 61.5411C19.1117 61.4794 19.1117 61.4164 19.1013 61.3548C19.1083 61.2991 19.1083 61.2427 19.1013 61.1871C19.1208 61.1198 19.1523 61.0567 19.1943 61.0007C19.1882 60.945 19.1882 60.8888 19.1943 60.8331L19.3247 60.684H19.4364C19.3595 60.736 19.2906 60.7987 19.2316 60.8703C19.1713 60.944 19.1212 61.0255 19.0826 61.1125C19.0316 61.2019 18.988 61.2954 18.9523 61.392C18.9436 61.5036 18.9436 61.6158 18.9523 61.7274C18.9431 61.8577 18.9431 61.9884 18.9523 62.1187C18.9411 62.2302 18.9411 62.3425 18.9523 62.454C18.9433 62.5594 18.9433 62.6654 18.9523 62.7708C18.9734 62.8638 19.0112 62.9522 19.064 63.0316C19.1071 63.1103 19.1569 63.1851 19.213 63.2552C19.272 63.3268 19.3409 63.3896 19.4178 63.4415C19.4828 63.4995 19.5587 63.5438 19.6412 63.5719H19.7901L19.9949 63.4229ZM19.3247 61.4293H21.1864C21.1951 61.3925 21.1951 61.3542 21.1864 61.3175C21.1954 61.2745 21.1954 61.2301 21.1864 61.1871C21.1941 61.1439 21.1941 61.0998 21.1864 61.0566V60.9262V60.7958C21.1864 60.7958 21.1864 60.7026 21.1864 60.684L21.0933 60.5722C21.0569 60.5608 21.018 60.5608 20.9816 60.5722H20.8513C20.7406 60.5511 20.6269 60.5511 20.5162 60.5722H20.33H20.1624H20.0135L19.8832 60.684L19.7715 60.8144C19.7658 60.8639 19.7658 60.914 19.7715 60.9635C19.7681 61.0131 19.7681 61.0629 19.7715 61.1125C19.7581 61.1676 19.7581 61.2251 19.7715 61.2802C19.6891 61.272 19.606 61.2829 19.5286 61.312C19.4511 61.3411 19.3813 61.3876 19.3247 61.4479V61.4293ZM24.7237 61.5224V61.243V61.0194V60.8144V60.6467L24.6306 60.535L24.5189 60.4232H24.4072H24.2955H24.1838H24.4072L24.5933 60.5536L24.7237 60.7213L24.8354 60.9262V61.1498C24.8443 61.2241 24.8443 61.2991 24.8354 61.3734C24.8438 61.4539 24.8438 61.5351 24.8354 61.6156L24.7237 61.5224ZM24.8912 61.2243C24.9011 61.3235 24.9011 61.4233 24.8912 61.5224V63.6278H24.5189V61.5597C24.5189 61.5597 24.5189 61.4106 24.5189 61.3361C24.5189 61.3361 24.5189 61.1871 24.5189 61.1312V60.9448V60.7585L24.4072 60.6281L24.2582 60.5163H24.0907H23.6997H23.5508H23.4018L23.2715 60.6095L23.1598 60.7213V60.8517C23.1563 60.8951 23.1563 60.9387 23.1598 60.9821V61.1312C23.1598 61.1312 23.1598 61.1312 23.1598 61.2616V63.6278H22.7689V60.9821V60.0878H23.1598V60.5163L23.3088 60.3486L23.4949 60.1996L23.2157 60.0878H23.4577H24.0162H24.1279H24.2768H24.4072C24.4552 60.1264 24.4989 60.1702 24.5375 60.2182L24.6492 60.3673C24.6593 60.429 24.6593 60.4919 24.6492 60.5536L24.7423 60.7772C24.7526 60.8638 24.7526 60.9514 24.7423 61.038L24.8912 61.2243ZM22.6572 60.9262H22.5268V60.3114V60.4418V60.5536V60.6654V60.7958V60.9448V63.4415V61.4665C22.5178 61.411 22.5178 61.3544 22.5268 61.2989C22.5181 61.2433 22.5181 61.1867 22.5268 61.1312V60.9635L22.6572 60.9262ZM26.0269 60.3114H26.12V62.6031V62.7149V62.8453C26.12 62.8453 26.12 62.8453 26.12 62.9571C26.12 63.0689 26.12 63.0503 26.12 63.0875C26.1119 63.1243 26.1119 63.1625 26.12 63.1993H26.2503H26.1013L25.9896 63.0689V62.8826C25.9896 62.8826 25.9896 62.7708 25.9896 62.6963C25.9896 62.6217 25.9896 62.5658 25.9896 62.4913V60.33V59.6779V60.3114H26.0269ZM25.487 60.125H25.9338V59.5475L26.1386 59.4543H26.2689V60.0878H27.1998V60.4604H26.2689V62.6963C26.2597 62.758 26.2597 62.8208 26.2689 62.8826C26.2606 62.9319 26.2606 62.9823 26.2689 63.0316C26.2602 63.0523 26.2557 63.0744 26.2557 63.0968C26.2557 63.1192 26.2602 63.1414 26.2689 63.162V63.2552H26.7157V63.3484V63.4974H26.2689H26.1013H25.971L25.8593 63.3856V63.2552C25.8512 63.2121 25.8512 63.1679 25.8593 63.1248C25.851 63.0754 25.851 63.0251 25.8593 62.9757C25.8503 62.9327 25.8503 62.8883 25.8593 62.8453C25.8593 62.8453 25.8593 62.8453 25.8593 62.7149V62.5845V60.5163H25.3194V60.0878L25.487 60.125ZM28.1306 59.268H27.9444H28.0748H28.1306ZM28.2982 59.268C28.3084 59.3108 28.3084 59.3555 28.2982 59.3984V59.5102H28.0934H28.2609L28.2982 59.268ZM27.9072 60.2182H28.2051V63.6278H27.8141V60.0878L27.9072 60.2182ZM31.5376 61.6156C31.5468 61.5227 31.5468 61.429 31.5376 61.3361C31.5497 61.2621 31.5497 61.1866 31.5376 61.1125C31.5481 61.0446 31.5481 60.9755 31.5376 60.9076V60.7399L31.4259 60.6281V60.5163H31.3142H31.2025H31.0907H31.3142C31.3776 60.549 31.4344 60.5933 31.4817 60.6467C31.5409 60.6933 31.5914 60.7501 31.6306 60.8144C31.6409 60.8824 31.6409 60.9514 31.6306 61.0194C31.6387 61.0937 31.6387 61.1686 31.6306 61.243C31.6396 61.3172 31.6396 61.3923 31.6306 61.4665C31.6391 61.5471 31.6391 61.6282 31.6306 61.7088L31.5376 61.6156ZM31.7051 61.3175C31.715 61.4166 31.715 61.5165 31.7051 61.6156V63.6278H31.3142V61.5597C31.3233 61.4855 31.3233 61.4104 31.3142 61.3361C31.3244 61.2682 31.3244 61.1991 31.3142 61.1312C31.3246 61.0695 31.3246 61.0065 31.3142 60.9448C31.3276 60.8898 31.3276 60.8323 31.3142 60.7772L31.2025 60.6281L31.0535 60.5163H30.886H30.495H30.3461H30.1971C30.1468 60.5364 30.1021 60.5683 30.0668 60.6095L29.9551 60.7213C29.914 60.7566 29.8821 60.8013 29.862 60.8517C29.8524 60.8946 29.8524 60.9392 29.862 60.9821V61.1312C29.8539 61.1743 29.8539 61.2185 29.862 61.2616C29.862 61.2616 29.862 61.3548 29.862 61.4106V63.6278H29.4897V60.9821V60.684V60.4791V60.0878H29.8806V60.5163L30.0296 60.3486L30.2157 60.1996L30.4205 60.1064H30.6626H31.2025H31.3328H31.4631H31.5934C31.6458 60.1399 31.6903 60.1844 31.7237 60.2368C31.7766 60.2774 31.8209 60.3281 31.8541 60.3859C31.8888 60.4461 31.9199 60.5083 31.9471 60.5722C31.9578 60.6464 31.9578 60.7217 31.9471 60.7958V61.0566L31.7051 61.3175ZM29.4711 61.0194H29.3221V60.4045V60.7585V61.038V63.4415V61.2989V61.1312V60.9635L29.4711 61.0194ZM34.6653 63.2366H34.7583V63.4043H34.6653H34.4977H34.3115H34.0881H33.8089C33.6979 63.4227 33.5847 63.4227 33.4737 63.4043C33.3751 63.4206 33.2745 63.4206 33.1759 63.4043L32.9152 63.2552C32.8325 63.1965 32.7574 63.1277 32.6918 63.0503L32.5057 62.7894C32.4523 62.6969 32.4145 62.5962 32.394 62.4913C32.394 62.3795 32.394 62.2677 32.394 62.1559C32.394 62.0255 32.394 61.9137 32.394 61.7833C32.394 61.6529 32.394 61.5038 32.394 61.3734C32.3833 61.2494 32.3833 61.1247 32.394 61.0007C32.4337 60.9421 32.4772 60.886 32.5243 60.8331C32.5708 60.7305 32.6337 60.6361 32.7104 60.5536C32.7712 60.4717 32.847 60.4021 32.9339 60.3486C33.0026 60.2817 33.0852 60.2308 33.1759 60.1996L33.4551 60.0878H34.0323H34.386L34.5722 60.1996L34.7583 60.3673C34.8061 60.4262 34.8497 60.4885 34.8887 60.5536C34.927 60.6118 34.9582 60.6743 34.9817 60.7399C34.9897 60.8142 34.9897 60.8892 34.9817 60.9635V61.1684C34.9817 61.1684 34.9817 61.3175 34.9817 61.392V61.6156H32.7477C32.7376 61.7334 32.7376 61.8518 32.7477 61.9696C32.735 62.0997 32.735 62.2308 32.7477 62.3609L32.9152 62.659C32.9871 62.737 33.0684 62.8059 33.1573 62.8639C33.2386 62.9291 33.3344 62.9739 33.4365 62.9944C33.5536 63.0138 33.6731 63.0138 33.7902 62.9944H34.386H34.5349H34.6466H34.7583L34.6653 63.2366ZM33.4737 63.5161C33.367 63.492 33.2659 63.4477 33.1759 63.3856C33.08 63.3082 32.9926 63.2208 32.9152 63.1248C32.8321 63.0228 32.7632 62.91 32.7104 62.7894C32.6623 62.6496 32.625 62.5064 32.5987 62.3609C32.5888 62.1996 32.5888 62.0378 32.5987 61.8764V61.7833H35.0004C35.0004 61.7833 35.0004 61.6529 35.0004 61.5783C35.0004 61.5783 35.0004 61.4479 35.0004 61.3734V61.1871V60.9821V60.8144C34.9672 60.7566 34.9229 60.7059 34.87 60.6654C34.8366 60.6129 34.7921 60.5684 34.7397 60.535L34.386 60.33H34.2557L34.4232 60.4232L34.5536 60.535L34.6653 60.6467C34.6619 60.6964 34.6619 60.7462 34.6653 60.7958V60.9448V61.1125C34.6653 61.1125 34.6653 61.2057 34.6653 61.243C34.6653 61.243 34.6653 61.243 34.6653 61.392C34.6576 61.4352 34.6576 61.4793 34.6653 61.5224V61.7088H32.5243C32.5243 61.7088 32.5243 61.5783 32.5243 61.5224C32.5164 61.4668 32.5164 61.4104 32.5243 61.3548C32.5135 61.2931 32.5135 61.2301 32.5243 61.1684C32.5142 61.1067 32.5142 61.0438 32.5243 60.9821C32.5481 60.9225 32.5794 60.8662 32.6174 60.8144L32.7477 60.6654H32.8594L32.6732 60.8517C32.6129 60.9254 32.5628 61.0069 32.5243 61.0939C32.4732 61.1833 32.4296 61.2768 32.394 61.3734C32.3853 61.485 32.3853 61.5971 32.394 61.7088C32.4334 61.7916 32.4769 61.8724 32.5243 61.951C32.5131 62.0625 32.5131 62.1748 32.5243 62.2863C32.5153 62.3917 32.5153 62.4977 32.5243 62.6031L32.6546 62.8639C32.6977 62.9426 32.7475 63.0175 32.8035 63.0875C32.8608 63.1542 32.9231 63.2165 32.9897 63.2738L33.2317 63.4043H33.3807L33.4737 63.5161ZM32.7849 61.5224H34.6466C34.6553 61.4857 34.6553 61.4474 34.6466 61.4106C34.6557 61.3676 34.6557 61.3232 34.6466 61.2802C34.6466 61.2802 34.6466 61.2802 34.6466 61.1498V61.0194V60.889C34.6466 60.889 34.6466 60.7958 34.6466 60.7772V60.6654H34.5349H34.4046H34.2557H33.8833H33.7158H33.5668L33.4365 60.7772L33.3248 60.9076C33.3191 60.9571 33.3191 61.0071 33.3248 61.0566C33.3214 61.1063 33.3214 61.1561 33.3248 61.2057C33.3169 61.2613 33.3169 61.3178 33.3248 61.3734V61.5411L32.7849 61.5224ZM35.5589 60.4791H35.3541H35.2052V60.3114V60.1996V60.0692V59.9201V59.771V59.6034V59.4543V59.2866V59.1562C35.2052 59.1562 35.2052 59.1562 35.2052 59.0258H35.503H35.652V59.1748C35.652 59.1748 35.652 59.2866 35.652 59.3239V59.5102V59.6779V59.8642V60.0319V60.1996V60.33V60.4604L35.5589 60.4791ZM35.5589 60.1623V60.0319V59.8828V59.6965V59.5288V59.3611V59.1935H35.4472V59.3425V59.5102V59.6593V59.8083V59.976L35.5589 60.1623ZM37.5882 60.4791H37.4392H37.2717M37.6812 60.4791H37.8302L37.7371 60.6467H37.6068H37.4765H37.3461H36.8062H36.6945C36.6584 60.634 36.619 60.634 36.5828 60.6467C36.5828 60.6467 36.5828 60.6467 36.5828 60.7399C36.5723 60.789 36.5723 60.8398 36.5828 60.889C36.5748 60.9258 36.5748 60.9639 36.5828 61.0007L36.6759 61.1125H36.7876L36.9552 61.2057H37.1413L37.3834 61.3175L37.5882 61.4479L37.7743 61.597C37.8114 61.6633 37.8551 61.7257 37.9046 61.7833C37.9127 61.8576 37.9127 61.9326 37.9046 62.0069C37.9147 62.0935 37.9147 62.1811 37.9046 62.2677C37.9138 62.342 37.9138 62.4171 37.9046 62.4913C37.9108 62.5595 37.9108 62.6281 37.9046 62.6963C37.8985 62.752 37.8985 62.8082 37.9046 62.8639C37.8598 62.9182 37.8099 62.9681 37.7557 63.013L37.5882 63.1248H37.402H37.1972H36.7504H36.527H36.3408L36.136 63.013L36.2477 62.8453H36.3408H36.4525H36.5642H36.6759H37.0296H37.16H37.2717H37.3834V62.7335V62.6217C37.3834 62.6217 37.3834 62.6217 37.3834 62.4913C37.3834 62.4913 37.3834 62.3795 37.3834 62.3236V62.1932C37.3869 62.1498 37.3869 62.1062 37.3834 62.0628L37.253 61.951H37.0855H36.8807L36.527 61.7647L36.2477 61.597C36.1785 61.5125 36.1221 61.4183 36.0802 61.3175C36.0606 61.2191 36.0606 61.1178 36.0802 61.0194C36.071 60.9576 36.071 60.8948 36.0802 60.8331C36.0641 60.7783 36.0641 60.7201 36.0802 60.6654C36.0667 60.6103 36.0667 60.5528 36.0802 60.4977L36.1919 60.3486L36.3408 60.2368H36.5084C36.5764 60.2285 36.6451 60.2285 36.7131 60.2368H37.16C37.2209 60.2202 37.2852 60.2202 37.3461 60.2368C37.4054 60.214 37.4697 60.2076 37.5323 60.2182L37.6812 60.4791ZM36.6573 60.6095L36.5456 60.7026V60.8144V60.9448C36.5456 60.9448 36.5456 60.9449 36.5456 61.0939C36.5456 61.0939 36.5456 61.0939 36.5456 61.243C36.5267 61.3163 36.5267 61.3932 36.5456 61.4665C36.5703 61.5505 36.615 61.6273 36.6759 61.6901C36.7424 61.7613 36.8174 61.8239 36.8993 61.8764C37.004 61.9407 37.1167 61.9908 37.2344 62.0255L37.4392 62.1373L37.6254 62.2491C37.6883 62.2834 37.7401 62.3351 37.7743 62.3981C37.8265 62.4346 37.8657 62.4868 37.886 62.5472C37.8965 62.6089 37.8965 62.6718 37.886 62.7335C37.8962 62.8014 37.8962 62.8705 37.886 62.9385C37.8951 62.994 37.8951 63.0506 37.886 63.1061C37.8887 63.162 37.8887 63.218 37.886 63.2738V63.4229L37.7743 63.5347L37.644 63.6278H37.4951H37.6626H37.7929L37.9046 63.5161C37.908 63.4664 37.908 63.4166 37.9046 63.367V63.2179C37.9138 63.1562 37.9138 63.0934 37.9046 63.0316C37.9149 62.9637 37.9149 62.8946 37.9046 62.8267C37.9151 62.765 37.9151 62.702 37.9046 62.6404C37.8848 62.5845 37.853 62.5337 37.8116 62.4913L37.3089 61.951L37.1227 61.8392H36.8807L36.6945 61.746L36.5084 61.6342C36.4506 61.6011 36.3999 61.5567 36.3594 61.5038L36.2477 61.3175C36.2413 61.2618 36.2413 61.2055 36.2477 61.1498C36.2477 61.1498 36.2477 61.038 36.2477 60.9635C36.2477 60.889 36.2477 60.9635 36.2477 60.8331C36.2453 60.7896 36.2453 60.7461 36.2477 60.7026C36.2381 60.6597 36.2381 60.6152 36.2477 60.5722V60.4604C36.2477 60.4604 36.2477 60.4604 36.3594 60.3673L36.6573 60.6095ZM36.6573 63.7396H36.527H36.3967H36.285H36.378H36.5456H36.7318M37.4392 60.5536H37.6068Z" fill="#606060"/>
<path d="M37.4578 67.9875C37.4578 67.9875 37.2902 67.8385 37.253 67.7639C37.2366 67.7356 37.228 67.7035 37.228 67.6708C37.228 67.6381 37.2366 67.6059 37.253 67.5776C37.2602 67.5537 37.2722 67.5315 37.2882 67.5122C37.3041 67.493 37.3238 67.4773 37.3461 67.4658C37.3461 67.4658 37.4391 67.4658 37.4764 67.4658C37.4764 67.4658 37.4764 67.4658 37.6067 67.4658C37.6563 67.4882 37.696 67.528 37.7184 67.5776C37.7318 67.6068 37.7387 67.6386 37.7387 67.6708C37.7387 67.7029 37.7318 67.7347 37.7184 67.7639L37.495 67.9875H37.4578Z" fill="#606060"/>
<path fill-rule="evenodd" clip-rule="evenodd" d="M60.7479 20.551C61.6745 19.1115 62.2975 17.4979 62.579 15.809C62.8604 14.1201 62.7943 12.3915 62.3847 10.7291C61.9751 9.06665 61.2306 7.50543 60.1968 6.1411C59.1631 4.77677 57.8619 3.63807 56.3729 2.79476C54.8709 1.87097 53.2017 1.25235 51.4608 0.974216C49.7199 0.696087 47.9412 0.7639 46.2265 1.17378C39.6174 2.68297 37.1413 8.2539 32.6545 8.47749C27.5907 8.83149 24.6305 2.88792 19.9204 0.931571C8.58249 -3.48419 -5.67829 8.47749 2.32711 20.7932C16.8485 43.1514 16.0294 25.5443 19.7901 14.1788C20.2741 12.5392 18.1517 8.94328 19.6783 8.94328C27.8141 11.3841 21.9124 21.8365 19.7901 26.9417C19.7198 27.1569 19.6953 27.3845 19.7182 27.6098C19.7412 27.835 19.811 28.053 19.9233 28.2496C20.0355 28.4462 20.1877 28.6171 20.37 28.7512C20.5523 28.8854 20.7606 28.9798 20.9816 29.0285C21.4013 29.1275 21.8424 29.0776 22.2295 28.8873C22.6166 28.697 22.9257 28.3781 23.1039 27.9851L25.338 22.824C25.338 22.9358 25.2263 23.178 25.338 23.4016L21.6145 32.9225C21.5345 33.1447 21.5018 33.3812 21.5184 33.6168C21.535 33.8524 21.6007 34.0819 21.7111 34.2907C21.8215 34.4994 21.9743 34.6828 22.1596 34.829C22.345 34.9752 22.5588 35.081 22.7874 35.1397C23.242 35.2786 23.7323 35.2382 24.1581 35.0269C24.5838 34.8156 24.9127 34.4493 25.0773 34.0032L28.8008 24.4823V24.9481L25.4683 35.8664C25.3528 36.3157 25.4091 36.792 25.626 37.2021C25.8429 37.6122 26.2049 37.9265 26.6412 38.0836C26.8734 38.1625 27.1189 38.1947 27.3636 38.1784C27.6084 38.162 27.8474 38.0975 28.0671 37.9884C28.2868 37.8793 28.4829 37.7279 28.6439 37.5428C28.8049 37.3577 28.9279 37.1425 29.0056 36.9098L32.3008 25.8797C32.3008 25.7679 32.4311 25.6561 32.4311 25.5257L32.7849 24.4823L30.5322 34.0032C30.2902 35.1584 30.7742 36.444 31.7237 36.6675C32.0038 36.7603 32.3006 36.7914 32.5938 36.7587C32.887 36.726 33.1696 36.6303 33.4224 36.4781C33.6753 36.326 33.8922 36.1209 34.0585 35.8771C34.2248 35.6332 34.3365 35.3563 34.3859 35.0652L36.7876 24.6872C36.9411 25.2192 37.0592 25.7607 37.1413 26.3082C37.421 26.9743 37.856 27.5638 38.4098 28.0273C38.9636 28.4908 39.6203 28.8149 40.3248 28.9726C40.6649 29.0592 41.0193 29.0741 41.3654 29.0163C41.7115 28.9586 42.0419 28.8295 42.3355 28.6372C43.8621 27.5938 42.1121 26.774 41.1626 25.9542L45.8914 21.7807C48.8329 19.2281 52.0164 23.2898 49.7638 25.2648C47.9951 26.8858 35.7264 46.8592 26.2875 43.6172C22.1544 42.108 30.1785 49.2068 38.7982 42.5738C46.9048 36.0664 54.2662 28.6804 60.7479 20.551ZM39.394 18.8182L47.7531 9.40908C47.9976 9.13015 48.1848 8.80576 48.304 8.45442C48.4232 8.10309 48.4721 7.73169 48.4479 7.36145C48.4237 6.9912 48.3269 6.62935 48.1629 6.29655C47.999 5.96376 47.7712 5.66653 47.4925 5.42186C47.2138 5.17718 46.8896 4.98984 46.5386 4.87053C46.1875 4.75122 45.8164 4.70228 45.4464 4.7265C45.0765 4.75072 44.7149 4.84763 44.3824 5.0117C44.0499 5.17576 43.7529 5.40377 43.5084 5.6827C40.5142 9.34001 39.0409 14.0101 39.394 18.725V18.8182ZM39.394 19.5076C39.5302 21.5841 40.0083 23.6238 40.8089 25.5443C40.8089 25.6747 40.9206 25.6747 40.9206 25.7865L51.1414 15.7998C53.6175 13.359 49.8382 9.29729 47.0084 12.0734L39.394 19.5076Z" fill="#606060"/>
</g>
<defs>
<clipPath id="clip0_530_284">
<rect width="62.7586" height="70" fill="white"/>
</clipPath>
</defs>
</svg>
