<svg width="101" height="101" viewBox="0 0 101 101" fill="none" xmlns="http://www.w3.org/2000/svg">
<g opacity="0.1" clip-path="url(#clip0_530_815)">
<path d="M59.1309 101C82.2546 101 101 82.2545 101 59.1308C101 36.0072 82.2546 17.2617 59.1309 17.2617C36.0072 17.2617 17.2618 36.0072 17.2618 59.1308C17.2618 82.2545 36.0072 101 59.1309 101Z" fill="#FFAF00"/>
<path d="M44.0727 85.9418C67.1964 85.9418 85.9418 67.1964 85.9418 44.0727C85.9418 20.949 67.1964 2.20361 44.0727 2.20361C20.9491 2.20361 2.20364 20.949 2.20364 44.0727C2.20364 67.1964 20.9491 85.9418 44.0727 85.9418Z" stroke="#010101" stroke-width="3" stroke-linecap="round" stroke-linejoin="round"/>
<path d="M44.0727 64.2728C55.2289 64.2728 64.2727 55.229 64.2727 44.0728C64.2727 32.9167 55.2289 23.8728 44.0727 23.8728C32.9166 23.8728 23.8727 32.9167 23.8727 44.0728C23.8727 55.229 32.9166 64.2728 44.0727 64.2728Z" stroke="#010101" stroke-width="3" stroke-linecap="round" stroke-linejoin="round"/>
</g>
<defs>
<clipPath id="clip0_530_815">
<rect width="101" height="101" fill="white"/>
</clipPath>
</defs>
</svg>
