<svg width="55" height="70" viewBox="0 0 55 70" fill="none" xmlns="http://www.w3.org/2000/svg">
<g clip-path="url(#clip0_530_227)">
<path d="M14.9854 62.5767C14.4482 62.8584 13.8626 63.0362 13.2594 63.1006C12.725 63.1606 12.1879 63.1929 11.6501 63.1975C10.776 63.2144 9.91982 62.9488 9.20872 62.4402C8.51159 61.9353 8.1623 61.1017 8.16083 59.9393C8.16083 58.8547 8.47783 58.0791 9.11186 57.6124C9.83267 57.1126 10.6633 56.7939 11.5335 56.6834C11.6907 56.6799 11.8471 56.66 12.0002 56.6239C12.1807 56.5865 12.3876 56.5535 12.621 56.5271C13.7569 56.3803 14.3249 56.0442 14.3249 55.5188C14.3331 55.3415 14.2767 55.1673 14.1662 55.0284C14.0557 54.8895 13.8985 54.7955 13.7239 54.7637C13.367 54.6542 12.9965 54.5956 12.6232 54.5898C12.2931 54.584 11.9645 54.6362 11.6523 54.7439C11.5144 54.7927 11.388 54.8695 11.2812 54.9696C11.1743 55.0696 11.0893 55.1906 11.0315 55.3251H8.43381C8.52331 54.5478 8.91371 53.8366 9.52133 53.3437C10.2192 52.7493 11.2121 52.4521 12.5065 52.4521C13.9536 52.4521 15.0389 52.698 15.7625 53.1896C16.1212 53.4254 16.4128 53.7501 16.6088 54.132C16.8048 54.514 16.8985 54.9402 16.8808 55.3691V58.8914C16.8808 59.9188 16.693 60.726 16.3173 61.313C15.997 61.848 15.5364 62.285 14.9854 62.5767ZM14.3646 57.8061C13.8808 58.03 13.3735 58.199 12.8522 58.3102L11.9606 58.5062C11.588 58.5873 11.2415 58.7598 10.9523 59.0081C10.782 59.261 10.688 59.5575 10.6815 59.8623C10.6736 60.0329 10.7004 60.2034 10.7602 60.3635C10.82 60.5235 10.9115 60.6698 11.0293 60.7935C11.3171 61.014 11.6761 61.1206 12.0376 61.0929C12.35 61.1208 12.6647 61.0799 12.9596 60.973C13.2545 60.8661 13.5223 60.6958 13.7442 60.4741C13.966 60.2524 14.1366 59.9848 14.2438 59.69C14.351 59.3953 14.3922 59.0806 14.3646 58.7682V57.8061Z" fill="#606060"/>
<path d="M17.4378 59.5915H20.0796C20.0778 59.8174 20.1296 60.0404 20.2306 60.2425C20.3316 60.4445 20.479 60.6197 20.6608 60.7539C21.1287 61.0329 21.6686 61.1677 22.2128 61.1413C22.6297 61.1524 23.0428 61.0593 23.4148 60.8705C23.5535 60.8034 23.6705 60.6987 23.7526 60.5683C23.8347 60.4379 23.8786 60.2871 23.8793 60.1331C23.8793 59.6678 23.337 59.3193 22.2524 59.0874C21.8981 59.034 21.548 58.956 21.2045 58.854C19.8352 58.5194 18.9172 58.1165 18.4527 57.652C18.1949 57.4177 17.9917 57.1297 17.8574 56.8082C17.7231 56.4868 17.661 56.1398 17.6756 55.7918C17.6662 55.3259 17.7625 54.864 17.9574 54.4407C18.1522 54.0175 18.4405 53.6439 18.8005 53.3481C19.5754 52.7537 20.5837 52.4565 21.8253 52.4565C23.1682 52.4565 24.2411 52.7537 25.0439 53.3481C25.4103 53.66 25.7068 54.0458 25.914 54.4802C26.1211 54.9145 26.2342 55.3877 26.2459 55.8688H24.5772C24.3469 55.8751 24.1196 55.8164 23.921 55.6997C23.7225 55.5829 23.5608 55.4126 23.4544 55.2084C23.3487 55.1071 23.2453 55.0036 23.144 54.9002C22.7664 54.6472 22.3165 54.5243 21.8628 54.5501C21.4615 54.5244 21.0606 54.6049 20.7004 54.7835C20.5862 54.859 20.494 54.9633 20.4329 55.0858C20.3718 55.2083 20.3441 55.3447 20.3525 55.4814C20.3525 55.8952 21.024 56.2438 22.3669 56.5271C22.5002 56.5739 22.6362 56.6129 22.7742 56.6437C22.8824 56.6692 22.9932 56.6825 23.1044 56.6834C24.4253 57.018 25.3389 57.4076 25.8584 57.8457C26.105 58.0866 26.298 58.3768 26.4247 58.6973C26.5514 59.0179 26.609 59.3616 26.5937 59.706C26.5937 60.8449 26.1806 61.7255 25.3543 62.3477C24.5779 62.9157 23.4141 63.2004 21.8628 63.2019C20.3951 63.2019 19.2944 62.904 18.5606 62.3081C17.8121 61.721 17.4378 60.8551 17.4378 59.7104V59.5915Z" fill="#606060"/>
<path d="M31.9851 63.0015C31.06 63.0533 30.1324 63.0408 29.2091 62.9641C28.214 62.8863 27.7165 62.253 27.7165 61.0642V49.665H29.1122C29.2793 49.6656 29.4446 49.7002 29.5979 49.7668C29.7513 49.8334 29.8893 49.9307 30.0038 50.0525C30.1283 50.1732 30.2269 50.318 30.2935 50.4782C30.3602 50.6383 30.3934 50.8103 30.3912 50.9837V52.7273H31.9807V53.271C31.9868 53.4476 31.9554 53.6234 31.8886 53.787C31.8219 53.9505 31.7212 54.0981 31.5932 54.2199C31.4702 54.3401 31.3246 54.4347 31.1647 54.4982C31.0049 54.5617 30.834 54.5928 30.662 54.5897H30.3912V60.3267C30.3912 60.767 30.6488 60.9872 31.1684 60.9872H31.9807L31.9851 63.0015Z" fill="#606060"/>
<path d="M32.6147 63.0016V58.0109C32.5872 57.1429 32.737 56.2785 33.055 55.4704C33.3201 54.8284 33.7398 54.262 34.2768 53.8215C34.788 53.424 35.3743 53.1342 36.0006 52.9695C36.6642 52.7885 37.3491 52.6975 38.0369 52.6987H38.4244V55.4506H37.5328C36.7828 55.4506 36.2273 55.6318 35.8663 55.9943C35.5052 56.3568 35.324 56.9256 35.3225 57.7005V63.0104L32.6147 63.0016Z" fill="#606060"/>
<path d="M45.6914 62.5767C45.1542 62.8584 44.5686 63.0362 43.9655 63.1006C43.4311 63.1605 42.8939 63.1929 42.3562 63.1975C41.4821 63.2144 40.6259 62.9488 39.9148 62.4402C39.2177 61.9353 38.8683 61.1017 38.8669 59.9393C38.8669 58.8547 39.1839 58.0791 39.8179 57.6124C40.5387 57.1126 41.3694 56.7939 42.2395 56.6834C42.3968 56.6799 42.5532 56.66 42.7062 56.6239C42.8868 56.5865 43.0937 56.5535 43.3249 56.5271C44.4623 56.3803 45.031 56.0442 45.031 55.5188C45.0392 55.3415 44.9828 55.1673 44.8723 55.0284C44.7617 54.8895 44.6046 54.7955 44.43 54.7637C44.0731 54.6542 43.7025 54.5956 43.3293 54.5898C42.9999 54.5842 42.672 54.6364 42.3606 54.7439C42.2226 54.7927 42.0963 54.8695 41.9894 54.9696C41.8826 55.0696 41.7976 55.1906 41.7398 55.3251H39.1377C39.2272 54.5478 39.6176 53.8366 40.2252 53.3437C40.9231 52.7493 41.9159 52.4521 43.2104 52.4521C44.6575 52.4521 45.7428 52.698 46.4663 53.1896C46.826 53.4249 47.1187 53.7493 47.3158 54.1312C47.5129 54.5132 47.6078 54.9396 47.5913 55.3691V58.8914C47.5913 59.9188 47.4034 60.726 47.0277 61.313C46.7062 61.8486 46.244 62.2856 45.6914 62.5767ZM45.0706 57.8061C44.5868 58.03 44.0795 58.199 43.5582 58.3102L42.6666 58.5062C42.2941 58.5873 41.9476 58.7598 41.6583 59.0081C41.488 59.261 41.394 59.5575 41.3876 59.8623C41.3797 60.0329 41.4065 60.2034 41.4662 60.3635C41.526 60.5235 41.6176 60.6698 41.7354 60.7935C42.0219 61.0171 42.3811 61.1269 42.7437 61.1017C43.0561 61.1297 43.3708 61.0887 43.6657 60.9818C43.9605 60.8749 44.2283 60.7046 44.4502 60.4829C44.6721 60.2612 44.8427 59.9936 44.9498 59.6988C45.057 59.4041 45.0983 59.0894 45.0706 58.777V57.8061Z" fill="#606060"/>
<path d="M11.9738 66.7486C11.7813 66.5828 11.5316 66.499 11.2781 66.5152C11.0832 66.5108 10.8905 66.557 10.7189 66.6495C10.5608 66.7365 10.4239 66.8575 10.3183 67.0039C10.2093 67.1549 10.128 67.3242 10.0783 67.5037C9.9697 67.876 9.9697 68.2717 10.0783 68.644C10.128 68.8235 10.2093 68.9927 10.3183 69.1437C10.4239 69.2901 10.5608 69.4112 10.7189 69.4982C10.8905 69.5906 11.0832 69.6369 11.2781 69.6325C11.4118 69.6331 11.5443 69.6069 11.6678 69.5554C11.7891 69.5029 11.8996 69.4282 11.9936 69.3353C12.0908 69.2398 12.1705 69.128 12.2291 69.0051C12.2919 68.8737 12.3299 68.7319 12.3414 68.5868H12.7817C12.7448 68.9795 12.572 69.347 12.293 69.6259C12.0142 69.8786 11.6475 70.0122 11.2715 69.9979C11.0165 70.003 10.7636 69.9503 10.5318 69.8438C10.323 69.7475 10.138 69.6062 9.99025 69.4299C9.84012 69.2495 9.72647 69.0417 9.65562 68.8179C9.50595 68.3302 9.50595 67.8087 9.65562 67.3209C9.72647 67.0972 9.84012 66.8893 9.99025 66.7089C10.1385 66.532 10.3232 66.3893 10.5318 66.2906C10.7634 66.1834 11.0163 66.1299 11.2715 66.1343C11.6297 66.123 11.9812 66.2332 12.2688 66.447C12.4096 66.5626 12.5252 66.7059 12.6085 66.8679C12.6918 67.03 12.741 67.2074 12.7531 67.3892H12.3128C12.2663 67.1466 12.1482 66.9235 11.9738 66.7486Z" fill="#606060"/>
<path d="M13.823 66.2465V67.1028H13.8362C13.9362 66.8243 14.121 66.5841 14.3646 66.416C14.6179 66.2519 14.9177 66.1746 15.2187 66.1958V66.6361C15.0309 66.6236 14.8424 66.6513 14.6662 66.7176C14.5061 66.7772 14.3603 66.8697 14.2382 66.9892C14.1161 67.1086 14.0204 67.2523 13.9573 67.411C13.8899 67.5812 13.8562 67.7629 13.8582 67.946V69.8987H13.4179V66.2465H13.823Z" fill="#606060"/>
<path d="M15.8461 68.6945C15.8898 68.8618 15.9645 69.0193 16.0663 69.159C16.1671 69.2968 16.2953 69.4122 16.4427 69.4981C16.6091 69.5918 16.7979 69.6383 16.9887 69.6323C17.2668 69.6497 17.5408 69.5582 17.7526 69.377C17.9459 69.194 18.0794 68.9569 18.1357 68.6967H18.576C18.5076 69.065 18.3251 69.4023 18.0542 69.661C17.7526 69.9058 17.3697 70.0276 16.9821 70.0022C16.7241 70.0089 16.468 69.9562 16.2336 69.8481C16.0309 69.7528 15.8548 69.6091 15.7207 69.4298C15.5839 69.2451 15.4838 69.0358 15.4257 68.8134C15.3612 68.5722 15.3293 68.3234 15.331 68.0737C15.3305 67.8342 15.3623 67.5958 15.4257 67.3648C15.486 67.1419 15.5859 66.9316 15.7207 66.744C15.8555 66.5598 16.031 66.4091 16.2336 66.3037C16.4655 66.187 16.7226 66.1295 16.9821 66.1364C17.2288 66.1276 17.4737 66.1818 17.6936 66.2939C17.9135 66.406 18.1013 66.5723 18.2391 66.777C18.3731 66.9776 18.468 67.2017 18.5187 67.4375C18.5762 67.6848 18.5999 67.9389 18.5892 68.1926H15.7801C15.7811 68.362 15.8032 68.5306 15.8461 68.6945ZM18.0476 67.3296C18.0003 67.1793 17.9256 67.039 17.8275 66.9157C17.7284 66.795 17.6055 66.6961 17.4664 66.6251C17.3149 66.5527 17.149 66.515 16.981 66.515C16.813 66.515 16.6471 66.5527 16.4956 66.6251C16.3554 66.6954 16.2317 66.7944 16.1323 66.9157C16.0301 67.0404 15.9503 67.1819 15.8968 67.334C15.8373 67.4898 15.7981 67.6526 15.7801 67.8183H18.1467C18.1413 67.6518 18.1109 67.487 18.0564 67.3296H18.0476Z" fill="#606060"/>
<path d="M19.287 66.8168C19.3576 66.6663 19.4633 66.5349 19.5952 66.4338C19.7322 66.3314 19.8877 66.2567 20.0531 66.2136C20.243 66.165 20.4384 66.1414 20.6343 66.1432C20.7961 66.1434 20.9576 66.1588 21.1164 66.1894C21.2736 66.2166 21.4234 66.2758 21.5567 66.3633C21.6888 66.4545 21.7962 66.5771 21.8694 66.7199C21.9552 66.9075 21.9959 67.1126 21.9882 67.3187V69.2626C21.9829 69.2986 21.9859 69.3353 21.997 69.3698C22.0082 69.4044 22.0272 69.4359 22.0526 69.4619C22.0779 69.4879 22.109 69.5077 22.1433 69.5197C22.1775 69.5318 22.2142 69.5357 22.2502 69.5312C22.2994 69.5322 22.3482 69.5224 22.3933 69.5026V69.879L22.2546 69.8989C22.204 69.9017 22.1533 69.9017 22.1027 69.8989C22.0095 69.9029 21.9164 69.8872 21.8297 69.8526C21.7646 69.825 21.7088 69.7791 21.669 69.7205C21.6299 69.6594 21.605 69.5901 21.5964 69.518C21.5833 69.4328 21.5774 69.3466 21.5788 69.2604H21.5633C21.4898 69.3713 21.4081 69.4765 21.319 69.5752C21.239 69.6653 21.1463 69.7431 21.0438 69.8064C20.9353 69.87 20.8181 69.9175 20.696 69.9473C20.5438 69.9831 20.3878 70.0001 20.2315 69.9979C20.0702 69.9984 19.9096 69.9777 19.7537 69.9363C19.6118 69.9005 19.4791 69.8353 19.3641 69.7448C19.2507 69.6567 19.1601 69.5427 19.0999 69.4123C19.0331 69.2622 19.0007 69.0989 19.0052 68.9346C18.9928 68.7216 19.0525 68.5107 19.1748 68.3358C19.293 68.1875 19.4489 68.0734 19.6261 68.0056C19.8284 67.9265 20.04 67.8732 20.2557 67.8471L20.969 67.7568C21.0518 67.7501 21.1341 67.7383 21.2155 67.7216C21.2802 67.7117 21.3414 67.686 21.3938 67.6468C21.4426 67.6088 21.4805 67.5587 21.5039 67.5015C21.5323 67.4248 21.5451 67.3432 21.5413 67.2615C21.5461 67.1335 21.5213 67.0062 21.4687 66.8895C21.4211 66.7956 21.3498 66.7159 21.2617 66.6583C21.1688 66.6005 21.0657 66.561 20.9579 66.5416C20.835 66.5209 20.7106 66.5106 20.5859 66.5108C20.3383 66.4998 20.094 66.5701 19.8902 66.7111C19.7964 66.7904 19.7221 66.8902 19.6733 67.0028C19.6244 67.1155 19.6022 67.2379 19.6084 67.3606H19.1682C19.1732 67.1735 19.2136 66.989 19.287 66.8168ZM21.5193 67.9175C21.5009 67.9461 21.477 67.9707 21.4491 67.9899C21.4211 68.0092 21.3896 68.0228 21.3564 68.0298C21.2841 68.051 21.2106 68.0679 21.1363 68.0804C20.9469 68.1135 20.7532 68.1421 20.5529 68.1685C20.3665 68.1922 20.1824 68.2312 20.0025 68.2852C19.8527 68.3289 19.7138 68.4039 19.5952 68.5053C19.5405 68.5588 19.4981 68.6235 19.4707 68.6949C19.4433 68.7664 19.4317 68.8429 19.4367 68.9192C19.4346 69.0235 19.4572 69.1269 19.5028 69.2208C19.549 69.3046 19.6102 69.3792 19.6833 69.441C19.7612 69.5059 19.8509 69.5552 19.9475 69.5863C20.0454 69.6187 20.1481 69.6351 20.2513 69.6347C20.4172 69.6349 20.5822 69.6089 20.74 69.5576C20.8887 69.5113 21.027 69.4365 21.1473 69.3375C21.2639 69.2378 21.3584 69.1148 21.4247 68.9764C21.4944 68.8255 21.529 68.6606 21.5259 68.4943V67.9131L21.5193 67.9175Z" fill="#606060"/>
<path d="M24.3262 66.2465V66.6207H23.5821V69.0864C23.5765 69.2038 23.5968 69.3211 23.6415 69.4298C23.6811 69.5135 23.7824 69.5597 23.9431 69.5685C24.0711 69.5685 24.1989 69.5619 24.3262 69.5487V69.9229H24.1281C24.0613 69.9263 23.9945 69.9263 23.9277 69.9229C23.816 69.95 23.6992 69.9475 23.5887 69.9156C23.4783 69.8837 23.3781 69.8235 23.2981 69.741C23.218 69.6585 23.1609 69.5566 23.1323 69.4452C23.1038 69.3339 23.1047 69.217 23.1352 69.1062V66.6207H22.4968V66.2465H23.1352V65.1458H23.5755V66.2465H24.3262Z" fill="#606060"/>
<path d="M25.4247 64.8354V65.5509H24.9844V64.8354H25.4247ZM25.4247 66.24V69.8988H24.9844V66.2466L25.4247 66.24Z" fill="#606060"/>
<path d="M26.3669 66.2466L27.5139 69.4585H27.5293L28.6631 66.2488H29.1232L27.7561 69.8988H27.2805L25.8716 66.2422L26.3669 66.2466Z" fill="#606060"/>
<path d="M29.8915 68.6945C29.9353 68.8617 30.01 69.0192 30.1116 69.159C30.2117 69.2966 30.3391 69.412 30.4859 69.498C30.6522 69.5918 30.841 69.6382 31.0318 69.6323C31.3106 69.6494 31.5852 69.5578 31.798 69.3769C31.9893 69.1924 32.1224 68.9559 32.181 68.6967H32.6213C32.5537 69.0647 32.3719 69.4021 32.1018 69.6609C31.7989 69.9049 31.4156 70.0266 31.0274 70.0022C30.7694 70.0089 30.5133 69.9562 30.2789 69.8481C30.0763 69.7527 29.9001 69.6091 29.766 69.4298C29.6301 69.2445 29.53 69.0355 29.471 68.8134C29.4076 68.5719 29.3758 68.3233 29.3764 68.0737C29.3769 67.8343 29.4087 67.596 29.471 67.3648C29.5324 67.1423 29.6323 66.9322 29.766 66.744C29.9008 66.5597 30.0764 66.409 30.2789 66.3037C30.5108 66.187 30.768 66.1295 31.0274 66.1364C31.289 66.1287 31.548 66.1902 31.7781 66.3147C31.9809 66.4277 32.155 66.5859 32.2867 66.777C32.4198 66.978 32.5146 67.2019 32.5663 67.4375C32.6216 67.6852 32.6453 67.9389 32.6367 68.1926H29.8254C29.8264 68.362 29.8486 68.5306 29.8915 68.6945ZM32.093 67.3296C32.0448 67.1796 31.9703 67.0394 31.8728 66.9157C31.7738 66.795 31.6509 66.696 31.5118 66.6251C31.3627 66.5491 31.197 66.5112 31.0296 66.515C30.8601 66.5108 30.6922 66.5486 30.5409 66.6251C30.4018 66.696 30.2789 66.795 30.1799 66.9157C30.0777 67.0408 29.9973 67.1822 29.9421 67.334C29.8826 67.4898 29.8434 67.6525 29.8254 67.8183H32.192C32.1874 67.6519 32.1578 67.4871 32.104 67.3296H32.093Z" fill="#606060"/>
<path d="M37.3148 66.9577C37.2659 66.8593 37.1951 66.7735 37.1079 66.7067C37.0174 66.6397 36.9151 66.5904 36.8063 66.5614C36.6878 66.5301 36.5656 66.5145 36.443 66.5152C36.3425 66.5159 36.2422 66.5262 36.1437 66.546C36.0449 66.5665 35.9498 66.6022 35.8619 66.6517C35.7799 66.701 35.71 66.7679 35.6571 66.8476C35.6028 66.937 35.576 67.0403 35.5801 67.1448C35.5769 67.2344 35.6032 67.3226 35.6549 67.3958C35.7039 67.4667 35.7678 67.526 35.8421 67.5697C35.9198 67.6193 36.0034 67.6593 36.0908 67.6886C36.1789 67.7172 36.2625 67.7436 36.3374 67.7612L36.934 67.8977C37.0637 67.9167 37.1908 67.9507 37.3126 67.999C37.4332 68.0462 37.5454 68.1123 37.6451 68.1949C37.7439 68.2766 37.8248 68.3778 37.8828 68.4921C37.9471 68.622 37.9788 68.7655 37.9753 68.9104C37.98 69.0886 37.9334 69.2643 37.841 69.4167C37.7525 69.554 37.6354 69.6704 37.4976 69.7579C37.3516 69.8468 37.1915 69.9101 37.0242 69.9451C36.8543 69.9825 36.6809 70.0017 36.5069 70.0023C36.1348 70.0188 35.7677 69.9112 35.4634 69.6963C35.3209 69.5762 35.2062 69.4266 35.1271 69.2579C35.048 69.0891 35.0066 68.9052 35.0055 68.7189H35.4458C35.4462 68.8504 35.4761 68.9802 35.5332 69.0986C35.5904 69.2171 35.6733 69.3213 35.776 69.4035C35.9934 69.5578 36.256 69.6352 36.5223 69.6237C36.6355 69.6236 36.7484 69.6118 36.8591 69.5884C36.9726 69.565 37.0818 69.5241 37.1827 69.4674C37.2796 69.4131 37.363 69.3379 37.4271 69.2472C37.493 69.1533 37.5263 69.0404 37.5218 68.9258C37.5258 68.8301 37.5021 68.7353 37.4535 68.6528C37.4081 68.5783 37.3464 68.5151 37.273 68.4679C37.1925 68.4164 37.106 68.375 37.0154 68.3446C36.9186 68.3116 36.8195 68.283 36.7204 68.2587L36.1459 68.1311C36.009 68.096 35.8745 68.0526 35.743 68.0012C35.6271 67.9548 35.5182 67.8925 35.4194 67.8163C35.3273 67.7438 35.2522 67.6522 35.1992 67.5477C35.1448 67.4236 35.1185 67.289 35.1222 67.1536C35.1173 66.9866 35.1601 66.8217 35.2455 66.6781C35.3267 66.5477 35.4376 66.4383 35.5691 66.3589C35.7057 66.2774 35.8543 66.218 36.0094 66.1828C36.1681 66.1454 36.3306 66.1262 36.4937 66.1255C36.6679 66.1244 36.8413 66.1481 37.0088 66.196C37.1614 66.2411 37.3035 66.3159 37.4271 66.4161C37.5482 66.5171 37.6459 66.6434 37.7133 66.786C37.7884 66.9476 37.8296 67.1229 37.8344 67.3011H37.3941C37.3929 67.1822 37.3659 67.0651 37.3148 66.9577Z" fill="#606060"/>
<path d="M40.0733 66.2465V66.6207H39.3358V69.0864C39.3302 69.2038 39.3504 69.3211 39.3952 69.4298C39.4348 69.5135 39.5361 69.5597 39.6968 69.5685C39.8248 69.5685 39.9526 69.5619 40.0799 69.5487V69.9229H39.8817C39.8157 69.9229 39.7475 69.9229 39.6814 69.9229C39.4592 69.9461 39.2365 69.8839 39.0584 69.749C38.9201 69.5651 38.8592 69.3344 38.8889 69.1062V66.6207H38.235V66.2465H38.8735V65.1458H39.3138V66.2465H40.0733Z" fill="#606060"/>
<path d="M40.8086 66.8168C40.8798 66.6667 40.9854 66.5355 41.1168 66.4338C41.254 66.3319 41.4094 66.2571 41.5747 66.2136C41.7645 66.165 41.9599 66.1414 42.1559 66.1432C42.3177 66.1433 42.4791 66.1587 42.638 66.1894C42.7952 66.2162 42.9452 66.2754 43.0783 66.3633C43.2109 66.4539 43.3185 66.5766 43.3909 66.7199C43.4775 66.9073 43.519 67.1124 43.512 67.3187V69.2626C43.5061 69.2986 43.5088 69.3355 43.5198 69.3703C43.5308 69.4051 43.5498 69.4368 43.5753 69.463C43.6007 69.4891 43.632 69.5089 43.6665 69.5207C43.701 69.5326 43.7378 69.5362 43.7739 69.5312C43.8224 69.5321 43.8705 69.5224 43.9148 69.5026V69.879L43.7761 69.8989C43.7256 69.9017 43.6748 69.9017 43.6242 69.8989C43.531 69.9024 43.4381 69.8867 43.3513 69.8526C43.2867 69.825 43.2316 69.7791 43.1928 69.7205C43.1529 69.6595 43.1273 69.5903 43.1179 69.518C43.1059 69.4327 43.1001 69.3466 43.1003 69.2604H43.0783C43.0033 69.3708 42.9209 69.476 42.8317 69.5752C42.7522 69.6658 42.6594 69.7437 42.5565 69.8064C42.4482 69.8704 42.331 69.9179 42.2087 69.9473C42.0565 69.9833 41.9005 70.0003 41.7442 69.9979C41.583 69.9982 41.4224 69.9775 41.2665 69.9363C41.1246 69.9005 40.9918 69.8353 40.8768 69.7448C40.7647 69.656 40.6749 69.5421 40.6148 69.4123C40.548 69.2622 40.5157 69.0989 40.5202 68.9346C40.5067 68.7215 40.5665 68.5102 40.6897 68.3358C40.8043 68.1883 40.9563 68.0743 41.13 68.0056C41.3331 67.9265 41.5454 67.8733 41.7618 67.8471L42.4729 67.7568C42.5564 67.7499 42.6395 67.7381 42.7216 67.7216C42.7857 67.7117 42.8462 67.686 42.8978 67.6468C42.9471 67.6094 42.9852 67.5591 43.0078 67.5015C43.0371 67.425 43.0506 67.3433 43.0475 67.2615C43.0527 67.1333 43.0271 67.0057 42.9726 66.8895C42.9258 66.7958 42.8552 66.7161 42.7679 66.6583C42.6741 66.6006 42.5703 66.561 42.4619 66.5416C42.339 66.5208 42.2145 66.5105 42.0898 66.5108C41.8429 66.4994 41.5992 66.5698 41.3964 66.7111C41.3019 66.7899 41.227 66.8896 41.1777 67.0023C41.1284 67.1151 41.1061 67.2377 41.1124 67.3606H40.6721C40.6839 67.1725 40.7302 66.9882 40.8086 66.8168ZM43.0409 67.9175C43.0229 67.9465 42.9992 67.9714 42.9712 67.9907C42.9431 68.0101 42.9114 68.0234 42.8779 68.0298C42.8057 68.0513 42.7322 68.0682 42.6578 68.0804C42.4685 68.1135 42.2725 68.1421 42.0722 68.1685C41.8866 68.1922 41.7032 68.2312 41.524 68.2852C41.374 68.3283 41.235 68.4034 41.1168 68.5053C41.0613 68.5584 41.0182 68.6229 40.9904 68.6944C40.9626 68.7659 40.9509 68.8427 40.9561 68.9192C40.9538 69.0238 40.9773 69.1274 41.0243 69.2208C41.0698 69.3051 41.1311 69.3798 41.2048 69.441C41.2819 69.5059 41.3709 69.5552 41.4668 69.5863C41.5648 69.6187 41.6674 69.6351 41.7706 69.6347C41.9373 69.635 42.103 69.609 42.2615 69.5576C42.4099 69.5103 42.548 69.4357 42.6688 69.3375C42.7901 69.2335 42.8869 69.104 42.9524 68.9582C43.0178 68.8125 43.0503 68.6541 43.0475 68.4943V67.9131L43.0409 67.9175Z" fill="#606060"/>
<path d="M44.8064 66.2465V67.1028H44.8218C44.9173 66.819 45.1052 66.5755 45.3554 66.411C45.6057 66.2466 45.9038 66.1708 46.2022 66.1958V66.6361C46.0143 66.6236 45.8259 66.6514 45.6496 66.7176C45.4895 66.7772 45.3437 66.8697 45.2216 66.9892C45.0995 67.1086 45.0038 67.2523 44.9407 67.411C44.8733 67.5813 44.8397 67.7629 44.8417 67.946V69.8987H44.4014V66.2465H44.8064Z" fill="#606060"/>
<path d="M24.8655 6.13325C29.7528 7.54879 38.8471 26.5474 40.5554 39.2741C41.7134 47.8906 42.4288 46.8251 44.8923 45.6694C47.9743 44.2252 49.7905 40.7161 48.375 34.4551C46.222 24.9206 40.1151 10.917 33.8695 4.7155C30.7236 1.59162 25.9597 2.72538 24.8655 6.13325Z" fill="#606060"/>
<path d="M14.8643 34.4991C12.883 33.0945 10.9809 31.6658 9.24835 30.2568C8.53085 32.9999 8.00781 35.7903 7.68311 38.607C7.16576 43.5405 8.17404 44.9098 10.3403 45.5834C11.7008 46.0061 17.0702 43.9544 18.8291 40.2251C15.276 41.088 14.3271 38.9042 14.8643 34.4991Z" fill="#606060"/>
<path d="M53.7466 13.691C60.2981 21.4423 17.779 50.2837 9.89558 47.8335C7.61706 47.1246 7.07991 43.9611 7.69412 38.6071C7.69412 42.8648 10.217 42.8736 17.1604 40.43C24.1038 37.9863 41.6495 26.2261 43.7057 15.7427C44.0976 13.746 42.9396 12.6827 41.9819 11.7228C41.5417 11.2715 41.7046 10.4438 42.343 10.4636C47.1642 10.5935 51.9612 11.5775 53.7466 13.691Z" fill="#606060"/>
<path d="M48.375 34.4551C49.5704 43.206 29.1584 36.6258 21.1363 31.9433C12.7377 27.0428 3.77553 20.6255 4.41836 17.2815C2.39301 21.0768 3.33963 25.8914 7.52902 28.8216C18.9987 38.6819 39.6968 50.3959 46.4179 47.2544C49.4625 45.8279 49.7311 40.1063 48.375 34.4551Z" fill="#606060"/>
<path d="M7.52902 28.8216C1.40455 24.859 -1.00606 19.8705 0.380865 16.7136C3.4387 9.75032 20.4142 13.2639 27.3246 16.2094C28.6455 16.773 30.0918 17.8517 30.2195 18.7521C30.3472 19.6525 29.427 19.1264 27.6504 18.5055C24.4429 17.3806 14.6177 14.5055 8.58353 17.8935C3.69627 20.6344 4.24664 25.8122 7.52902 28.8216Z" fill="#606060"/>
<path d="M16.0002 28.7864C16.478 26.8777 17.0658 24.7709 17.7262 22.4902C21.1979 10.5318 27.5007 0.915838 33.8673 4.71557C30.7214 1.59169 28.5134 -0.629593 24.8105 0.162935C20.0223 1.18882 14.2435 14.0498 10.7211 25.0923C12.326 26.3097 14.1246 27.5668 16.0002 28.7864Z" fill="#606060"/>
</g>
<defs>
<clipPath id="clip0_530_227">
<rect width="54.4312" height="70" fill="white"/>
</clipPath>
</defs>
</svg>
