<svg width="113" height="114" viewBox="0 0 113 114" fill="none" xmlns="http://www.w3.org/2000/svg">
<g opacity="0.3" clip-path="url(#clip0_530_811)">
<path d="M58.6256 110.794C58.5113 109.834 58.7817 108.868 59.3776 108.107C59.9734 107.346 60.8459 106.854 61.8038 106.737V106.737C62.2798 106.68 62.7622 106.718 63.2235 106.849C63.6847 106.979 64.1157 107.2 64.4918 107.498C64.8679 107.795 65.1817 108.165 65.4152 108.584C65.6487 109.004 65.7973 109.465 65.8526 109.942V109.942C65.9614 110.902 65.6889 111.865 65.094 112.625C64.4992 113.384 63.6299 113.878 62.6743 114V114H62.2087C61.3252 113.992 60.4747 113.662 59.8156 113.073C59.1564 112.483 58.7335 111.673 58.6256 110.794ZM35.4871 110.794C34.5991 110.429 33.8896 109.729 33.511 108.845C33.1325 107.961 33.1151 106.964 33.4627 106.067V106.067C33.6314 105.618 33.8867 105.207 34.214 104.857C34.5414 104.507 34.9344 104.225 35.3705 104.027C35.8067 103.829 36.2775 103.719 36.756 103.704C37.2345 103.688 37.7113 103.768 38.1593 103.937C38.6099 104.106 39.0228 104.363 39.3745 104.692C39.7262 105.021 40.0098 105.416 40.2091 105.855C40.4083 106.294 40.5194 106.768 40.5358 107.25C40.5523 107.732 40.4739 108.213 40.3051 108.664C40.0375 109.358 39.5684 109.955 38.9584 110.378C38.3485 110.801 37.6258 111.031 36.8839 111.038V111.038C36.3947 111.026 35.9128 110.915 35.4668 110.713L35.4871 110.794ZM83.2014 103.389C82.6529 102.586 82.4431 101.598 82.6175 100.641C82.7919 99.6835 83.3364 98.8337 84.1326 98.2765V98.2765C84.9308 97.728 85.9132 97.5183 86.8652 97.6931C87.8172 97.868 88.6615 98.4132 89.2137 99.2098C89.7642 100.011 89.9772 100.997 89.8067 101.954C89.6361 102.911 89.0957 103.762 88.3027 104.322V104.322C87.7027 104.726 87.0008 104.951 86.2784 104.972V104.972C85.6671 104.977 85.0644 104.827 84.5264 104.536C83.9884 104.246 83.5326 103.823 83.2014 103.308V103.389ZM12.9357 95.2739C12.5839 94.9142 12.3102 94.4855 12.1318 94.0147C11.9533 93.5439 11.874 93.0411 11.8987 92.5381C11.9234 92.0351 12.0516 91.5427 12.2754 91.0917C12.4991 90.6408 12.8135 90.2411 13.1988 89.9178V89.9178C13.9302 89.2778 14.8829 88.9511 15.8521 89.008C16.8213 89.065 17.7295 89.5009 18.3812 90.2221V90.2221C19.0236 90.9494 19.3523 91.9021 19.2954 92.8717C19.2385 93.8413 18.8006 94.7488 18.0776 95.3956V95.3956C17.411 95.9974 16.5454 96.3299 15.6483 96.3289V96.3289C15.1373 96.3335 14.6312 96.2292 14.1635 96.0228C13.6958 95.8165 13.2773 95.5128 12.9357 95.1319V95.2739ZM101.502 85.3732C101.076 85.1471 100.699 84.839 100.392 84.4667C100.085 84.0944 99.8549 83.6651 99.7139 83.2035C99.5728 82.7418 99.524 82.2567 99.5703 81.7761C99.6165 81.2955 99.7569 80.8287 99.9833 80.4025V80.4025C100.435 79.5477 101.207 78.9074 102.129 78.6221C103.051 78.3368 104.049 78.4299 104.903 78.8809V78.8809C105.329 79.1013 105.707 79.4042 106.015 79.7721C106.323 80.1399 106.556 80.5654 106.699 81.024C106.842 81.4825 106.893 81.965 106.849 82.4434C106.804 82.9218 106.666 83.3866 106.441 83.811V83.811C106.141 84.4164 105.68 84.9266 105.108 85.2848C104.536 85.643 103.876 85.8351 103.202 85.8398V85.8398C102.594 85.7814 102.009 85.5723 101.502 85.2312V85.3732ZM0.141694 70.8468C-0.0785935 69.9029 0.0802681 68.9101 0.583991 68.0826C1.08771 67.2552 1.8959 66.6594 2.8341 66.4239V66.4239C3.29935 66.3088 3.78268 66.2867 4.25643 66.3591C4.73018 66.4314 5.18505 66.5967 5.59498 66.8454C6.0049 67.0942 6.36184 67.4216 6.64536 67.8088C6.92888 68.196 7.1334 68.6354 7.24722 69.102V69.102C7.47366 70.0434 7.31992 71.0363 6.81946 71.8646C6.319 72.6929 5.51235 73.2897 4.57506 73.5248V73.5248C4.28518 73.6065 3.98542 73.6474 3.68433 73.6466V73.6466C2.86864 73.6359 2.07927 73.3557 1.43871 72.8495C0.798147 72.3432 0.342222 71.6392 0.141694 70.8468V70.8468ZM105.672 57.0304V56.929C105.669 56.4477 105.761 55.9706 105.943 55.5252C106.125 55.0798 106.393 54.6748 106.732 54.3336C107.07 53.9923 107.473 53.7215 107.917 53.5367C108.36 53.3519 108.835 53.2568 109.316 53.2568V53.2568C109.795 53.2514 110.27 53.3414 110.715 53.5215C111.159 53.7016 111.563 53.9683 111.904 54.306C112.245 54.6438 112.515 55.0459 112.7 55.4892C112.885 55.9325 112.98 56.4081 112.98 56.8884V56.8884V57.0101V57.1318C112.982 57.6122 112.89 58.0883 112.708 58.5325C112.526 58.9768 112.257 59.3805 111.918 59.7201C111.58 60.0598 111.177 60.3287 110.734 60.5113C110.29 60.6938 109.815 60.7864 109.336 60.7837V60.7837C108.847 60.7867 108.363 60.691 107.911 60.5023C107.46 60.3137 107.052 60.036 106.71 59.6858C106.368 59.3356 106.1 58.92 105.921 58.4639C105.743 58.0077 105.658 57.5202 105.672 57.0304V57.0304ZM2.79361 47.8398C2.32628 47.728 1.88563 47.5246 1.49703 47.2414C1.10842 46.9582 0.779539 46.6008 0.529301 46.1898C0.279063 45.7787 0.112418 45.3221 0.0389481 44.8462C-0.0345219 44.3703 -0.013367 43.8846 0.101206 43.417V43.417C0.212802 42.9486 0.41572 42.507 0.698281 42.1175C0.980843 41.7281 1.33747 41.3984 1.74764 41.1477C2.1578 40.8969 2.6134 40.7298 3.08822 40.6562C3.56304 40.5826 4.04771 40.6038 4.51432 40.7186V40.7186C5.44038 40.9669 6.23247 41.5691 6.72067 42.3959C7.20886 43.2228 7.35429 44.2084 7.12575 45.1414V45.1414C6.93398 45.9424 6.47764 46.655 5.83084 47.1632C5.18404 47.6715 4.38478 47.9457 3.56287 47.9412C3.30381 47.9322 3.0462 47.8982 2.79361 47.8398V47.8398ZM99.9631 33.638C99.7371 33.2133 99.5971 32.7481 99.5511 32.269C99.5051 31.7899 99.5541 31.3065 99.6952 30.8465C99.8363 30.3864 100.067 29.9589 100.373 29.5884C100.68 29.2179 101.056 28.9118 101.481 28.6877C101.905 28.4612 102.369 28.3208 102.847 28.2748C103.325 28.2287 103.808 28.2778 104.267 28.4192C104.726 28.5606 105.152 28.7915 105.522 29.0987C105.892 29.406 106.197 29.7834 106.421 30.2093V30.2093C106.647 30.6339 106.787 31.0992 106.833 31.5783C106.879 32.0573 106.83 32.5408 106.689 33.0008C106.548 33.4609 106.317 33.8884 106.011 34.2589C105.704 34.6294 105.328 34.9355 104.903 35.1596V35.1596C104.381 35.4446 103.796 35.5913 103.202 35.5857V35.5857C102.518 35.5999 101.844 35.421 101.257 35.0694C100.67 34.7178 100.194 34.2077 99.8821 33.5974L99.9631 33.638ZM13.1988 24.2445C12.4758 23.5977 12.0379 22.6902 11.981 21.7206C11.9241 20.751 12.2528 19.7983 12.8952 19.071V19.071C13.5342 18.3448 14.4348 17.9026 15.3991 17.8417C16.3633 17.7809 17.3122 18.1063 18.0371 18.7464V18.7464C18.7659 19.3875 19.2114 20.2921 19.2759 21.2619C19.3404 22.2316 19.0187 23.1875 18.3812 23.9199V23.9199C18.0363 24.3103 17.6124 24.6225 17.1377 24.8359C16.663 25.0493 16.1483 25.1589 15.6281 25.1575V25.1575C14.735 25.1566 13.8723 24.8324 13.1988 24.2445ZM84.0516 15.7234C83.6521 15.4545 83.3101 15.1085 83.0455 14.7057C82.7809 14.3028 82.599 13.8512 82.5104 13.3772C82.4218 12.9031 82.4283 12.4162 82.5296 11.9447C82.6309 11.4732 82.8248 11.0266 83.1001 10.631V10.631C83.3718 10.2345 83.7191 9.89558 84.1218 9.63388C84.5246 9.37218 84.975 9.19283 85.4472 9.10611C85.9193 9.01939 86.4039 9.02702 86.8731 9.12856C87.3423 9.2301 87.7869 9.42356 88.1813 9.6978V9.6978C88.9794 10.2482 89.5275 11.0928 89.7058 12.0471C89.8841 13.0014 89.6781 13.9877 89.1327 14.7902V14.7902C88.7953 15.2789 88.3445 15.6782 87.8191 15.9538C87.2937 16.2295 86.7094 16.3732 86.1164 16.3726V16.3726C85.3776 16.376 84.6561 16.1491 84.0516 15.7234V15.7234ZM33.2603 8.1356C32.9072 7.23937 32.9219 6.23961 33.301 5.35416C33.6802 4.46871 34.3932 3.76933 35.2847 3.40842V3.40842C36.1793 3.06004 37.1747 3.07741 38.0567 3.4568C38.9388 3.83619 39.637 4.54731 40.0014 5.43725C40.3545 6.33347 40.3399 7.33324 39.9607 8.21869C39.5815 9.10414 38.8685 9.80351 37.9771 10.1644V10.1644C37.5592 10.3332 37.1117 10.4159 36.6612 10.4079V10.4079C35.919 10.4298 35.1877 10.224 34.5654 9.81786C33.9432 9.41175 33.4595 8.8248 33.1793 8.1356H33.2603ZM61.6014 7.30377C61.1242 7.251 60.6623 7.10372 60.2424 6.87052C59.8225 6.63731 59.453 6.32281 59.1555 5.94529C58.8579 5.56777 58.6381 5.13476 58.5089 4.67139C58.3797 4.20802 58.3437 3.72355 58.4029 3.24611V3.24611C58.4581 2.76896 58.6068 2.30743 58.8403 1.88794C59.0738 1.46845 59.3875 1.09922 59.7636 0.801455C60.1397 0.503685 60.5707 0.283216 61.032 0.152647C61.4932 0.0220791 61.9757 -0.0160237 62.4516 0.0405502C62.9288 0.0933197 63.3907 0.240594 63.8106 0.4738C64.2305 0.707007 64.6 1.0215 64.8976 1.39903C65.1951 1.77655 65.4149 2.20956 65.5441 2.67293C65.6733 3.13629 65.7093 3.62077 65.6501 4.09821C65.5552 4.98961 65.1346 5.81433 64.4694 6.41362C63.8041 7.0129 62.9412 7.34441 62.0467 7.34435V7.34435L61.6014 7.30377Z" fill="#FFAF00"/>
<path d="M58.0992 101.016C58.0484 100.625 58.076 100.227 58.1804 99.8473C58.2848 99.4672 58.4638 99.1117 58.707 98.8018C58.9502 98.4919 59.2528 98.2338 59.5968 98.0426C59.9409 97.8514 60.3196 97.731 60.7107 97.6884C61.4937 97.5964 62.2813 97.8175 62.9027 98.3036C63.5242 98.7897 63.9295 99.5017 64.0306 100.285V100.285C64.0787 100.677 64.0494 101.074 63.9441 101.455C63.8389 101.835 63.6599 102.191 63.4173 102.502C63.1748 102.813 62.8735 103.072 62.5306 103.267C62.1878 103.461 61.8101 103.585 61.4192 103.633H61.0548C60.3295 103.629 59.6303 103.362 59.0867 102.88C58.5432 102.399 58.1923 101.737 58.0992 101.016V101.016ZM39.1714 101.016C38.8038 100.878 38.4669 100.669 38.1802 100.401C37.8935 100.132 37.6626 99.8095 37.5007 99.4513C37.3389 99.093 37.2494 98.7062 37.2374 98.3131C37.2253 97.9201 37.2909 97.5285 37.4305 97.1609V97.1609C37.5654 96.7908 37.7726 96.4513 38.04 96.1625C38.3075 95.8736 38.6297 95.6412 38.9879 95.4787C39.3461 95.3162 39.733 95.227 40.126 95.2162C40.5191 95.2055 40.9103 95.2734 41.2768 95.4161V95.4161C41.6461 95.5513 41.9848 95.759 42.273 96.027C42.5612 96.295 42.7932 96.618 42.9553 96.977C43.1174 97.3359 43.2064 97.7237 43.2172 98.1176C43.2279 98.5115 43.1601 98.9035 43.0177 99.2708V99.2708C42.8033 99.839 42.4209 100.328 41.9217 100.672C41.4225 101.017 40.8302 101.2 40.2241 101.198V101.198C39.862 101.178 39.506 101.095 39.1714 100.955V101.016ZM78.2012 94.9292C77.7559 94.2744 77.5869 93.4699 77.731 92.6908C77.8751 91.9118 78.3206 91.2214 78.9704 90.7701V90.7701C79.2918 90.5455 79.6543 90.3867 80.0371 90.3029C80.4199 90.219 80.8154 90.2118 81.201 90.2815C81.5866 90.3513 81.9546 90.4966 82.284 90.7093C82.6134 90.9219 82.8976 91.1977 83.1204 91.5208C83.574 92.1745 83.75 92.9821 83.6095 93.7659C83.469 94.5497 83.0237 95.2454 82.3714 95.7001V95.7001C81.8677 96.0379 81.2768 96.2211 80.6709 96.2276C80.1821 96.2201 79.7023 96.0946 79.2723 95.8614C78.8423 95.6283 78.4749 95.2946 78.2012 94.8886V94.9292ZM20.7092 88.2543C20.4485 87.9587 20.2485 87.6144 20.1207 87.2412C19.9928 86.8681 19.9395 86.4733 19.964 86.0795C19.9884 85.6857 20.0901 85.3007 20.2631 84.9462C20.4361 84.5918 20.6772 84.275 20.9724 84.0141V84.0141C21.5646 83.4902 22.3392 83.2218 23.1277 83.2674C23.9163 83.313 24.655 83.6689 25.1831 84.2575V84.2575C25.445 84.5519 25.6465 84.8951 25.7761 85.2675C25.9056 85.64 25.9607 86.0343 25.9381 86.4281C25.9156 86.8218 25.8158 87.2073 25.6446 87.5624C25.4733 87.9175 25.234 88.2354 24.9402 88.4978V88.4978C24.3839 88.997 23.6625 89.2717 22.9158 89.2687V89.2687C22.4947 89.2582 22.0805 89.1588 21.7003 88.977C21.32 88.7953 20.9824 88.5352 20.7092 88.2137V88.2543ZM93.1815 80.139C92.4818 79.764 91.9578 79.1279 91.7228 78.3684C91.4879 77.6089 91.561 76.7872 91.9264 76.0813V76.0813C92.1097 75.7322 92.3598 75.4227 92.6626 75.1705C92.9653 74.9183 93.3146 74.7283 93.6906 74.6115C94.0666 74.4947 94.4619 74.4533 94.8539 74.4897C95.2459 74.526 95.6269 74.6394 95.9751 74.8234V74.8234C96.3235 75.0072 96.6323 75.2579 96.8839 75.5613C97.1356 75.8647 97.3251 76.2148 97.4417 76.5916C97.5582 76.9685 97.5995 77.3646 97.5632 77.7575C97.527 78.1503 97.4138 78.5321 97.2302 78.8811V78.8811C96.9785 79.3688 96.5982 79.778 96.1306 80.0641C95.663 80.3503 95.1261 80.5025 94.5783 80.5042C94.0875 80.4796 93.6092 80.3407 93.1815 80.0984V80.139ZM10.1825 68.3921C10.0856 68.011 10.0647 67.6145 10.1212 67.2254C10.1777 66.8363 10.3104 66.4622 10.5118 66.1247C10.7131 65.7871 10.979 65.4928 11.2942 65.2587C11.6095 65.0246 11.9678 64.8553 12.3486 64.7605V64.7605C12.7315 64.6633 13.1297 64.643 13.5204 64.7007C13.9111 64.7584 14.2866 64.8929 14.6252 65.0966C14.9639 65.3002 15.259 65.5689 15.4936 65.8873C15.7283 66.2056 15.8978 66.5673 15.9925 66.9516V66.9516C16.1754 67.7236 16.046 68.5368 15.6325 69.2135C15.2191 69.8901 14.5552 70.3753 13.7859 70.5629V70.5629C13.5507 70.5928 13.3126 70.5928 13.0774 70.5629V70.5629C12.4317 70.553 11.807 70.3314 11.2989 69.932C10.7908 69.5327 10.4271 68.9775 10.2635 68.3515L10.1825 68.3921ZM96.5014 57.0712C96.5014 56.2729 96.8164 55.5071 97.3777 54.9408C97.939 54.3744 98.701 54.0536 99.4975 54.0482V54.0482C99.8909 54.0482 100.281 54.1259 100.644 54.2768C101.008 54.4277 101.338 54.6489 101.616 54.9277C101.894 55.2065 102.115 55.5375 102.265 55.9018C102.416 56.2661 102.494 56.6566 102.494 57.0509V57.0509C102.494 57.8473 102.178 58.611 101.616 59.1741C101.054 59.7372 100.292 60.0536 99.4975 60.0536V60.0536C98.7135 60.0323 97.969 59.7039 97.424 59.1387C96.879 58.5735 96.5768 57.8166 96.5824 57.0306L96.5014 57.0712ZM12.3284 49.5442C11.9458 49.4517 11.5853 49.2839 11.2678 49.0507C10.9503 48.8176 10.6821 48.5236 10.4788 48.1858C10.2754 47.8481 10.1409 47.4732 10.0832 47.083C10.0254 46.6928 10.0454 46.295 10.1421 45.9126C10.3382 45.1438 10.8281 44.4832 11.5061 44.0732C12.184 43.6633 12.9956 43.537 13.7657 43.7215V43.7215C14.15 43.8078 14.5135 43.9692 14.8355 44.1964C15.1575 44.4237 15.4316 44.7124 15.6422 45.0459C15.8528 45.3794 15.9957 45.7513 16.0627 46.1402C16.1298 46.5291 16.1197 46.9275 16.033 47.3125V47.3125C15.8737 47.9498 15.5102 48.5172 14.9983 48.9277C14.4864 49.3381 13.8542 49.569 13.1988 49.5848V49.5848C12.9332 49.5937 12.6676 49.5664 12.4093 49.5036L12.3284 49.5442ZM91.7644 37.8987C91.5808 37.5497 91.4676 37.1679 91.4314 36.7751C91.3951 36.3822 91.4364 35.9861 91.553 35.6092C91.6695 35.2324 91.859 34.8823 92.1107 34.5789C92.3623 34.2755 92.6711 34.0248 93.0195 33.8411V33.8411C93.3671 33.6543 93.7483 33.5387 94.141 33.5009C94.5336 33.4632 94.9298 33.504 95.3065 33.621C95.6832 33.7381 96.033 33.929 96.3354 34.1827C96.6379 34.4364 96.887 34.7479 97.0682 35.0989V35.0989C97.2581 35.4455 97.3768 35.8266 97.4174 36.2199C97.458 36.6132 97.4196 37.0106 97.3045 37.3887C97.1894 37.7669 97 38.1181 96.7473 38.4218C96.4947 38.7254 96.1839 38.9752 95.8334 39.1566V39.1566C95.4054 39.393 94.9252 39.5185 94.4366 39.5218V39.5218C93.8954 39.5031 93.3693 39.3388 92.9134 39.046C92.4574 38.7533 92.0885 38.343 91.8454 37.8581L91.7644 37.8987ZM20.77 30.25C20.4738 29.9892 20.2323 29.6719 20.0595 29.3167C19.8868 28.9614 19.7861 28.5754 19.7635 28.1808C19.7409 27.7863 19.7968 27.3912 19.9279 27.0185C20.0589 26.6458 20.2626 26.3029 20.527 26.0098V26.0098C20.7857 25.7145 21.1 25.4734 21.4519 25.3002C21.8038 25.1271 22.1864 25.0254 22.5777 25.0008C22.969 24.9763 23.3612 25.0295 23.7319 25.1574C24.1026 25.2853 24.4444 25.4853 24.7377 25.746V25.746C25.033 26.007 25.274 26.3238 25.447 26.6782C25.6201 27.0326 25.7217 27.4177 25.7462 27.8115C25.7706 28.2053 25.7174 28.6001 25.5895 28.9732C25.4616 29.3464 25.2616 29.6906 25.0009 29.9863V29.9863C24.7187 30.3044 24.3727 30.5592 23.9855 30.734C23.5982 30.9088 23.1785 30.9997 22.7538 31.0007C22.0473 30.9656 21.3748 30.686 20.8509 30.2095L20.77 30.25ZM78.7477 23.2912C78.0966 22.8361 77.6506 22.1422 77.5066 21.3598C77.3626 20.5774 77.5322 19.7697 77.9785 19.1118V19.1118C78.4236 18.4844 79.0936 18.0539 79.8481 17.9102C80.6027 17.7665 81.3835 17.9208 82.0272 18.3408V18.3408C82.6803 18.789 83.1299 19.4779 83.2778 20.2572C83.4257 21.0364 83.26 21.8427 82.8167 22.4999V22.4999C82.5422 22.9021 82.1736 23.2307 81.743 23.4571C81.3125 23.6834 80.8332 23.8006 80.347 23.7984V23.7984C79.8013 23.7544 79.2772 23.5653 78.8287 23.2506L78.7477 23.2912ZM37.1876 17.0626C37.0475 16.6963 36.9809 16.306 36.9916 15.9138C37.0023 15.5217 37.0901 15.1355 37.2499 14.7775C37.4098 14.4194 37.6385 14.0964 37.9231 13.8271C38.2077 13.5578 38.5424 13.3473 38.9083 13.2079V13.2079C39.6493 12.9236 40.4725 12.9456 41.1973 13.2689C41.9222 13.5922 42.4895 14.1904 42.7748 14.9323V14.9323C43.0529 15.6753 43.0283 16.4981 42.7064 17.2231C42.3844 17.9481 41.791 18.5171 41.0541 18.8074V18.8074C40.7093 18.9285 40.3465 18.9902 39.9812 18.99C39.3849 18.9699 38.8082 18.7719 38.3249 18.4213C37.8416 18.0707 37.4738 17.5835 37.2685 17.0221L37.1876 17.0626ZM60.4677 16.3931C59.6786 16.3015 58.958 15.8996 58.4645 15.2756C57.9709 14.6516 57.7449 13.8568 57.8361 13.0658C57.8812 12.6749 58.0031 12.2968 58.1947 11.9534C58.3863 11.6099 58.6438 11.3078 58.9524 11.0645C59.261 10.8213 59.6146 10.6416 59.9928 10.5359C60.371 10.4302 60.7663 10.4005 61.156 10.4486V10.4486C61.545 10.4866 61.9225 10.6015 62.2668 10.7866C62.6111 10.9718 62.9154 11.2235 63.162 11.5273C63.4087 11.8311 63.5927 12.1808 63.7036 12.5564C63.8145 12.9319 63.8499 13.3257 63.8079 13.7151V13.7151C63.7239 14.4433 63.377 15.1156 62.8326 15.6051C62.2882 16.0947 61.5838 16.3678 60.8524 16.3728H60.5082L60.4677 16.3931Z" fill="#FFAF00"/>
<path d="M57.7348 92.6565C57.6527 92.0262 57.8178 91.3884 58.1954 90.8776C58.573 90.3667 59.1336 90.0226 59.7592 89.9176V89.9176C60.3979 89.8433 61.04 90.0257 61.5447 90.4251C62.0494 90.8244 62.3755 91.4079 62.4516 92.0478V92.0478C62.5277 92.6727 62.3593 93.3027 61.9819 93.8058C61.6045 94.3089 61.0473 94.646 60.4272 94.7462H60.1438C59.5596 94.7431 58.9957 94.5307 58.554 94.1475C58.1123 93.7643 57.8217 93.2355 57.7348 92.6565V92.6565ZM42.4104 92.6565C42.1134 92.544 41.8416 92.3738 41.6105 92.1556C41.3794 91.9375 41.1936 91.6757 41.0638 91.3854C40.934 91.095 40.8628 90.7818 40.8541 90.4638C40.8455 90.1457 40.8997 89.8291 41.0136 89.5321C41.2408 88.9308 41.6961 88.4439 42.2802 88.1779C42.8643 87.9118 43.5297 87.8881 44.1311 88.1119V88.1119C44.7278 88.3439 45.2101 88.8008 45.4749 89.3848C45.7398 89.9687 45.7661 90.6332 45.5482 91.2363V91.2363C45.373 91.6981 45.0629 92.0962 44.6584 92.3785C44.2539 92.6609 43.7738 92.8143 43.2809 92.8188C42.9468 92.8156 42.6167 92.7467 42.3092 92.6159L42.4104 92.6565ZM73.9298 87.7062C73.5621 87.1761 73.4195 86.5214 73.5334 85.8861C73.6473 85.2507 74.0083 84.6867 74.5371 84.318V84.318C75.0644 83.9559 75.7129 83.8168 76.342 83.9307C76.9711 84.0447 77.5299 84.4025 77.8975 84.9267V84.9267C78.2652 85.4567 78.4077 86.1114 78.2938 86.7467C78.1799 87.3821 77.8189 87.9461 77.2902 88.3148V88.3148C76.8843 88.5919 76.4047 88.7404 75.9136 88.7409C75.5235 88.7455 75.1383 88.6535 74.7922 88.473C74.4461 88.2925 74.1498 88.0291 73.9298 87.7062ZM27.3694 82.2892C26.9415 81.8095 26.7205 81.1796 26.7547 80.5372C26.7888 79.8947 27.0753 79.2919 27.5516 78.8604V78.8604C28.0328 78.4342 28.6628 78.2162 29.3039 78.2542C29.9451 78.2923 30.5451 78.5832 30.9727 79.0633V79.0633C31.4006 79.543 31.6216 80.1729 31.5874 80.8154C31.5533 81.4579 31.2668 82.0607 30.7905 82.4921V82.4921C30.3406 82.8824 29.7661 83.0983 29.1711 83.1008V83.1008C28.83 83.1048 28.4921 83.0342 28.1809 82.894C27.8698 82.7539 27.5928 82.5475 27.3694 82.2892V82.2892ZM86.0759 75.7158C85.5073 75.414 85.0813 74.8984 84.8916 74.2822C84.7018 73.666 84.7637 72.9996 85.0638 72.4291V72.4291C85.2109 72.1476 85.412 71.898 85.6556 71.6946C85.8992 71.4912 86.1804 71.338 86.4832 71.2437C86.786 71.1495 87.1044 71.1161 87.4201 71.1454C87.7358 71.1747 88.0426 71.2662 88.323 71.4147V71.4147C88.6056 71.5604 88.8566 71.7606 89.0616 72.004C89.2666 72.2473 89.4216 72.5289 89.5176 72.8325C89.6135 73.1361 89.6486 73.4558 89.6208 73.773C89.593 74.0903 89.5028 74.3989 89.3554 74.6811V74.6811C89.1487 75.0779 88.8376 75.4106 88.4558 75.643C88.074 75.8755 87.6361 75.9989 87.1893 75.9999V75.9999C86.8014 75.992 86.4204 75.8948 86.0759 75.7158ZM18.8873 66.2006C18.8089 65.8901 18.7929 65.5671 18.8403 65.2504C18.8877 64.9337 18.9975 64.6296 19.1633 64.3558C19.3291 64.082 19.5476 63.844 19.806 63.6557C20.0645 63.4673 20.3577 63.3324 20.6687 63.2588V63.2588C21.2911 63.1106 21.9466 63.2123 22.4951 63.5422C23.0436 63.872 23.4416 64.4038 23.6041 65.0238C23.7512 65.6503 23.6469 66.3097 23.3137 66.8599C22.9805 67.4102 22.4451 67.8072 21.8226 67.9656V67.9656H21.2356C20.7056 67.9684 20.1893 67.7974 19.7653 67.4788C19.3414 67.1601 19.033 66.7112 18.8873 66.2006V66.2006ZM88.8493 57.0302C88.8466 56.7115 88.907 56.3954 89.0268 56.1001C89.1467 55.8048 89.3237 55.5363 89.5477 55.31C89.7717 55.0836 90.0381 54.904 90.3317 54.7814C90.6253 54.6588 90.9402 54.5956 91.2583 54.5957V54.5957C91.5764 54.593 91.8918 54.6535 92.1864 54.7736C92.481 54.8937 92.749 55.0711 92.9748 55.2956C93.2007 55.52 93.3799 55.7871 93.5023 56.0813C93.6246 56.3756 93.6876 56.6912 93.6876 57.01V57.01C93.6876 57.3287 93.6246 57.6443 93.5023 57.9386C93.3799 58.2328 93.2007 58.4999 92.9748 58.7244C92.749 58.9488 92.481 59.1262 92.1864 59.2464C91.8918 59.3665 91.5764 59.427 91.2583 59.4243V59.4243C90.6229 59.4243 90.0132 59.1727 89.562 58.7243C89.1108 58.2759 88.8547 57.667 88.8493 57.0302V57.0302ZM20.6282 50.9437C20.0073 50.7899 19.472 50.3968 19.1385 49.8499C18.805 49.3029 18.7002 48.6462 18.8468 48.0223V48.0223C19.0001 47.3956 19.3954 46.8555 19.9458 46.5208C20.4962 46.186 21.1567 46.0839 21.7821 46.2369V46.2369C22.4046 46.3953 22.9401 46.7924 23.2733 47.3426C23.6065 47.8928 23.7107 48.5522 23.5636 49.1787C23.4329 49.7044 23.131 50.1715 22.7057 50.5059C22.2804 50.8403 21.7559 51.0229 21.2153 51.0249V51.0249C21.0157 51.0203 20.8179 50.9861 20.6282 50.9235V50.9437ZM85.003 41.5097C84.8542 41.2299 84.7617 40.9236 84.731 40.608C84.7003 40.2924 84.7319 39.9739 84.824 39.6706C84.9161 39.3673 85.0669 39.0851 85.2678 38.8402C85.4687 38.5953 85.7158 38.3925 85.995 38.2433V38.2433C86.5617 37.941 87.2248 37.876 87.8393 38.0622C88.4539 38.2485 88.9698 38.671 89.2744 39.2374V39.2374C89.576 39.8054 89.6409 40.47 89.4551 41.0859C89.2692 41.7017 88.8476 42.2188 88.2825 42.5241V42.5241C87.9288 42.7172 87.5313 42.8151 87.1286 42.8081C86.6873 42.8065 86.2551 42.6825 85.8799 42.4497C85.5047 42.2169 85.2012 41.8845 85.003 41.4894V41.5097ZM27.4908 35.4232C27.2498 35.2139 27.0527 34.9587 26.9108 34.6724C26.769 34.3861 26.6853 34.0745 26.6646 33.7555C26.6439 33.4365 26.6865 33.1166 26.7902 32.8143C26.8938 32.512 27.0562 32.2334 27.2682 31.9945C27.477 31.7529 27.7317 31.5553 28.0173 31.4132C28.303 31.271 28.614 31.1872 28.9322 31.1664C29.2505 31.1456 29.5697 31.1884 29.8713 31.2923C30.1729 31.3961 30.451 31.5589 30.6893 31.7713V31.7713C31.1685 32.1999 31.4587 32.8012 31.4967 33.4438C31.5346 34.0863 31.3171 34.7178 30.8918 35.2V35.2C30.6653 35.4615 30.3855 35.6711 30.0711 35.8146C29.7568 35.9582 29.4153 36.0322 29.0698 36.0319V36.0319C28.4696 35.9999 27.9045 35.7385 27.4908 35.3015V35.4232ZM74.4358 29.7831C73.9071 29.4144 73.5461 28.8504 73.4322 28.215C73.3183 27.5796 73.4609 26.925 73.8285 26.3949V26.3949C74.193 25.8675 74.7504 25.5055 75.3797 25.3878C76.0089 25.27 76.6592 25.4059 77.189 25.766V25.766C77.7152 26.1312 78.0764 26.6899 78.1939 27.3205C78.3114 27.9512 78.1758 28.6028 77.8165 29.1338V29.1338C77.596 29.4687 77.2951 29.7427 76.9414 29.9306C76.5876 30.1185 76.1925 30.2143 75.7922 30.2091V30.2091C75.298 30.1565 74.8283 29.9668 74.4358 29.6613V29.7831ZM40.7707 24.7516C40.5455 24.1485 40.5657 23.481 40.827 22.8928C41.0883 22.3045 41.5697 21.8427 42.1675 21.6069V21.6069C42.7688 21.3757 43.4371 21.3932 44.0256 21.6558C44.614 21.9183 45.0742 22.4042 45.3052 23.0068V23.0068C45.5304 23.6098 45.5102 24.2773 45.2489 24.8656C44.9876 25.4538 44.5062 25.9156 43.9084 26.1515V26.1515C43.6294 26.2541 43.3351 26.3089 43.038 26.3137V26.3137C42.5337 26.2988 42.046 26.1294 41.6407 25.8283C41.2353 25.5272 40.9317 25.109 40.7707 24.6298V24.7516ZM59.6377 24.2038C58.9978 24.1274 58.4137 23.8013 58.012 23.2962C57.6103 22.7911 57.4235 22.1477 57.4919 21.5054V21.5054C57.568 20.8655 57.8941 20.282 58.3988 19.8826C58.9035 19.4833 59.5456 19.3008 60.1843 19.3751V19.3751C60.5015 19.4103 60.8086 19.5083 61.0877 19.6635C61.3668 19.8186 61.6124 20.0277 61.8102 20.2788C62.008 20.5299 62.154 20.8178 62.2398 21.1259C62.3255 21.434 62.3494 21.7561 62.3099 22.0735V22.0735C62.2445 22.6652 61.9615 23.2112 61.5161 23.6051C61.0707 23.999 60.4948 24.2124 59.9009 24.2038H59.6377Z" fill="#FFAF00"/>
</g>
<defs>
<clipPath id="clip0_530_811">
<rect width="113" height="114" fill="white"/>
</clipPath>
</defs>
</svg>
