<svg width="18" height="18" viewBox="0 0 18 18" fill="none" xmlns="http://www.w3.org/2000/svg">
<g clip-path="url(#clip0_530_832)">
<path d="M10.5382 17.9998C14.6592 17.9998 18 14.659 18 10.538C18 6.41694 14.6592 3.07617 10.5382 3.07617C6.41712 3.07617 3.07635 6.41694 3.07635 10.538C3.07635 14.659 6.41712 17.9998 10.5382 17.9998Z" fill="#FF6B00"/>
<path d="M7.85452 15.3162C11.9756 15.3162 15.3163 11.9754 15.3163 7.8544C15.3163 3.73335 11.9756 0.392578 7.85452 0.392578C3.73347 0.392578 0.3927 3.73335 0.3927 7.8544C0.3927 11.9754 3.73347 15.3162 7.85452 15.3162Z" stroke="#010101" stroke-linecap="round" stroke-linejoin="round"/>
<path d="M7.85452 11.4544C9.84274 11.4544 11.4545 9.84262 11.4545 7.85439C11.4545 5.86617 9.84274 4.25439 7.85452 4.25439C5.86629 4.25439 4.25452 5.86617 4.25452 7.85439C4.25452 9.84262 5.86629 11.4544 7.85452 11.4544Z" stroke="#010101" stroke-linecap="round" stroke-linejoin="round"/>
</g>
<defs>
<clipPath id="clip0_530_832">
<rect width="18" height="18" fill="white"/>
</clipPath>
</defs>
</svg>
