<svg width="70" height="85" viewBox="0 0 70 85" fill="none" xmlns="http://www.w3.org/2000/svg">
<g clip-path="url(#clip0_530_302)">
<path d="M7.08363 63.9155V65.9381H2.3029V68.1667H6.85598V70.1892H2.3029V74.2318H0V63.9275L7.08363 63.9155Z" fill="#606060"/>
<path d="M10.5056 74.2321V63.9277H12.8085V72.1904H17.2058V74.2417L10.5056 74.2321Z" fill="#606060"/>
<path d="M28.7611 72.8085C27.7181 73.7889 26.3404 74.3348 24.9089 74.3348C23.4774 74.3348 22.0998 73.7889 21.0568 72.8085C20.0547 71.7974 19.4924 70.4314 19.4924 69.0078C19.4924 67.5843 20.0547 66.2183 21.0568 65.2072C22.0998 64.2267 23.4774 63.6809 24.9089 63.6809C26.3404 63.6809 27.7181 64.2267 28.7611 65.2072C29.7621 66.2189 30.3235 67.5846 30.3235 69.0078C30.3235 70.431 29.7621 71.7968 28.7611 72.8085ZM27.9775 69.015C27.9966 68.146 27.6799 67.3031 27.0932 66.6618C26.8196 66.3549 26.4842 66.1092 26.109 65.941C25.7338 65.7729 25.3273 65.6859 24.9161 65.6859C24.505 65.6859 24.0984 65.7729 23.7232 65.941C23.348 66.1092 23.0126 66.3549 22.739 66.6618C22.169 67.3118 21.8546 68.1469 21.8546 69.0114C21.8546 69.876 22.169 70.7111 22.739 71.3611C23.0144 71.665 23.3504 71.9079 23.7254 72.0741C24.1004 72.2404 24.506 72.3262 24.9161 72.3262C25.3263 72.3262 25.7319 72.2404 26.1069 72.0741C26.4818 71.9079 26.8178 71.665 27.0932 71.3611C27.6801 70.7227 27.997 69.8819 27.9775 69.015Z" fill="#606060"/>
<path d="M36.5612 69.8489L38.3921 63.9155H40.7884L42.6025 69.8489L44.6537 63.9155H47.1483L43.5538 74.2199H41.8428L39.5854 67.0476L37.3424 74.2199H35.6291L32.0345 63.9155H34.5339L36.5612 69.8489Z" fill="#606060"/>
<path d="M57.2993 63.9155V65.9596H52.1591V68.0852H56.7793V70.0478H52.1591V72.1901H57.4575V74.2271H49.8706V63.9227L57.2993 63.9155Z" fill="#606060"/>
<path d="M69.3506 67.3402C69.3506 68.9936 68.6964 70.0608 67.388 70.5417L70 74.2321H67.1675L64.879 70.9419H63.2902V74.2321H60.9897V63.9277H64.8982C66.4957 63.9277 67.6396 64.1985 68.3297 64.7401C69.0199 65.2817 69.3602 66.1484 69.3506 67.3402ZM66.5756 68.5647C66.86 68.3075 67.003 67.9017 67.0046 67.3473C67.0061 66.793 66.8584 66.4104 66.5612 66.1995C66.2657 65.9934 65.7497 65.8904 65.0132 65.8904H63.2902V68.9433H64.9676C65.756 68.9481 66.2904 68.8211 66.5756 68.5647Z" fill="#606060"/>
<path d="M11.2197 83.101V77.7979H11.7685V83.101H11.2197Z" fill="#606060"/>
<path d="M16.439 83.1009H15.8807V82.255C15.641 82.8421 15.1306 83.1201 14.4429 83.1273C13.5634 83.1273 13.0338 82.5689 13.0338 81.6631V79.3386H13.5921V81.5121C13.577 81.6534 13.5934 81.7962 13.6402 81.9304C13.687 82.0645 13.763 82.1865 13.8628 82.2877C13.9625 82.3888 14.0835 82.4665 14.217 82.5152C14.3505 82.5638 14.4931 82.5822 14.6346 82.5689C15.4134 82.5569 15.8711 81.9914 15.8711 81.191V79.3386H16.4294L16.439 83.1009Z" fill="#606060"/>
<path d="M20.0192 79.3337H20.635L19.3769 81.1646L20.7285 83.1008H20.0767L19.0055 81.5647L17.896 83.1008H17.2801L18.6533 81.1646L17.3736 79.3337H17.999L19.0007 80.7716L20.0192 79.3337Z" fill="#606060"/>
<path d="M24.8454 83.1009H24.2871V82.255C24.0474 82.8421 23.537 83.1201 22.8493 83.1273C21.9698 83.1273 21.4402 82.5689 21.4402 81.6631V79.3386H21.9986V81.5121C21.9834 81.6534 21.9998 81.7962 22.0466 81.9304C22.0934 82.0645 22.1694 82.1865 22.2692 82.2877C22.369 82.3888 22.49 82.4665 22.6234 82.5152C22.7569 82.5638 22.8995 82.5822 23.041 82.5689C23.8198 82.5569 24.2775 81.9914 24.2775 81.191V79.3386H24.8359L24.8454 83.1009Z" fill="#606060"/>
<path d="M26.7601 80.1702C26.8718 79.907 27.0608 79.6839 27.3022 79.5307C27.5436 79.3775 27.826 79.3013 28.1117 79.3123V79.8779C27.9415 79.8641 27.7704 79.8853 27.6087 79.9402C27.4471 79.995 27.2984 80.0824 27.1718 80.1969C27.0452 80.3114 26.9433 80.4505 26.8726 80.6059C26.8018 80.7612 26.7635 80.9293 26.7601 81.1V83.101H26.2042V79.3339H26.7601V80.1702Z" fill="#606060"/>
<path d="M30.2636 83.6376C30.024 84.2175 29.6358 84.5171 29.1349 84.5171C28.8456 84.5232 28.5639 84.4245 28.3417 84.2391L28.5814 83.7742C28.7347 83.8879 28.9201 83.95 29.1109 83.9515C29.2657 83.9455 29.4148 83.8915 29.5376 83.797C29.6603 83.7026 29.7508 83.5724 29.7963 83.4243L29.9545 83.0721L28.3968 79.3337H28.9815L30.2324 82.449L31.4306 79.3337H32.0034L30.2636 83.6376Z" fill="#606060"/>
<path d="M36.8128 79.655L36.5972 80.0983C36.291 79.9054 35.9381 79.7994 35.5763 79.7916C35.1546 79.7916 34.8311 79.9426 34.8311 80.2924C34.8311 81.1288 36.9327 80.6998 36.9327 82.0514C36.9327 82.7942 36.2761 83.1225 35.5548 83.1225C35.0262 83.1316 34.5133 82.9427 34.1169 82.5929L34.3326 82.1712C34.6775 82.4777 35.1222 82.648 35.5835 82.6504C36.0268 82.6504 36.3839 82.4875 36.3911 82.1161C36.4127 81.2078 34.3039 81.6727 34.311 80.3356C34.311 79.6167 34.9317 79.3123 35.6195 79.3123C36.042 79.309 36.4564 79.4281 36.8128 79.655Z" fill="#606060"/>
<path d="M39.0271 83.6376C38.7874 84.2175 38.3992 84.5171 37.8984 84.5171C37.6091 84.5232 37.3274 84.4245 37.1052 84.2391L37.3448 83.7742C37.4983 83.8876 37.6836 83.9497 37.8744 83.9515C38.0294 83.9453 38.1787 83.8912 38.3018 83.7969C38.4249 83.7025 38.5159 83.5724 38.5622 83.4243L38.718 83.0721L37.1603 79.3337H37.745L38.9983 82.449L40.1965 79.3337H40.7644L39.0271 83.6376Z" fill="#606060"/>
<path d="M47.6995 80.7789V83.101H47.1411V80.9275C47.1411 80.2565 46.7482 79.8635 46.0987 79.8635C45.3199 79.8851 44.8694 80.4434 44.8694 81.251V83.101H44.3039V80.9275C44.3039 80.2565 43.9181 79.8635 43.2591 79.8635C42.4874 79.8851 42.0225 80.4434 42.0225 81.251V83.101H41.4834V79.3339H42.0321V80.1846C42.2837 79.5999 42.7918 79.3195 43.4699 79.3124C44.1481 79.3052 44.6681 79.6766 44.8215 80.2997C45.0611 79.6335 45.5859 79.3195 46.3072 79.3124C47.1771 79.3124 47.6995 79.8707 47.6995 80.7789Z" fill="#606060"/>
<path d="M52.7894 81.2294C52.7894 82.3437 52.0705 83.1226 50.9945 83.1226C50.6971 83.1367 50.4017 83.0664 50.1426 82.9196C49.8834 82.7729 49.6712 82.5558 49.5303 82.2934V83.101H48.972V77.7979H49.5303V80.1487C49.6678 79.8861 49.8771 79.6681 50.1338 79.52C50.3905 79.3719 50.684 79.2999 50.9801 79.3124C52.0465 79.3124 52.7894 80.0984 52.7894 81.2294ZM52.2238 81.2151C52.2135 80.9511 52.1257 80.696 51.9715 80.4815C51.8173 80.267 51.6034 80.1026 51.3564 80.0088C51.1095 79.915 50.8404 79.8959 50.5826 79.9538C50.3249 80.0118 50.0899 80.1443 49.9069 80.3348C49.7239 80.5253 49.6009 80.7654 49.5534 81.0253C49.5058 81.2852 49.5357 81.5533 49.6394 81.7963C49.743 82.0392 49.9159 82.2464 50.1364 82.3919C50.3569 82.5374 50.6153 82.6148 50.8795 82.6145C51.0615 82.6175 51.2422 82.5828 51.4103 82.5128C51.5784 82.4428 51.7303 82.3389 51.8564 82.2076C51.9826 82.0762 52.0803 81.9203 52.1435 81.7496C52.2067 81.5788 52.2341 81.3969 52.2238 81.2151Z" fill="#606060"/>
<path d="M57.2083 81.2149C57.2125 81.5949 57.1037 81.9677 56.8957 82.2858C56.6877 82.6038 56.3898 82.8529 56.0399 83.0013C55.69 83.1497 55.3038 83.1908 54.9306 83.1193C54.5573 83.0478 54.2137 82.8669 53.9434 82.5997C53.6731 82.3324 53.4884 81.9909 53.4127 81.6184C53.3369 81.246 53.3736 80.8594 53.518 80.5079C53.6625 80.1563 53.9082 79.8556 54.2239 79.644C54.5396 79.4324 54.9111 79.3194 55.2912 79.3194C55.5444 79.3069 55.7974 79.3472 56.0342 79.4378C56.271 79.5283 56.4864 79.6671 56.6667 79.8454C56.847 80.0236 56.9882 80.2374 57.0815 80.4732C57.1747 80.709 57.2179 80.9615 57.2083 81.2149ZM53.9468 81.2149C53.9553 81.4802 54.0417 81.7371 54.1953 81.9536C54.3488 82.1702 54.5627 82.3367 54.8103 82.4324C55.0579 82.5281 55.3282 82.5488 55.5875 82.4918C55.8468 82.4349 56.0835 82.3029 56.2683 82.1123C56.453 81.9217 56.5775 81.6809 56.6262 81.4199C56.675 81.159 56.6458 80.8895 56.5424 80.6451C56.4389 80.4006 56.2658 80.192 56.0446 80.0453C55.8233 79.8986 55.5638 79.8203 55.2984 79.8202C55.115 79.8148 54.9325 79.8478 54.7626 79.917C54.5927 79.9862 54.4391 80.09 54.3117 80.222C54.1842 80.354 54.0857 80.5111 54.0225 80.6833C53.9593 80.8555 53.9327 81.039 53.9444 81.2221L53.9468 81.2149Z" fill="#606060"/>
<path d="M58.2219 83.101V77.7979H58.7802V83.101H58.2219Z" fill="#606060"/>
<path d="M61.0808 11.4379C57.213 13.0746 53.9228 14.3518 50.5368 16.4415C50.4433 17.9919 50.405 19.3171 50.3978 20.4721C51.8559 19.4382 53.3872 18.5116 54.9796 17.6995C53.4316 22.2239 53.5586 27.4096 53.6832 32.4659C53.8174 37.9775 53.8869 40.925 52.0633 44.9917C48.2794 53.4412 41.0832 55.5069 39.6286 56.1779C52.3125 55.1714 57.757 48.186 56.9471 31.2989C56.3839 19.6718 58.0901 15.979 61.0808 11.4379Z" fill="#606060"/>
<path d="M47.9319 14.7232C48.4855 8.87371 49.4896 7.38318 51.1023 3.64965C48.2099 5.08747 44.4908 6.69302 40.9585 9.8011C39.19 7.96309 35.5667 3.79583 34.9988 0C34.4333 3.79583 30.8076 7.96309 29.0415 9.8011C25.5068 6.68584 21.7877 5.08986 18.8977 3.64965C20.7644 7.97508 21.8188 9.29307 22.3005 17.8672C22.3005 18.047 22.3221 18.2075 22.3293 18.392C17.8601 15.0371 13.8581 13.5322 8.92164 11.4426C11.9123 15.9957 13.6185 19.6765 13.0625 31.3036C12.2478 48.186 17.6947 55.1761 30.3786 56.1778C28.924 55.5068 21.7278 53.4412 17.9439 44.9916C16.1203 40.9178 16.1898 37.9847 16.324 32.4659C16.4486 27.4095 16.5636 22.2238 15.0252 17.6995C17.71 19.0462 20.2074 20.738 22.4539 22.7318C22.4771 24.8557 22.3899 26.9794 22.1927 29.0942C20.9945 42.89 24.5507 46.2569 30.5943 49.6358C34.6178 41.2221 34.2487 33.7743 30.0312 26.7793C29.5322 25.9582 28.9882 25.1654 28.4016 24.4045C28.4265 26.2818 28.2983 28.158 28.0182 30.0144C31.3444 36.844 30.7788 44.3134 29.7604 47.2897C24.2248 43.0266 25.1138 35.2792 25.4469 29.3817C25.5595 27.3329 25.7632 22.7103 25.5667 17.7953C25.4498 15.386 25.1922 12.9856 24.7951 10.6063C31.0568 15.1114 32.8637 20.3019 35.0084 25.6602C37.0261 20.6278 38.8066 15.2145 45.2097 10.6063C44.6346 13.8198 44.3734 17.7954 44.3063 21.3132C42.642 22.9548 41.1868 24.7955 39.9736 26.7937C35.7561 33.7886 35.387 41.2365 39.4081 49.6501C45.4541 46.2713 49.0079 42.9044 47.8121 29.1086C47.3712 24.0067 47.5893 18.313 47.9319 14.7232ZM36.4031 15.0156C35.9478 15.6985 35.0252 17.2634 34.9988 17.3065C34.9748 17.2634 34.0978 15.7728 33.6664 15.121C32.9481 14.0344 32.152 13.0013 31.2844 12.0297C32.6387 10.4706 33.8799 8.81696 34.9988 7.08124C36.209 8.8162 37.4575 10.6231 38.6892 12.0561C37.8601 12.989 37.0963 13.9778 36.4031 15.0156ZM40.2372 47.2777C39.0223 43.7287 38.4352 33.791 44.3374 26.1682C44.3877 27.4527 44.4452 28.1045 44.5531 29.3698C45.0419 34.9724 45.7752 43.0146 40.2396 47.2682L40.2372 47.2777Z" fill="#606060"/>
</g>
<defs>
<clipPath id="clip0_530_302">
<rect width="70" height="84.5171" fill="white"/>
</clipPath>
</defs>
</svg>
