<svg width="69" height="70" viewBox="0 0 69 70" fill="none" xmlns="http://www.w3.org/2000/svg">
<g clip-path="url(#clip0_530_253)">
<path d="M2.07104 52.8963V55.3606C2.30484 54.9599 2.64102 54.6305 3.0442 54.4069C3.4564 54.1906 3.91627 54.0843 4.38035 54.098C4.83769 54.0918 5.2897 54.1979 5.6977 54.4072C6.1057 54.6164 6.45753 54.9227 6.72307 55.2998C7.33027 56.1009 7.63462 57.1388 7.63611 58.4134C7.63759 59.6881 7.33324 60.7252 6.72307 61.5248C6.40485 61.925 5.97613 62.2201 5.49158 62.3726C4.99582 62.5427 4.47625 62.631 3.95278 62.6341C2.99696 62.6387 2.05895 62.3724 1.24484 61.8653C0.411975 61.3512 -0.00445557 60.3644 -0.00445557 58.9049V51.8479H1.03106C1.30516 51.8497 1.56753 51.9607 1.76135 52.1569C1.95517 52.3532 2.06483 52.6188 2.06658 52.8963H2.07104ZM5.54057 58.321C5.54057 57.58 5.39211 57.0043 5.09519 56.5939C4.95784 56.3886 4.77155 56.2217 4.55357 56.1086C4.33559 55.9954 4.09295 55.9398 3.84811 55.9468C3.59673 55.9328 3.34579 55.9816 3.11743 56.0889C2.88907 56.1963 2.69032 56.3589 2.53869 56.5624C2.20862 57.0858 2.04895 57.7009 2.08217 58.321C2.08217 59.1823 2.22246 59.8091 2.50751 60.1991C2.64828 60.4077 2.8389 60.5769 3.06162 60.6908C3.28435 60.8047 3.53193 60.8597 3.78131 60.8507C4.03576 60.8635 4.28927 60.8108 4.51822 60.6977C4.74717 60.5845 4.94413 60.4146 5.09074 60.2036C5.39211 59.7707 5.54206 59.1432 5.54057 58.321Z" fill="#606060"/>
<path d="M8.31753 62.4808V58.5059C8.29692 57.8125 8.41588 57.1221 8.66716 56.4767C8.87627 55.967 9.20587 55.5172 9.62696 55.1668C10.0285 54.851 10.4891 54.6209 10.9809 54.4904C11.5015 54.3428 12.0393 54.2669 12.5799 54.2649H12.8849V56.4519H12.1835C11.5896 56.4519 11.1531 56.5962 10.874 56.8848C10.5912 57.1711 10.4487 57.6243 10.4487 58.2376V62.4605L8.31753 62.4808Z" fill="#606060"/>
<path d="M18.5836 62.1404C18.1628 62.3658 17.7032 62.5074 17.2297 62.5575C16.8097 62.6056 16.3874 62.6312 15.9648 62.6341C15.2786 62.6477 14.6064 62.4374 14.0474 62.0344C13.4996 61.6331 13.2256 60.9702 13.2256 60.0458C13.2256 59.183 13.4743 58.5667 13.9717 58.197C14.5386 57.803 15.1909 57.5532 15.8735 57.4687C15.9965 57.4662 16.1189 57.4503 16.2387 57.4214C16.3812 57.3921 16.5438 57.365 16.7264 57.3447C17.6171 57.2215 18.0625 56.9547 18.0625 56.5443C18.0686 56.4032 18.0243 56.2646 17.9375 56.154C17.8508 56.0434 17.7275 55.9683 17.5904 55.9423C17.3087 55.8554 17.0163 55.8091 16.7219 55.8048C16.463 55.8007 16.2054 55.8419 15.9603 55.9265C15.8523 55.9655 15.7533 56.0266 15.6698 56.1062C15.5862 56.1857 15.5199 56.2819 15.4748 56.3887H13.435C13.5035 55.7697 13.8099 55.2028 14.2879 54.8105C14.8357 54.34 15.6166 54.104 16.6306 54.1025C17.7663 54.1025 18.6185 54.2979 19.1871 54.6887C19.4702 54.8737 19.7011 55.1299 19.8572 55.4322C20.0133 55.7345 20.0894 56.0726 20.0779 56.4136V59.2183C20.0779 60.039 19.9294 60.6808 19.6325 61.1438C19.3783 61.5659 19.0158 61.9103 18.5836 62.1404ZM18.0959 58.3503C17.716 58.5277 17.3179 58.6623 16.909 58.7516L16.2097 58.9049C15.9167 58.9701 15.6443 59.108 15.4169 59.3063C15.2843 59.5068 15.211 59.7414 15.2054 59.9827C15.1991 60.1183 15.2202 60.2538 15.2673 60.3809C15.3143 60.5081 15.3865 60.6242 15.4793 60.7222C15.7037 60.9004 15.9854 60.988 16.2698 60.9679C16.5151 60.99 16.7622 60.9574 16.9937 60.8723C17.2251 60.7872 17.4353 60.6517 17.6094 60.4754C17.7836 60.2991 17.9174 60.0863 18.0014 59.8519C18.0855 59.6176 18.1177 59.3675 18.0959 59.1191V58.3503Z" fill="#606060"/>
<path d="M20.8729 51.8794H21.9708C22.2448 51.8794 22.5077 51.9896 22.7014 52.1858C22.8952 52.382 23.0041 52.6481 23.0041 52.9256V53.5726H20.8729V51.8794ZM20.8729 54.2828H21.9708C22.2449 54.284 22.5073 54.395 22.7009 54.5914C22.8945 54.7878 23.0035 55.0538 23.0041 55.3313V62.4807H20.8729V54.2828Z" fill="#606060"/>
<path d="M30.9163 62.4805H29.8496C29.712 62.4869 29.5745 62.4642 29.446 62.4138C29.3175 62.3634 29.2008 62.2864 29.1033 62.1877C29.0059 62.089 28.9298 61.9709 28.88 61.8408C28.8302 61.7107 28.8078 61.5715 28.8141 61.4321V57.243C28.8309 57.0403 28.7992 56.8365 28.7217 56.6489C28.6442 56.4613 28.5231 56.2954 28.3687 56.1652C28.0882 55.9435 27.7426 55.8229 27.3867 55.8225C27.0332 55.819 26.6894 55.9392 26.4135 56.163C26.2628 56.2959 26.1453 56.4631 26.0706 56.6508C25.9959 56.8385 25.9661 57.0414 25.9837 57.243V62.4828H23.8525V57.6714C23.8525 56.2765 24.2133 55.3423 24.9348 54.8688C25.6477 54.3976 26.4736 54.1311 27.3243 54.0977C28.1957 54.0926 29.0506 54.3381 29.7895 54.8057C30.5407 55.2792 30.9163 56.2344 30.9163 57.6714V62.4805Z" fill="#606060"/>
<path d="M31.3795 59.7683H33.4483C33.4457 59.947 33.4847 60.1238 33.5621 60.2843C33.6394 60.4449 33.7531 60.5848 33.8937 60.6927C34.2608 60.915 34.6846 61.0225 35.1119 61.0016C35.4403 61.0076 35.7649 60.9301 36.0561 60.7761C36.1649 60.7227 36.2568 60.6394 36.3214 60.5358C36.3859 60.4322 36.4205 60.3124 36.4213 60.1899C36.4213 59.8202 35.9952 59.5429 35.143 59.358C34.8649 59.3176 34.5902 59.2558 34.3213 59.1731C33.2464 58.907 32.5257 58.5891 32.159 58.2194C31.957 58.0324 31.7979 57.8028 31.6929 57.5469C31.5878 57.291 31.5394 57.0149 31.551 56.7381C31.5453 56.3674 31.6224 56.0003 31.7767 55.6641C31.9309 55.3279 32.1583 55.0314 32.4418 54.7968C33.052 54.3264 33.844 54.0904 34.8179 54.0889C35.872 54.0889 36.7138 54.3248 37.3432 54.7968C37.631 55.0449 37.8638 55.3517 38.0265 55.6971C38.1892 56.0424 38.2781 56.4187 38.2874 56.8012H36.978C36.7957 56.8077 36.6153 56.7618 36.4577 56.6688C36.3001 56.5759 36.1716 56.4396 36.0872 56.2759C36.0049 56.1947 35.9225 56.1135 35.8423 56.0301C35.5463 55.8293 35.1936 55.7319 34.8379 55.7528C34.5229 55.7325 34.208 55.7962 33.9249 55.9377C33.8355 55.998 33.7632 56.0809 33.7152 56.1781C33.6671 56.2754 33.645 56.3837 33.651 56.4923C33.651 56.8215 34.1788 57.0988 35.2343 57.3243C35.3568 57.3649 35.457 57.3964 35.5528 57.4167C35.6375 57.4365 35.7241 57.4471 35.8111 57.4483C36.8503 57.7143 37.5711 58.0225 37.9735 58.3727C38.1676 58.5639 38.3195 58.7946 38.4193 59.0495C38.5191 59.3044 38.5645 59.5778 38.5525 59.8517C38.5722 60.2551 38.4935 60.6572 38.3234 61.0225C38.1533 61.3878 37.897 61.7051 37.5771 61.9463C36.9684 62.3972 36.0553 62.6227 34.8379 62.6227C33.6829 62.6227 32.8204 62.3867 32.2503 61.9147C31.6802 61.4428 31.3833 60.7543 31.3595 59.8495L31.3795 59.7683Z" fill="#606060"/>
<path d="M42.5787 62.4807C41.8536 62.5214 41.1266 62.5108 40.403 62.4492C39.6221 62.3891 39.2316 61.8855 39.2316 60.9386V51.8794H40.3273C40.4583 51.8796 40.5879 51.9069 40.7082 51.9596C40.8284 52.0124 40.9367 52.0894 41.0265 52.186C41.1243 52.2819 41.2018 52.3969 41.2542 52.524C41.3067 52.6511 41.333 52.7878 41.3316 52.9256V54.3122H42.5787V54.7451C42.5834 54.8856 42.5586 55.0256 42.506 55.1558C42.4534 55.286 42.3742 55.4034 42.2736 55.5004C42.0781 55.6923 41.8154 55.7977 41.5432 55.7935H41.3316V60.3546C41.3316 60.7041 41.5343 60.8777 41.9396 60.8777H42.5787V62.4807Z" fill="#606060"/>
<path d="M44.0885 61.7525C43.646 61.3557 43.3285 60.8358 43.1755 60.2577C42.9916 59.6221 42.8993 58.963 42.9016 58.3007C42.9001 57.7383 42.9751 57.1784 43.1243 56.6367C43.2535 56.1248 43.4982 55.6502 43.8391 55.2501C44.3579 54.6371 45.0867 54.2456 45.879 54.1544C46.6344 54.035 47.4072 54.1039 48.1304 54.355C48.8821 54.6464 49.4933 55.2208 49.8362 55.9581C50.1933 56.6963 50.3704 57.5104 50.3529 58.3322C50.3611 58.9047 50.2861 59.4752 50.1302 60.0255C50.0113 60.4528 49.8264 60.8584 49.5823 61.2272C49.1451 61.872 48.4819 62.3242 47.7273 62.4921C47.0667 62.6771 46.371 62.6926 45.7031 62.5372C45.1072 62.4205 44.5511 62.1503 44.0885 61.7525ZM45.5494 56.3279C45.1248 56.8013 44.9325 57.5048 44.9726 58.4382C45.0127 59.3716 45.1849 60.024 45.4893 60.3952C45.659 60.5928 45.8806 60.7374 46.1284 60.8124C46.4262 60.9252 46.7524 60.9363 47.057 60.8439C47.4091 60.7211 47.7061 60.4748 47.8943 60.1495C48.1363 59.7797 48.2677 59.1837 48.2885 58.3616C48.2885 57.622 48.172 57.0674 47.9389 56.6976C47.7608 56.373 47.4754 56.1223 47.1327 55.9897C46.8377 55.8865 46.518 55.881 46.2197 55.9739C45.9684 56.0303 45.7345 56.1479 45.5383 56.3166L45.5494 56.3279Z" fill="#606060"/>
<path d="M50.992 62.4808V58.5059C50.9709 57.8122 51.0907 57.1216 51.3438 56.4767C51.5513 55.9667 51.8803 55.5167 52.3014 55.1668C52.703 54.851 53.1636 54.6209 53.6554 54.4904C54.1759 54.3428 54.7137 54.2669 55.2543 54.2649H55.5594V56.4519H54.8579C54.2641 56.4519 53.8283 56.5962 53.5507 56.8848C53.2657 57.1711 53.1231 57.6243 53.1231 58.2376V62.4605L50.992 62.4808Z" fill="#606060"/>
<path d="M63.1488 62.4808H61.0465V57.2432C61.0634 57.0406 61.0316 56.8368 60.9541 56.6492C60.8766 56.4616 60.7555 56.2957 60.6012 56.1655C60.3185 55.9432 59.9703 55.8233 59.6124 55.8251C59.2589 55.8215 58.9151 55.9418 58.6392 56.1655C58.4893 56.2984 58.3724 56.4653 58.2981 56.6526C58.2238 56.8398 58.1942 57.0422 58.2117 57.2432V62.483H56.0805V57.6716C56.0805 56.2767 56.4413 55.3426 57.1628 54.8691C57.8757 54.3978 58.7015 54.1313 59.5523 54.098C60.013 54.0979 60.4723 54.1493 60.9218 54.2513C61.3702 54.3556 61.7872 54.5675 62.1377 54.8691C62.4502 54.597 62.8206 54.4018 63.22 54.2987C63.6428 54.1843 64.0766 54.117 64.5138 54.098C65.3853 54.0922 66.2404 54.3378 66.9791 54.806C67.7303 55.2794 68.1059 56.2347 68.1059 57.6716V62.4808H67.0392C66.9016 62.4872 66.7642 62.4645 66.6358 62.4141C66.5074 62.3636 66.3909 62.2866 66.2936 62.1879C66.1963 62.0892 66.1205 61.971 66.0709 61.8409C66.0214 61.7108 65.9992 61.5716 66.0059 61.4324V57.2432C66.0227 57.0406 65.991 56.8368 65.9135 56.6492C65.8359 56.4616 65.7148 56.2957 65.5605 56.1655C65.2771 55.9447 64.9294 55.8249 64.5718 55.8249C64.2141 55.8249 63.8664 55.9447 63.583 56.1655C63.4287 56.2957 63.3076 56.4616 63.2301 56.6492C63.1525 56.8368 63.1208 57.0406 63.1376 57.2432V62.483L63.1488 62.4808Z" fill="#606060"/>
<path d="M12.2703 66.7737L13.0654 69.4657H13.0765L13.8337 66.7737H14.2612L15.0184 69.4657H15.0317L15.8245 66.7737H16.2276L15.2299 69.9144H14.8157L14.0519 67.2742H14.0385L13.2814 69.9144H12.8672L11.8695 66.7737H12.2703Z" fill="#606060"/>
<path d="M17.0092 65.5696V67.3147H17.0225C17.0962 67.1248 17.2312 66.9659 17.4056 66.8638C17.5874 66.7477 17.7986 66.6874 18.0135 66.6901C18.1983 66.6841 18.3826 66.7132 18.5569 66.7758C18.6924 66.8237 18.8136 66.906 18.9087 67.0148C19.001 67.1244 19.0652 67.2552 19.0958 67.3958C19.1331 67.5615 19.151 67.731 19.1493 67.9009V69.9301H18.7707V67.9708C18.7718 67.8451 18.7599 67.7197 18.7351 67.5965C18.7135 67.4881 18.6703 67.3853 18.6081 67.2944C18.5458 67.2073 18.4621 67.1382 18.3654 67.0937C18.2443 67.0423 18.1137 67.0177 17.9824 67.0216C17.8431 67.019 17.7049 67.0467 17.5771 67.1027C17.4625 67.1561 17.3602 67.2328 17.2764 67.3282C17.192 67.4285 17.127 67.544 17.0849 67.6687C17.0374 67.8073 17.0118 67.9526 17.0092 68.0993V69.9301H16.6306V65.5696H17.0092Z" fill="#606060"/>
<path d="M20.1447 68.8773C20.1807 69.0205 20.2427 69.1558 20.3273 69.2763C20.4137 69.3948 20.5227 69.4945 20.648 69.5694C20.7885 69.6493 20.9478 69.689 21.1089 69.6844C21.3462 69.6962 21.5789 69.6155 21.7592 69.4589C21.9222 69.3002 22.0353 69.0963 22.0843 68.8727H22.4629C22.4047 69.19 22.2488 69.4804 22.0175 69.7025C21.7605 69.9112 21.4356 70.015 21.1067 69.9933C20.8923 69.9998 20.6792 69.9574 20.4832 69.8693C20.3077 69.789 20.1546 69.6658 20.0378 69.5108C19.9218 69.352 19.8371 69.1722 19.7884 68.981C19.7322 68.7739 19.7045 68.5599 19.706 68.3452C19.7054 68.1393 19.7331 67.9345 19.7884 67.7364C19.8378 67.5448 19.9224 67.3642 20.0378 67.2043C20.1537 67.0433 20.3065 66.9133 20.4832 66.8255C20.6793 66.7264 20.8965 66.6776 21.1156 66.6835C21.3255 66.6745 21.5341 66.7204 21.7213 66.8168C21.9085 66.9131 22.0681 67.0567 22.1846 67.2336C22.2974 67.4057 22.3774 67.5976 22.4206 67.7995C22.4694 68.0122 22.4897 68.2307 22.4807 68.4489H20.0868C20.0882 68.5936 20.1076 68.7375 20.1447 68.8773ZM22.0198 67.7048C21.977 67.5752 21.9114 67.4545 21.826 67.3486C21.7413 67.2456 21.6368 67.1612 21.5187 67.1006C21.3917 67.0358 21.2511 67.0033 21.1089 67.0059C20.9654 67.0032 20.8233 67.0357 20.6947 67.1006C20.5767 67.1612 20.4721 67.2456 20.3874 67.3486C20.3012 67.4567 20.2335 67.5786 20.187 67.7093C20.1372 67.8438 20.1035 67.9838 20.0868 68.1265H22.091C22.0888 67.983 22.0648 67.8408 22.0198 67.7048Z" fill="#606060"/>
<path d="M23.3337 66.7735V67.5108H23.347C23.4282 67.267 23.5877 67.0578 23.7999 66.9164C24.0122 66.775 24.2651 66.7096 24.5184 66.7307V67.114C24.3594 67.1049 24.2003 67.1287 24.0507 67.1839C23.9154 67.2338 23.7913 67.3104 23.6855 67.4093C23.5827 67.5123 23.5023 67.636 23.4495 67.7723C23.3933 67.9159 23.3646 68.0689 23.3648 68.2232V69.8962H22.9863V66.7735H23.3337Z" fill="#606060"/>
<path d="M25.0506 68.8772C25.0865 69.0209 25.1492 69.1564 25.2354 69.2762C25.3204 69.3952 25.4289 69.495 25.5539 69.5693C25.6951 69.6496 25.8552 69.6893 26.0171 69.6843C26.2536 69.6958 26.4855 69.6151 26.6651 69.4589C26.8281 69.3001 26.9412 69.0962 26.9903 68.8726H27.3688C27.3099 69.1896 27.1541 69.4798 26.9235 69.7024C26.6656 69.9096 26.3413 70.0132 26.0126 69.9932C25.796 70.0006 25.5805 69.9582 25.3824 69.8692C25.2073 69.7883 25.0544 69.6652 24.937 69.5107C24.8219 69.3514 24.7373 69.1717 24.6876 68.9809C24.6333 68.7734 24.6064 68.5596 24.6075 68.3451C24.6072 68.1394 24.6342 67.9347 24.6876 67.7363C24.7383 67.5451 24.8228 67.3648 24.937 67.2042C25.0534 67.0437 25.2062 66.9138 25.3824 66.8254C25.5794 66.7264 25.7973 66.6776 26.0171 66.6834C26.2266 66.6748 26.4347 66.7209 26.6215 66.8172C26.8083 66.9136 26.9675 67.0569 27.0838 67.2335C27.1965 67.406 27.2772 67.5977 27.3221 67.7994C27.3687 68.0125 27.3889 68.2306 27.3822 68.4488H24.9949C24.9955 68.5934 25.0142 68.7373 25.0506 68.8772ZM26.9279 67.7047C26.8837 67.5753 26.8173 67.4547 26.7319 67.3485C26.6473 67.2455 26.5427 67.1611 26.4246 67.1005C26.2984 67.036 26.1585 67.0035 26.0171 67.0058C25.8728 67.0027 25.7298 67.0352 25.6007 67.1005C25.4829 67.1606 25.379 67.2451 25.2956 67.3485C25.2087 67.4565 25.1402 67.5784 25.0929 67.7093C25.0438 67.8438 25.0109 67.9838 24.9949 68.1264H26.9992C26.997 67.9829 26.973 67.8407 26.9279 67.7047Z" fill="#606060"/>
<path d="M29.9476 65.5696V66.1828H29.569V65.5696H29.9476ZM29.9476 66.7736V69.9143H29.569V66.7736H29.9476Z" fill="#606060"/>
<path d="M33.0564 69.9144V69.3191C33.0146 69.4227 32.9542 69.5175 32.8782 69.5987C32.8012 69.6874 32.711 69.7634 32.611 69.8242C32.5099 69.8828 32.4022 69.929 32.2903 69.9617C32.1793 69.9928 32.0647 70.0087 31.9496 70.0091C31.7368 70.0144 31.5256 69.9696 31.3327 69.8783C31.1631 69.7936 31.0146 69.671 30.8985 69.5198C30.779 69.3617 30.6906 69.1818 30.6379 68.99C30.5281 68.5734 30.5281 68.1349 30.6379 67.7183C30.6901 67.5263 30.7786 67.3464 30.8985 67.1885C31.0144 67.0359 31.1628 66.9118 31.3327 66.8255C31.5254 66.7334 31.7366 66.6879 31.9496 66.6925C32.0645 66.692 32.179 66.7064 32.2903 66.7353C32.3993 66.7632 32.5036 66.8073 32.5999 66.8661C32.6945 66.9243 32.7801 66.9965 32.8537 67.0803C32.93 67.1677 32.9883 67.2697 33.0252 67.3801H33.0386V65.5764H33.3993V69.9144H33.0564ZM30.9787 68.8276C31.015 68.9802 31.0759 69.1257 31.159 69.2583C31.2408 69.3828 31.3488 69.4875 31.4753 69.5649C31.6158 69.6474 31.7761 69.6887 31.9385 69.6844C32.1151 69.6897 32.29 69.6486 32.4462 69.5649C32.5803 69.4906 32.6955 69.3856 32.7825 69.2583C32.8713 69.1281 32.9348 68.9819 32.9695 68.8276C33.0465 68.5099 33.0465 68.1781 32.9695 67.8604C32.9344 67.7069 32.871 67.5616 32.7825 67.432C32.6898 67.2936 32.5634 67.1817 32.4156 67.107C32.2678 67.0324 32.1034 66.9976 31.9385 67.0059C31.7763 67.0008 31.616 67.0414 31.4753 67.1231C31.3492 67.2019 31.2414 67.3073 31.159 67.432C31.0763 67.5639 31.0154 67.7086 30.9787 67.8604C30.9045 68.1784 30.9045 68.5096 30.9787 68.8276Z" fill="#606060"/>
<path d="M34.4059 68.8772C34.4428 69.0206 34.5054 69.1559 34.5908 69.2762C34.6763 69.3947 34.7846 69.4944 34.9092 69.5693C35.0504 69.6496 35.2106 69.6893 35.3724 69.6843C35.6089 69.6958 35.8408 69.6151 36.0204 69.4589C36.1842 69.3007 36.2974 69.0965 36.3456 68.8726H36.7242C36.6652 69.1896 36.5094 69.4798 36.2788 69.7024C36.0215 69.9108 35.6967 70.0145 35.368 69.9932C35.1506 70.001 34.9343 69.9586 34.7355 69.8692C34.5608 69.7877 34.408 69.6647 34.2901 69.5107C34.175 69.3514 34.0904 69.1717 34.0407 68.9809C33.9864 68.7734 33.9595 68.5596 33.9605 68.3451C33.9603 68.1394 33.9873 67.9347 34.0407 67.7363C34.0913 67.5451 34.1759 67.3648 34.2901 67.2042C34.4071 67.0442 34.5597 66.9145 34.7355 66.8254C34.9324 66.7264 35.1503 66.6776 35.3702 66.6834C35.5797 66.6748 35.7878 66.7209 35.9746 66.8172C36.1614 66.9136 36.3206 67.0569 36.4369 67.2335C36.5505 67.4055 36.6313 67.5974 36.6752 67.7994C36.7218 68.0125 36.742 68.2306 36.7353 68.4488H34.3503C34.3508 68.5934 34.3695 68.7373 34.4059 68.8772ZM36.2832 67.7047C36.239 67.5753 36.1727 67.4547 36.0873 67.3485C36.0026 67.2455 35.898 67.1611 35.7799 67.1005C35.6537 67.036 35.5138 67.0035 35.3724 67.0058C35.2288 67.0031 35.0867 67.0356 34.9582 67.1005C34.8401 67.1611 34.7356 67.2455 34.6509 67.3485C34.564 67.4565 34.4955 67.5784 34.4482 67.7093C34.3991 67.8438 34.3662 67.9838 34.3503 68.1264H36.3545C36.3559 67.9835 36.3356 67.8413 36.2944 67.7047H36.2832Z" fill="#606060"/>
<path d="M37.3254 67.2607C37.386 67.1314 37.476 67.0185 37.5882 66.9315C37.7041 66.8442 37.8357 66.7807 37.9756 66.7443C38.1363 66.7021 38.3018 66.6816 38.4678 66.6835C38.6052 66.6838 38.7424 66.6967 38.8776 66.7218C39.0084 66.7468 39.1332 66.7973 39.245 66.8706C39.3571 66.9493 39.4475 67.0556 39.5078 67.1795C39.5827 67.3399 39.6178 67.5163 39.6102 67.6935V69.362C39.6066 69.3925 39.6099 69.4234 39.6199 69.4524C39.6298 69.4814 39.6461 69.5077 39.6675 69.5294C39.689 69.5511 39.715 69.5676 39.7436 69.5777C39.7723 69.5877 39.8028 69.5911 39.8329 69.5875C39.8741 69.5885 39.9151 69.5808 39.9532 69.5649V69.8873L39.8374 69.9054C39.7943 69.9079 39.7512 69.9079 39.7082 69.9054C39.6322 69.9081 39.5564 69.895 39.4855 69.867C39.43 69.8442 39.3826 69.8049 39.3497 69.7543C39.3157 69.702 39.2936 69.6427 39.2851 69.5807C39.2757 69.5059 39.2712 69.4306 39.2717 69.3552H39.2584C39.1956 69.4509 39.1264 69.5421 39.0513 69.628C38.9874 69.7046 38.9123 69.7707 38.8286 69.8242C38.7375 69.8801 38.6383 69.9211 38.5346 69.9459C38.4055 69.9769 38.2731 69.9913 38.1404 69.9888C38.0037 69.9896 37.8674 69.9721 37.7351 69.9369C37.6142 69.9067 37.5011 69.8505 37.4033 69.7723C37.3075 69.6963 37.2311 69.5981 37.1806 69.486C37.1244 69.3569 37.097 69.2167 37.1005 69.0756C37.0895 68.8929 37.1398 68.7118 37.243 68.5616C37.3437 68.4349 37.4759 68.3376 37.626 68.2798C37.7974 68.2102 37.9771 68.1639 38.1605 68.1422L38.764 68.0656C38.8464 68.0656 38.9154 68.0475 38.9755 68.0363C39.0296 68.0265 39.0807 68.0041 39.1247 67.9709C39.1663 67.9388 39.1986 67.8959 39.2183 67.8469C39.2427 67.7806 39.2541 67.7101 39.2517 67.6394C39.2561 67.5292 39.2348 67.4195 39.1893 67.3193C39.1499 67.2392 39.0899 67.1715 39.0156 67.1231C38.9365 67.0717 38.8478 67.0372 38.7551 67.0217C38.6514 67.0031 38.5463 66.9941 38.4411 66.9946C38.2308 66.9844 38.0231 67.0455 37.8509 67.1682C37.7707 67.2356 37.7072 67.3211 37.6654 67.4178C37.6237 67.5145 37.6048 67.6197 37.6104 67.7251H37.2319C37.2338 67.5657 37.2655 67.4081 37.3254 67.2607ZM39.2205 68.1986C39.1887 68.2479 39.1392 68.2827 39.0824 68.2955C39.0231 68.3132 38.9629 68.3275 38.902 68.3384C38.7417 68.3677 38.5747 68.3925 38.4054 68.415C38.2479 68.4351 38.0922 68.4683 37.94 68.5142C37.8124 68.5531 37.6941 68.6183 37.5926 68.7059C37.5466 68.7522 37.5109 68.808 37.4879 68.8694C37.4648 68.9308 37.455 68.9965 37.459 69.0621C37.4567 69.1518 37.4758 69.2408 37.5147 69.3214C37.5523 69.3966 37.6046 69.4633 37.6683 69.5176C37.7344 69.5724 37.8099 69.6144 37.891 69.6416C37.9742 69.6702 38.0615 69.6847 38.1493 69.6844C38.2909 69.6849 38.4315 69.662 38.5658 69.6168C38.6922 69.5754 38.8094 69.5096 38.911 69.4229C39.014 69.3333 39.0963 69.2218 39.1517 69.0963C39.2071 68.9707 39.2344 68.8343 39.2316 68.6969V68.1986H39.2205Z" fill="#606060"/>
<path d="M42.1533 67.3891C42.1137 67.3006 42.0533 67.2232 41.9774 67.1637C41.9004 67.1061 41.8136 67.0633 41.7213 67.0374C41.5376 66.9904 41.3456 66.9866 41.1601 67.0261C41.0766 67.0435 40.9962 67.074 40.9219 67.1163C40.8512 67.1575 40.7915 67.2155 40.7482 67.2854C40.7013 67.3617 40.6781 67.4504 40.6814 67.5402C40.6765 67.6203 40.6984 67.6998 40.7437 67.7657C40.7871 67.8253 40.8416 67.8758 40.9041 67.9145C40.97 67.9559 41.0402 67.9899 41.1134 68.0159C41.1891 68.0407 41.2604 68.0633 41.3249 68.0791L41.8304 68.194C41.9404 68.2114 42.048 68.2417 42.1511 68.2842C42.2541 68.3231 42.3498 68.3795 42.4339 68.4511C42.5177 68.5208 42.586 68.6076 42.6344 68.7058C42.69 68.8168 42.7176 68.94 42.7145 69.0643C42.7185 69.2177 42.6783 69.3689 42.5987 69.4995C42.5249 69.6185 42.4251 69.7188 42.307 69.7926C42.184 69.8689 42.0493 69.9237 41.9084 69.9549C41.762 69.9864 41.6127 70.0023 41.463 70.0023C41.1456 70.0183 40.832 69.9262 40.5722 69.7407C40.4527 69.6367 40.3563 69.5081 40.2895 69.3635C40.2227 69.2189 40.187 69.0616 40.1848 68.902H40.5633C40.5635 69.0148 40.5888 69.1261 40.6373 69.2276C40.6859 69.3291 40.7565 69.4182 40.8439 69.4882C41.0271 69.6253 41.2509 69.6953 41.4786 69.6866C41.5744 69.6858 41.6699 69.6752 41.7636 69.6551C41.8599 69.6358 41.9524 69.6008 42.0376 69.5513C42.1192 69.5059 42.1899 69.4428 42.2447 69.3665C42.3007 69.2854 42.3289 69.188 42.3248 69.0891C42.326 69.0104 42.3068 68.9326 42.2691 68.8637C42.2304 68.8 42.1779 68.746 42.1155 68.7058C42.0463 68.6606 41.9714 68.6249 41.8928 68.5999C41.811 68.5706 41.7278 68.5458 41.6434 68.5255L41.1579 68.4173C41.0413 68.3871 40.9268 68.3495 40.815 68.3045C40.7166 68.2657 40.6243 68.2125 40.5411 68.1467C40.4639 68.0861 40.4008 68.0092 40.3562 67.9212C40.3103 67.8147 40.2882 67.6992 40.2916 67.583C40.2883 67.4398 40.3245 67.2984 40.3963 67.1749C40.4648 67.0631 40.5587 66.9696 40.6702 66.9021C40.7868 66.8311 40.9139 66.7794 41.0466 66.7488C41.1817 66.7175 41.3199 66.7016 41.4586 66.7015C41.6055 66.7002 41.7518 66.7207 41.8928 66.7623C42.0226 66.8003 42.1437 66.8639 42.2491 66.9495C42.352 67.0362 42.4349 67.1447 42.4918 67.2674C42.5558 67.4091 42.5907 67.5625 42.5943 67.7183H42.2157C42.221 67.6051 42.1996 67.4923 42.1533 67.3891Z" fill="#606060"/>
<path d="M45.3111 65.5696V67.3733H45.3223C45.3601 67.2632 45.4183 67.1615 45.4937 67.0734C45.5686 66.9901 45.6548 66.9179 45.7498 66.8592C45.8465 66.7996 45.9516 66.7555 46.0616 66.7285C46.3803 66.6489 46.7161 66.6807 47.0147 66.8187C47.189 66.9031 47.3414 67.0274 47.4601 67.1817C47.5793 67.3396 47.6671 67.5196 47.7184 67.7115C47.8313 68.1277 47.8313 68.5669 47.7184 68.9831C47.6666 69.1748 47.5789 69.3547 47.4601 69.513C47.3412 69.6659 47.1887 69.7886 47.0147 69.8714C46.8228 69.963 46.6123 70.0078 46.4001 70.0022C46.1659 70.0049 45.9353 69.9442 45.732 69.8264C45.5362 69.7124 45.3846 69.5342 45.3022 69.3213H45.2889V69.9165H44.9415V65.5696H45.3111ZM47.3577 67.8603C47.3229 67.7079 47.2618 67.5629 47.1773 67.4319C47.0958 67.3073 46.9887 67.2019 46.8633 67.123C46.7226 67.0414 46.5622 67.0008 46.4001 67.0058C46.2348 66.9971 46.07 67.0317 45.9217 67.1064C45.7735 67.181 45.6468 67.2932 45.5539 67.4319C45.467 67.5621 45.4044 67.7073 45.369 67.8603C45.292 68.178 45.292 68.5098 45.369 68.8275C45.4039 68.9814 45.4666 69.1274 45.5539 69.2582C45.6414 69.385 45.7564 69.4899 45.8901 69.5648C46.0472 69.6483 46.2228 69.6895 46.4001 69.6843C46.5625 69.6886 46.7228 69.6473 46.8633 69.5648C46.9891 69.4874 47.0963 69.3826 47.1773 69.2582C47.2622 69.1266 47.3233 68.9808 47.3577 68.8275C47.4347 68.5098 47.4347 68.178 47.3577 67.8603Z" fill="#606060"/>
<path d="M50.3239 66.8163C50.5006 66.902 50.6576 67.0241 50.7849 67.1748C50.9116 67.3308 51.0076 67.5099 51.0677 67.7024C51.1954 68.1211 51.1954 68.5689 51.0677 68.9876C51.0083 69.1797 50.9122 69.3582 50.7849 69.5129C50.6589 69.6644 50.5015 69.786 50.3239 69.8691C50.1255 69.9554 49.9118 69.9998 49.6959 69.9998C49.48 69.9998 49.2664 69.9554 49.0679 69.8691C48.8904 69.786 48.733 69.6644 48.607 69.5129C48.4805 69.3577 48.3845 69.1793 48.3241 68.9876C48.1965 68.5689 48.1965 68.1211 48.3241 67.7024C48.385 67.5102 48.4809 67.3312 48.607 67.1748C48.7342 67.0241 48.8912 66.902 49.0679 66.8163C49.2658 66.7282 49.4797 66.6826 49.6959 66.6826C49.9122 66.6826 50.126 66.7282 50.3239 66.8163ZM49.2105 67.1207C49.0763 67.1958 48.96 67.2997 48.8697 67.4251C48.7783 67.5553 48.709 67.7001 48.6649 67.8535C48.6198 68.0134 48.5966 68.1787 48.5958 68.345C48.5966 68.5105 48.6198 68.6752 48.6649 68.8343C48.709 68.9884 48.7782 69.1339 48.8697 69.2649C48.9614 69.389 49.0774 69.4926 49.2105 69.5693C49.3574 69.6449 49.5199 69.6843 49.6848 69.6843C49.8497 69.6843 50.0122 69.6449 50.1591 69.5693C50.2927 69.4934 50.4088 69.3896 50.4999 69.2649C50.5914 69.1339 50.6606 68.9884 50.7047 68.8343C50.7498 68.6752 50.773 68.5105 50.7738 68.345C50.773 68.1787 50.7498 68.0134 50.7047 67.8535C50.6606 67.7001 50.5913 67.5553 50.4999 67.4251C50.4101 67.2992 50.2937 67.1952 50.1591 67.1207C50.0122 67.0451 49.8497 67.0057 49.6848 67.0057C49.5199 67.0057 49.3574 67.0451 49.2105 67.1207Z" fill="#606060"/>
<path d="M52.0743 66.7735V67.5108H52.0876C52.1688 67.267 52.3283 67.0578 52.5406 66.9164C52.7528 66.775 53.0057 66.7096 53.259 66.7307V67.114C53.1 67.1049 52.9409 67.1287 52.7913 67.1839C52.656 67.2338 52.5319 67.3104 52.4261 67.4093C52.3233 67.5123 52.2429 67.636 52.1901 67.7723C52.1329 67.9155 52.1042 68.0688 52.1054 68.2232V69.8962H51.7269V66.7735H52.0743Z" fill="#606060"/>
<path d="M54.1097 66.7737V67.3148C54.1846 67.1257 54.3193 66.9671 54.4927 66.8638C54.6746 66.7478 54.8857 66.6875 55.1007 66.6902C55.2855 66.6842 55.4698 66.7133 55.6441 66.7759C55.7796 66.8238 55.9007 66.9061 55.9959 67.0149C56.0881 67.1245 56.1524 67.2553 56.183 67.3959C56.2203 67.5616 56.2382 67.7311 56.2364 67.901V69.9302H55.8578V67.9709C55.859 67.8452 55.8471 67.7197 55.8222 67.5966C55.8007 67.4882 55.7575 67.3854 55.6953 67.2945C55.6329 67.2074 55.5493 67.1383 55.4526 67.0938C55.3322 67.0425 55.2023 67.0179 55.0717 67.0217C54.9317 67.0189 54.7927 67.0465 54.6642 67.1028C54.5497 67.1562 54.4474 67.2329 54.3636 67.3283C54.2792 67.4286 54.2142 67.5441 54.1721 67.6687C54.1246 67.8074 54.099 67.9527 54.0964 68.0994V69.9302H53.7178V66.7737H54.1097Z" fill="#606060"/>
<path d="M21.5722 22.188C21.7359 21.3066 22.0811 20.47 22.5854 19.7327C22.7244 19.5606 22.9214 19.4465 23.1384 19.4123C23.3554 19.3782 23.5772 19.4265 23.7612 19.5478C23.8489 19.6061 23.9238 19.6819 23.9815 19.7705C24.0391 19.8592 24.0782 19.9589 24.0963 20.0635C24.1145 20.168 24.1113 20.2752 24.087 20.3785C24.0627 20.4817 24.0178 20.5789 23.955 20.6639C23.5341 21.2726 22.9841 22.9185 23.2424 24.3705C23.5007 25.8225 23.9327 26.9927 26.3133 27.4256C27.8231 27.7006 27.9723 28.873 28.0792 29.7298C28.1995 30.6723 28.3487 31.8447 29.7873 33.1276C30.3529 33.6349 31.0789 34.0114 31.8472 34.4105C32.228 34.6089 32.6266 34.8163 33.0208 35.0508C33.6109 33.7769 34.1008 31.5967 34.0607 30.2935C34.0074 28.6772 33.4492 27.1197 32.4663 25.8451L32.2436 25.5655L32.3126 25.225C32.4316 24.624 32.4847 24.0116 32.4707 23.3988C32.1251 23.5097 31.7643 23.5645 31.4018 23.5611C29.7851 23.5453 28.5424 22.914 27.7007 21.8972C26.2465 20.1408 26.5872 18.1883 26.6496 17.1624C26.7119 16.1365 26.7809 15.3271 26.9034 14.1727C27.0927 12.3826 27.3265 10.1572 27.1484 9.36584C26.6028 6.92857 25.3669 6.96915 24.897 6.98493C24.7904 6.99297 24.6832 6.9791 24.582 6.94414C24.4809 6.90918 24.3877 6.85386 24.3082 6.78151C24.2287 6.70916 24.1644 6.62128 24.1193 6.52314C24.0742 6.425 24.0492 6.31864 24.0457 6.21045C24.0423 6.10226 24.0605 5.99449 24.0992 5.8936C24.138 5.79272 24.1965 5.70081 24.2712 5.62341C24.3459 5.546 24.4354 5.4847 24.5341 5.4432C24.6328 5.40169 24.7388 5.38083 24.8458 5.38188C26.0082 5.34355 28.0681 5.76743 28.7985 9.02539C29.0212 10.0603 28.7985 12.2292 28.5758 14.3261C28.4556 15.4759 28.3532 16.3102 28.3309 17.2391C28.3086 18.168 28.1616 19.8793 29.0279 20.9029C29.5713 21.5477 30.3752 21.8949 31.4998 21.9558C31.9073 21.9806 32.8048 21.5725 33.2813 20.745C33.5675 20.1041 33.7053 19.4054 33.6844 18.7023C33.6484 17.6577 33.2682 16.6553 32.6043 15.8547L32.1924 15.3497L32.6199 14.8537C33.4039 13.9598 33.8227 12.7975 33.7913 11.6025C33.7592 10.6111 33.4151 9.65602 32.8092 8.87658L32.4306 8.38507L32.8293 7.90483C33.5779 7.01421 33.9746 5.87456 33.9427 4.70549C33.8536 1.86463 31.9162 -0.0608337 29.2306 0.0248428C27.3755 0.0834636 25.9882 0.863572 25.2221 2.67856C23.3448 2.17352 21.1491 3.82618 20.6591 5.46531C20.1514 7.16531 20.461 9.20125 22.5854 11.7783C22.8885 12.1471 23.2231 12.4881 23.5853 12.7974C23.6667 12.8644 23.7334 12.9478 23.7813 13.0423C23.8291 13.1367 23.8571 13.2402 23.8634 13.3462C23.8696 13.4522 23.8541 13.5583 23.8177 13.6579C23.7814 13.7575 23.725 13.8484 23.6521 13.9247C23.494 14.0918 23.2771 14.189 23.0486 14.1953C22.8358 14.2026 22.6277 14.1313 22.463 13.9946C22.0264 13.6225 21.6233 13.2121 21.2582 12.7681C20.032 11.2434 19.2514 9.4019 19.0045 7.45165C15.7956 9.67247 15.3836 13.7647 16.8444 16.0058C14.9805 18.8692 17.8933 22.3639 21.5722 22.188Z" fill="#606060"/>
<path d="M31.0321 35.824C30.1553 35.4534 29.3437 34.9409 28.6293 34.3067C26.7476 32.6247 26.5427 31.0059 26.4024 29.9349C26.2933 29.0624 26.2576 29.0578 25.9859 29.0082C24.6164 28.758 23.6722 28.3093 23.0152 27.7389C22.2729 28.0713 21.4748 28.2572 20.6636 28.2868C19.286 28.3116 17.9278 27.9553 16.7353 27.2564C16.6453 27.2012 16.5675 27.1277 16.5069 27.0405C16.4463 26.9534 16.4043 26.8545 16.3833 26.75C16.3624 26.6456 16.3631 26.5379 16.3853 26.4337C16.4076 26.3296 16.4509 26.2312 16.5126 26.1448C16.6458 25.9679 16.8387 25.847 17.0545 25.8054C17.2703 25.7638 17.4937 25.8044 17.6818 25.9194C17.7731 25.978 19.804 27.2158 22.0354 26.4019C21.6341 25.5977 21.4237 24.7099 21.4208 23.809C17.8777 23.9082 14.5997 21.7798 14.4572 18.2378C9.87864 25.0513 15.3346 31.4342 21.5566 33.2402C23.2312 33.725 24.4516 35.425 24.4516 37.1949C24.4522 37.6361 24.3768 38.074 24.2289 38.489C24.9934 38.6356 25.7374 38.8756 26.4447 39.2037C26.3257 38.4433 26.316 37.6695 26.4157 36.9063C26.4585 36.6903 26.5819 36.4994 26.7604 36.3734C26.9388 36.2473 27.1584 36.1959 27.3733 36.2299C27.4789 36.2408 27.5812 36.2729 27.6744 36.3244C27.7675 36.3758 27.8496 36.4456 27.9158 36.5296C27.9819 36.6136 28.0309 36.7101 28.0597 36.8135C28.0885 36.9169 28.0967 37.0251 28.0837 37.1317C28.0837 37.1543 27.6985 39.7043 28.8097 40.897C29.5255 41.6946 29.9954 42.6868 30.1614 43.7514C30.1731 43.8587 30.1637 43.9672 30.1337 44.0708C30.1037 44.1744 30.0537 44.2709 29.9866 44.3548C29.9195 44.4386 29.8366 44.5082 29.7428 44.5594C29.6489 44.6107 29.546 44.6426 29.4399 44.6532C29.4095 44.6555 29.379 44.6555 29.3486 44.6532C29.1487 44.666 28.9512 44.6043 28.7932 44.4796C28.6353 44.355 28.5278 44.1762 28.4912 43.9768C27.9924 40.5565 24.5251 40.0808 23.3003 39.9568C22.5776 40.6611 21.6998 41.1812 20.7393 41.4742C20.5324 41.5442 20.307 41.533 20.1078 41.4428C19.9086 41.3527 19.7501 41.19 19.6637 40.9872C19.6286 40.8857 19.6141 40.7781 19.6213 40.6709C19.6284 40.5636 19.6571 40.459 19.7054 40.3633C19.7537 40.2675 19.8207 40.1828 19.9023 40.1141C19.984 40.0453 20.0786 39.9941 20.1804 39.9636C21.8595 39.3954 22.777 38.4169 22.7658 37.2106C22.7658 36.1419 21.9909 35.0642 21.0221 34.7621C17.5548 33.6754 15.0095 31.9009 13.4373 29.4817C11.4018 34.8658 15.8111 37.1475 18.6304 36.8161C18.8457 36.7866 19.0638 36.8427 19.239 36.9726C19.4143 37.1025 19.533 37.2961 19.5702 37.5128C19.5815 37.6212 19.5714 37.7309 19.5403 37.8353C19.5092 37.9397 19.4578 38.0367 19.3891 38.1208C19.3204 38.2048 19.2359 38.2741 19.1404 38.3245C19.0449 38.375 18.9404 38.4056 18.8331 38.4146C18.6104 38.4417 18.3877 38.4575 18.165 38.4642C17.2889 38.4922 16.4148 38.3617 15.584 38.0787C14.9159 41.0548 17.9267 46.015 23.4183 43.9746C24.1064 47.8751 29.7851 49.6788 33.0586 45.9744C36.2743 42.3309 34.0407 37.0979 31.0321 35.824Z" fill="#606060"/>
<path d="M35.0896 11.1493C35.0969 11.3489 35.1177 11.5477 35.1519 11.7445C35.6953 11.007 36.3191 10.3339 37.0114 9.73784L37.5659 9.28691C39.3474 7.86198 40.2382 7.14725 40.0779 4.75056C40.0789 4.54061 40.1587 4.3389 40.3011 4.1863C40.4435 4.0337 40.6379 3.94162 40.8449 3.92872C41.0519 3.91582 41.256 3.98307 41.4158 4.11683C41.5757 4.25059 41.6793 4.44087 41.7057 4.64911C41.9106 7.82365 40.5277 8.93294 38.617 10.4706L38.0759 10.9125C37.2017 11.669 36.4568 12.5664 35.8712 13.5685V13.5865L35.702 13.936C35.3861 14.5793 35.2282 15.2903 35.2418 16.0087C35.2553 16.727 35.4399 17.4314 35.7799 18.062L35.9425 18.3709L35.8089 18.6933C35.4906 19.4507 35.3236 20.2644 35.3175 21.0875C35.3114 21.9106 35.4663 22.7267 35.7732 23.4889C36.4032 22.6885 37.1942 22.0329 38.0937 21.5657C39.4298 20.851 40.9887 20.5173 42.1444 20.6639C42.9528 19.7362 43.9398 18.9855 45.045 18.4578C46.1501 17.9301 47.3501 17.6366 48.5713 17.5953H48.6337C50.0767 17.5502 52.9116 17.965 54.1676 19.6786C54.7154 16.5807 53.622 14.042 50.4353 13.3656C51.0544 10.8156 49.4621 8.44142 47.9857 7.6275C47.5141 9.06226 46.5891 10.2999 45.3534 11.1493C45.7342 11.6723 46.6451 13.0747 46.6651 14.5718C46.661 14.7815 46.576 14.9813 46.4282 15.1284C46.2805 15.2755 46.0817 15.3581 45.8745 15.3587H45.8589C45.6497 15.3679 45.4454 15.2929 45.2907 15.1501C45.1359 15.0073 45.0431 14.8084 45.0328 14.5966C45.0216 13.5414 44.3135 12.4547 44.0262 12.0556C42.7056 12.9372 41.483 13.8864 40.7036 16.2786C40.6476 16.4367 40.5454 16.5738 40.4105 16.6716C40.2757 16.7695 40.1146 16.8235 39.9487 16.8265C39.8592 16.8295 39.7697 16.8181 39.6837 16.7926C39.5842 16.7672 39.4909 16.7216 39.4094 16.6586C39.3279 16.5956 39.2598 16.5164 39.2094 16.426C39.159 16.3355 39.1273 16.2356 39.1162 16.1324C39.1051 16.0292 39.1148 15.9247 39.1448 15.8254C40.1558 12.7253 41.8906 11.5799 43.4227 10.5676C44.7232 9.70853 45.8523 8.95774 46.478 7.02099L46.6027 6.37617C46.6785 5.99487 46.7106 5.60602 46.6985 5.21728C46.6072 2.23438 43.9772 -0.110451 40.8395 -0.0112469C37.7017 0.0879575 35.2232 2.59963 35.3167 5.58253C35.3408 6.34013 35.5318 7.08271 35.8757 7.75601L36.0672 8.13704L35.8334 8.49779C35.321 9.28268 35.0612 10.2089 35.0896 11.1493Z" fill="#606060"/>
<path d="M54.6553 30.3002C54.1881 30.8654 53.6844 31.3986 53.1477 31.8965C52.9876 32.0393 52.7807 32.1166 52.5674 32.1133C52.3541 32.1099 52.1497 32.0262 51.9941 31.8784C51.9209 31.8069 51.8631 31.7207 51.8245 31.6254C51.7858 31.53 51.7672 31.4276 51.7697 31.3246C51.7722 31.2216 51.7958 31.1202 51.8391 31.0269C51.8823 30.9336 51.9442 30.8505 52.0208 30.7827C52.638 30.2071 53.205 29.5787 53.7155 28.9046L53.7022 28.8888L53.9961 28.4378C54.7814 27.2178 55.107 25.7526 54.9136 24.3096C54.7203 22.8666 54.0207 21.5422 52.9428 20.5781C52.8871 20.5263 52.8359 20.4722 52.7758 20.4226L52.7156 20.3662C51.7157 19.5568 50.2148 19.1104 48.6337 19.1577C47.564 19.197 46.5158 19.4725 45.5622 19.9647C44.6087 20.457 43.7728 21.1542 43.1132 22.0076L42.7524 22.4653L42.1801 22.2601C41.6701 22.0797 40.3117 22.1632 38.8931 22.9185C38.2464 23.254 37.6762 23.7229 37.219 24.2948C36.7619 24.8668 36.4279 25.5292 36.2387 26.2396C35.506 28.9947 37.6015 30.6 38.3431 31.1321C38.7039 31.3914 38.8731 31.8085 38.6526 32.1851C38.5802 32.3047 38.4792 32.4039 38.359 32.4737C38.2387 32.5434 38.1031 32.5814 37.9645 32.5841C37.8198 32.5887 37.6763 32.5553 37.5481 32.4872C36.6952 32.0098 35.9669 31.3335 35.4236 30.5144C35.2243 31.1202 35.1302 31.7564 35.1452 32.3947C35.1871 33.6336 35.6344 34.8233 36.4168 35.7767L36.6506 36.0698C37.3858 36.8371 38.1845 37.5394 39.0379 38.1689C39.3942 38.444 39.706 38.692 39.9554 38.9039C42.2291 40.8722 41.7837 43.2757 41.2314 44.2722C41.1587 44.3966 41.0555 44.4999 40.9319 44.5722C40.8082 44.6445 40.6682 44.6833 40.5255 44.6848C40.3851 44.6895 40.2457 44.6585 40.1202 44.5946C40.0277 44.5521 39.9449 44.4907 39.877 44.4142C39.8091 44.3377 39.7576 44.2479 39.7256 44.1503C39.6936 44.0527 39.6818 43.9495 39.6911 43.8471C39.7004 43.7447 39.7305 43.6453 39.7795 43.5552C39.8819 43.3613 40.7036 41.6591 38.8442 40.0493C38.6215 39.8531 38.3231 39.6231 37.9957 39.3729C37.4278 38.9219 36.7464 38.3966 36.1184 37.8104C36.0847 38.0342 36.0698 38.2605 36.0739 38.4868C36.092 39.0834 36.2443 39.6679 36.5193 40.1958L36.7108 40.5611L36.4881 40.9173C36.0437 41.6646 35.821 42.5255 35.8467 43.3974C35.9291 46.0263 38.2429 48.0916 41.0065 48.0014C41.9306 47.9876 42.833 47.7154 43.6139 47.2148C44.3948 46.7143 45.0238 46.0049 45.4314 45.1651L45.5717 44.8652L45.8968 44.7525C46.7844 44.4425 47.5502 43.8521 48.0814 43.0682C47.3921 42.996 46.7273 42.7696 46.1351 42.4054C45.6006 42.085 45.147 41.6433 44.81 41.1151C44.473 40.5869 44.2619 39.9866 44.1932 39.3616C44.0774 38.214 44.427 36.9311 44.8078 35.93C44.1388 36.1517 43.4425 36.2777 42.739 36.3043C42.1393 36.3383 41.5386 36.2572 40.9686 36.0653C40.872 36.0312 40.7833 35.9774 40.708 35.9073C40.6326 35.8372 40.5722 35.7522 40.5305 35.6576C40.4888 35.563 40.4667 35.4608 40.4654 35.3572C40.4641 35.2536 40.4838 35.1508 40.5232 35.0552C40.6141 34.8612 40.7743 34.7093 40.9714 34.6302C41.1686 34.5511 41.3881 34.5507 41.5855 34.6291C42.4963 34.9786 45.3713 34.6629 46.36 32.8975C47.371 31.069 47.6383 30.1175 47.2508 29.1999C47.1153 28.8621 46.8977 28.5644 46.6182 28.3346C46.3386 28.1048 46.0062 27.9503 45.6518 27.8855C45.1349 27.8008 44.6057 27.8353 44.1037 27.9864C43.6017 28.1375 43.1398 28.4012 42.7524 28.758C42.5915 28.9001 42.3839 28.9761 42.1704 28.9711C41.957 28.9661 41.7531 28.8805 41.5989 28.7309C41.5261 28.6588 41.469 28.5721 41.4312 28.4764C41.3933 28.3808 41.3755 28.2782 41.3788 28.1751C41.3822 28.0721 41.4066 27.9709 41.4506 27.878C41.4946 27.785 41.5573 27.7023 41.6345 27.6352C42.6382 26.7314 43.9438 26.2478 45.2866 26.2824C45.5147 25.3487 45.5277 24.3744 45.3245 23.4348C45.301 23.3333 45.298 23.228 45.3157 23.1253C45.3333 23.0225 45.3712 22.9245 45.4271 22.8369C45.483 22.7494 45.5558 22.6741 45.6411 22.6157C45.7264 22.5573 45.8225 22.5168 45.9235 22.4968C46.128 22.4437 46.3449 22.473 46.5285 22.5786C46.7121 22.6842 46.8481 22.8577 46.9078 23.0628C47.1693 24.2415 47.1571 25.4655 46.8722 26.6386C47.7411 27.0239 48.4295 27.7338 48.794 28.6205C49.5801 30.5256 48.6381 32.2685 47.0392 34.9515C47.0392 34.9515 45.6541 37.4316 45.8345 39.197C45.8734 39.588 46.0035 39.964 46.2142 40.2941C46.4248 40.6241 46.7099 40.8988 47.0459 41.0954C51.5376 43.7289 56.8666 36.3471 54.6553 30.3002Z" fill="#606060"/>
</g>
<defs>
<clipPath id="clip0_530_253">
<rect width="68.1081" height="70" fill="white"/>
</clipPath>
</defs>
</svg>
