<svg width="74" height="70" viewBox="0 0 74 70" fill="none" xmlns="http://www.w3.org/2000/svg">
<g clip-path="url(#clip0_530_325)">
<path d="M31.9885 19.8392C31.9885 19.8392 18.7576 12.75 15.9363 22.9546C13.115 33.1592 23.9624 47.0962 23.9624 47.0962C23.9624 47.0962 18.1062 49.3753 13.0067 37.1139C7.90731 24.8524 15.0521 6.47323 31.9885 19.8392Z" fill="#606060"/>
<path d="M28.0176 27.0462C28.0176 27.0462 25.0268 23.061 22.8808 24.4146C20.7349 25.7683 21.9008 36.0342 27.9975 41.0713L27.5836 41.375C27.5836 41.375 23.3177 38.5537 21.8874 34.4659C20.4571 30.3782 18.4156 23.1855 23.2707 22.6059C28.1259 22.0263 28.0176 27.0462 28.0176 27.0462Z" fill="#606060"/>
<path d="M50.3217 42.8915C50.173 42.9518 50.0182 42.9961 49.86 43.0237C48.696 43.2613 47.5464 42.7181 46.8126 41.7974L46.6545 41.5972L46.506 41.3874C45.9811 40.5683 45.1648 40.1928 44.2404 40.5913C43.3715 40.9592 42.6808 41.6116 41.9029 42.0992C41.3606 42.445 40.7408 42.7583 40.1057 42.6922C37.8869 42.3847 38.7357 39.3756 37.0324 38.6686C35.7257 38.1896 33.7752 39.4982 32.6927 40.1593C32.3823 40.3576 32.0786 40.5635 31.7759 40.7705C31.0314 41.3172 30.1055 41.5572 29.1893 41.4411C30.8926 36.3637 30.6368 29.6289 28.5091 25.3639C27.4045 23.1442 25.3755 21.3758 22.7323 22.0263C20.0758 22.6547 19.4455 25.5249 19.6141 27.8768C19.9599 32.1973 21.9698 36.7545 24.9386 39.9111C25.6945 40.7044 26.6467 41.4439 27.6881 41.8923C27.3733 42.6717 26.9794 43.4167 26.5126 44.1158C25.7175 45.2654 24.6455 46.3192 23.2755 46.6286C16.8771 48.0714 6.3889 24.7403 16.7353 17.3982C22.4833 13.3152 31.2921 19.2356 31.9914 19.8392C33.1544 18.8352 34.4822 17.9634 35.9048 17.3915C37.9913 16.5226 40.3777 16.3913 42.2152 17.7747C43.4065 18.6342 44.292 19.852 44.7424 21.2503C45.9217 25.02 44.1293 29.0321 41.8502 32.0527C41.0382 33.1196 40.1459 34.123 39.1812 35.0541C39.0092 35.2213 38.9106 35.4499 38.9072 35.6898C38.9038 35.9296 38.9958 36.161 39.163 36.333C39.3302 36.505 39.5588 36.6036 39.7987 36.607C40.0385 36.6104 40.2699 36.5184 40.4419 36.3512C44.5038 32.3956 48.2448 26.5796 46.4629 20.6937C45.8628 18.8366 44.6568 17.2345 43.0381 16.1442C39.5682 13.7654 35.1317 15.2331 32.001 17.5227C28.0023 14.5433 22.831 12.2317 17.7766 13.2903C16.0515 13.6748 14.439 14.4543 13.0661 15.5674C8.78389 18.8907 8.42081 24.9558 9.41713 29.8771C10.5667 35.7553 14.1726 43.5544 19.2395 46.9869C20.2262 47.6259 21.4678 48.1471 22.7007 48.0656C24.7355 47.8951 26.4705 46.4696 27.5683 44.84C28.1025 44.03 28.5477 43.1647 28.8961 42.2592C29.6754 42.4057 30.4804 42.3242 31.2145 42.0245C31.932 41.7515 32.5059 41.2581 33.1429 40.8538C33.7309 40.4604 34.3437 40.1056 34.9775 39.7914C35.5082 39.5538 36.2171 39.2271 36.7536 39.4082C37.2891 39.6391 37.4127 40.4256 37.6082 40.9592C37.7179 41.3279 37.8606 41.6861 38.0345 42.0293C38.4004 42.7717 39.1841 43.358 40.0309 43.4279C41.262 43.5372 42.2774 42.7344 43.199 42.0638C43.725 41.6959 44.3055 41.2016 44.9234 41.1288C45.3497 41.0741 45.709 41.4162 45.9437 41.7725C46.027 41.8932 46.1976 42.1174 46.2934 42.2305C47.3041 43.4893 49.0227 44.112 50.5747 43.4758C50.9694 43.2871 50.6915 42.7344 50.3217 42.8915ZM23.1146 35.8588C21.5358 32.936 20.1898 29.1068 20.733 25.774C20.9533 24.5036 21.6738 23.332 22.9795 23.0542C25.0929 22.5436 26.6429 24.0869 27.5156 25.8678C29.4709 29.8799 29.6481 36.3263 27.9946 41.0761C25.8573 40.1257 24.222 37.8064 23.1165 35.8578L23.1146 35.8588Z" fill="#606060"/>
<path d="M32.1045 11.7192C40.0261 13.2386 41.4363 2.82131 40.5684 0C40.5684 0 33.0807 2.82131 32.1045 8.57217C32.1045 8.57217 30.1712 2.38733 23.2708 2.60384C23.2708 2.60384 24.1828 10.1998 32.1045 11.7192Z" fill="#606060"/>
<path d="M43.7154 25.6207C43.7154 25.6207 44.4722 21.8501 42.4106 19.8833C39.3747 16.9882 36.6626 19.3152 36.6626 19.3152C39.7847 19.229 42.9672 21.1593 43.7154 25.6207Z" fill="#606060"/>
<path d="M2.18519 61.9412L1.2272 64.8373H0L3.1317 55.6328H4.5687L7.71093 64.8401H6.43392L5.45006 61.9412H2.18519ZM5.20481 61.012L4.30333 58.3621C4.09832 57.7605 3.96132 57.2126 3.82433 56.6818H3.8023C3.6653 57.2279 3.5149 57.7883 3.33767 58.3487L2.43619 61.012H5.20481Z" fill="#606060"/>
<path d="M10.4221 55.7392C11.1765 55.6169 11.9398 55.5576 12.704 55.562C13.8785 55.562 14.7388 55.835 15.2906 56.3284C15.7955 56.7662 16.0963 57.4349 16.0963 58.2549C16.0963 59.075 15.8501 59.7437 15.3864 60.2217C14.758 60.8923 13.7329 61.2324 12.5718 61.2324C12.2504 61.2429 11.9288 61.2155 11.6138 61.151V64.8392H10.4221V55.7392ZM11.6109 60.1786C11.9336 60.2516 12.2641 60.2837 12.5948 60.2744C14.0318 60.2744 14.9026 59.5779 14.9026 58.3076C14.9026 57.0919 14.0404 56.5047 12.7308 56.5047C12.3551 56.4944 11.9794 56.5265 11.6109 56.6005V60.1786Z" fill="#606060"/>
<path d="M19.0555 55.7392C19.8087 55.6171 20.5707 55.5578 21.3337 55.562C22.5091 55.562 23.3694 55.835 23.9203 56.3284C24.4261 56.7662 24.7269 57.4349 24.7269 58.2549C24.7269 59.075 24.4807 59.7436 24.0161 60.2217C23.3876 60.8923 22.3635 61.2324 21.2024 61.2324C20.881 61.2429 20.5595 61.2155 20.2444 61.1509V64.8392H19.0555V55.7392ZM20.2444 60.1786C20.5668 60.2515 20.897 60.2837 21.2273 60.2744C22.6643 60.2744 23.5361 59.5779 23.5361 58.3076C23.5361 57.0919 22.6739 56.5046 21.3643 56.5046C20.9886 56.4943 20.6129 56.5265 20.2444 56.6004V60.1786Z" fill="#606060"/>
<path d="M27.689 55.6328H28.8769V63.8429H32.8114V64.8401H27.689V55.6328Z" fill="#606060"/>
<path d="M40.2695 60.5186H36.6904V63.8381H40.6795V64.8353H35.5015V55.6328H40.4745V56.6301H36.6904V59.5395H40.2695V60.5186Z" fill="#606060"/>
<path d="M47.6451 63.6073C48.1211 63.9055 48.6682 64.0709 49.2296 64.0863C50.1043 64.0863 50.5143 63.6485 50.5143 63.1025C50.5143 62.5277 50.1723 62.2144 49.2842 61.8868C48.0963 61.4633 47.5359 60.8071 47.5359 60.0148C47.5359 58.9495 48.3981 58.0749 49.8169 58.0749C50.386 58.0689 50.947 58.2101 51.4455 58.4849L51.1456 59.3596C50.739 59.1088 50.2706 58.9762 49.7929 58.9764C49.0821 58.9764 48.6864 59.3854 48.6864 59.8778C48.6864 60.4239 49.0821 60.6701 49.9433 60.9977C51.0929 61.4346 51.6783 62.0084 51.6783 62.9923C51.6783 64.1534 50.7768 64.9725 49.2057 64.9725C48.4814 64.9725 47.8118 64.7952 47.3481 64.5222L47.6451 63.6073Z" fill="#606060"/>
<path d="M55.9232 56.3678C55.9366 56.7778 55.6358 57.1054 55.1568 57.1054C55.0602 57.1068 54.9643 57.0885 54.8749 57.0518C54.7855 57.015 54.7046 56.9605 54.6369 56.8915C54.5692 56.8226 54.5162 56.7406 54.481 56.6506C54.4459 56.5606 54.4294 56.4644 54.4325 56.3678C54.4299 56.2684 54.4475 56.1696 54.4843 56.0773C54.5211 55.985 54.5764 55.9011 54.6466 55.8308C54.7169 55.7605 54.8008 55.7053 54.8931 55.6685C54.9854 55.6317 55.0842 55.6141 55.1836 55.6167C55.6367 55.6167 55.9232 55.9443 55.9232 56.3678ZM54.582 64.8374V58.2273H55.7843V64.8374H54.582Z" fill="#606060"/>
<path d="M64.8431 58.2251C64.8163 58.7041 64.7885 59.2358 64.7885 60.0453V63.8811C64.7885 65.3967 64.4877 66.3259 63.8458 66.8998C63.204 67.5005 62.2747 67.6921 61.4422 67.6921C60.6499 67.6921 59.7753 67.5005 59.2388 67.146L59.5396 66.2301C60.1263 66.5773 60.797 66.7569 61.4786 66.7494C62.7087 66.7494 63.6102 66.1075 63.6102 64.4406V63.7029H63.5824C63.2135 64.318 62.5037 64.8094 61.4748 64.8094C59.8356 64.8094 58.6611 63.4165 58.6611 61.5858C58.6611 59.346 60.123 58.0747 61.6395 58.0747C62.7891 58.0747 63.4147 58.6763 63.7021 59.2243H63.7289L63.7835 58.227L64.8431 58.2251ZM63.5977 60.8347C63.6043 60.6498 63.581 60.4651 63.5287 60.2877C63.3103 59.5912 62.723 59.0174 61.8484 59.0174C60.6988 59.0174 59.8816 59.9878 59.8816 61.5178C59.8816 62.8149 60.5379 63.8945 61.835 63.8945C62.2072 63.8925 62.5691 63.7724 62.8687 63.5515C63.1682 63.3306 63.3899 63.0204 63.5019 62.6654C63.5669 62.4574 63.5992 62.2406 63.5977 62.0226V60.8347Z" fill="#606060"/>
<path d="M68.0667 60.0149C68.0667 59.3318 68.0533 58.7695 68.0121 58.2253H69.0774L69.1464 59.3184H69.1732C69.5009 58.6899 70.2663 58.073 71.3594 58.073C72.2743 58.073 73.695 58.62 73.695 60.8876V64.8355H72.4908V61.0256C72.4908 59.9603 72.0951 59.0722 70.958 59.0722C70.1657 59.0722 69.5507 59.6326 69.3457 60.3023C69.2879 60.483 69.2604 60.672 69.2642 60.8617V64.8374H68.062L68.0667 60.0149Z" fill="#606060"/>
<path d="M9.08469 68.0007H8.31158V67.6348H10.2908V68.0007H9.5177V69.9665H9.08469V68.0007Z" fill="#606060"/>
<path d="M13.6793 69.4282H12.5134L12.2835 69.9675H11.837L12.8908 67.6357H13.3171L14.3709 69.9675H13.9178L13.6793 69.4282ZM13.5356 69.0881L13.0949 68.0678L12.659 69.0871L13.5356 69.0881Z" fill="#606060"/>
<path d="M17.8849 68.7737H18.2949V69.7029C18.0323 69.9011 17.7109 70.0056 17.3819 69.9999C16.6596 69.9999 16.126 69.497 16.126 68.8005C16.126 68.104 16.6596 67.6011 17.3886 67.6011C17.7785 67.6011 18.1052 67.7314 18.3246 67.9843L18.0516 68.2506C17.9688 68.164 17.8689 68.0956 17.7582 68.0497C17.6475 68.0039 17.5285 67.9816 17.4087 67.9843C16.9125 67.9843 16.5628 68.3205 16.5628 68.8034C16.5628 69.2862 16.9144 69.6196 17.4059 69.6196C17.5735 69.6229 17.7389 69.5812 17.8849 69.4989V68.7737Z" fill="#606060"/>
<path d="M20.5328 67.6348H20.9658V69.6006H22.1853V69.9665H20.5328V67.6348Z" fill="#606060"/>
<path d="M24.1942 67.6348H24.6273V69.9665H24.1942V67.6348Z" fill="#606060"/>
<path d="M28.9977 67.6348V69.9665H28.6413L27.3556 68.3878V69.9665H26.9255V67.6348H27.2819L28.5685 69.2135V67.6348H28.9977Z" fill="#606060"/>
<path d="M33.0366 69.6035V69.9665H31.2873V67.6348H32.9897V67.9978H31.7203V68.6043H32.8469V68.9606H31.7203V69.6035H33.0366Z" fill="#606060"/>
<path d="M39.8431 67.6348V69.9665H39.4101V68.9673H38.204V69.9665H37.771V67.6348H38.204V68.5976H39.4101V67.6348H39.8431Z" fill="#606060"/>
<path d="M43.885 69.6035V69.9665H42.1357V67.6348H43.838V67.9978H42.5687V68.6043H43.6953V68.9606H42.5687V69.6035H43.885Z" fill="#606060"/>
<path d="M47.5598 69.9665L47.0808 69.2835C47.0509 69.2854 47.0208 69.2854 46.9908 69.2835H46.4648V69.9627H46.0309V67.6348H46.9889C47.602 67.6348 47.9814 67.948 47.9814 68.4644C47.9884 68.624 47.944 68.7817 47.8547 68.9142C47.7653 69.0466 47.6358 69.1469 47.4851 69.2001L48.0216 69.9665H47.5598ZM46.9736 68.0007H46.4677V68.9309H46.9736C47.3568 68.9309 47.5484 68.7575 47.5484 68.4644C47.5484 68.1712 47.3539 68.0007 46.9736 68.0007Z" fill="#606060"/>
<path d="M51.8842 69.6035V69.9665H50.1359V67.6348H51.8383V67.9978H50.5689V68.6043H51.6946V68.9606H50.5689V69.6035H51.8842Z" fill="#606060"/>
</g>
<defs>
<clipPath id="clip0_530_325">
<rect width="73.695" height="70" fill="white"/>
</clipPath>
</defs>
</svg>
