<svg width="55" height="55" viewBox="0 0 55 55" fill="none" xmlns="http://www.w3.org/2000/svg">
<path d="M24.0625 44.6875H4.29688C3.15769 44.6861 2.06556 44.233 1.26003 43.4275C0.454508 42.6219 0.00136457 41.5298 0 40.3906L0 4.29688C0.00136457 3.15769 0.454508 2.06556 1.26003 1.26003C2.06556 0.454508 3.15769 0.00136457 4.29688 0L6.01562 0V1.71875H4.29688C3.61311 1.71875 2.95736 1.99037 2.47387 2.47387C1.99037 2.95736 1.71875 3.61311 1.71875 4.29688V40.3906C1.71875 41.0744 1.99037 41.7301 2.47387 42.2136C2.95736 42.6971 3.61311 42.9688 4.29688 42.9688H24.0625V44.6875Z" fill="#FF6B00"/>
<path d="M7.73438 0H9.45398V1.71875H7.73438V0Z" fill="#FF6B00"/>
<path d="M50.7031 44.6875V42.9688C51.3869 42.9687 52.0426 42.6971 52.5261 42.2136C53.0096 41.7301 53.2812 41.0744 53.2812 40.3906V4.29688C53.2812 3.61311 53.0096 2.95736 52.5261 2.47387C52.0426 1.99037 51.3869 1.71875 50.7031 1.71875H11.1719V0H50.7031C51.8423 0.00136457 52.9344 0.454508 53.74 1.26003C54.5455 2.06556 54.9986 3.15769 55 4.29688V40.3906C54.9986 41.5298 54.5455 42.6219 53.74 43.4275C52.9344 44.233 51.8423 44.6861 50.7031 44.6875Z" fill="#FF6B00"/>
<path d="M16.3543 47.075L17.2153 43.638L18.8825 44.0557L18.0215 47.4926L16.3543 47.075Z" fill="#FF6B00"/>
<path d="M24.0625 51.5625H15.4688C15.2408 51.5625 15.0222 51.472 14.8611 51.3108C14.6999 51.1496 14.6094 50.931 14.6094 50.7031V48.9844C14.6094 48.3006 14.881 47.6449 15.3645 47.1614C15.848 46.6779 16.5037 46.4062 17.1875 46.4062H24.0625V48.125H17.1875C16.9596 48.125 16.741 48.2155 16.5798 48.3767C16.4187 48.5379 16.3281 48.7565 16.3281 48.9844V49.8438H24.0625V51.5625Z" fill="#FF6B00"/>
<path d="M0.859375 36.0938H24.0625V37.8125H0.859375V36.0938Z" fill="#FF6B00"/>
<path d="M3.4375 39.5312H5.15625V41.25H3.4375V39.5312Z" fill="#FF6B00"/>
<path d="M6.875 39.5312H12.0312V41.25H6.875V39.5312Z" fill="#FF6B00"/>
<path d="M47.2656 55H30.0781C28.9389 54.9986 27.8468 54.5455 27.0413 53.74C26.2358 52.9344 25.7826 51.8423 25.7812 50.7031V16.3281C25.7826 15.1889 26.2358 14.0968 27.0413 13.2913C27.8468 12.4858 28.9389 12.0326 30.0781 12.0312H47.2656C48.4048 12.0326 49.4969 12.4858 50.3025 13.2913C51.108 14.0968 51.5611 15.1889 51.5625 16.3281V50.7031C51.5611 51.8423 51.108 52.9344 50.3025 53.74C49.4969 54.5455 48.4048 54.9986 47.2656 55ZM30.0781 13.75C29.3944 13.75 28.7386 14.0216 28.2551 14.5051C27.7716 14.9886 27.5 15.6444 27.5 16.3281V50.7031C27.5 51.3869 27.7716 52.0426 28.2551 52.5261C28.7386 53.0096 29.3944 53.2812 30.0781 53.2812H47.2656C47.9494 53.2812 48.6051 53.0096 49.0886 52.5261C49.5721 52.0426 49.8438 51.3869 49.8438 50.7031V16.3281C49.8438 15.6444 49.5721 14.9886 49.0886 14.5051C48.6051 14.0216 47.9494 13.75 47.2656 13.75H30.0781Z" fill="#FF6B00"/>
<path d="M42.9688 20.625H34.375C32.7645 20.625 32.0899 19.2225 31.8768 18.0469H26.6406V16.3281H32.6562C32.8842 16.3281 33.1028 16.4187 33.2639 16.5798C33.4251 16.741 33.5156 16.9596 33.5156 17.1875C33.5156 17.2021 33.5637 18.9062 34.375 18.9062H42.9688C43.78 18.9062 43.8281 17.2021 43.8281 17.1875C43.8281 16.9596 43.9187 16.741 44.0798 16.5798C44.241 16.4187 44.4596 16.3281 44.6875 16.3281H50.7031V18.0469H45.467C45.2538 19.2225 44.5792 20.625 42.9688 20.625Z" fill="#FF6B00"/>
<path d="M35.2344 15.4688H42.1094V17.1875H35.2344V15.4688Z" fill="#FF6B00"/>
<path d="M35.2344 50.7031H42.1094V52.4219H35.2344V50.7031Z" fill="#FF6B00"/>
<path d="M26.6406 48.125H50.7031V49.8438H26.6406V48.125Z" fill="#FF6B00"/>
<path d="M15.4688 24.0625H12.0312C11.8033 24.0625 11.5847 23.972 11.4236 23.8108C11.2624 23.6496 11.1719 23.431 11.1719 23.2031V21.9433C10.692 21.7921 10.2264 21.5989 9.78055 21.3658L8.88852 22.2578C8.72736 22.4189 8.50881 22.5094 8.28094 22.5094C8.05306 22.5094 7.83452 22.4189 7.67336 22.2578L5.24219 19.8266C5.08108 19.6655 4.99057 19.4469 4.99057 19.2191C4.99057 18.9912 5.08108 18.7726 5.24219 18.6115L6.13336 17.7195C5.90056 17.2736 5.7076 16.808 5.55672 16.3281H4.29688C4.06895 16.3281 3.85037 16.2376 3.68921 16.0764C3.52804 15.9153 3.4375 15.6967 3.4375 15.4688V12.0312C3.4375 11.8033 3.52804 11.5847 3.68921 11.4236C3.85037 11.2624 4.06895 11.1719 4.29688 11.1719H5.55672C5.70787 10.692 5.90113 10.2264 6.13422 9.78055L5.24219 8.88852C5.08108 8.72736 4.99057 8.50881 4.99057 8.28094C4.99057 8.05306 5.08108 7.83452 5.24219 7.67336L7.67336 5.24219C7.83452 5.08108 8.05306 4.99057 8.28094 4.99057C8.50881 4.99057 8.72736 5.08108 8.88852 5.24219L9.78055 6.13336C10.2264 5.90056 10.692 5.7076 11.1719 5.55672V4.29688C11.1719 4.06895 11.2624 3.85037 11.4236 3.68921C11.5847 3.52804 11.8033 3.4375 12.0312 3.4375H15.4688C15.6967 3.4375 15.9153 3.52804 16.0764 3.68921C16.2376 3.85037 16.3281 4.06895 16.3281 4.29688V5.55672C16.808 5.70787 17.2736 5.90113 17.7195 6.13422L18.6115 5.24219C18.7726 5.08108 18.9912 4.99057 19.2191 4.99057C19.4469 4.99057 19.6655 5.08108 19.8266 5.24219L22.2578 7.67336C22.4189 7.83452 22.5094 8.05306 22.5094 8.28094C22.5094 8.50881 22.4189 8.72736 22.2578 8.88852L21.3666 9.78055C21.5994 10.2264 21.7924 10.692 21.9433 11.1719H23.2031C23.431 11.1719 23.6496 11.2624 23.8108 11.4236C23.972 11.5847 24.0625 11.8033 24.0625 12.0312V15.4688C24.0625 15.6967 23.972 15.9153 23.8108 16.0764C23.6496 16.2376 23.431 16.3281 23.2031 16.3281H21.9433C21.7921 16.808 21.5989 17.2736 21.3658 17.7195L22.2578 18.6115C22.4189 18.7726 22.5094 18.9912 22.5094 19.2191C22.5094 19.4469 22.4189 19.6655 22.2578 19.8266L19.8266 22.2578C19.6655 22.4189 19.4469 22.5094 19.2191 22.5094C18.9912 22.5094 18.7726 22.4189 18.6115 22.2578L17.7195 21.3666C17.2736 21.5994 16.808 21.7924 16.3281 21.9433V23.2031C16.3281 23.431 16.2376 23.6496 16.0764 23.8108C15.9153 23.972 15.6967 24.0625 15.4688 24.0625ZM12.8906 22.3438H14.6094V21.2867C14.6092 21.0918 14.6753 20.9026 14.7968 20.7502C14.9182 20.5978 15.0879 20.4912 15.278 20.448C16.0314 20.2766 16.75 19.9781 17.4032 19.5654C17.5681 19.4613 17.7636 19.4165 17.9574 19.4382C18.1512 19.4599 18.3319 19.5469 18.4697 19.6848L19.2191 20.4342L20.4342 19.2191L19.6848 18.4697C19.5469 18.3319 19.4599 18.1512 19.4382 17.9574C19.4165 17.7636 19.4613 17.5681 19.5654 17.4032C19.9781 16.75 20.2766 16.0314 20.448 15.278C20.4912 15.0879 20.5978 14.9182 20.7502 14.7968C20.9026 14.6753 21.0918 14.6092 21.2867 14.6094H22.3438V12.8906H21.2867C21.0918 12.8908 20.9026 12.8247 20.7502 12.7032C20.5978 12.5818 20.4912 12.4121 20.448 12.222C20.2766 11.4686 19.9781 10.75 19.5654 10.0968C19.4613 9.93185 19.4165 9.73643 19.4382 9.54262C19.4599 9.34881 19.5469 9.16815 19.6848 9.03031L20.4342 8.28094L19.2191 7.06578L18.4697 7.81516C18.3319 7.95312 18.1512 8.04011 17.9574 8.06181C17.7636 8.08352 17.5681 8.03866 17.4032 7.93461C16.75 7.52188 16.0314 7.22342 15.278 7.05203C15.0879 7.00876 14.9182 6.90218 14.7968 6.74977C14.6753 6.59736 14.6092 6.40819 14.6094 6.21328V5.15625H12.8906V6.21328C12.8908 6.40819 12.8247 6.59736 12.7032 6.74977C12.5818 6.90218 12.4121 7.00876 12.222 7.05203C11.4686 7.22342 10.75 7.52188 10.0968 7.93461C9.93185 8.03866 9.73643 8.08352 9.54262 8.06181C9.34881 8.04011 9.16815 7.95312 9.03031 7.81516L8.28094 7.06578L7.06578 8.28094L7.81516 9.03031C7.95312 9.16815 8.04011 9.34881 8.06181 9.54262C8.08352 9.73643 8.03866 9.93185 7.93461 10.0968C7.52188 10.75 7.22342 11.4686 7.05203 12.222C7.00876 12.4121 6.90218 12.5818 6.74977 12.7032C6.59736 12.8247 6.40819 12.8908 6.21328 12.8906H5.15625V14.6094H6.21328C6.40819 14.6092 6.59736 14.6753 6.74977 14.7968C6.90218 14.9182 7.00876 15.0879 7.05203 15.278C7.22342 16.0314 7.52188 16.75 7.93461 17.4032C8.03866 17.5681 8.08352 17.7636 8.06181 17.9574C8.04011 18.1512 7.95312 18.3319 7.81516 18.4697L7.06578 19.2191L8.28094 20.4342L9.03031 19.6848C9.16815 19.5469 9.34881 19.4599 9.54262 19.4382C9.73643 19.4165 9.93185 19.4613 10.0968 19.5654C10.75 19.9781 11.4686 20.2766 12.222 20.448C12.4121 20.4912 12.5818 20.5978 12.7032 20.7502C12.8247 20.9026 12.8908 21.0918 12.8906 21.2867V22.3438Z" fill="#FF6B00"/>
<path d="M13.75 18.0469C12.9002 18.0469 12.0694 17.7949 11.3628 17.3227C10.6562 16.8506 10.1054 16.1795 9.78021 15.3943C9.45499 14.6092 9.36989 13.7452 9.53569 12.9117C9.70149 12.0782 10.1107 11.3126 10.7117 10.7117C11.3126 10.1107 12.0782 9.70149 12.9117 9.53569C13.7452 9.36989 14.6092 9.45499 15.3943 9.78021C16.1795 10.1054 16.8506 10.6562 17.3227 11.3628C17.7949 12.0694 18.0469 12.9002 18.0469 13.75C18.0455 14.8892 17.5924 15.9813 16.7868 16.7868C15.9813 17.5924 14.8892 18.0455 13.75 18.0469ZM13.75 11.1719C13.2401 11.1719 12.7416 11.3231 12.3177 11.6064C11.8937 11.8897 11.5633 12.2923 11.3681 12.7634C11.173 13.2345 11.1219 13.7529 11.2214 14.253C11.3209 14.7531 11.5664 15.2125 11.927 15.573C12.2875 15.9336 12.7469 16.1791 13.247 16.2786C13.7471 16.3781 14.2655 16.327 14.7366 16.1319C15.2077 15.9367 15.6103 15.6063 15.8936 15.1823C16.1769 14.7584 16.3281 14.2599 16.3281 13.75C16.3281 13.0662 16.0565 12.4105 15.573 11.927C15.0895 11.4435 14.4338 11.1719 13.75 11.1719Z" fill="#FF6B00"/>
<path d="M14.6094 35.2344H12.8906V31.7969C12.8906 31.569 12.9812 31.3504 13.1423 31.1892C13.3035 31.028 13.5221 30.9375 13.75 30.9375H15.0098C15.161 30.4576 15.3543 29.992 15.5873 29.5462L14.6953 28.6541C14.5342 28.493 14.4437 28.2744 14.4437 28.0466C14.4437 27.8187 14.5342 27.6001 14.6953 27.439L17.1265 25.0078C17.2876 24.8467 17.5062 24.7562 17.7341 24.7562C17.9619 24.7562 18.1805 24.8467 18.3416 25.0078L19.2337 25.899C19.6796 25.6662 20.1452 25.4732 20.625 25.3223V24.0625C20.625 23.8346 20.7155 23.616 20.8767 23.4548C21.0379 23.2937 21.2565 23.2031 21.4844 23.2031H24.9219V24.9219H22.3438V25.9789C22.3439 26.1738 22.2779 26.363 22.1564 26.5154C22.0349 26.6678 21.8652 26.7744 21.6752 26.8177C20.9218 26.989 20.2031 27.2875 19.5499 27.7002C19.385 27.8043 19.1896 27.8491 18.9957 27.8274C18.8019 27.8057 18.6213 27.7187 18.4834 27.5808L17.7341 26.8314L16.5189 28.0466L17.2683 28.7959C17.4062 28.9338 17.4932 29.1144 17.5149 29.3082C17.5366 29.5021 17.4918 29.6975 17.3877 29.8624C16.975 30.5156 16.6765 31.2343 16.5052 31.9877C16.4619 32.1777 16.3553 32.3474 16.2029 32.4689C16.0505 32.5904 15.8613 32.6564 15.6664 32.6562H14.6094V35.2344Z" fill="#FF6B00"/>
<path d="M20.625 33.5156H18.9062C18.9076 32.3764 19.3608 31.2843 20.1663 30.4788C20.9718 29.6733 22.0639 29.2201 23.2031 29.2188V30.9375C22.5194 30.9375 21.8636 31.2091 21.3801 31.6926C20.8966 32.1761 20.625 32.8319 20.625 33.5156Z" fill="#FF6B00"/>
<path d="M38.6719 42.9688C36.8022 42.9688 34.9746 42.4143 33.42 41.3756C31.8654 40.3369 30.6538 38.8605 29.9383 37.1332C29.2228 35.4059 29.0356 33.5051 29.4004 31.6714C29.7651 29.8377 30.6655 28.1533 31.9875 26.8313C33.3096 25.5092 34.9939 24.6089 36.8277 24.2441C38.6614 23.8794 40.5621 24.0666 42.2894 24.7821C44.0168 25.4976 45.4931 26.7092 46.5319 28.2638C47.5706 29.8183 48.125 31.646 48.125 33.5156C48.122 36.0218 47.1251 38.4246 45.353 40.1967C43.5808 41.9689 41.1781 42.9658 38.6719 42.9688ZM38.6719 25.7813C37.1422 25.7813 35.6468 26.2349 34.3749 27.0847C33.103 27.9346 32.1116 29.1425 31.5263 30.5558C30.9409 31.9691 30.7877 33.5242 31.0861 35.0245C31.3846 36.5249 32.1212 37.903 33.2029 38.9847C34.2845 40.0663 35.6627 40.803 37.163 41.1014C38.6633 41.3998 40.2184 41.2467 41.6317 40.6613C43.045 40.0759 44.2529 39.0845 45.1028 37.8126C45.9526 36.5407 46.4063 35.0453 46.4063 33.5156C46.4038 31.4651 45.5881 29.4993 44.1381 28.0494C42.6882 26.5994 40.7224 25.7838 38.6719 25.7813Z" fill="#FF6B00"/>
<path d="M36.9532 39.5313C36.7253 39.5313 36.5067 39.4407 36.3456 39.2795L32.0487 34.9826C31.8876 34.8215 31.7971 34.6029 31.7971 34.3751C31.7971 34.1472 31.8876 33.9286 32.0487 33.7675L34.6268 31.1894C34.788 31.0282 35.0065 30.9377 35.2344 30.9377C35.4623 30.9377 35.6808 31.0282 35.842 31.1894L36.9532 32.3005L41.5018 27.7519C41.663 27.5907 41.8815 27.5002 42.1094 27.5002C42.3373 27.5002 42.5558 27.5907 42.717 27.7519L45.2951 30.33C45.4562 30.4911 45.5467 30.7097 45.5467 30.9376C45.5467 31.1654 45.4562 31.384 45.2951 31.5451L37.5607 39.2795C37.3996 39.4407 37.1811 39.5313 36.9532 39.5313ZM33.8714 34.3751L36.9532 37.4568L43.4724 30.9376L42.1094 29.5746L37.5607 34.1233C37.3996 34.2844 37.181 34.3749 36.9532 34.3749C36.7253 34.3749 36.5067 34.2844 36.3456 34.1233L35.2344 33.0121L33.8714 34.3751Z" fill="#FF6B00"/>
<path d="M48.9844 3.4375H50.7031V5.15625H48.9844V3.4375Z" fill="#FF6B00"/>
<path d="M36.0938 3.4375H47.2656V5.15625H36.0938V3.4375Z" fill="#FF6B00"/>
</svg>
