<svg width="55" height="55" viewBox="0 0 55 55" fill="none" xmlns="http://www.w3.org/2000/svg">
<path d="M46.4062 10.7422C45.8133 10.7422 45.332 11.2234 45.332 11.8164C45.332 12.4094 45.8133 12.8906 46.4062 12.8906C46.9992 12.8906 47.4805 12.4094 47.4805 11.8164C47.4805 11.2234 46.9992 10.7422 46.4062 10.7422Z" fill="#FF6B00"/>
<path d="M8.59375 10.7422C8.00078 10.7422 7.51953 11.2234 7.51953 11.8164C7.51953 12.4094 8.00078 12.8906 8.59375 12.8906C9.18672 12.8906 9.66797 12.4094 9.66797 11.8164C9.66797 11.2234 9.18672 10.7422 8.59375 10.7422Z" fill="#FF6B00"/>
<path d="M53.9258 23.6327H52.641C52.2395 20.5385 51.2692 17.5899 49.7466 14.8558C49.458 14.3376 48.8039 14.1512 48.2855 14.4398C47.7672 14.7285 47.5809 15.3827 47.8696 15.901C49.2132 18.314 50.0874 20.9098 50.4748 23.6327H49.6289C49.0356 23.6327 48.5547 24.1136 48.5547 24.7069V29.0038C48.5547 29.597 49.0356 30.078 49.6289 30.078H53.9258C54.5191 30.078 55 29.597 55 29.0038V24.7069C55 24.1136 54.5191 23.6327 53.9258 23.6327ZM52.8516 27.9295H50.7031V25.7811H51.6783C51.6786 25.7811 51.6791 25.7811 51.6794 25.7811C51.6798 25.7811 51.6801 25.7811 51.6806 25.7811H52.8516V27.9295Z" fill="#FF6B00"/>
<path d="M39.3144 31.4339C39.3137 31.4172 39.3133 31.4006 39.3119 31.3839C39.31 31.3612 39.3068 31.3387 39.3035 31.3164C39.3015 31.3026 39.2999 31.2889 39.2972 31.2751C39.2922 31.2488 39.2858 31.223 39.279 31.1974C39.2764 31.1876 39.2744 31.1778 39.2715 31.1681C39.2619 31.136 39.2508 31.1045 39.2383 31.0737C39.2369 31.0704 39.2359 31.0668 39.2345 31.0635C39.2197 31.0276 39.2031 30.9927 39.1846 30.959L28.4426 11.3012C28.2543 10.9566 27.8928 10.7422 27.5 10.7422C27.1072 10.7422 26.7457 10.9566 26.5574 11.3013L15.8154 30.9591C15.7969 30.9928 15.7803 31.0277 15.7654 31.0636C15.7641 31.0669 15.7631 31.0704 15.7617 31.0738C15.7492 31.1046 15.7381 31.1361 15.7285 31.1682C15.7256 31.1779 15.7236 31.1877 15.721 31.1975C15.7141 31.2231 15.7078 31.2488 15.7028 31.2752C15.7002 31.2889 15.6986 31.3026 15.6965 31.3165C15.6932 31.3388 15.69 31.3613 15.6881 31.3841C15.6867 31.4007 15.6862 31.4174 15.6856 31.434C15.6851 31.4475 15.6836 31.4609 15.6836 31.4746C15.6836 31.4817 15.6846 31.4885 15.6847 31.4956C15.685 31.5124 15.6861 31.5292 15.6872 31.546C15.6886 31.5674 15.6904 31.5887 15.693 31.6097C15.695 31.6246 15.6973 31.6393 15.6998 31.6541C15.7037 31.6773 15.7083 31.7003 15.7137 31.723C15.7167 31.7358 15.72 31.7485 15.7236 31.7612C15.7303 31.7857 15.7381 31.8098 15.7464 31.8335C15.7488 31.8403 15.7503 31.8471 15.7529 31.8539L19.6269 42.1201C19.3162 42.2742 19.0287 42.4788 18.7762 42.7312C18.1673 43.3401 17.832 44.1493 17.832 45.0098C17.832 46.4101 18.7302 47.6042 19.9805 48.0477V53.9258C19.9805 54.5191 20.4614 55 21.0547 55H33.9453C34.5386 55 35.0195 54.5191 35.0195 53.9258V48.0495C35.4674 47.8915 35.878 47.6342 36.2239 47.2883C36.8327 46.6794 37.168 45.8702 37.168 45.0098C37.168 43.7451 36.4355 42.6488 35.3726 42.1215L39.2472 31.8539C39.2498 31.8471 39.2513 31.8403 39.2537 31.8335C39.262 31.8098 39.2698 31.7857 39.2766 31.7612C39.2801 31.7485 39.2833 31.7358 39.2864 31.723C39.2918 31.7003 39.2963 31.6773 39.3003 31.6541C39.3028 31.6393 39.3052 31.6246 39.3071 31.6097C39.3097 31.5887 39.3115 31.5674 39.3129 31.546C39.3139 31.5292 39.3151 31.5124 39.3154 31.4956C39.3155 31.4886 39.3165 31.4817 39.3165 31.4746C39.3164 31.4609 39.3149 31.4475 39.3144 31.4339ZM27.5 30.4004C28.0923 30.4004 28.5742 30.8823 28.5742 31.4746C28.5742 32.0669 28.0923 32.5488 27.5 32.5488C26.9077 32.5488 26.4258 32.0669 26.4258 31.4746C26.4258 30.8823 26.9077 30.4004 27.5 30.4004ZM32.8711 52.8516H22.1289V48.2324H32.8711V52.8516ZM34.7047 45.769C34.5016 45.9722 34.2319 46.084 33.9453 46.084H21.0547C20.4624 46.084 19.9805 45.6021 19.9805 45.0098C19.9805 44.7232 20.0923 44.4534 20.2953 44.2505C20.4985 44.0474 20.7681 43.9355 21.0547 43.9355H33.9381C33.9405 43.9355 33.9428 43.9359 33.9452 43.9359C33.9464 43.9359 33.9477 43.9358 33.9489 43.9358C34.5396 43.9377 35.0196 44.4186 35.0196 45.0098C35.0195 45.2964 34.9077 45.5661 34.7047 45.769ZM33.2025 41.7871H21.7975L18.3113 32.5488H21.0547C21.648 32.5488 22.1289 32.0679 22.1289 31.4746C22.1289 30.8813 21.648 30.4004 21.0547 30.4004H18.5689L26.4258 16.0224V28.4367C25.1755 28.8802 24.2773 30.0742 24.2773 31.4746C24.2773 33.2516 25.723 34.6973 27.5 34.6973C29.277 34.6973 30.7227 33.2516 30.7227 31.4746C30.7227 30.0743 29.8245 28.8802 28.5742 28.4367V16.0224L36.4311 30.4004H33.9453C33.352 30.4004 32.8711 30.8813 32.8711 31.4746C32.8711 32.0679 33.352 32.5488 33.9453 32.5488H36.6887L33.2025 41.7871Z" fill="#FF6B00"/>
<path d="M6.7144 14.4399C6.19599 14.1512 5.54179 14.3374 5.25325 14.8558C3.73076 17.5899 2.76042 20.5386 2.35898 23.6328H1.07422C0.480928 23.6328 0 24.1137 0 24.707V29.0038C0 29.5971 0.480928 30.0781 1.07422 30.0781H5.37109C5.96438 30.0781 6.44531 29.5971 6.44531 29.0038V24.707C6.44531 24.1137 5.96438 23.6328 5.37109 23.6328H4.52515C4.91262 20.9099 5.78671 18.3141 7.13034 15.9011C7.41898 15.3828 7.23282 14.7286 6.7144 14.4399ZM4.29688 27.9296H2.14844V25.7812H3.31944C3.31987 25.7812 3.3202 25.7812 3.32063 25.7812C3.32095 25.7812 3.32138 25.7812 3.3217 25.7812H4.29688V27.9296Z" fill="#FF6B00"/>
<path d="M51.7773 0C50.377 0 49.1829 0.898154 48.7395 2.14844H30.7227V1.07422C30.7227 0.480928 30.2417 0 29.6484 0H25.3516C24.7583 0 24.2773 0.480928 24.2773 1.07422V2.14844H6.26055C5.81711 0.898154 4.62301 0 3.22266 0C1.44568 0 0 1.44568 0 3.22266C0 4.99963 1.44568 6.44531 3.22266 6.44531C4.62301 6.44531 5.81711 5.54716 6.26055 4.29687H17.0601C14.7689 5.25561 12.6677 6.5002 10.9382 7.95824C10.4846 8.34066 10.4269 9.01839 10.8093 9.47192C11.0218 9.72404 11.3255 9.85381 11.6311 9.85381C11.8756 9.85381 12.1214 9.77088 12.3229 9.60094C15.405 7.00262 19.8035 5.1469 24.2773 4.5245V5.37109C24.2773 5.96438 24.7583 6.44531 25.3516 6.44531H29.6484C30.2417 6.44531 30.7227 5.96438 30.7227 5.37109V4.5245C35.1965 5.1469 39.595 7.00262 42.6771 9.60083C42.8786 9.77077 43.1244 9.85381 43.3689 9.8537C43.6746 9.8537 43.9783 9.72394 44.1907 9.47182C44.5732 9.01839 44.5154 8.34066 44.0618 7.95824C42.3323 6.5002 40.2311 5.25561 37.9399 4.29687H48.7395C49.1829 5.54716 50.3769 6.44531 51.7773 6.44531C53.5543 6.44531 55 4.99963 55 3.22266C55 1.44568 53.5543 0 51.7773 0ZM3.22266 4.29687C2.63033 4.29687 2.14844 3.81498 2.14844 3.22266C2.14844 2.63033 2.63033 2.14844 3.22266 2.14844C3.81498 2.14844 4.29688 2.63033 4.29688 3.22266C4.29688 3.81498 3.81498 4.29687 3.22266 4.29687ZM28.5742 3.22266V3.31934V4.29687H26.4258V3.31934V3.22266V2.14844H28.5742V3.22266ZM51.7773 4.29687C51.185 4.29687 50.7031 3.81498 50.7031 3.22266C50.7031 2.63033 51.185 2.14844 51.7773 2.14844C52.3697 2.14844 52.8516 2.63033 52.8516 3.22266C52.8516 3.81498 52.3697 4.29687 51.7773 4.29687Z" fill="#FF6B00"/>
</svg>
