<svg width="58" height="58" viewBox="0 0 58 58" fill="none" xmlns="http://www.w3.org/2000/svg">
<rect width="58" height="58" rx="6" fill="#FFF5EF"/>
<path d="M43.0117 16H14.9883C13.3426 16 12 17.3411 12 18.9883V38.9102C12 40.5517 13.3366 41.8984 14.9883 41.8984H43.0117C44.6533 41.8984 46 40.5618 46 38.9102V18.9883C46 17.3467 44.6634 16 43.0117 16ZM42.5991 17.9922L29.0634 31.528L15.4106 17.9922H42.5991ZM13.9922 38.4976V19.3913L23.5865 28.9033L13.9922 38.4976ZM15.4009 39.9062L25.0012 30.3059L28.3652 33.641C28.7546 34.027 29.383 34.0258 29.7708 33.6379L33.0508 30.3579L42.5991 39.9062H15.4009ZM44.0078 38.4976L34.4595 28.9492L44.0078 19.4008V38.4976Z" fill="#FF6B00"/>
</svg>
