<svg width="68" height="56" viewBox="0 0 68 56" fill="none" xmlns="http://www.w3.org/2000/svg">
<path d="M63.8537 7.31733H34.8289V1.51246C34.8289 1.05219 34.4598 0.683105 33.9995 0.683105H4.14571C1.85687 0.683105 -0.000762939 2.54074 -0.000762939 4.82957V44.6349C-0.000762939 46.9237 1.85687 48.7814 4.14571 48.7814H33.1703V54.5864C33.1703 55.0467 33.5394 55.4158 33.9997 55.4158H63.8537C66.1425 55.4158 68.0002 53.5581 68.0002 51.2693V11.4638C68.0002 9.17909 66.1425 7.31733 63.8537 7.31733ZM4.14571 47.1228C2.77329 47.1228 1.65779 46.0075 1.65779 44.6349V4.82957C1.65779 3.45716 2.77314 2.34166 4.14571 2.34166H33.1703V8.14669V47.1228H4.14571ZM66.3416 51.2691C66.3416 52.6415 65.2263 53.757 63.8537 53.757H34.8289V47.952V8.97588H63.8537C65.2261 8.97588 66.3416 10.0912 66.3416 11.4638V51.2691Z" fill="#FF6B00"/>
<path d="M27.366 7.31689H20.7317C20.2715 7.31689 19.9024 7.68597 19.9024 8.14625C19.9024 8.60653 20.2715 8.97561 20.7317 8.97561H27.366C27.8262 8.97561 28.1953 8.60653 28.1953 8.14625C28.1952 7.68597 27.8262 7.31689 27.366 7.31689Z" fill="#FF6B00"/>
<path d="M27.3665 15.6097C27.8268 15.6097 28.1959 15.2406 28.1959 14.7803C28.1959 14.32 27.8268 13.951 27.3665 13.951H14.9273V8.14625C14.9273 7.68597 14.5582 7.31689 14.0979 7.31689H7.46385C7.00357 7.31689 6.63449 7.68597 6.63449 8.14625V28.0489C6.63449 28.5092 7.00357 28.8783 7.46385 28.8783H14.0981H27.3665C27.8268 28.8783 28.1959 28.5092 28.1959 28.0489C28.1959 27.5886 27.8268 27.2196 27.3665 27.2196H14.9273V22.2439H20.7323C21.1926 22.2439 21.5617 21.8748 21.5617 21.4145C21.5617 20.9543 21.1926 20.5852 20.7323 20.5852H14.9273V15.6095H27.3665V15.6097ZM8.29305 8.97545H13.2687V27.2196H8.29305V8.97545Z" fill="#FF6B00"/>
<path d="M27.3665 40.4884H7.46385C7.00357 40.4884 6.63449 40.8575 6.63449 41.3178C6.63449 41.778 7.00357 42.1471 7.46385 42.1471H27.3665C27.8268 42.1471 28.1959 41.778 28.1959 41.3178C28.1957 40.8615 27.8268 40.4884 27.3665 40.4884Z" fill="#FF6B00"/>
<path d="M60.5378 13.9512H47.2694H40.6352C40.1749 13.9512 39.806 14.3203 39.806 14.7805V41.3174C39.806 41.7777 40.1751 42.1468 40.6352 42.1468H47.2694H60.5378C60.9981 42.1468 61.3672 41.7777 61.3672 41.3174C61.3672 40.8571 60.9981 40.4881 60.5378 40.4881H48.0986V28.8782H53.9036C54.3639 28.8782 54.733 28.5091 54.733 28.0488C54.733 27.5885 54.3639 27.2195 53.9036 27.2195H48.0986V22.2438H53.9036C54.3639 22.2438 54.733 21.8747 54.733 21.4144C54.733 20.9542 54.3639 20.5851 53.9036 20.5851H48.0986V15.6094H60.5378C60.9981 15.6094 61.3672 15.2403 61.3672 14.7801C61.3672 14.3244 60.9981 13.9512 60.5378 13.9512ZM41.4645 15.6097H46.4402V40.4881H41.4645V15.6097Z" fill="#FF6B00"/>
<path d="M60.5378 47.1224H40.6352C40.1749 47.1224 39.806 47.4915 39.806 47.9518C39.806 48.4121 40.1751 48.7812 40.6352 48.7812H60.5378C60.9981 48.7812 61.3672 48.4121 61.3672 47.9518C61.3672 47.4915 60.9981 47.1224 60.5378 47.1224Z" fill="#FF6B00"/>
<path d="M60.5374 33.854H53.9032C53.4429 33.854 53.0739 34.2231 53.0739 34.6832C53.0739 35.1435 53.4429 35.5126 53.9032 35.5126H60.5374C60.9977 35.5126 61.3668 35.1435 61.3668 34.6832C61.3668 34.2229 60.9977 33.854 60.5374 33.854Z" fill="#FF6B00"/>
</svg>
