<svg width="60" height="58" viewBox="0 0 60 58" fill="none" xmlns="http://www.w3.org/2000/svg">
<rect width="60" height="58" rx="6" fill="#FFDFCA" fill-opacity="0.3"/>
<path d="M27.584 32.9646L24.5911 29.9718C24.309 29.6898 24.3091 29.2326 24.5911 28.9506L25.3454 28.1963C25.6274 27.9143 26.0846 27.9143 26.3666 28.1963L27.584 29.4137C27.8659 29.6956 28.3231 29.6956 28.6051 29.4137L33.4769 24.5418C33.7589 24.2599 34.2161 24.2598 34.498 24.5418L35.2524 25.2961C35.5344 25.5781 35.5344 26.0353 35.2524 26.3173L28.6051 32.9646C28.3231 33.2466 27.8659 33.2466 27.584 32.9646Z" stroke="#FF6B00" stroke-width="1.29258" stroke-miterlimit="10" stroke-linecap="round" stroke-linejoin="round"/>
<path d="M47.5846 28.6234C47.5846 29.4597 46.5552 30.2134 46.4406 31.018C46.3231 31.8426 47.0978 32.8544 46.8683 33.6373C46.6348 34.4338 45.4344 34.8666 45.094 35.6109C44.7497 36.3636 45.2062 37.5539 44.7618 38.2439C44.3148 38.9381 43.0413 39.015 42.5025 39.6364C41.9625 40.2589 42.0666 41.5302 41.4439 42.0701C40.8225 42.609 39.5791 42.3262 38.8849 42.7733C38.1949 43.2177 37.9379 44.4674 37.1852 44.8117C36.4409 45.1521 35.3283 44.5303 34.5318 44.7638C33.7489 44.9933 33.1489 46.1193 32.3243 46.2368C31.5197 46.3515 30.6285 45.4408 29.7922 45.4408C28.956 45.4408 28.0648 46.3515 27.2601 46.2368C26.4355 46.1193 25.8355 44.9933 25.0526 44.7638C24.2561 44.5303 23.1435 45.152 22.3992 44.8116C21.6465 44.4673 21.3895 43.2176 20.6995 42.7732C20.0053 42.3262 18.7619 42.6089 18.1405 42.0701C17.5179 41.5301 17.6219 40.2589 17.082 39.6363C16.5432 39.0149 15.2697 38.938 14.8226 38.2438C14.3783 37.5538 14.8348 36.3635 14.4905 35.6108C14.15 34.8665 12.9497 34.4337 12.7162 33.6372C12.4867 32.8544 13.2614 31.8425 13.1439 31.0179C13.0294 30.2134 12 29.4597 12 28.6234C12 27.7872 13.0294 27.0335 13.144 26.2289C13.2615 25.4043 12.4868 24.3925 12.7163 23.6096C12.9498 22.8131 14.1502 22.3803 14.4906 21.636C14.8349 20.8833 14.3784 19.693 14.8228 19.003C15.2698 18.3088 16.5433 18.2319 17.0822 17.6105C17.6221 16.988 17.5181 15.7167 18.1407 15.1768C18.7621 14.6379 20.0055 14.9206 20.6998 14.4736C21.3898 14.0292 21.6467 12.7795 22.3994 12.4352C23.1437 12.0948 24.2563 12.7166 25.0528 12.4831C25.8357 12.2536 26.4357 11.1276 27.2603 11.0101C28.0648 10.8954 28.956 11.806 29.7923 11.806C30.6286 11.806 31.5198 10.8953 32.3244 11.01C33.149 11.1275 33.749 12.2535 34.5319 12.4831C35.3285 12.7165 36.441 12.0948 37.1854 12.4352C37.938 12.7795 38.195 14.0292 38.885 14.4736C39.5792 14.9206 40.8227 14.6379 41.4441 15.1768C42.0666 15.7167 41.9627 16.9879 42.5025 17.6105C43.0414 18.232 44.3148 18.3088 44.7619 19.003C45.2063 19.693 44.7497 20.8833 45.0941 21.636C45.4345 22.3803 46.6349 22.8131 46.8683 23.6096C47.0978 24.3925 46.3231 25.4043 46.4407 26.2289C46.5552 27.0335 47.5846 27.7872 47.5846 28.6234Z" stroke="#FF6B00" stroke-width="1.29258" stroke-miterlimit="10" stroke-linecap="round" stroke-linejoin="round"/>
<path d="M20.822 18.5266C23.2074 16.4059 26.3494 15.1177 29.7922 15.1177C37.2512 15.1177 43.298 21.1644 43.298 28.6234C43.298 36.0825 37.2512 42.1292 29.7922 42.1292C22.3332 42.1292 16.2864 36.0825 16.2864 28.6234C16.2864 25.5375 17.3215 22.6932 19.0633 20.4189" stroke="#FF6B00" stroke-width="1.29258" stroke-miterlimit="10" stroke-linecap="round" stroke-linejoin="round"/>
<path d="M35.6801 36.9354C34.0176 38.1152 31.9858 38.8087 29.7921 38.8087C24.167 38.8087 19.6068 34.2486 19.6068 28.6235C19.6068 22.9983 24.167 18.4382 29.7921 18.4382C35.4173 18.4382 39.9774 22.9984 39.9774 28.6235C39.9774 31.1518 39.0562 33.465 37.5311 35.2456" stroke="#FF6B00" stroke-width="1.29258" stroke-miterlimit="10" stroke-linecap="round" stroke-linejoin="round"/>
</svg>
