<svg width="58" height="58" viewBox="0 0 58 58" fill="none" xmlns="http://www.w3.org/2000/svg">
<rect width="58" height="58" rx="6" fill="#FFF5EF"/>
<path d="M38.8709 33.062C38.1748 32.3372 37.3352 31.9497 36.4454 31.9497C35.5628 31.9497 34.716 32.33 33.9913 33.0548L31.7237 35.3152C31.5371 35.2147 31.3505 35.1214 31.1711 35.0282C30.9128 34.899 30.6688 34.777 30.4607 34.6478C28.3366 33.2988 26.4063 31.5407 24.5549 29.2659C23.6579 28.1321 23.0551 27.1777 22.6174 26.2089C23.2058 25.6707 23.7512 25.111 24.2822 24.5728C24.4831 24.3719 24.6841 24.1638 24.885 23.9629C26.3919 22.4559 26.3919 20.5041 24.885 18.9971L22.926 17.0381C22.7035 16.8156 22.4739 16.586 22.2586 16.3564C21.8281 15.9115 21.376 15.4522 20.9095 15.0217C20.2135 14.3328 19.3811 13.9668 18.5056 13.9668C17.6301 13.9668 16.7834 14.3328 16.0658 15.0217C16.0586 15.0288 16.0586 15.0288 16.0514 15.036L13.6116 17.4974C12.6931 18.4159 12.1692 19.5353 12.0544 20.8342C11.8822 22.9295 12.4993 24.8814 12.9729 26.1587C14.1355 29.2946 15.872 32.2008 18.4625 35.3152C21.6056 39.0682 25.3873 42.0319 29.7072 44.1201C31.3577 44.9022 33.5607 45.8279 36.022 45.9858C36.1727 45.993 36.3306 46.0002 36.4741 46.0002C38.1318 46.0002 39.5239 45.4046 40.6146 44.2205C40.6218 44.2062 40.6362 44.199 40.6433 44.1847C41.0165 43.7326 41.4471 43.3235 41.8991 42.8858C42.2077 42.5916 42.5234 42.283 42.832 41.9601C43.5424 41.221 43.9156 40.3599 43.9156 39.4772C43.9156 38.5874 43.5352 37.7335 42.8105 37.0159L38.8709 33.062ZM41.4399 40.6182C41.4327 40.6254 41.4327 40.6182 41.4399 40.6182C41.16 40.9196 40.873 41.1923 40.5644 41.4937C40.098 41.9386 39.6244 42.405 39.1795 42.9289C38.4547 43.7039 37.6008 44.0698 36.4813 44.0698C36.3737 44.0698 36.2589 44.0698 36.1512 44.0627C34.02 43.9263 32.0394 43.0939 30.554 42.3835C26.4924 40.4173 22.926 37.6258 19.9623 34.0881C17.5153 31.1388 15.8792 28.4119 14.7956 25.4842C14.1283 23.6974 13.8843 22.3052 13.9919 20.992C14.0637 20.1525 14.3866 19.4564 14.9822 18.8608L17.4292 16.4138C17.7808 16.0837 18.154 15.9043 18.5199 15.9043C18.972 15.9043 19.338 16.177 19.5676 16.4066C19.5748 16.4138 19.582 16.421 19.5892 16.4281C20.0269 16.8372 20.4431 17.2606 20.8808 17.7126C21.1033 17.9423 21.3329 18.1719 21.5625 18.4087L23.5216 20.3677C24.2822 21.1284 24.2822 21.8316 23.5216 22.5923C23.3135 22.8004 23.1125 23.0085 22.9044 23.2094C22.3017 23.8265 21.7276 24.4006 21.1033 24.9603C21.0889 24.9747 21.0746 24.9819 21.0674 24.9962C20.4503 25.6133 20.5651 26.2161 20.6943 26.6251C20.7014 26.6467 20.7086 26.6682 20.7158 26.6897C21.2253 27.924 21.9429 29.0865 23.0336 30.4714L23.0408 30.4786C25.0213 32.9184 27.1095 34.8201 29.413 36.2768C29.7072 36.4633 30.0086 36.614 30.2957 36.7576C30.554 36.8867 30.798 37.0087 31.0061 37.1379C31.0348 37.1522 31.0635 37.1738 31.0922 37.1881C31.3362 37.3101 31.5658 37.3675 31.8026 37.3675C32.3982 37.3675 32.7713 36.9944 32.8933 36.8724L35.3475 34.4182C35.5915 34.1742 35.979 33.88 36.4311 33.88C36.876 33.88 37.242 34.1599 37.4644 34.4039C37.4716 34.411 37.4716 34.411 37.4788 34.4182L41.4327 38.3721C42.1718 39.1041 42.1718 39.8576 41.4399 40.6182Z" fill="#FF6B00"/>
<path d="M30.3746 20.0878C32.2546 20.4035 33.9625 21.2933 35.3259 22.6568C36.6894 24.0202 37.572 25.7281 37.8949 27.6082C37.9739 28.0818 38.3829 28.4119 38.8493 28.4119C38.9067 28.4119 38.957 28.4047 39.0144 28.3975C39.5454 28.3114 39.897 27.8091 39.8109 27.2781C39.4234 25.0033 38.347 22.9295 36.7037 21.2862C35.0604 19.6429 32.9866 18.5665 30.7118 18.179C30.1808 18.0929 29.6857 18.4445 29.5924 18.9683C29.4991 19.4922 29.8435 20.0017 30.3746 20.0878Z" fill="#FF6B00"/>
<path d="M45.9606 26.9981C45.322 23.2523 43.5567 19.8437 40.8442 17.1312C38.1317 14.4187 34.7231 12.6534 30.9773 12.0148C30.4534 11.9215 29.9583 12.2803 29.865 12.8041C29.7789 13.3351 30.1305 13.8303 30.6615 13.9236C34.0055 14.4905 37.0553 16.0763 39.4808 18.4946C41.9062 20.9201 43.4849 23.9699 44.0518 27.3139C44.1308 27.7875 44.5398 28.1176 45.0062 28.1176C45.0636 28.1176 45.1139 28.1104 45.1713 28.1032C45.6951 28.0243 46.0539 27.522 45.9606 26.9981Z" fill="#FF6B00"/>
</svg>
