<svg width="55" height="55" viewBox="0 0 55 55" fill="none" xmlns="http://www.w3.org/2000/svg">
<path d="M27.1123 27.0133C27.5953 27.0133 27.9868 26.6218 27.9868 26.1387C27.9868 25.6557 27.5953 25.2642 27.1123 25.2642C26.6292 25.2642 26.2377 25.6557 26.2377 26.1387C26.2377 26.6218 26.6292 27.0133 27.1123 27.0133Z" fill="#FF6B00"/>
<path d="M27.1122 30.5116C29.5235 30.5116 31.4852 28.5499 31.4852 26.1387C31.4852 25.2492 31.2149 24.4219 30.7566 23.7309L33.4504 21.0372C34.1422 21.4955 34.9686 21.7657 35.8581 21.7657C38.2693 21.7657 40.231 19.804 40.231 17.3928C40.231 14.9816 38.2693 13.0199 35.8581 13.0199C33.4469 13.0199 31.4852 14.9816 31.4852 17.3928C31.4852 18.2823 31.7554 19.1088 32.2137 19.8006L29.52 22.4943C28.8282 22.036 28.0017 21.7657 27.1122 21.7657C25.001 21.7657 23.2343 23.2709 22.8277 25.2641H20.8292C20.4672 24.2487 19.5051 23.5149 18.3664 23.5149C16.9198 23.5149 15.7426 24.6921 15.7426 26.1387C15.7426 27.5852 16.9198 28.7624 18.3664 28.7624C19.5051 28.7624 20.4672 28.0286 20.8292 27.0133H22.8277C23.2343 29.0064 25.001 30.5116 27.1122 30.5116ZM35.8581 14.7691C37.3047 14.7691 38.4818 15.9463 38.4818 17.3928C38.4818 18.8394 37.3047 20.0166 35.8581 20.0166C34.4115 20.0166 33.2343 18.8394 33.2343 17.3928C33.2343 15.9463 34.4115 14.7691 35.8581 14.7691ZM27.1122 23.5149C28.5588 23.5149 29.736 24.6921 29.736 26.1387C29.736 27.5852 28.5588 28.7624 27.1122 28.7624C25.6657 28.7624 24.4885 27.5852 24.4885 26.1387C24.4885 24.6921 25.6657 23.5149 27.1122 23.5149ZM18.3664 27.0133C17.8836 27.0133 17.4918 26.6206 17.4918 26.1387C17.4918 25.6568 17.8836 25.2641 18.3664 25.2641C18.8492 25.2641 19.241 25.6568 19.241 26.1387C19.241 26.6206 18.8492 27.0133 18.3664 27.0133Z" fill="#FF6B00"/>
<path d="M35.8581 18.2675C36.3411 18.2675 36.7327 17.8759 36.7327 17.3929C36.7327 16.9099 36.3411 16.5183 35.8581 16.5183C35.3751 16.5183 34.9835 16.9099 34.9835 17.3929C34.9835 17.8759 35.3751 18.2675 35.8581 18.2675Z" fill="#FF6B00"/>
<path d="M1.04526 41.0066H3.49847V48.0033H5.24764V39.2574H4.20251L6.99681 34.7857L9.7911 39.2574H8.74597V54.9999H10.4951V41.0066H12.9484L6.99681 31.485L1.04526 41.0066Z" fill="#FF6B00"/>
<path d="M3.49847 49.7524H5.24764V54.9999H3.49847V49.7524Z" fill="#FF6B00"/>
<path d="M43.7293 11.2708H45.4785V7.77243H44.4334L47.2277 3.30068L50.022 7.77243H48.9768V23.515H50.726V9.5216H53.1792L47.2277 0L41.2761 9.5216H43.7293V11.2708Z" fill="#FF6B00"/>
<path d="M53.3629 36.6241C52.5076 36.4815 51.7983 35.9174 51.4659 35.1154C51.1345 34.3143 51.2377 33.4144 51.7414 32.7086L52.2487 31.9984L47.4909 27.2398L46.7799 27.7479C46.1764 28.1782 45.4339 28.2963 44.7316 28.1205C45.1785 26.6495 45.4278 25.1041 45.4645 23.515H45.4785V13.0199H43.7293V15.6297C40.9482 9.9519 35.1261 6.02326 28.3883 6.02326H25.8362C24.8138 6.02326 23.8168 6.12996 22.8434 6.30226L18.4294 1.88823L17.1533 3.16337C16.9225 3.39426 16.5779 3.45898 16.2482 3.3243C15.9412 3.19923 15.7426 2.90712 15.7426 2.58002V0.775757H8.74597V2.58002C8.74597 2.90712 8.54744 3.19923 8.21859 3.33392C7.91161 3.46073 7.56528 3.39339 7.33614 3.16337L6.06012 1.88823L1.11259 6.83488L2.38774 8.11177C2.61863 8.34266 2.6851 8.68812 2.54954 9.01697C2.4236 9.32307 2.13148 9.5216 1.80439 9.5216H0.00012207V16.5183H1.80439C2.13061 16.5183 2.42272 16.7168 2.55828 17.0465C2.6851 17.3518 2.61775 17.6981 2.38686 17.929L1.11259 19.205L6.05924 24.1517L7.33526 22.8765C7.56615 22.6465 7.91074 22.58 8.24046 22.7156C8.54744 22.8407 8.74597 23.1328 8.74597 23.4599H8.75821C8.88503 29.8347 12.4699 35.5379 18.1932 38.3995L19.241 38.9234V41.0066C19.241 41.9713 20.0255 42.7558 20.9902 42.7558H24.4885V43.4975L25.3535 43.6409C25.9517 43.7406 26.4694 44.0554 26.8446 44.505H20.9902C20.0255 44.505 19.241 45.2895 19.241 46.2542V47.1287C19.241 51.4684 22.7717 55 27.1122 55C29.5856 55 31.7939 53.8508 33.2378 52.0605C33.6157 52.0378 33.9935 52.0981 34.3459 52.2433C35.1444 52.5739 35.7059 53.2797 35.8476 54.1342L35.9928 55H42.7227L42.8635 54.1394C43.0061 53.2832 43.5702 52.5739 44.373 52.2424C45.1724 51.911 46.0732 52.0124 46.7799 52.5179L47.4909 53.0252L52.2496 48.2666L51.7432 47.5582C51.2377 46.8506 51.1353 45.9489 51.4677 45.1452C51.7991 44.3449 52.5067 43.7826 53.3585 43.6409L54.2244 43.4975V36.7675L53.3629 36.6241ZM33.2343 44.505H32.8242C32.456 43.9557 32.1595 43.3724 31.9417 42.7558H33.2343C33.4285 42.7558 33.6122 42.7165 33.7862 42.6579C34.7509 44.7752 36.8822 46.2542 39.3564 46.2542C42.7314 46.2542 45.4785 43.508 45.4785 40.1321C45.4785 37.4191 43.7407 35.1294 41.2963 34.3222C41.6977 33.8613 42.0755 33.382 42.4245 32.8818C45.3228 34.1035 47.2277 36.9381 47.2277 40.1321C47.2277 44.4718 43.697 48.0033 39.3564 48.0033C37.7796 48.0033 36.2788 47.5407 34.9835 46.6713V46.2542C34.9835 45.2895 34.199 44.505 33.2343 44.505ZM36.7327 35.9787C36.256 36.2865 35.7654 36.5769 35.2494 36.8349L34.9835 36.9678V25.2641H36.7327V35.9787ZM34.9835 38.9234L36.0313 38.3995C37.4367 37.6963 38.711 36.8191 39.8401 35.8055C42.0432 36.0478 43.7293 37.8765 43.7293 40.1321C43.7293 42.5433 41.7677 44.505 39.3564 44.505C36.9452 44.505 34.9835 42.5433 34.9835 40.1321V38.9234ZM6.09947 21.6381L6.06012 21.6775L3.58679 19.2033L3.62528 19.1648C4.35818 18.4327 4.5742 17.3378 4.16752 16.3582C3.77133 15.3927 2.8434 14.7691 1.80439 14.7691H1.74929V11.2708H1.80439C2.8434 11.2708 3.77046 10.6472 4.17451 9.66328C4.57332 8.70212 4.3573 7.60714 3.62528 6.87511L3.58679 6.83575L6.06012 4.36155L6.09947 4.40004C6.8315 5.13206 7.92473 5.34634 8.90602 4.94228C9.87156 4.54697 10.4951 3.61903 10.4951 2.58002V2.52493H13.9935V2.58002C13.9935 3.61903 14.6171 4.54697 15.6018 4.95102C16.5648 5.34896 17.6589 5.13294 18.39 4.40178L18.4294 4.36243L20.8397 6.77278C19.6232 7.14536 18.4696 7.65874 17.3842 8.27969C16.0671 6.85587 14.1981 6.02326 12.2443 6.02326C8.38651 6.02326 5.24763 9.16215 5.24763 13.0199C5.24763 15.7119 6.80876 18.1354 9.19113 19.296C9.05644 19.8819 8.94975 20.4784 8.87803 21.0862C7.91774 20.6935 6.82888 20.9096 6.09947 21.6381ZM11.1712 14.3834C10.7601 14.0572 10.4951 13.5631 10.4951 13.0199C10.4951 12.0553 11.2796 11.2708 12.2443 11.2708C12.6108 11.2708 12.9527 11.3958 13.2431 11.6005C12.4621 12.4541 11.7677 13.3846 11.1712 14.3834ZM14.5034 10.356C13.8798 9.82596 13.0857 9.5216 12.2443 9.5216C10.315 9.5216 8.74597 11.0906 8.74597 13.0199C8.74597 14.2155 9.37304 15.3087 10.343 15.9446C10.0946 16.4798 9.87156 17.0282 9.67827 17.5914C8.04717 16.6731 6.9968 14.9344 6.9968 13.0199C6.9968 10.1259 9.35031 7.77243 12.2443 7.77243C13.606 7.77243 14.9083 8.31817 15.8791 9.25136C15.4007 9.59594 14.9433 9.96502 14.5034 10.356ZM18.9751 36.8349C18.4591 36.5769 17.9676 36.2856 17.4918 35.9787V32.2608H19.241V36.9678L18.9751 36.8349ZM15.7426 30.5116V34.665C12.4437 31.7981 10.4951 27.6351 10.4951 23.1135C10.4951 14.6545 17.3772 7.77243 25.8362 7.77243H28.3883C36.8472 7.77243 43.7293 14.6545 43.7293 23.1135C43.7293 27.6351 41.7808 31.7981 38.4818 34.665V23.515H33.2343V41.0066H29.736V32.2608H24.4885V41.0066H20.9902V30.5116H15.7426ZM27.9868 41.0066H26.2377V34.01H27.9868V41.0066ZM28.8614 44.4761C28.5711 43.7747 28.097 43.2001 27.5207 42.7558H30.1121C30.2835 43.3593 30.5161 43.9444 30.803 44.505H28.8702C28.8667 44.4954 28.8649 44.4857 28.8614 44.4761ZM27.1122 53.2508C23.7372 53.2508 20.9902 50.5046 20.9902 47.1287V46.2542H33.2343V47.1287C33.2343 50.5046 30.4873 53.2508 27.1122 53.2508ZM52.4752 42.0588C51.2928 42.4348 50.336 43.3059 49.8514 44.4761C49.366 45.6472 49.4273 46.9416 49.9966 48.0453L47.2697 50.7714C46.1677 50.2012 44.8742 50.1408 43.704 50.6253C42.5338 51.1098 41.661 52.0666 41.284 53.25H37.4297C37.0545 52.0684 36.1843 51.1107 35.0141 50.6262C34.7701 50.5248 34.5165 50.4565 34.2602 50.4023C34.5182 49.8408 34.7159 49.247 34.8366 48.6234C36.2193 49.3642 37.7568 49.7525 39.3564 49.7525C44.6608 49.7525 48.9769 45.4364 48.9769 40.1321C48.9769 36.3215 46.7545 32.9342 43.3524 31.3853C43.6384 30.8676 43.8981 30.335 44.129 29.7875C45.1812 30.0997 46.2998 29.993 47.2697 29.4927L49.9957 32.2188C49.4264 33.3208 49.3652 34.6152 49.8497 35.7854C50.3351 36.9564 51.2928 37.8284 52.4752 38.2054V42.0588Z" fill="#FF6B00"/>
</svg>
