<svg width="55" height="55" viewBox="0 0 55 55" fill="none" xmlns="http://www.w3.org/2000/svg">
<path d="M51.777 8.59375H49.1989V3.22266C49.1989 1.44568 47.7532 0 45.9762 0H9.02307C7.2461 0 5.80042 1.44568 5.80042 3.22266V8.59375H3.22229C1.44532 8.59375 -0.000366211 10.0394 -0.000366211 11.8164V42.7537C-0.000366211 44.5307 1.44532 45.9763 3.22229 45.9763H22.1285V48.5543H20.0849C18.308 48.5543 16.8623 49.9999 16.8623 51.7769V53.9258C16.8623 54.5191 17.3432 55 17.9365 55H37.0629C37.6562 55 38.1371 54.5191 38.1371 53.9258V51.7769C38.1371 49.9999 36.6914 48.5543 34.9144 48.5543H32.8707V45.9763H51.777C53.554 45.9763 54.9996 44.5307 54.9996 42.7537V11.8164C54.9996 10.0394 53.554 8.59375 51.777 8.59375ZM51.777 10.7422C52.3693 10.7422 52.8512 11.2241 52.8512 11.8164V36.5232H49.1989V10.7422H51.777ZM9.02307 2.14844H45.9762C46.5685 2.14844 47.0504 2.63033 47.0504 3.22266V8.59375H7.94885V3.22266C7.94885 2.63033 8.43075 2.14844 9.02307 2.14844ZM3.22229 10.7422H5.80042V18.7978C5.80042 19.391 6.28134 19.872 6.87463 19.872C7.46792 19.872 7.94885 19.391 7.94885 18.7978V10.7422H47.0504V36.5232H41.5719V32.9832C41.5719 32.39 41.091 31.909 40.4977 31.909H39.1C38.8543 31.0632 38.5172 30.25 38.0921 29.4773L39.0809 28.4886C39.5004 28.0691 39.5004 27.3889 39.0809 26.9693L35.8196 23.708C35.4001 23.2886 34.7199 23.2886 34.3003 23.708L33.3116 24.6968C32.539 24.2717 31.7257 23.9346 30.8799 23.689V22.2913C30.8799 21.698 30.399 21.2171 29.8057 21.2171H25.1934C24.6001 21.2171 24.1192 21.698 24.1192 22.2913V23.689C23.2733 23.9347 22.4602 24.2717 21.6875 24.6968L20.6988 23.708C20.2793 23.2886 19.5991 23.2886 19.1795 23.708L15.9182 26.9693C15.4987 27.3888 15.4987 28.069 15.9182 28.4886L16.907 29.4773C16.4818 30.2499 16.1447 31.0632 15.899 31.909H14.5016C13.9083 31.909 13.4274 32.39 13.4274 32.9832V36.5232H7.94885V28.4657C7.94885 27.8724 7.46792 27.3915 6.87463 27.3915C6.28134 27.3915 5.80042 27.8724 5.80042 28.4657V36.5232H2.14807V11.8164C2.14807 11.2241 2.62997 10.7422 3.22229 10.7422V10.7422ZM19.0181 28.5499L18.1971 27.7289L19.9393 25.9867L20.7603 26.8078C21.1188 27.166 21.679 27.2252 22.1044 26.9495C23.1209 26.2903 24.2356 25.8283 25.4176 25.5763C25.9134 25.4706 26.2678 25.0326 26.2678 24.5257V23.3653H28.7317V24.5257C28.7317 25.0326 29.086 25.4706 29.5819 25.5763C30.7638 25.8283 31.8785 26.2902 32.8951 26.9495C33.3205 27.2252 33.8807 27.1661 34.2392 26.8078L35.0602 25.9867L36.8024 27.7289L35.9813 28.5499C35.623 28.9084 35.5638 29.4686 35.8397 29.894C36.4988 30.9106 36.9608 32.0254 37.2128 33.2072C37.3185 33.703 37.7565 34.0575 38.2634 34.0575H39.4235V36.5232H32.7265C32.8221 36.1204 32.8714 35.7064 32.8714 35.2894C32.8714 32.3273 30.4616 29.9176 27.4996 29.9176C24.5377 29.9176 22.1279 32.3274 22.1279 35.2894C22.1279 35.7064 22.1772 36.1204 22.2728 36.5232H15.5758V34.0575H16.7361C17.243 34.0575 17.681 33.7031 17.7867 33.2072C18.0387 32.0253 18.5007 30.9105 19.1598 29.894C19.4357 29.4687 19.3766 28.9084 19.0181 28.5499V28.5499ZM24.2763 35.2894C24.2763 33.5121 25.7222 32.0661 27.4996 32.0661C29.277 32.0661 30.7229 33.5121 30.7229 35.2894C30.7229 35.7136 30.6371 36.1326 30.4741 36.5232H24.5251C24.3622 36.1326 24.2763 35.7136 24.2763 35.2894V35.2894ZM35.9885 51.7769V52.8516H19.0107V51.7769C19.0107 51.1846 19.4926 50.7027 20.0849 50.7027H34.9144C35.5068 50.7027 35.9885 51.1846 35.9885 51.7769ZM30.7223 48.5543H24.277V45.9763H30.7223V48.5543ZM51.777 43.8279H3.22229C2.62997 43.8279 2.14807 43.346 2.14807 42.7537V38.6717H52.8512V42.7537C52.8512 43.346 52.3693 43.8279 51.777 43.8279Z" fill="#FF6B00"/>
<path d="M30.7223 6.44531H42.3239C42.9171 6.44531 43.3981 5.96438 43.3981 5.37109C43.3981 4.7778 42.9171 4.29688 42.3239 4.29688H30.7223C30.129 4.29688 29.6481 4.7778 29.6481 5.37109C29.6481 5.96438 30.129 6.44531 30.7223 6.44531Z" fill="#FF6B00"/>
<path d="M17.402 6.44531C17.6845 6.44531 17.9616 6.33037 18.1615 6.13057C18.3613 5.93076 18.4762 5.65361 18.4762 5.37109C18.4762 5.08857 18.3613 4.81143 18.1615 4.61162C17.9616 4.41182 17.6845 4.29688 17.402 4.29688C17.1195 4.29688 16.8423 4.41182 16.6425 4.61162C16.4427 4.81143 16.3278 5.08857 16.3278 5.37109C16.3278 5.65361 16.4427 5.93076 16.6425 6.13057C16.8423 6.33037 17.1195 6.44531 17.402 6.44531Z" fill="#FF6B00"/>
<path d="M12.6754 6.44531C12.9579 6.44531 13.2351 6.33037 13.4349 6.13057C13.6347 5.93076 13.7496 5.65361 13.7496 5.37109C13.7496 5.08857 13.6347 4.81143 13.4349 4.61162C13.2351 4.41182 12.9579 4.29688 12.6754 4.29688C12.3929 4.29688 12.1157 4.41182 11.9159 4.61162C11.7161 4.81143 11.6012 5.08857 11.6012 5.37109C11.6012 5.65361 11.7161 5.93076 11.9159 6.13057C12.1157 6.33037 12.3929 6.44531 12.6754 6.44531Z" fill="#FF6B00"/>
<path d="M22.1285 6.44531C22.4111 6.44531 22.6882 6.33037 22.888 6.13057C23.0878 5.93076 23.2028 5.65361 23.2028 5.37109C23.2028 5.08857 23.0878 4.81143 22.888 4.61162C22.6882 4.41182 22.4111 4.29688 22.1285 4.29688C21.846 4.29688 21.5689 4.41182 21.3691 4.61162C21.1693 4.81143 21.0543 5.08857 21.0543 5.37109C21.0543 5.65361 21.1693 5.93076 21.3691 6.13057C21.5689 6.33037 21.846 6.44531 22.1285 6.44531Z" fill="#FF6B00"/>
<path d="M12.0309 15.8982H14.5873C15.1806 15.8982 15.6615 15.4173 15.6615 14.824C15.6615 14.2307 15.1806 13.7498 14.5873 13.7498H12.0309C11.4376 13.7498 10.9567 14.2307 10.9567 14.824C10.9567 15.4173 11.4376 15.8982 12.0309 15.8982Z" fill="#FF6B00"/>
<path d="M19.3139 15.8982H29.1685C29.7618 15.8982 30.2428 15.4173 30.2428 14.824C30.2428 14.2307 29.7618 13.7498 29.1685 13.7498H19.3139C18.7206 13.7498 18.2397 14.2307 18.2397 14.824C18.2397 15.4173 18.7206 15.8982 19.3139 15.8982Z" fill="#FF6B00"/>
<path d="M12.0309 21.0542H18.2614C18.8546 21.0542 19.3356 20.5733 19.3356 19.98C19.3356 19.3867 18.8546 18.9058 18.2614 18.9058H12.0309C11.4376 18.9058 10.9567 19.3867 10.9567 19.98C10.9567 20.5733 11.4376 21.0542 12.0309 21.0542Z" fill="#FF6B00"/>
<path d="M33.8951 15.8982H42.9684C43.5617 15.8982 44.0426 15.4173 44.0426 14.824C44.0426 14.2307 43.5617 13.7498 42.9684 13.7498H33.8951C33.3018 13.7498 32.8209 14.2307 32.8209 14.824C32.8209 15.4173 33.3018 15.8982 33.8951 15.8982Z" fill="#FF6B00"/>
<path d="M42.9684 18.9058H35.6165C35.0233 18.9058 34.5423 19.3867 34.5423 19.98C34.5423 20.5733 35.0233 21.0542 35.6165 21.0542H42.9684C43.5617 21.0542 44.0426 20.5733 44.0426 19.98C44.0426 19.3867 43.5617 18.9058 42.9684 18.9058Z" fill="#FF6B00"/>
<path d="M6.87463 24.7061C7.15715 24.7061 7.4343 24.5911 7.63411 24.3913C7.83391 24.1915 7.94885 23.9144 7.94885 23.6318C7.94885 23.3493 7.83391 23.0722 7.63411 22.8724C7.4343 22.6726 7.15715 22.5576 6.87463 22.5576C6.59211 22.5576 6.31497 22.6726 6.11516 22.8724C5.91536 23.0722 5.80042 23.3493 5.80042 23.6318C5.80042 23.9144 5.91536 24.1915 6.11516 24.3913C6.31497 24.5911 6.59211 24.7061 6.87463 24.7061V24.7061Z" fill="#FF6B00"/>
</svg>
