<svg width="55" height="55" viewBox="0 0 55 55" fill="none" xmlns="http://www.w3.org/2000/svg">
<path d="M30.5741 54.6068H24.0327C23.5599 54.6068 23.1795 54.2264 23.1795 53.7536V49.2492C20.1576 48.684 17.2531 47.4788 14.7076 45.7368L11.5222 48.9222C11.188 49.2563 10.6476 49.2563 10.317 48.9222L5.68465 44.2969C5.35047 43.9627 5.35047 43.4224 5.68465 43.0917L8.87005 39.9063C7.12804 37.3609 5.92285 34.4563 5.35758 31.4345H0.853231C0.380399 31.4345 0 31.0541 0 30.5812V24.0327C0 23.5599 0.380399 23.1795 0.853231 23.1795H5.35758C5.92285 20.1576 7.12804 17.2531 8.87005 14.7076L5.68465 11.5186C5.52467 11.3586 5.4358 11.1418 5.4358 10.9143C5.4358 10.6867 5.52467 10.4699 5.68465 10.3099L10.3099 5.68465C10.4699 5.52467 10.6867 5.4358 10.9143 5.4358C11.1418 5.4358 11.3586 5.52467 11.5186 5.68465L14.704 8.87005C17.2531 7.12804 20.154 5.92285 23.1759 5.35758V0.853231C23.1759 0.380399 23.5563 0 24.0291 0H30.5741C31.047 0 31.4274 0.380399 31.4274 0.853231V5.35758C34.4492 5.92285 37.3538 7.12804 39.8992 8.87005L43.0846 5.68465C43.2446 5.52467 43.4615 5.4358 43.689 5.4358C43.9165 5.4358 44.1334 5.52467 44.2934 5.68465L48.9222 10.3099C49.2563 10.6441 49.2563 11.1844 48.9222 11.5151L45.7368 14.7005C47.4788 17.2459 48.684 20.1505 49.2492 23.1723H53.7536C54.2264 23.1723 54.6068 23.5527 54.6068 24.0256V30.5741C54.6068 31.047 54.2264 31.4274 53.7536 31.4274H49.2492C48.684 34.4492 47.4788 37.3538 45.7368 39.8992L48.9222 43.0846C49.2563 43.4188 49.2563 43.9592 48.9222 44.2898L44.2969 48.9222C43.9627 49.2563 43.4224 49.2563 43.0917 48.9222L39.9063 45.7368C37.3609 47.4788 34.4563 48.684 31.4345 49.2492V53.7536C31.4274 54.2264 31.047 54.6068 30.5741 54.6068ZM24.8859 52.9003H29.7209V48.5311C29.7209 48.108 30.0302 47.7525 30.4461 47.6885C33.6991 47.1908 36.8276 45.8932 39.4904 43.9379C39.8317 43.689 40.301 43.7246 40.5996 44.0232L43.6926 47.1162L47.1126 43.6961L44.0196 40.6031C43.721 40.3045 43.6855 39.8352 43.9343 39.494C45.8896 36.8312 47.1873 33.7026 47.685 30.4497C47.749 30.0337 48.108 29.7244 48.5275 29.7244H52.9003V24.8859H48.5311C48.108 24.8859 47.7525 24.5766 47.6885 24.1607C47.1908 20.9077 45.8932 17.7792 43.9379 15.1164C43.689 14.7751 43.7246 14.3058 44.0232 14.0072L47.1162 10.9143L43.6961 7.49422L40.6031 10.5872C40.3045 10.8858 39.8352 10.9214 39.494 10.6725C36.8312 8.71718 33.7026 7.41956 30.4497 6.92184C30.0337 6.85785 29.7244 6.49878 29.7244 6.07927V1.70646H24.8859V6.07927C24.8859 6.50233 24.5766 6.85785 24.1607 6.92184C20.9077 7.41956 17.7792 8.71718 15.1164 10.6725C14.7751 10.9214 14.3058 10.8858 14.0072 10.5872L10.9143 7.49422L7.49422 10.9143L10.5872 14.0072C10.8858 14.3058 10.9214 14.7751 10.6725 15.1164C8.71718 17.7792 7.41956 20.9077 6.92184 24.1607C6.85785 24.5766 6.49878 24.8859 6.07927 24.8859H1.70646V29.7209H6.07927C6.50233 29.7209 6.85785 30.0302 6.92184 30.4461C7.41956 33.6991 8.71718 36.8276 10.6725 39.4904C10.9214 39.8317 10.8858 40.301 10.5872 40.5996L7.49422 43.6926L10.9143 47.1126L14.0072 44.0196C14.3058 43.721 14.7751 43.6855 15.1164 43.9343C17.7792 45.8896 20.9077 47.1873 24.1607 47.685C24.5766 47.749 24.8859 48.108 24.8859 48.5275V52.9003Z" fill="#FF6B00"/>
<path d="M27.3033 42.953C25.1915 42.953 23.1402 42.5406 21.2134 41.7229C19.3505 40.9337 17.676 39.8067 16.2397 38.3705C14.8035 36.9342 13.6765 35.2597 12.8872 33.3968C12.0696 31.4664 11.6572 29.4186 11.6572 27.3069C11.6572 25.1951 12.0696 23.1438 12.8872 21.217C13.6765 19.3541 14.8035 17.6796 16.2397 16.2433C17.676 14.8071 19.3505 13.6801 21.2134 12.8908C23.1438 12.0732 25.1915 11.6608 27.3033 11.6608C29.415 11.6608 31.4664 12.0732 33.3932 12.8908C35.2561 13.6801 36.9306 14.8071 38.3669 16.2433C39.8031 17.6796 40.9301 19.3541 41.7193 21.217C42.537 23.1474 42.9494 25.1951 42.9494 27.3069C42.9494 29.4186 42.537 31.47 41.7193 33.3968C40.9301 35.2597 39.8031 36.9342 38.3669 38.3705C36.9306 39.8067 35.2561 40.9337 33.3932 41.7229C31.4664 42.5371 29.415 42.953 27.3033 42.953ZM27.3033 13.3601C19.6171 13.3601 13.3601 19.6136 13.3601 27.3033C13.3601 34.9931 19.6135 41.2466 27.3033 41.2466C34.993 41.2466 41.2465 34.9931 41.2465 27.3033C41.2465 19.6136 34.9895 13.3601 27.3033 13.3601Z" fill="#FF6B00"/>
<path d="M22.4613 31.6123C22.28 31.6123 22.0987 31.5554 21.9458 31.4381L17.4237 27.9825C17.2139 27.8225 17.0895 27.5701 17.0895 27.3035C17.0895 27.0368 17.2139 26.788 17.4237 26.6244L21.9458 23.1689C22.3191 22.8844 22.8559 22.9555 23.1403 23.3288C23.4247 23.7021 23.3536 24.2389 22.9803 24.5234L19.347 27.3035L22.9803 30.08C23.3536 30.3644 23.4283 30.9013 23.1403 31.2746C22.9732 31.495 22.7208 31.6123 22.4613 31.6123Z" fill="#FF6B00"/>
<path d="M32.1453 31.6121C31.8894 31.6121 31.6334 31.4984 31.4663 31.278C31.1819 30.9047 31.253 30.3678 31.6263 30.0834L35.2596 27.3069L31.6263 24.5303C31.253 24.2459 31.1783 23.7091 31.4663 23.3358C31.7507 22.9625 32.2875 22.8914 32.6608 23.1758L37.183 26.6314C37.3927 26.7914 37.5171 27.0438 37.5171 27.3104C37.5171 27.5771 37.3927 27.8259 37.183 27.9895L32.6608 31.445C32.508 31.5553 32.3231 31.6121 32.1453 31.6121Z" fill="#FF6B00"/>
<path d="M25.8244 33.4431C25.7497 33.4431 25.6715 33.4324 25.5933 33.4111C25.1383 33.2831 24.8752 32.8138 24.9996 32.3588L27.9539 21.7823C28.0819 21.3272 28.5512 21.0641 29.0062 21.1885C29.4613 21.3165 29.7244 21.7858 29.5999 22.2409L26.6456 32.8174C26.5425 33.1978 26.1977 33.4431 25.8244 33.4431Z" fill="#FF6B00"/>
</svg>
