<svg width="56" height="55" viewBox="0 0 56 55" fill="none" xmlns="http://www.w3.org/2000/svg">
<path d="M30.7628 5.49984H25.1695C24.655 5.49984 24.2373 5.08917 24.2373 4.58317C24.2373 4.07717 24.655 3.6665 25.1695 3.6665H30.7628C31.2773 3.6665 31.695 4.07717 31.695 4.58317C31.695 5.08917 31.2773 5.49984 30.7628 5.49984Z" fill="#FF6B00"/>
<path d="M38.2204 55.0002H17.712C15.1409 55.0002 13.0509 52.9432 13.0509 50.4168V19.2502C13.0509 18.7442 13.4686 18.3335 13.9832 18.3335C14.4977 18.3335 14.9154 18.7442 14.9154 19.2502V50.4168C14.9154 51.933 16.1701 53.1668 17.712 53.1668H38.2204C39.7623 53.1668 41.0171 51.933 41.0171 50.4168V19.2502C41.0171 18.7442 41.4347 18.3335 41.9493 18.3335C42.4638 18.3335 42.8815 18.7442 42.8815 19.2502V50.4168C42.8815 52.9432 40.7915 55.0002 38.2204 55.0002Z" fill="#FF6B00"/>
<path d="M41.9493 25.6667C41.4347 25.6667 41.0171 25.256 41.0171 24.75V4.58333C41.0171 3.06717 39.7623 1.83333 38.2204 1.83333H17.712C16.1701 1.83333 14.9154 3.06717 14.9154 4.58333V24.75C14.9154 25.256 14.4977 25.6667 13.9832 25.6667C13.4686 25.6667 13.0509 25.256 13.0509 24.75V4.58333C13.0509 2.057 15.1409 0 17.712 0H38.2204C40.7915 0 42.8815 2.057 42.8815 4.58333V24.75C42.8815 25.256 42.4638 25.6667 41.9493 25.6667Z" fill="#FF6B00"/>
<path d="M47.5423 9.2585C47.0277 9.2585 46.6101 8.9395 46.6101 8.4335V8.25016C46.6101 7.74416 47.0277 7.3335 47.5423 7.3335C48.0569 7.3335 48.4745 7.74416 48.4745 8.25016C48.4745 8.75616 48.0569 9.2585 47.5423 9.2585Z" fill="#FF6B00"/>
<path d="M47.5422 12.925C47.0277 12.925 46.61 12.606 46.61 12.1V11.9167C46.61 11.4107 47.0277 11 47.5422 11C48.0568 11 48.4745 11.4107 48.4745 11.9167C48.4745 12.4227 48.0568 12.925 47.5422 12.925Z" fill="#FF6B00"/>
<path d="M47.5422 16.5915C47.0277 16.5915 46.61 16.2725 46.61 15.7665V15.5832C46.61 15.0772 47.0277 14.6665 47.5422 14.6665C48.0568 14.6665 48.4745 15.0772 48.4745 15.5832C48.4745 16.0892 48.0568 16.5915 47.5422 16.5915V16.5915Z" fill="#FF6B00"/>
<path d="M8.39021 40.2417C7.87563 40.2417 7.45801 39.9227 7.45801 39.4167V39.2333C7.45801 38.7273 7.87563 38.3167 8.39021 38.3167C8.90479 38.3167 9.32241 38.7273 9.32241 39.2333C9.32241 39.7393 8.90479 40.2417 8.39021 40.2417Z" fill="#FF6B00"/>
<path d="M8.39021 43.9084C7.87563 43.9084 7.45801 43.5894 7.45801 43.0834V42.9001C7.45801 42.3941 7.87563 41.9834 8.39021 41.9834C8.90479 41.9834 9.32241 42.3941 9.32241 42.9001C9.32241 43.4061 8.90479 43.9084 8.39021 43.9084Z" fill="#FF6B00"/>
<path d="M8.39021 47.5749C7.87563 47.5749 7.45801 47.2559 7.45801 46.7499V46.5666C7.45801 46.0606 7.87563 45.6499 8.39021 45.6499C8.90479 45.6499 9.32241 46.0606 9.32241 46.5666C9.32241 47.0726 8.90479 47.5749 8.39021 47.5749Z" fill="#FF6B00"/>
<path d="M44.4492 47.6667C44.384 47.6667 44.3168 47.6612 44.2516 47.6465C43.7482 47.5402 43.4294 47.0525 43.5375 46.5575L44.1528 43.7525C44.2274 43.4078 44.4977 43.1383 44.8445 43.0558C45.7245 42.8468 46.5821 42.4948 47.3931 42.009C47.6933 41.8257 48.0792 41.8312 48.3794 42.0182L50.2252 43.1787L51.368 42.0457L50.1879 40.2453C49.994 39.9502 49.9902 39.5707 50.1748 39.2718C50.6689 38.4743 51.0268 37.631 51.2375 36.7657C51.3214 36.4247 51.5936 36.1607 51.9423 36.0837L54.0677 35.6198V34.0487L51.9441 33.5848C51.5955 33.5078 51.3233 33.2438 51.2394 32.9028C51.0287 32.0375 50.6689 31.1942 50.1767 30.3967C49.9902 30.0978 49.994 29.7202 50.1879 29.425L51.3699 27.6082L50.2289 26.4862L48.3813 27.6485C48.0811 27.8373 47.697 27.841 47.395 27.6577C46.5821 27.1718 45.7245 26.8198 44.8463 26.6108C44.4977 26.5283 44.2292 26.257 44.1546 25.9142L43.696 23.8333H42.8813C42.3667 23.8333 41.9491 23.4227 41.9491 22.9167C41.9491 22.4107 42.3667 22 42.8813 22H44.4474C44.8855 22 45.2658 22.3025 45.3572 22.7242L45.855 24.9847C46.5374 25.1882 47.2067 25.4632 47.8518 25.806L49.8541 24.5465C50.2233 24.3155 50.7043 24.3668 51.0157 24.6712L53.2175 26.8345C53.527 27.1388 53.5792 27.6137 53.3424 27.9767L52.0616 29.9457C52.4102 30.5818 52.6899 31.24 52.8968 31.9128L55.1994 32.4152C55.6282 32.5087 55.9321 32.8827 55.9321 33.3117V36.355C55.9321 36.784 55.6282 37.158 55.2013 37.2497L52.8987 37.752C52.6918 38.4248 52.4121 39.083 52.0635 39.7173L53.3424 41.668C53.5811 42.0292 53.5307 42.5058 53.2213 42.8102L51.0194 44.9918C50.708 45.298 50.2252 45.3493 49.856 45.1183L47.8536 43.8588C47.2067 44.2017 46.5392 44.4767 45.8568 44.6802L45.3591 46.9407C45.264 47.3733 44.8762 47.6667 44.4492 47.6667Z" fill="#FF6B00"/>
<path d="M45.475 39.5598C45.1766 39.5598 44.8821 39.4168 44.7012 39.1547C44.4141 38.7348 44.5278 38.1647 44.9566 37.8823C45.9914 37.1967 46.6104 36.0563 46.6104 34.8335C46.6104 32.8113 44.938 31.1668 42.8816 31.1668C42.628 31.1668 42.3763 31.1925 42.1358 31.2402C41.6361 31.3392 41.1383 31.0238 41.0339 30.5252C40.9314 30.0283 41.2558 29.5443 41.7611 29.4435C42.1265 29.372 42.5031 29.3335 42.8816 29.3335C45.9653 29.3335 48.4748 31.8012 48.4748 34.8335C48.4748 36.6687 47.5482 38.3773 45.9933 39.404C45.8348 39.5085 45.6539 39.5598 45.475 39.5598V39.5598Z" fill="#FF6B00"/>
<path d="M13.0512 25.6668C9.9675 25.6668 7.45801 23.1991 7.45801 20.1668C7.45801 18.3243 8.39021 16.6138 9.95258 15.5871C10.3758 15.3084 10.9575 15.4184 11.2446 15.8419C11.5299 16.2618 11.4143 16.8319 10.9855 17.1124C9.94513 17.7981 9.32241 18.9384 9.32241 20.1668C9.32241 22.1889 10.9948 23.8334 13.0512 23.8334C13.3011 23.8334 13.5472 23.8096 13.7821 23.7619C14.2761 23.6611 14.7777 23.9819 14.8802 24.4806C14.9828 24.9774 14.6546 25.4596 14.1494 25.5586C13.7933 25.6301 13.4278 25.6668 13.0512 25.6668V25.6668Z" fill="#FF6B00"/>
<path d="M13.0508 33.0001H11.4847C11.0466 33.0001 10.6663 32.6976 10.5749 32.2759L10.0771 30.0154C9.39475 29.8119 8.72542 29.5369 8.08034 29.1941L6.07797 30.4536C5.70695 30.6846 5.2278 30.6351 4.91644 30.3289L2.71458 28.1656C2.40508 27.8612 2.35288 27.3864 2.58966 27.0234L3.87051 25.0544C3.52186 24.4182 3.2422 23.7601 3.03525 23.0872L0.732712 22.5849C0.303898 22.4914 0 22.1174 0 21.6884V18.6451C0 18.2161 0.303898 17.8421 0.730847 17.7504L3.03339 17.2481C3.24034 16.5752 3.52 15.9171 3.86864 15.2827L2.59153 13.3302C2.35288 12.9691 2.40322 12.4924 2.71271 12.1881L4.91458 10.0064C5.2222 9.69839 5.70695 9.64706 6.07797 9.87989L8.08034 11.1394C8.72729 10.7966 9.39475 10.5216 10.0771 10.3181L10.5749 8.05756C10.6831 7.56072 11.1883 7.24539 11.6824 7.35539C12.1858 7.46172 12.5046 7.94939 12.3964 8.44439L11.7812 11.2494C11.7066 11.5941 11.4363 11.8636 11.0895 11.9461C10.2095 12.1551 9.35186 12.5071 8.53898 12.9929C8.23695 13.1762 7.85288 13.1707 7.55271 12.9837L5.70695 11.8232L4.5622 12.9562L5.74237 14.7566C5.93814 15.0517 5.94186 15.4312 5.75542 15.7301C5.26136 16.5276 4.90339 17.3709 4.69271 18.2362C4.60881 18.5772 4.33661 18.8412 3.98797 18.9182L1.86441 19.3802V20.9514L3.98797 21.4152C4.33661 21.4922 4.60881 21.7562 4.69271 22.0972C4.90339 22.9626 5.26322 23.8059 5.75542 24.6034C5.94186 24.9022 5.93814 25.2799 5.74424 25.5751L4.5622 27.3901L5.70322 28.5121L7.55085 27.3497C7.85102 27.1627 8.23695 27.1591 8.53712 27.3406C9.35 27.8264 10.2076 28.1784 11.0858 28.3874C11.4344 28.4699 11.7029 28.7412 11.7775 29.0841L12.2361 31.1667H13.0508C13.5654 31.1667 13.9831 31.5774 13.9831 32.0834C13.9831 32.5894 13.5654 33.0001 13.0508 33.0001V33.0001Z" fill="#FF6B00"/>
<path d="M27.0341 32.0831C26.9595 32.0831 26.8849 32.074 26.8085 32.0556C26.307 31.9328 26.0049 31.436 26.1299 30.9446L27.9943 23.6113C28.1173 23.1181 28.6151 22.8211 29.1241 22.944C29.6256 23.0668 29.9276 23.5636 29.8027 24.055L27.9383 31.3883C27.8339 31.8063 27.4536 32.0831 27.0341 32.0831V32.0831Z" fill="#FF6B00"/>
<path d="M32.6273 32.0835C32.3886 32.0835 32.15 31.9937 31.9673 31.8158C31.6037 31.4583 31.6037 30.8772 31.9673 30.5197L35.0379 27.5002L31.9691 24.4825C31.6056 24.125 31.6056 23.5438 31.9691 23.1863C32.3327 22.8288 32.9237 22.8288 33.2873 23.1863L37.0161 26.853C37.3796 27.2105 37.3796 27.7917 37.0161 28.1492L33.2873 31.8158C33.1046 31.9937 32.8659 32.0835 32.6273 32.0835Z" fill="#FF6B00"/>
<path d="M23.3051 32.0835C23.0665 32.0835 22.8278 31.9937 22.6451 31.8158L18.9163 28.1492C18.5528 27.7917 18.5528 27.2105 18.9163 26.853L22.6451 23.1863C23.0087 22.8288 23.5997 22.8288 23.9633 23.1863C24.3268 23.5438 24.3268 24.125 23.9633 24.4825L20.8945 27.5002L23.9633 30.5178C24.3268 30.8753 24.3268 31.4565 23.9633 31.814C23.7824 31.9937 23.5438 32.0835 23.3051 32.0835V32.0835Z" fill="#FF6B00"/>
</svg>
