<svg width="546" height="573" viewBox="0 0 546 573" fill="none" xmlns="http://www.w3.org/2000/svg">
<path d="M145.875 460.987L168.268 483.33" stroke="#010101" stroke-width="1.65" stroke-linecap="round" stroke-linejoin="round"/>
<path d="M68.9922 384.237L110.153 425.343" stroke="#010101" stroke-width="1.65" stroke-linecap="round" stroke-linejoin="round"/>
<path d="M138.738 389.21L293.826 543.916" stroke="#010101" stroke-width="1.65" stroke-linecap="round" stroke-linejoin="round"/>
<path d="M59.7026 310.313L91.1204 341.698" stroke="#010101" stroke-width="1.65" stroke-linecap="round" stroke-linejoin="round"/>
<path d="M250.211 435.743L386.644 571.873" stroke="#FFAF00" stroke-width="1.65" stroke-linecap="round" stroke-linejoin="round"/>
<path d="M44.3335 230.323L189.792 375.496" stroke="#FFAF00" stroke-width="1.65" stroke-linecap="round" stroke-linejoin="round"/>
<path d="M158.374 279.492L399.219 519.764" stroke="#010101" stroke-width="1.65" stroke-linecap="round" stroke-linejoin="round"/>
<path d="M58.7964 180.135L109.775 231" stroke="#010101" stroke-width="1.65" stroke-linecap="round" stroke-linejoin="round"/>
<path d="M357.228 413.211L415.116 470.971" stroke="#010101" stroke-width="1.65" stroke-linecap="round" stroke-linejoin="round"/>
<path d="M1.13428 57.9082L296.356 352.474" stroke="#010101" stroke-width="1.65" stroke-linecap="round" stroke-linejoin="round"/>
<path d="M237.9 229.531L526.325 517.278" stroke="#FFAF00" stroke-width="1.65" stroke-linecap="round" stroke-linejoin="round"/>
<path d="M110.53 102.406L177.52 169.284" stroke="#FFAF00" stroke-width="1.65" stroke-linecap="round" stroke-linejoin="round"/>
<path d="M293.901 220.715L480.18 406.58" stroke="#010101" stroke-width="1.65" stroke-linecap="round" stroke-linejoin="round"/>
<path d="M103.695 30.9307L241.375 168.304" stroke="#010101" stroke-width="1.65" stroke-linecap="round" stroke-linejoin="round"/>
<path d="M447.554 309.371L544.866 406.467" stroke="#FFAF00" stroke-width="1.65" stroke-linecap="round" stroke-linejoin="round"/>
<path d="M187.828 50.2217L376.864 238.837" stroke="#FFAF00" stroke-width="1.65" stroke-linecap="round" stroke-linejoin="round"/>
<path d="M353.3 150.633L484.749 281.828" stroke="#010101" stroke-width="1.65" stroke-linecap="round" stroke-linejoin="round"/>
<path d="M203.424 1.12744L301.755 99.2031" stroke="#010101" stroke-width="1.65" stroke-linecap="round" stroke-linejoin="round"/>
<path d="M470.135 202.591L521.265 253.607" stroke="#FFAF00" stroke-width="1.65" stroke-linecap="round" stroke-linejoin="round"/>
<path d="M282.082 14.9551L411.718 144.266" stroke="#FFAF00" stroke-width="1.65" stroke-linecap="round" stroke-linejoin="round"/>
<path d="M443.551 111.411L474.969 142.759" stroke="#010101" stroke-width="1.65" stroke-linecap="round" stroke-linejoin="round"/>
<path d="M388.381 56.3633L410.056 77.9527" stroke="#010101" stroke-width="1.65" stroke-linecap="round" stroke-linejoin="round"/>
</svg>
